<svg width="493" height="350" viewBox="0 0 493 350" fill="none" xmlns="http://www.w3.org/2000/svg">
<g clip-path="url(#clip0_9205_76408)">
<path opacity="0.5" d="M224.818 169.631C205.412 215.369 152.576 236.71 106.846 217.294C61.0954 197.877 39.7549 145.067 59.1821 99.3085C78.6093 53.5707 131.424 32.2292 177.154 51.6458C222.905 71.0833 244.245 123.893 224.818 169.631Z" fill="#FFE9A8"/>
<path fill-rule="evenodd" clip-rule="evenodd" d="M225.015 65.9941C227.112 65.4409 228.346 65.0438 229.009 63.4692L231.877 64.6783C230.583 67.7483 227.883 68.4582 225.95 68.9663C225.903 68.9788 225.855 68.9912 225.809 69.0035C223.712 69.5567 222.474 69.9542 221.806 71.5309C221.137 73.1097 221.713 74.2844 222.773 76.1855C222.798 76.2289 222.822 76.2727 222.847 76.317C223.825 78.0659 225.189 80.505 223.897 83.5683L223.896 83.5709C222.597 86.6365 219.902 87.3472 217.97 87.8564C217.922 87.8692 217.874 87.8819 217.826 87.8944C215.733 88.4482 214.496 88.8473 213.827 90.4295C213.161 92.0086 213.738 93.1821 214.797 95.082C214.821 95.1239 214.844 95.1661 214.868 95.2088C215.846 96.9593 217.209 99.3979 215.918 102.467L215.917 102.468C214.623 105.538 211.923 106.248 209.99 106.756C209.943 106.769 209.895 106.781 209.849 106.793C207.752 107.347 206.514 107.744 205.846 109.321C205.177 110.9 205.753 112.075 206.813 113.976C206.836 114.019 206.86 114.062 206.884 114.105C207.862 115.855 209.225 118.296 207.926 121.361C206.627 124.427 203.932 125.137 202 125.646C201.952 125.659 201.904 125.672 201.856 125.684C199.763 126.238 198.526 126.637 197.857 128.22C197.186 129.805 197.763 130.981 198.822 132.88C198.846 132.922 198.87 132.966 198.895 133.009C199.872 134.758 201.235 137.196 199.936 140.261C198.637 143.327 195.942 144.037 194.01 144.546C193.962 144.559 193.914 144.572 193.866 144.584C191.773 145.138 190.536 145.537 189.867 147.12L187 145.908C188.3 142.834 190.999 142.122 192.933 141.612C192.979 141.6 193.025 141.588 193.07 141.576C195.166 141.021 196.402 140.624 197.07 139.047C197.739 137.468 197.164 136.296 196.104 134.396C196.081 134.354 196.057 134.312 196.034 134.269C195.055 132.518 193.692 130.078 194.99 127.008C196.29 123.934 198.989 123.222 200.923 122.712C200.969 122.7 201.015 122.688 201.06 122.676C203.156 122.121 204.392 121.724 205.06 120.147C205.73 118.568 205.154 117.393 204.094 115.491C204.07 115.449 204.046 115.406 204.022 115.363C203.045 113.612 201.682 111.172 202.98 108.107C204.28 105.039 206.98 104.33 208.913 103.822C208.961 103.809 209.008 103.796 209.055 103.784C211.152 103.231 212.385 102.834 213.049 101.26C213.716 99.6745 213.138 98.4968 212.079 96.5981C212.055 96.5552 212.031 96.5118 212.007 96.4681C211.029 94.7194 209.668 92.2829 210.959 89.2192L210.96 89.2178C212.26 86.1438 214.959 85.4321 216.893 84.922C216.939 84.9098 216.985 84.8977 217.03 84.8856C219.125 84.3314 220.361 83.9344 221.03 82.3586C221.695 80.7799 221.117 79.6046 220.056 77.7021C220.032 77.6603 220.009 77.6181 219.985 77.5755C219.006 75.8247 217.641 73.3833 218.94 70.3167C220.24 67.2495 222.94 66.5397 224.873 66.0316C224.921 66.019 224.968 66.0065 225.015 65.9941Z" fill="#FDB714"/>
<g clip-path="url(#clip1_9205_76408)">
<path d="M121.229 112.665L124.071 90.7632L126.675 92.4206L143.368 118.466L146.091 124.03L153.668 148.418L139.935 152.088L133.186 129.713L121.229 112.665Z" fill="#F04E30"/>
<path d="M117.914 63.2972L116.731 62.9421L115.547 63.6524L116.494 56.0756L113.534 48.6171L109.39 44L106.194 48.0252L88.4358 54.8917L89.3829 63.534L88.4358 62.9421L87.252 63.2972V68.9798L90.33 71.8212L91.5139 82.8312L93.7633 83.5416V90.7632L102.524 92.6574L111.048 90.7632V83.4232L113.297 82.7128L114.6 72.0579L117.914 68.9798V63.2972Z" fill="#FFDCA8"/>
<path d="M81.806 91L78.3728 91.8287L61.5617 116.098L45.6977 109.35L45.4609 123.083L62.7456 132.791L70.6776 130.542L82.6347 111.126L81.806 91Z" fill="#F04E30"/>
<path d="M88.4358 54.8917L106.194 48.0252L109.39 44L113.534 48.6171L116.494 56.0756L115.665 65.9018H114.244L113.179 57.6146L91.6323 59.9824L90.5668 65.9018H89.2645L88.4358 54.8917Z" fill="#FDB714"/>
<path d="M122.768 156.824H82.2796L79.9119 90.7632H95.3023L102.524 93.7229L109.627 90.7632H125.254L122.768 156.824Z" fill="#8ED8F8"/>
<path d="M102.524 92.6574L93.7632 90.7632L102.405 101.773L111.048 90.7632L102.524 92.6574Z" fill="#F04E30"/>
<path d="M99.4459 137.526C99.4459 136.106 98.2675 134.922 96.8535 134.922H26.27C24.856 134.922 23.6776 136.106 23.6776 137.526V138.237C23.6776 139.657 24.856 140.841 26.27 140.841H96.8535C98.2675 140.841 99.4459 139.657 99.4459 138.237V137.526Z" fill="#72838A"/>
<path d="M78.0184 137.467C78.2536 138.311 78.136 139.154 77.6656 139.877C77.1953 140.48 76.4897 140.841 75.6666 140.841H23.2211C21.81 140.841 20.6341 139.636 20.6341 138.19L8.28711 103.361C8.28711 103.241 8.28711 103.241 8.28711 103.12C8.4047 101.674 9.46302 100.589 10.8741 100.589H63.3195C64.7306 100.589 65.4362 101.795 65.9066 103.241L78.0184 137.467Z" fill="#D9DEE0"/>
<path d="M45.2242 117.164L40.9622 120.242L36.2267 118.111L35.7532 112.902L39.8968 109.824L44.6323 111.955L45.2242 117.164Z" fill="white"/>
<rect x="7.10327" y="152.68" width="157.456" height="79.3199" fill="#1268B3"/>
<path d="M164.559 232H7.10327L164.559 164.519V232Z" fill="#8ED8F8"/>
<path d="M171.662 140.841H0V152.68H171.662V140.841Z" fill="#00377B"/>
</g>
<path d="M12.96 286H1.44V269.2H12.96V286ZM5.04 282.64H9.36V272.56H5.04V282.64ZM18.9506 286V276.16H15.5906V273.04H25.6706V276.16H22.3106V286H18.9506ZM28.0809 286V273.04H31.4409V286H28.0809ZM35.2809 279.52L38.6409 286H35.1609L31.8009 279.52L34.9209 273.04H38.4009L35.2809 279.52ZM40.8066 273.04H44.1666V274.48L46.8066 273.04H50.8866V286H44.1666V290.56H40.8066V273.04ZM47.5266 276.16H45.9666L44.1666 277.12V282.88H47.5266V276.16ZM57.5953 273.04V277.12H63.8353V286H54.2353V273.04H57.5953ZM60.4753 282.88V280.24H57.5953V282.88H60.4753ZM69.1153 286H65.7553V273.04H69.1153V286ZM74.8688 286V276.16H71.5088V273.04H81.5888V276.16H78.2288V286H74.8688ZM94.0791 286H90.7191V279.64L84.4791 286.36H83.9991V273.04H87.3591V279.4L93.5991 272.68H94.0791V286ZM107.028 282.88V286H97.4278V273.04H107.508V280.96H100.788V282.88H107.028ZM104.148 278.08V275.92H100.788V278.08H104.148ZM126.584 286H116.504V273.04H126.584V286ZM123.224 282.88V276.16H119.864V282.88H123.224ZM133.293 281.2V286H129.933V273.04H133.293V278.08H136.653V273.04H140.013V286H136.653V281.2H133.293ZM142.162 286V282.88H143.602L145.162 273.04H153.682V286H150.322V276.16H148.042L146.482 286H142.162ZM157.288 276.16V273.04H166.888V286H156.808V278.08H163.528V276.16H157.288ZM160.168 280.96V283.12H163.528V280.96H160.168ZM172.042 270.88V267.28H174.442V268.576H176.122V267.28H178.522V270.88H172.042ZM180.322 286H176.962V279.64L170.722 286.36H170.242V273.04H173.602V279.4L179.842 272.68H180.322V286ZM187.031 281.2V286H183.671V273.04H187.031V278.08H190.391V273.04H193.751V286H190.391V281.2H187.031ZM196.38 280V276.88H205.26V280H196.38ZM217.024 282.88V286H207.904V273.04H217.024V276.16H211.264V282.88H217.024ZM229.983 286H226.623V279.64L220.383 286.36H219.903V273.04H223.263V279.4L229.503 272.68H229.983V286ZM242.452 282.88V286H233.332V273.04H242.452V276.16H236.692V282.88H242.452ZM247.731 286V276.16H244.371V273.04H254.451V276.16H251.091V286H247.731ZM266.461 282.88V286H256.861V273.04H266.941V280.96H260.221V282.88H266.461ZM263.581 278.08V275.92H260.221V278.08H263.581ZM277.01 286.24L273.65 281.56V286H270.29V272.68H270.77L277.01 281.2L283.25 272.68H283.73V286H280.37V281.56L277.01 286.24ZM290.453 273.04V277.12H296.693V286H287.093V273.04H290.453ZM293.333 282.88V280.24H290.453V282.88H293.333ZM301.973 286H298.613V273.04H301.973V286ZM1.44 308.16V305.04H11.04V318H0.96V310.08H7.68V308.16H1.44ZM4.32 312.96V315.12H7.68V312.96H4.32ZM14.3944 318V305.04H17.7544V318H14.3944ZM21.5944 311.52L24.9544 318H21.4744L18.1144 311.52L21.2344 305.04H24.7144L21.5944 311.52ZM27.12 318V305.04H30.48V318H27.12ZM34.32 311.52L37.68 318H34.2L30.84 311.52L33.96 305.04H37.44L34.32 311.52ZM39.8456 305.04H43.2056V306.48L45.8456 305.04H49.9256V318H43.2056V322.56H39.8456V305.04ZM46.5656 308.16H45.0056L43.2056 309.12V314.88H46.5656V308.16ZM62.8744 314.88V318H53.2744V305.04H63.3544V312.96H56.6344V314.88H62.8744ZM59.9944 310.08V307.92H56.6344V310.08H59.9944ZM65.5031 320.16V314.88H66.7031L68.2631 305.04H76.7831V314.88H78.1031V320.16H74.7431V318H68.8631V320.16H65.5031ZM71.1431 308.16L70.0631 314.88H73.4231V308.16H71.1431ZM90.8213 318H87.4613V311.64L81.2213 318.36H80.7413V305.04H84.1013V311.4L90.3413 304.68H90.8213V318ZM96.57 318V308.16H93.21V305.04H103.29V308.16H99.93V318H96.57ZM105.94 308.16V305.04H115.54V318H105.46V310.08H112.18V308.16H105.94ZM108.82 312.96V315.12H112.18V312.96H108.82ZM125.375 314.88V305.04H128.735V314.88H130.055V320.16H126.695V318H118.895V305.04H122.255V314.88H125.375ZM142.778 318H139.418V311.64L133.178 318.36H132.698V305.04H136.058V311.4L142.298 304.68H142.778V318ZM156.207 318H152.847V311.64L146.607 318.36H146.127V305.04H149.487V311.4L155.727 304.68H156.207V318Z" fill="#00377B"/>
<path d="M4.64 350.128C4.06933 350.128 3.54667 350.053 3.072 349.904C2.59733 349.749 2.18933 349.531 1.848 349.248C1.50667 348.965 1.24267 348.624 1.056 348.224C0.869333 347.819 0.776 347.365 0.776 346.864C0.776 346.128 0.968 345.523 1.352 345.048C1.736 344.568 2.28533 344.227 3 344.024C2.39733 343.8 1.94133 343.467 1.632 343.024C1.328 342.576 1.176 342.043 1.176 341.424C1.176 341.003 1.25867 340.608 1.424 340.24C1.58933 339.872 1.824 339.552 2.128 339.28C2.432 339.008 2.79467 338.795 3.216 338.64C3.64267 338.485 4.11733 338.408 4.64 338.408C5.15733 338.408 5.62933 338.485 6.056 338.64C6.48267 338.795 6.848 339.008 7.152 339.28C7.456 339.552 7.69067 339.872 7.856 340.24C8.02133 340.608 8.104 341.003 8.104 341.424C8.104 342.043 7.94933 342.576 7.64 343.024C7.33067 343.467 6.87733 343.8 6.28 344.024C6.99467 344.227 7.544 344.568 7.928 345.048C8.312 345.523 8.504 346.128 8.504 346.864C8.504 347.365 8.408 347.819 8.216 348.224C8.02933 348.624 7.76533 348.965 7.424 349.248C7.088 349.531 6.68267 349.749 6.208 349.904C5.73333 350.053 5.21067 350.128 4.64 350.128ZM4.64 348.992C5.01333 348.992 5.34667 348.941 5.64 348.84C5.93867 348.733 6.18933 348.587 6.392 348.4C6.6 348.208 6.75733 347.981 6.864 347.72C6.976 347.453 7.032 347.16 7.032 346.84C7.032 346.445 6.96533 346.109 6.832 345.832C6.704 345.549 6.528 345.32 6.304 345.144C6.08533 344.968 5.832 344.84 5.544 344.76C5.256 344.675 4.95467 344.632 4.64 344.632C4.32533 344.632 4.024 344.675 3.736 344.76C3.448 344.84 3.192 344.968 2.968 345.144C2.74933 345.32 2.57333 345.549 2.44 345.832C2.312 346.109 2.248 346.445 2.248 346.84C2.248 347.16 2.30133 347.453 2.408 347.72C2.52 347.981 2.67733 348.208 2.88 348.4C3.088 348.587 3.33867 348.733 3.632 348.84C3.93067 348.941 4.26667 348.992 4.64 348.992ZM4.64 343.488C5.01333 343.488 5.33067 343.432 5.592 343.32C5.85867 343.203 6.07467 343.051 6.24 342.864C6.40533 342.672 6.52533 342.453 6.6 342.208C6.67467 341.963 6.712 341.709 6.712 341.448C6.712 341.181 6.66667 340.931 6.576 340.696C6.49067 340.461 6.36 340.256 6.184 340.08C6.01333 339.904 5.79733 339.765 5.536 339.664C5.28 339.563 4.98133 339.512 4.64 339.512C4.29867 339.512 3.99733 339.563 3.736 339.664C3.48 339.765 3.264 339.904 3.088 340.08C2.91733 340.256 2.78667 340.461 2.696 340.696C2.61067 340.931 2.568 341.181 2.568 341.448C2.568 341.709 2.60533 341.963 2.68 342.208C2.75467 342.453 2.87467 342.672 3.04 342.864C3.20533 343.051 3.41867 343.203 3.68 343.32C3.94667 343.432 4.26667 343.488 4.64 343.488ZM24.143 350H22.943C22.8043 350 22.6923 349.965 22.607 349.896C22.5217 349.827 22.4577 349.739 22.415 349.632L21.343 346.864H16.199L15.127 349.632C15.095 349.728 15.0337 349.813 14.943 349.888C14.8523 349.963 14.7377 350 14.599 350H13.407L17.991 338.536H19.559L24.143 350ZM16.631 345.744H20.911L19.111 341.08C19.0523 340.941 18.9937 340.781 18.935 340.6C18.8817 340.419 18.8257 340.224 18.767 340.016C18.7137 340.224 18.6577 340.421 18.599 340.608C18.5457 340.789 18.4897 340.949 18.431 341.088L16.631 345.744ZM25.6359 350V338.536H29.2919C29.9959 338.536 30.6012 338.605 31.1079 338.744C31.6199 338.883 32.0385 339.08 32.3639 339.336C32.6945 339.592 32.9372 339.907 33.0919 340.28C33.2465 340.648 33.3239 341.064 33.3239 341.528C33.3239 341.811 33.2785 342.083 33.1879 342.344C33.1025 342.605 32.9719 342.848 32.7959 343.072C32.6199 343.296 32.3959 343.496 32.1239 343.672C31.8572 343.848 31.5425 343.992 31.1799 344.104C32.0172 344.269 32.6492 344.571 33.0759 345.008C33.5025 345.445 33.7159 346.021 33.7159 346.736C33.7159 347.221 33.6252 347.664 33.4439 348.064C33.2679 348.464 33.0065 348.808 32.6599 349.096C32.3185 349.384 31.8972 349.608 31.3959 349.768C30.8945 349.923 30.3239 350 29.6839 350H25.6359ZM27.1799 344.776V348.768H29.6599C30.1025 348.768 30.4839 348.717 30.8039 348.616C31.1239 348.515 31.3852 348.373 31.5879 348.192C31.7959 348.005 31.9479 347.787 32.0439 347.536C32.1399 347.28 32.1879 347 32.1879 346.696C32.1879 346.104 31.9772 345.637 31.5559 345.296C31.1345 344.949 30.5025 344.776 29.6599 344.776H27.1799ZM27.1799 343.672H29.2279C29.6652 343.672 30.0439 343.624 30.3639 343.528C30.6892 343.432 30.9559 343.299 31.1639 343.128C31.3772 342.957 31.5345 342.752 31.6359 342.512C31.7372 342.267 31.7879 342 31.7879 341.712C31.7879 341.035 31.5852 340.541 31.1799 340.232C30.7745 339.917 30.1452 339.76 29.2919 339.76H27.1799V343.672ZM42.8836 339.76H37.5316V350H35.9796V338.536H42.8836V339.76ZM45.789 348.816C45.9223 348.816 46.0557 348.803 46.189 348.776C46.3223 348.744 46.4503 348.691 46.573 348.616C46.6957 348.541 46.813 348.443 46.925 348.32C47.037 348.192 47.1383 348.032 47.229 347.84L47.789 346.672L43.181 338.536H44.629C44.7677 338.536 44.877 338.571 44.957 338.64C45.037 338.704 45.1063 338.789 45.165 338.896L47.997 344.096C48.1943 344.475 48.3543 344.859 48.477 345.248C48.5303 345.056 48.5943 344.864 48.669 344.672C48.7437 344.48 48.8263 344.288 48.917 344.096L51.325 338.896C51.3677 338.805 51.4317 338.723 51.517 338.648C51.6077 338.573 51.7197 338.536 51.853 338.536H53.133L48.477 348.504C48.333 348.819 48.1757 349.08 48.005 349.288C47.8397 349.491 47.661 349.653 47.469 349.776C47.277 349.893 47.069 349.976 46.845 350.024C46.621 350.077 46.381 350.104 46.125 350.104C45.837 350.104 45.6157 350.077 45.461 350.024C45.3063 349.976 45.229 349.901 45.229 349.8V348.816H45.789ZM62.2464 347.632C62.3317 347.632 62.4064 347.667 62.4704 347.736L63.0864 348.4C62.617 348.944 62.0464 349.368 61.3744 349.672C60.7077 349.976 59.8997 350.128 58.9504 350.128C58.129 350.128 57.3824 349.987 56.7104 349.704C56.0384 349.416 55.465 349.016 54.9904 348.504C54.5157 347.987 54.1477 347.368 53.8864 346.648C53.625 345.928 53.4944 345.136 53.4944 344.272C53.4944 343.408 53.6304 342.616 53.9024 341.896C54.1744 341.176 54.5557 340.557 55.0464 340.04C55.5424 339.523 56.1344 339.123 56.8224 338.84C57.5104 338.552 58.2704 338.408 59.1024 338.408C59.9184 338.408 60.6384 338.539 61.2624 338.8C61.8864 339.061 62.4357 339.416 62.9104 339.864L62.3984 340.576C62.3664 340.629 62.3237 340.675 62.2704 340.712C62.2224 340.744 62.1557 340.76 62.0704 340.76C61.9744 340.76 61.857 340.709 61.7184 340.608C61.5797 340.501 61.3984 340.384 61.1744 340.256C60.9504 340.128 60.6704 340.013 60.3344 339.912C59.9984 339.805 59.585 339.752 59.0944 339.752C58.5024 339.752 57.961 339.856 57.4704 340.064C56.9797 340.267 56.5557 340.563 56.1984 340.952C55.8464 341.341 55.5717 341.816 55.3744 342.376C55.177 342.936 55.0784 343.568 55.0784 344.272C55.0784 344.987 55.1797 345.624 55.3824 346.184C55.5904 346.744 55.8704 347.219 56.2224 347.608C56.5797 347.992 56.9984 348.285 57.4784 348.488C57.9637 348.691 58.4864 348.792 59.0464 348.792C59.3877 348.792 59.6944 348.773 59.9664 348.736C60.2437 348.693 60.497 348.629 60.7264 348.544C60.961 348.459 61.177 348.352 61.3744 348.224C61.577 348.091 61.777 347.933 61.9744 347.752C62.065 347.672 62.1557 347.632 62.2464 347.632ZM72.6379 338.536V339.84H68.9259V350H67.3819V339.84H63.6619V338.536H72.6379ZM82.5336 350H81.3336C81.195 350 81.083 349.965 80.9976 349.896C80.9123 349.827 80.8483 349.739 80.8056 349.632L79.7336 346.864H74.5896L73.5176 349.632C73.4856 349.728 73.4243 349.813 73.3336 349.888C73.243 349.963 73.1283 350 72.9896 350H71.7976L76.3816 338.536H77.9496L82.5336 350ZM75.0216 345.744H79.3016L77.5016 341.08C77.443 340.941 77.3843 340.781 77.3256 340.6C77.2723 340.419 77.2163 340.224 77.1576 340.016C77.1043 340.224 77.0483 340.421 76.9896 340.608C76.9363 340.789 76.8803 340.949 76.8216 341.088L75.0216 345.744ZM91.3843 338.408C91.8696 338.408 92.3229 338.48 92.7443 338.624C93.1656 338.768 93.5309 338.979 93.8403 339.256C94.1496 339.528 94.3923 339.861 94.5683 340.256C94.7443 340.651 94.8323 341.099 94.8323 341.6C94.8323 342.027 94.7683 342.424 94.6403 342.792C94.5123 343.155 94.3389 343.501 94.1203 343.832C93.9016 344.163 93.6483 344.485 93.3603 344.8C93.0776 345.115 92.7763 345.432 92.4563 345.752L89.4323 348.84C89.6456 348.781 89.8616 348.736 90.0803 348.704C90.2989 348.667 90.5096 348.648 90.7123 348.648H94.5523C94.7069 348.648 94.8296 348.693 94.9202 348.784C95.0109 348.875 95.0563 348.992 95.0563 349.136V350H87.4083V349.512C87.4083 349.411 87.4296 349.307 87.4723 349.2C87.5149 349.093 87.5816 348.995 87.6723 348.904L91.3443 345.216C91.6483 344.907 91.9256 344.611 92.1763 344.328C92.4269 344.04 92.6403 343.752 92.8163 343.464C92.9923 343.176 93.1283 342.885 93.2243 342.592C93.3203 342.293 93.3683 341.976 93.3683 341.64C93.3683 341.304 93.3149 341.011 93.2083 340.76C93.1016 340.504 92.9549 340.293 92.7683 340.128C92.5869 339.963 92.3709 339.84 92.1203 339.76C91.8696 339.675 91.6003 339.632 91.3123 339.632C91.0189 339.632 90.7496 339.675 90.5043 339.76C90.2589 339.845 90.0403 339.965 89.8483 340.12C89.6616 340.269 89.5043 340.448 89.3763 340.656C89.2483 340.864 89.1576 341.093 89.1043 341.344C89.0403 341.531 88.9523 341.656 88.8403 341.72C88.7336 341.779 88.5816 341.795 88.3843 341.768L87.6403 341.64C87.7149 341.117 87.8589 340.656 88.0723 340.256C88.2909 339.851 88.5629 339.512 88.8883 339.24C89.2189 338.968 89.5949 338.763 90.0163 338.624C90.4376 338.48 90.8936 338.408 91.3843 338.408ZM104.738 344.272C104.738 345.275 104.628 346.144 104.41 346.88C104.196 347.611 103.903 348.216 103.53 348.696C103.156 349.176 102.714 349.533 102.202 349.768C101.695 350.003 101.151 350.12 100.57 350.12C99.9828 350.12 99.4362 350.003 98.9295 349.768C98.4282 349.533 97.9908 349.176 97.6175 348.696C97.2442 348.216 96.9508 347.611 96.7375 346.88C96.5242 346.144 96.4175 345.275 96.4175 344.272C96.4175 343.269 96.5242 342.4 96.7375 341.664C96.9508 340.928 97.2442 340.32 97.6175 339.84C97.9908 339.355 98.4282 338.995 98.9295 338.76C99.4362 338.525 99.9828 338.408 100.57 338.408C101.151 338.408 101.695 338.525 102.202 338.76C102.714 338.995 103.156 339.355 103.53 339.84C103.903 340.32 104.196 340.928 104.41 341.664C104.628 342.4 104.738 343.269 104.738 344.272ZM103.258 344.272C103.258 343.397 103.183 342.664 103.034 342.072C102.89 341.475 102.692 340.995 102.442 340.632C102.196 340.269 101.911 340.011 101.586 339.856C101.26 339.696 100.922 339.616 100.57 339.616C100.218 339.616 99.8788 339.696 99.5535 339.856C99.2282 340.011 98.9428 340.269 98.6975 340.632C98.4522 340.995 98.2548 341.475 98.1055 342.072C97.9615 342.664 97.8895 343.397 97.8895 344.272C97.8895 345.147 97.9615 345.88 98.1055 346.472C98.2548 347.064 98.4522 347.541 98.6975 347.904C98.9428 348.267 99.2282 348.528 99.5535 348.688C99.8788 348.843 100.218 348.92 100.57 348.92C100.922 348.92 101.26 348.843 101.586 348.688C101.911 348.528 102.196 348.267 102.442 347.904C102.692 347.541 102.89 347.064 103.034 346.472C103.183 345.88 103.258 345.147 103.258 344.272ZM109.947 338.408C110.432 338.408 110.885 338.48 111.307 338.624C111.728 338.768 112.093 338.979 112.403 339.256C112.712 339.528 112.955 339.861 113.131 340.256C113.307 340.651 113.395 341.099 113.395 341.6C113.395 342.027 113.331 342.424 113.203 342.792C113.075 343.155 112.901 343.501 112.683 343.832C112.464 344.163 112.211 344.485 111.923 344.8C111.64 345.115 111.339 345.432 111.019 345.752L107.995 348.84C108.208 348.781 108.424 348.736 108.643 348.704C108.861 348.667 109.072 348.648 109.275 348.648H113.115C113.269 348.648 113.392 348.693 113.483 348.784C113.573 348.875 113.619 348.992 113.619 349.136V350H105.971V349.512C105.971 349.411 105.992 349.307 106.035 349.2C106.077 349.093 106.144 348.995 106.235 348.904L109.907 345.216C110.211 344.907 110.488 344.611 110.739 344.328C110.989 344.04 111.203 343.752 111.379 343.464C111.555 343.176 111.691 342.885 111.787 342.592C111.883 342.293 111.931 341.976 111.931 341.64C111.931 341.304 111.877 341.011 111.771 340.76C111.664 340.504 111.517 340.293 111.331 340.128C111.149 339.963 110.933 339.84 110.683 339.76C110.432 339.675 110.163 339.632 109.875 339.632C109.581 339.632 109.312 339.675 109.067 339.76C108.821 339.845 108.603 339.965 108.411 340.12C108.224 340.269 108.067 340.448 107.939 340.656C107.811 340.864 107.72 341.093 107.667 341.344C107.603 341.531 107.515 341.656 107.403 341.72C107.296 341.779 107.144 341.795 106.947 341.768L106.203 341.64C106.277 341.117 106.421 340.656 106.635 340.256C106.853 339.851 107.125 339.512 107.451 339.24C107.781 338.968 108.157 338.763 108.579 338.624C109 338.48 109.456 338.408 109.947 338.408ZM119.228 338.408C119.713 338.408 120.167 338.48 120.588 338.624C121.009 338.768 121.375 338.979 121.684 339.256C121.993 339.528 122.236 339.861 122.412 340.256C122.588 340.651 122.676 341.099 122.676 341.6C122.676 342.027 122.612 342.424 122.484 342.792C122.356 343.155 122.183 343.501 121.964 343.832C121.745 344.163 121.492 344.485 121.204 344.8C120.921 345.115 120.62 345.432 120.3 345.752L117.276 348.84C117.489 348.781 117.705 348.736 117.924 348.704C118.143 348.667 118.353 348.648 118.556 348.648H122.396C122.551 348.648 122.673 348.693 122.764 348.784C122.855 348.875 122.9 348.992 122.9 349.136V350H115.252V349.512C115.252 349.411 115.273 349.307 115.316 349.2C115.359 349.093 115.425 348.995 115.516 348.904L119.188 345.216C119.492 344.907 119.769 344.611 120.02 344.328C120.271 344.04 120.484 343.752 120.66 343.464C120.836 343.176 120.972 342.885 121.068 342.592C121.164 342.293 121.212 341.976 121.212 341.64C121.212 341.304 121.159 341.011 121.052 340.76C120.945 340.504 120.799 340.293 120.612 340.128C120.431 339.963 120.215 339.84 119.964 339.76C119.713 339.675 119.444 339.632 119.156 339.632C118.863 339.632 118.593 339.675 118.348 339.76C118.103 339.845 117.884 339.965 117.692 340.12C117.505 340.269 117.348 340.448 117.22 340.656C117.092 340.864 117.001 341.093 116.948 341.344C116.884 341.531 116.796 341.656 116.684 341.72C116.577 341.779 116.425 341.795 116.228 341.768L115.484 341.64C115.559 341.117 115.703 340.656 115.916 340.256C116.135 339.851 116.407 339.512 116.732 339.24C117.063 338.968 117.439 338.763 117.86 338.624C118.281 338.48 118.737 338.408 119.228 338.408Z" fill="#F04E30"/>
</g>
<defs>
<clipPath id="clip0_9205_76408">
<rect width="493" height="350" fill="white"/>
</clipPath>
<clipPath id="clip1_9205_76408">
<rect width="171.662" height="188" fill="white" transform="translate(0 44)"/>
</clipPath>
</defs>
</svg>
