<svg width="493" height="350" viewBox="0 0 493 350" fill="none" xmlns="http://www.w3.org/2000/svg">
<g clip-path="url(#clip0_9205_76367)">
<path d="M1.44 237.2H13.2V254H9.6V240.56H5.04V254H1.44V237.2ZM17.5284 258.56V255.44H23.5284V251.84L20.8884 253.28H16.8084V241.04H20.1684V250.16H21.7284L23.5284 249.2V241.04H26.8884V258.56H17.5284ZM39.8372 240.8H33.5972V243.2H40.3172V254H30.2372V237.44H36.4772V236.48H39.8372V240.8ZM36.9572 250.88V246.32H33.5972V250.88H36.9572ZM42.4659 254V250.88H43.9059L45.4659 241.04H53.9859V254H50.6259V244.16H48.3459L46.7859 254H42.4659ZM67.4325 254H64.0725V247.64L57.8325 254.36H57.3525V241.04H60.7125V247.4L66.9525 240.68H67.4325V254ZM70.7813 254V241.04H74.1413V254H70.7813ZM77.9813 247.52L81.3413 254H77.8613L74.5013 247.52L77.6213 241.04H81.1013L77.9813 247.52ZM83.7469 244.16V241.04H93.3469V254H83.2669V246.08H89.9869V244.16H83.7469ZM86.6269 248.96V251.12H89.9869V248.96H86.6269ZM103.181 250.88V241.04H106.541V250.88H107.861V256.16H104.501V254H96.7013V241.04H100.061V250.88H103.181ZM120.585 254H117.225V247.64L110.985 254.36H110.505V241.04H113.865V247.4L120.105 240.68H120.585V254ZM130.654 254V249.92H128.494L126.934 254H123.454L125.014 249.92H123.934V241.04H134.014V254H130.654ZM127.294 244.16V246.8H130.654V244.16H127.294ZM143.01 241.04H146.37V242.48L149.01 241.04H153.09V254H146.37V258.56H143.01V241.04ZM149.73 244.16H148.17L146.37 245.12V250.88H149.73V244.16ZM166.039 250.88V254H156.439V241.04H166.519V248.96H159.799V250.88H166.039ZM163.159 246.08V243.92H159.799V246.08H163.159ZM169.867 254V241.04H178.507V244.16H173.227V254H169.867ZM178.745 254V250.88H180.185L181.745 241.04H190.265V254H186.905V244.16H184.625L183.065 254H178.745ZM193.871 244.16V241.04H203.471V254H193.391V246.08H200.111V244.16H193.871ZM196.751 248.96V251.12H200.111V248.96H196.751ZM213.546 254.24L210.186 249.56V254H206.826V240.68H207.306L213.546 249.2L219.786 240.68H220.266V254H216.906V249.56L213.546 254.24ZM233.229 250.88V254H223.629V241.04H233.709V248.96H226.989V250.88H233.229ZM230.349 246.08V243.92H226.989V246.08H230.349ZM240.418 249.2V254H237.058V241.04H240.418V246.08H243.778V241.04H247.138V254H243.778V249.2H240.418ZM252.887 254V244.16H249.527V241.04H259.607V244.16H256.247V254H252.887ZM262.257 244.16V241.04H271.857V254H261.777V246.08H268.497V244.16H262.257ZM265.137 248.96V251.12H268.497V248.96H265.137ZM1.44 286V269.2H13.2L11.64 275.92H13.2V286H1.44ZM5.04 279.28V282.64H9.6V279.28H5.04ZM5.04 275.92H8.16L9 272.56H5.04V275.92ZM25.6706 282.88V286H16.5506V273.04H25.6706V276.16H19.9106V282.88H25.6706ZM38.1497 282.88V286H28.5497V273.04H38.6297V280.96H31.9097V282.88H38.1497ZM35.2697 278.08V275.92H31.9097V278.08H35.2697ZM48.6984 286.24L45.3384 281.56V286H41.9784V272.68H42.4584L48.6984 281.2L54.9384 272.68H55.4184V286H52.0584V281.56L48.6984 286.24ZM68.8622 286H65.5022V279.64L59.2622 286.36H58.7822V273.04H62.1422V279.4L68.3822 272.68H68.8622V286ZM72.2109 273.04H75.5709V274.48L78.2109 273.04H82.2909V286H75.5709V290.56H72.2109V273.04ZM78.9309 276.16H77.3709L75.5709 277.12V282.88H78.9309V276.16ZM88.9997 281.2V286H85.6397V273.04H88.9997V278.08H92.3597V273.04H95.7197V286H92.3597V281.2H88.9997ZM102.428 273.04V277.12H108.668V286H99.0684V273.04H102.428ZM105.308 282.88V280.24H102.428V282.88H105.308ZM113.948 286H110.588V273.04H113.948V286ZM121.742 276.928L123.662 273.04H127.262L123.902 279.52L127.382 286H123.782L121.742 282.04L119.702 286H116.102L119.582 279.52L116.222 273.04H119.822L121.742 276.928ZM144.303 282.88V286H135.183V273.04H144.303V276.16H138.543V282.88H144.303ZM149.582 286V276.16H146.222V273.04H156.302V276.16H152.942V286H149.582ZM159.432 290.56V287.44H165.432V283.84L162.792 285.28H158.712V273.04H162.072V282.16H163.632L165.432 281.2V273.04H168.792V290.56H159.432ZM170.941 288.16V282.88H172.141L173.701 273.04H182.221V282.88H183.541V288.16H180.181V286H174.301V288.16H170.941ZM176.581 276.16L175.501 282.88H178.861V276.16H176.581ZM195.779 282.88V286H186.179V273.04H196.259V280.96H189.539V282.88H195.779ZM192.899 278.08V275.92H189.539V278.08H192.899ZM202.968 281.2V286H199.608V273.04H202.968V278.08H206.328V273.04H209.688V286H206.328V281.2H202.968ZM219.277 286V282.16H212.797V273.04H216.157V279.04H219.277V273.04H222.637V286H219.277ZM235.597 282.88V286H225.997V273.04H236.077V280.96H229.357V282.88H235.597ZM232.717 278.08V275.92H229.357V278.08H232.717ZM248.545 282.88V286H239.425V273.04H248.545V276.16H242.785V282.88H248.545ZM251.424 286V273.04H254.784V286H251.424ZM258.624 279.52L261.984 286H258.504L255.144 279.52L258.264 273.04H261.744L258.624 279.52ZM274.23 286H270.87V279.64L264.63 286.36H264.15V273.04H267.51V279.4L273.75 272.68H274.23V286ZM282.019 276.928L283.939 273.04H287.539L284.179 279.52L287.659 286H284.059L282.019 282.04L279.979 286H276.379L279.859 279.52L276.499 273.04H280.099L282.019 276.928ZM11.28 318H7.92V311.64L1.68 318.36H1.2V305.04H4.56V311.4L10.8 304.68H11.28V318ZM14.6288 318V305.04H23.2688V308.16H17.9888V318H14.6288ZM25.4325 305.04H28.7925V306.48L31.4325 305.04H35.5125V318H28.7925V322.56H25.4325V305.04ZM32.1525 308.16H30.5925L28.7925 309.12V314.88H32.1525V308.16ZM55.1888 302.52H62.1488V316.68H55.1888V318.72H51.5888V316.68H44.7488V302.52H51.5888V300.48H55.1888V302.52ZM51.5888 305.88H48.3488V313.32H51.5888V305.88ZM58.5488 305.88H55.1888V313.32H58.5488V305.88ZM65.9822 301.2H69.5822V309.6L77.2622 300.84H77.7422V318H74.1422V309.6L66.4622 318.36H65.9822V301.2ZM91.9106 314.64V318H81.5906V301.2H91.9106V304.56H85.1906V314.64H91.9106ZM97.4194 301.2L100.419 308.64L103.179 301.2H107.019L100.539 318H96.6994L98.6194 313.2L93.5794 301.2H97.4194ZM125.497 301.2V311.04H118.417V314.64H125.497V318H114.817V307.68H121.897V304.56H114.817V301.2H125.497ZM140.615 318H129.095V301.2H140.615V318ZM132.695 314.64H137.015V304.56H132.695V314.64ZM154.885 301.2V311.04H147.805V314.64H154.885V318H144.205V307.68H151.285V304.56H144.205V301.2H154.885ZM164.363 304.56H157.763V301.2H168.563L167.003 307.92H168.563V318H157.763V314.64H164.963V311.28H160.643V307.92H163.523L164.363 304.56Z" fill="#00377B"/>
<path d="M10.768 350H9.568C9.42933 350 9.31733 349.965 9.232 349.896C9.14667 349.827 9.08267 349.739 9.04 349.632L7.968 346.864H2.824L1.752 349.632C1.72 349.728 1.65867 349.813 1.568 349.888C1.47733 349.963 1.36267 350 1.224 350H0.032L4.616 338.536H6.184L10.768 350ZM3.256 345.744H7.536L5.736 341.08C5.67733 340.941 5.61867 340.781 5.56 340.6C5.50667 340.419 5.45067 340.224 5.392 340.016C5.33867 340.224 5.28267 340.421 5.224 340.608C5.17067 340.789 5.11467 340.949 5.056 341.088L3.256 345.744ZM12.2609 350V338.536H15.9169C16.6209 338.536 17.2262 338.605 17.7329 338.744C18.2449 338.883 18.6635 339.08 18.9889 339.336C19.3195 339.592 19.5622 339.907 19.7169 340.28C19.8715 340.648 19.9489 341.064 19.9489 341.528C19.9489 341.811 19.9035 342.083 19.8129 342.344C19.7275 342.605 19.5969 342.848 19.4209 343.072C19.2449 343.296 19.0209 343.496 18.7489 343.672C18.4822 343.848 18.1675 343.992 17.8049 344.104C18.6422 344.269 19.2742 344.571 19.7009 345.008C20.1275 345.445 20.3409 346.021 20.3409 346.736C20.3409 347.221 20.2502 347.664 20.0689 348.064C19.8929 348.464 19.6315 348.808 19.2849 349.096C18.9435 349.384 18.5222 349.608 18.0209 349.768C17.5195 349.923 16.9489 350 16.3089 350H12.2609ZM13.8049 344.776V348.768H16.2849C16.7275 348.768 17.1089 348.717 17.4289 348.616C17.7489 348.515 18.0102 348.373 18.2129 348.192C18.4209 348.005 18.5729 347.787 18.6689 347.536C18.7649 347.28 18.8129 347 18.8129 346.696C18.8129 346.104 18.6022 345.637 18.1809 345.296C17.7595 344.949 17.1275 344.776 16.2849 344.776H13.8049ZM13.8049 343.672H15.8529C16.2902 343.672 16.6689 343.624 16.9889 343.528C17.3142 343.432 17.5809 343.299 17.7889 343.128C18.0022 342.957 18.1595 342.752 18.2609 342.512C18.3622 342.267 18.4129 342 18.4129 341.712C18.4129 341.035 18.2102 340.541 17.8049 340.232C17.3995 339.917 16.7702 339.76 15.9169 339.76H13.8049V343.672ZM29.5086 339.76H24.1566V350H22.6046V338.536H29.5086V339.76ZM32.414 348.816C32.5473 348.816 32.6807 348.803 32.814 348.776C32.9473 348.744 33.0753 348.691 33.198 348.616C33.3207 348.541 33.438 348.443 33.55 348.32C33.662 348.192 33.7633 348.032 33.854 347.84L34.414 346.672L29.806 338.536H31.254C31.3927 338.536 31.502 338.571 31.582 338.64C31.662 338.704 31.7313 338.789 31.79 338.896L34.622 344.096C34.8193 344.475 34.9793 344.859 35.102 345.248C35.1553 345.056 35.2193 344.864 35.294 344.672C35.3687 344.48 35.4513 344.288 35.542 344.096L37.95 338.896C37.9927 338.805 38.0567 338.723 38.142 338.648C38.2327 338.573 38.3447 338.536 38.478 338.536H39.758L35.102 348.504C34.958 348.819 34.8007 349.08 34.63 349.288C34.4647 349.491 34.286 349.653 34.094 349.776C33.902 349.893 33.694 349.976 33.47 350.024C33.246 350.077 33.006 350.104 32.75 350.104C32.462 350.104 32.2407 350.077 32.086 350.024C31.9313 349.976 31.854 349.901 31.854 349.8V348.816H32.414ZM48.8714 347.632C48.9567 347.632 49.0314 347.667 49.0954 347.736L49.7114 348.4C49.242 348.944 48.6714 349.368 47.9994 349.672C47.3327 349.976 46.5247 350.128 45.5754 350.128C44.754 350.128 44.0074 349.987 43.3354 349.704C42.6634 349.416 42.09 349.016 41.6154 348.504C41.1407 347.987 40.7727 347.368 40.5114 346.648C40.25 345.928 40.1194 345.136 40.1194 344.272C40.1194 343.408 40.2554 342.616 40.5274 341.896C40.7994 341.176 41.1807 340.557 41.6714 340.04C42.1674 339.523 42.7594 339.123 43.4474 338.84C44.1354 338.552 44.8954 338.408 45.7274 338.408C46.5434 338.408 47.2634 338.539 47.8874 338.8C48.5114 339.061 49.0607 339.416 49.5354 339.864L49.0234 340.576C48.9914 340.629 48.9487 340.675 48.8954 340.712C48.8474 340.744 48.7807 340.76 48.6954 340.76C48.5994 340.76 48.482 340.709 48.3434 340.608C48.2047 340.501 48.0234 340.384 47.7994 340.256C47.5754 340.128 47.2954 340.013 46.9594 339.912C46.6234 339.805 46.21 339.752 45.7194 339.752C45.1274 339.752 44.586 339.856 44.0954 340.064C43.6047 340.267 43.1807 340.563 42.8234 340.952C42.4714 341.341 42.1967 341.816 41.9994 342.376C41.802 342.936 41.7034 343.568 41.7034 344.272C41.7034 344.987 41.8047 345.624 42.0074 346.184C42.2154 346.744 42.4954 347.219 42.8474 347.608C43.2047 347.992 43.6234 348.285 44.1034 348.488C44.5887 348.691 45.1114 348.792 45.6714 348.792C46.0127 348.792 46.3194 348.773 46.5914 348.736C46.8687 348.693 47.122 348.629 47.3514 348.544C47.586 348.459 47.802 348.352 47.9994 348.224C48.202 348.091 48.402 347.933 48.5994 347.752C48.69 347.672 48.7807 347.632 48.8714 347.632ZM59.2629 338.536V339.84H55.5509V350H54.0069V339.84H50.2869V338.536H59.2629ZM68.3218 338.408C68.8071 338.408 69.2604 338.48 69.6818 338.624C70.1031 338.768 70.4684 338.979 70.7778 339.256C71.0871 339.528 71.3298 339.861 71.5058 340.256C71.6818 340.651 71.7698 341.099 71.7698 341.6C71.7698 342.027 71.7058 342.424 71.5778 342.792C71.4498 343.155 71.2764 343.501 71.0578 343.832C70.8391 344.163 70.5858 344.485 70.2978 344.8C70.0151 345.115 69.7138 345.432 69.3938 345.752L66.3698 348.84C66.5831 348.781 66.7991 348.736 67.0178 348.704C67.2364 348.667 67.4471 348.648 67.6498 348.648H71.4898C71.6444 348.648 71.7671 348.693 71.8577 348.784C71.9484 348.875 71.9938 348.992 71.9938 349.136V350H64.3458V349.512C64.3458 349.411 64.3671 349.307 64.4098 349.2C64.4524 349.093 64.5191 348.995 64.6098 348.904L68.2818 345.216C68.5858 344.907 68.8631 344.611 69.1138 344.328C69.3644 344.04 69.5778 343.752 69.7538 343.464C69.9298 343.176 70.0658 342.885 70.1618 342.592C70.2578 342.293 70.3058 341.976 70.3058 341.64C70.3058 341.304 70.2524 341.011 70.1458 340.76C70.0391 340.504 69.8924 340.293 69.7058 340.128C69.5244 339.963 69.3084 339.84 69.0578 339.76C68.8071 339.675 68.5378 339.632 68.2498 339.632C67.9564 339.632 67.6871 339.675 67.4418 339.76C67.1964 339.845 66.9778 339.965 66.7858 340.12C66.5991 340.269 66.4418 340.448 66.3138 340.656C66.1858 340.864 66.0951 341.093 66.0418 341.344C65.9778 341.531 65.8898 341.656 65.7778 341.72C65.6711 341.779 65.5191 341.795 65.3218 341.768L64.5778 341.64C64.6524 341.117 64.7964 340.656 65.0098 340.256C65.2284 339.851 65.5004 339.512 65.8258 339.24C66.1564 338.968 66.5324 338.763 66.9538 338.624C67.3751 338.48 67.8311 338.408 68.3218 338.408ZM81.675 344.272C81.675 345.275 81.5657 346.144 81.347 346.88C81.1337 347.611 80.8403 348.216 80.467 348.696C80.0937 349.176 79.651 349.533 79.139 349.768C78.6323 350.003 78.0883 350.12 77.507 350.12C76.9203 350.12 76.3737 350.003 75.867 349.768C75.3657 349.533 74.9283 349.176 74.555 348.696C74.1817 348.216 73.8883 347.611 73.675 346.88C73.4617 346.144 73.355 345.275 73.355 344.272C73.355 343.269 73.4617 342.4 73.675 341.664C73.8883 340.928 74.1817 340.32 74.555 339.84C74.9283 339.355 75.3657 338.995 75.867 338.76C76.3737 338.525 76.9203 338.408 77.507 338.408C78.0883 338.408 78.6323 338.525 79.139 338.76C79.651 338.995 80.0937 339.355 80.467 339.84C80.8403 340.32 81.1337 340.928 81.347 341.664C81.5657 342.4 81.675 343.269 81.675 344.272ZM80.195 344.272C80.195 343.397 80.1203 342.664 79.971 342.072C79.827 341.475 79.6297 340.995 79.379 340.632C79.1337 340.269 78.8483 340.011 78.523 339.856C78.1977 339.696 77.859 339.616 77.507 339.616C77.155 339.616 76.8163 339.696 76.491 339.856C76.1657 340.011 75.8803 340.269 75.635 340.632C75.3897 340.995 75.1923 341.475 75.043 342.072C74.899 342.664 74.827 343.397 74.827 344.272C74.827 345.147 74.899 345.88 75.043 346.472C75.1923 347.064 75.3897 347.541 75.635 347.904C75.8803 348.267 76.1657 348.528 76.491 348.688C76.8163 348.843 77.155 348.92 77.507 348.92C77.859 348.92 78.1977 348.843 78.523 348.688C78.8483 348.528 79.1337 348.267 79.379 347.904C79.6297 347.541 79.827 347.064 79.971 346.472C80.1203 345.88 80.195 345.147 80.195 344.272ZM86.8843 338.408C87.3696 338.408 87.8229 338.48 88.2443 338.624C88.6656 338.768 89.0309 338.979 89.3403 339.256C89.6496 339.528 89.8923 339.861 90.0683 340.256C90.2443 340.651 90.3323 341.099 90.3323 341.6C90.3323 342.027 90.2683 342.424 90.1403 342.792C90.0123 343.155 89.8389 343.501 89.6203 343.832C89.4016 344.163 89.1483 344.485 88.8603 344.8C88.5776 345.115 88.2763 345.432 87.9563 345.752L84.9323 348.84C85.1456 348.781 85.3616 348.736 85.5803 348.704C85.7989 348.667 86.0096 348.648 86.2123 348.648H90.0523C90.2069 348.648 90.3296 348.693 90.4202 348.784C90.5109 348.875 90.5563 348.992 90.5563 349.136V350H82.9083V349.512C82.9083 349.411 82.9296 349.307 82.9723 349.2C83.0149 349.093 83.0816 348.995 83.1723 348.904L86.8443 345.216C87.1483 344.907 87.4256 344.611 87.6763 344.328C87.9269 344.04 88.1403 343.752 88.3163 343.464C88.4923 343.176 88.6283 342.885 88.7243 342.592C88.8203 342.293 88.8683 341.976 88.8683 341.64C88.8683 341.304 88.8149 341.011 88.7083 340.76C88.6016 340.504 88.4549 340.293 88.2683 340.128C88.0869 339.963 87.8709 339.84 87.6203 339.76C87.3696 339.675 87.1003 339.632 86.8123 339.632C86.5189 339.632 86.2496 339.675 86.0043 339.76C85.7589 339.845 85.5403 339.965 85.3483 340.12C85.1616 340.269 85.0043 340.448 84.8763 340.656C84.7483 340.864 84.6576 341.093 84.6043 341.344C84.5403 341.531 84.4523 341.656 84.3403 341.72C84.2336 341.779 84.0816 341.795 83.8843 341.768L83.1403 341.64C83.2149 341.117 83.3589 340.656 83.5723 340.256C83.7909 339.851 84.0629 339.512 84.3883 339.24C84.7189 338.968 85.0949 338.763 85.5163 338.624C85.9376 338.48 86.3936 338.408 86.8843 338.408ZM96.1655 338.408C96.6508 338.408 97.1042 338.48 97.5255 338.624C97.9468 338.768 98.3122 338.979 98.6215 339.256C98.9308 339.528 99.1735 339.861 99.3495 340.256C99.5255 340.651 99.6135 341.099 99.6135 341.6C99.6135 342.027 99.5495 342.424 99.4215 342.792C99.2935 343.155 99.1202 343.501 98.9015 343.832C98.6828 344.163 98.4295 344.485 98.1415 344.8C97.8588 345.115 97.5575 345.432 97.2375 345.752L94.2135 348.84C94.4268 348.781 94.6428 348.736 94.8615 348.704C95.0802 348.667 95.2908 348.648 95.4935 348.648H99.3335C99.4882 348.648 99.6108 348.693 99.7015 348.784C99.7922 348.875 99.8375 348.992 99.8375 349.136V350H92.1895V349.512C92.1895 349.411 92.2108 349.307 92.2535 349.2C92.2962 349.093 92.3628 348.995 92.4535 348.904L96.1255 345.216C96.4295 344.907 96.7068 344.611 96.9575 344.328C97.2082 344.04 97.4215 343.752 97.5975 343.464C97.7735 343.176 97.9095 342.885 98.0055 342.592C98.1015 342.293 98.1495 341.976 98.1495 341.64C98.1495 341.304 98.0962 341.011 97.9895 340.76C97.8828 340.504 97.7362 340.293 97.5495 340.128C97.3682 339.963 97.1522 339.84 96.9015 339.76C96.6508 339.675 96.3815 339.632 96.0935 339.632C95.8002 339.632 95.5308 339.675 95.2855 339.76C95.0402 339.845 94.8215 339.965 94.6295 340.12C94.4428 340.269 94.2855 340.448 94.1575 340.656C94.0295 340.864 93.9388 341.093 93.8855 341.344C93.8215 341.531 93.7335 341.656 93.6215 341.72C93.5148 341.779 93.3628 341.795 93.1655 341.768L92.4215 341.64C92.4962 341.117 92.6402 340.656 92.8535 340.256C93.0722 339.851 93.3442 339.512 93.6695 339.24C94.0002 338.968 94.3762 338.763 94.7975 338.624C95.2188 338.48 95.6748 338.408 96.1655 338.408Z" fill="#F04E30"/>
<rect opacity="0.5" x="142.795" y="29" width="130" height="130" transform="rotate(23 142.795 29)" fill="#FFE9A8"/>
<path fill-rule="evenodd" clip-rule="evenodd" d="M212 141.03L247.92 56L250.787 57.2111L214.867 142.241L212 141.03Z" fill="#F04E30"/>
<rect y="22" width="35.1256" height="148.608" fill="#1268B3"/>
<rect x="41.8809" y="22" width="35.1256" height="148.608" fill="#F04E30"/>
<rect x="83.7615" y="22" width="35.1256" height="148.608" fill="#8ED8F8"/>
<rect x="6.75562" y="28.755" width="21.6158" height="92.5425" fill="white"/>
<rect x="48.6353" y="28.755" width="21.6158" height="92.5425" fill="white"/>
<rect x="90.5159" y="28.755" width="21.6158" height="92.5425" fill="white"/>
<circle cx="17.9009" cy="145.953" r="8.44366" fill="#14313C"/>
<circle cx="59.7818" cy="145.953" r="8.44366" fill="#14313C"/>
<circle cx="101.661" cy="145.953" r="8.44366" fill="#14313C"/>
<path d="M60.9999 190.627L158.16 210L178.865 106.161L159.904 77.7556L86.4275 63.1045L60.9999 190.627Z" fill="white"/>
<path d="M155.182 101.438L178.865 106.16L159.905 77.7555L155.182 101.438Z" fill="#F0EFE9"/>
<rect x="92.2871" y="116.047" width="66.8738" height="3.71521" transform="rotate(11.2767 92.2871 116.047)" fill="#AAB5B9"/>
<rect x="90.5928" y="124.548" width="66.8738" height="3.71521" transform="rotate(11.2767 90.5928 124.548)" fill="#AAB5B9"/>
<rect x="88.8972" y="133.05" width="66.8738" height="3.71521" transform="rotate(11.2767 88.8972 133.05)" fill="#AAB5B9"/>
<rect x="87.2029" y="141.551" width="66.8738" height="3.71521" transform="rotate(11.2767 87.2029 141.551)" fill="#AAB5B9"/>
<path d="M122.977 171.124C126.198 171.766 132.563 172.067 132.252 168.13C131.941 169.689 131.56 180.761 136.594 173.839C141.628 166.918 144.247 165.238 145.497 168.13C146.497 170.442 144.957 173.892 144.062 175.328" stroke="#1268B3" stroke-width="1.6518"/>
<g clip-path="url(#clip1_9205_76367)">
<path d="M129.263 86.3318L122.46 96.2743L125.805 98.5451L132.609 88.6025L129.263 86.3318Z" fill="#F04E30"/>
<path d="M138.195 88.7897L130.026 100.728L133.863 103.333L142.032 91.3943L138.195 88.7897Z" fill="#00377B"/>
<path d="M122.856 99.226C123.411 96.4445 126.128 94.6411 128.926 95.199C131.724 95.7569 133.541 98.4646 132.987 101.246C132.432 104.029 129.715 105.831 126.917 105.273C124.119 104.717 122.301 102.009 122.856 99.226Z" fill="#8ED8F8"/>
<path d="M131.239 102.487C131.995 101.382 132.143 99.9704 131.634 98.7306C131.124 97.4904 130.024 96.5876 128.704 96.3245C127.385 96.0613 126.021 96.4728 125.076 97.4228C124.129 98.3724 123.724 99.7329 123.998 101.043L127.924 100.237L131.239 102.487Z" fill="#FFE9A8"/>
<path d="M123.996 101.043C124.211 102.072 124.825 102.975 125.705 103.557C126.584 104.138 127.658 104.353 128.693 104.153C129.728 103.953 130.643 103.354 131.236 102.486L127.92 100.236L123.996 101.043Z" fill="#FFD64F"/>
<path d="M128.751 102.948C129.333 102.896 129.851 102.554 130.12 102.039L128.596 101.243L128.751 102.948Z" fill="#F04E30"/>
<path d="M138.511 87.5469L130.53 99.2103L132.423 100.495L140.404 88.8314L138.511 87.5469Z" fill="#FFE9A8"/>
<path fill-rule="evenodd" clip-rule="evenodd" d="M128.525 97.2197C126.849 96.8856 125.223 97.9667 124.891 99.6315C124.559 101.298 125.646 102.919 127.322 103.253C128.997 103.587 130.623 102.507 130.955 100.841C131.288 99.1742 130.198 97.5534 128.525 97.2197ZM124.518 99.5571C124.89 97.6874 126.717 96.4732 128.599 96.8484C130.478 97.2231 131.702 99.0434 131.329 100.915C130.955 102.787 129.129 103.999 127.248 103.624C125.366 103.249 124.144 101.429 124.518 99.5571Z" fill="#68AD45"/>
<path fill-rule="evenodd" clip-rule="evenodd" d="M124.83 104.149C123.995 103.495 123.389 102.593 123.102 101.575L123.469 101.474C123.734 102.414 124.294 103.247 125.065 103.851L124.83 104.149Z" fill="#D71925"/>
<path d="M126.337 99.012C126.433 98.5294 126.904 98.2151 127.391 98.3123C127.876 98.409 128.193 98.8783 128.097 99.3629C128 99.8455 127.529 100.16 127.042 100.063C126.557 99.964 126.241 99.4947 126.337 99.012Z" fill="#00377B"/>
<path fill-rule="evenodd" clip-rule="evenodd" d="M127.359 98.4722C126.96 98.3926 126.576 98.6501 126.497 99.0438C126.419 99.4366 126.676 99.8213 127.074 99.9025C127.474 99.9819 127.858 99.7244 127.936 99.3308C128.015 98.9357 127.757 98.5515 127.359 98.4722ZM126.177 98.98C126.291 98.4083 126.848 98.0374 127.423 98.152C127.996 98.2662 128.371 98.8207 128.257 99.3946C128.143 99.9663 127.585 100.337 127.01 100.223L127.01 100.222C126.438 100.106 126.063 99.5524 126.177 98.98Z" fill="#FFE9A8"/>
<path d="M141.785 88.5615L136.109 96.856L136.424 97.0699L142.1 88.7754L141.785 88.5615Z" fill="#D71925"/>
<path d="M128.274 86.1754L120.646 97.3232L120.961 97.5371L128.589 86.3893L128.274 86.1754Z" fill="#00377B"/>
<path d="M131.77 86.8944C131.517 86.723 131.204 86.6587 130.905 86.7141C130.605 86.7715 130.339 86.9431 130.165 87.1954C129.993 87.4463 129.929 87.7558 129.985 88.0559C130.043 88.3565 130.217 88.6195 130.47 88.7932L131.119 87.8446L131.77 86.8944Z" fill="#00377B"/>
<path fill-rule="evenodd" clip-rule="evenodd" d="M139.616 88.1158C139.714 88.0805 139.835 88.0556 139.973 88.0299L139.902 87.6577C139.768 87.6829 139.616 87.7127 139.484 87.7605L139.484 87.7605L139.483 87.761C139.35 87.8106 139.22 87.8878 139.134 88.0154C139.048 88.142 139.025 88.2886 139.026 88.4301L139.026 88.4307C139.028 88.5617 139.056 88.7079 139.08 88.8328C139.082 88.8409 139.083 88.849 139.085 88.857C139.111 88.9964 139.133 89.1174 139.135 89.2174C139.136 89.3184 139.117 89.3791 139.093 89.415C139.064 89.4554 139.014 89.4944 138.924 89.5273L138.924 89.5273L138.922 89.5278C138.828 89.563 138.706 89.5874 138.567 89.6134C138.429 89.6383 138.278 89.6681 138.146 89.7159L138.144 89.7166L138.142 89.7174C138.012 89.7682 137.882 89.8449 137.796 89.9696L137.796 89.9696L137.796 89.9708C137.71 90.0972 137.686 90.2456 137.688 90.3858C137.688 90.3857 137.688 90.3856 137.688 90.3855L137.879 90.3838L137.688 90.3861C137.688 90.386 137.688 90.3859 137.688 90.3858C137.69 90.5129 137.716 90.6516 137.739 90.7725C137.741 90.7863 137.744 90.8 137.746 90.8133L137.746 90.815L137.747 90.8166C137.775 90.9553 137.797 91.0741 137.798 91.1748L137.798 91.1762L137.798 91.1777C137.801 91.2752 137.781 91.3363 137.756 91.3734L137.756 91.3734L137.755 91.3746C137.729 91.4131 137.681 91.4521 137.589 91.4854L137.589 91.4854L137.588 91.4859C137.494 91.5211 137.371 91.5455 137.232 91.5716L137.232 91.5716L137.229 91.572C137.215 91.5748 137.201 91.5776 137.187 91.5805C137.067 91.6042 136.928 91.6314 136.812 91.6749C136.678 91.7251 136.549 91.8043 136.464 91.9281L136.464 91.9281L136.463 91.9293C136.378 92.0558 136.354 92.2043 136.356 92.3446L136.356 92.3446L136.356 92.3468C136.359 92.4865 136.388 92.6398 136.414 92.7727L136.414 92.7727L136.414 92.7741C136.442 92.9155 136.464 93.0342 136.465 93.1351L136.465 93.1366L136.465 93.138C136.468 93.2355 136.448 93.2966 136.423 93.3337L136.423 93.3337L136.422 93.3349C136.396 93.3734 136.348 93.4124 136.256 93.4457L136.256 93.4457L136.255 93.4462C136.16 93.4814 136.038 93.5058 135.899 93.5319C135.892 93.5331 135.886 93.5343 135.879 93.5355C135.753 93.559 135.603 93.5869 135.476 93.6361C135.346 93.687 135.216 93.7636 135.131 93.8884L135.13 93.8896C135.044 94.0162 135.021 94.1628 135.023 94.3043L135.023 94.306L135.023 94.3078C135.027 94.4383 135.053 94.5819 135.077 94.7098C135.078 94.7166 135.079 94.7234 135.081 94.7302L135.081 94.7312C135.107 94.8701 135.13 94.9928 135.133 95.0949C135.135 95.1915 135.117 95.2516 135.09 95.2915C135.064 95.33 135.015 95.3689 134.924 95.4022C134.827 95.4376 134.704 95.4621 134.564 95.4881L134.564 95.4881L134.562 95.4885C134.55 95.4908 134.539 95.4932 134.527 95.4955C134.404 95.5198 134.266 95.5472 134.146 95.5909L134.144 95.5916L134.142 95.5923C134.012 95.6432 133.882 95.7198 133.796 95.8446L133.796 95.8458C133.71 95.9724 133.687 96.1189 133.688 96.2604L133.688 96.2622L133.688 96.264C133.693 96.4015 133.721 96.5545 133.747 96.6873L133.747 96.6873L133.747 96.6897C133.775 96.8275 133.797 96.9491 133.798 97.0485L133.798 97.0485L133.798 97.0508C133.801 97.1482 133.782 97.2093 133.756 97.2465L133.756 97.2477C133.73 97.2862 133.681 97.3251 133.59 97.3584L133.59 97.3584L133.588 97.359C133.494 97.3942 133.372 97.4185 133.232 97.4445C133.095 97.4695 132.943 97.4992 132.812 97.5471L132.81 97.5478L132.808 97.5485C132.677 97.5994 132.548 97.676 132.462 97.8008L132.462 97.8008L132.461 97.8019C132.376 97.9285 132.352 98.0769 132.354 98.2172L132.354 98.2172L132.354 98.2195C132.358 98.3523 132.384 98.4964 132.408 98.6245C132.409 98.6312 132.411 98.6378 132.412 98.6445L132.412 98.6461L132.412 98.6478C132.441 98.7864 132.463 98.9053 132.464 99.0059L132.464 99.0074L132.464 99.0088C132.466 99.1063 132.447 99.1674 132.422 99.2045C132.397 99.2413 132.346 99.281 132.251 99.318C132.158 99.354 132.04 99.3761 131.897 99.4027L131.968 99.7749C131.974 99.7737 131.981 99.7725 131.987 99.7713C132.114 99.7478 132.264 99.7199 132.39 99.6707C132.521 99.6198 132.651 99.5432 132.736 99.4184C132.821 99.2945 132.848 99.1466 132.844 99.0011C132.842 98.8601 132.813 98.7082 132.786 98.5749L132.785 98.5712C132.759 98.4313 132.737 98.3136 132.735 98.2115C132.733 98.1141 132.751 98.0526 132.777 98.014C132.802 97.9777 132.852 97.9385 132.945 97.902C133.042 97.867 133.163 97.8421 133.302 97.817L133.303 97.8168C133.436 97.792 133.591 97.7625 133.722 97.7138C133.858 97.6638 133.986 97.5859 134.071 97.4597C134.156 97.3358 134.182 97.188 134.179 97.0427C134.177 96.9039 134.148 96.7507 134.12 96.6164C134.094 96.4786 134.072 96.3568 134.069 96.2553C134.068 96.1557 134.086 96.0963 134.111 96.0579C134.136 96.0216 134.186 95.9823 134.28 95.9458C134.37 95.9131 134.479 95.8914 134.608 95.8656C134.618 95.8638 134.627 95.8619 134.636 95.86C134.77 95.8351 134.924 95.8057 135.055 95.7579C135.192 95.7079 135.32 95.6297 135.406 95.503C135.49 95.3777 135.517 95.232 135.513 95.0854L135.513 95.0847C135.509 94.9474 135.48 94.7947 135.455 94.6619C135.455 94.6617 135.455 94.6616 135.455 94.6614L135.454 94.6564C135.428 94.517 135.406 94.3995 135.403 94.2991C135.402 94.1995 135.42 94.1401 135.445 94.1017C135.471 94.0651 135.521 94.0256 135.616 93.9888C135.708 93.9528 135.827 93.9307 135.969 93.9041C136.103 93.8792 136.258 93.8497 136.388 93.801C136.525 93.7511 136.652 93.6731 136.738 93.547C136.822 93.4232 136.849 93.2755 136.845 93.1303C136.844 92.9892 136.814 92.8367 136.787 92.7023C136.761 92.564 136.739 92.4421 136.736 92.3388C136.735 92.2414 136.753 92.1799 136.779 92.1413C136.805 92.1038 136.856 92.0632 136.946 92.0294C137.032 91.9976 137.137 91.9766 137.264 91.9515C137.277 91.9489 137.29 91.9462 137.304 91.9436C137.437 91.9188 137.591 91.8892 137.721 91.8407C137.858 91.7908 137.986 91.7128 138.071 91.5867C138.156 91.4629 138.182 91.3152 138.178 91.17C138.177 91.0289 138.147 90.8771 138.12 90.7438C138.118 90.7317 138.116 90.7197 138.113 90.708C138.089 90.5794 138.07 90.4743 138.069 90.3821L138.069 90.3815C138.068 90.2834 138.085 90.2216 138.111 90.1829C138.136 90.1466 138.186 90.1074 138.28 90.0708C138.376 90.0358 138.498 90.011 138.636 89.9859L138.637 89.9857C138.77 89.9609 138.926 89.9313 139.056 89.8827C139.194 89.8325 139.319 89.7547 139.406 89.6312L139.406 89.6312L139.407 89.6296C139.493 89.504 139.517 89.3545 139.515 89.2137L139.515 89.2131C139.513 89.0742 139.484 88.9196 139.459 88.7872L139.457 88.7774C139.431 88.6397 139.408 88.5233 139.407 88.4264C139.406 88.3254 139.424 88.2655 139.45 88.2269C139.475 88.1893 139.525 88.1503 139.616 88.1158Z" fill="#00377B"/>
</g>
</g>
<defs>
<clipPath id="clip0_9205_76367">
<rect width="493" height="350" fill="white"/>
</clipPath>
<clipPath id="clip1_9205_76367">
<rect width="19.8145" height="19.8145" fill="white" transform="translate(123.235 84.3344) rotate(11.2767)"/>
</clipPath>
</defs>
</svg>
