<svg width="493" height="360" viewBox="0 0 493 360" fill="none" xmlns="http://www.w3.org/2000/svg">
<g clip-path="url(#clip0_9205_76289)">
<path opacity="0.5" d="M87 175.484C134.527 195.82 189.392 173.468 209.551 125.567C229.711 77.6653 207.542 22.3352 160.037 2L87 175.484Z" fill="#FFE9A8"/>
<g clip-path="url(#clip1_9205_76289)">
<path d="M106.529 71.1103L93.9305 70.5457L88.7956 81.8601L87.6311 129.199H117.42L117.93 70.446L106.529 71.1103Z" fill="#00377B"/>
<path d="M108.18 70.8766H114.697L117.304 98.2475L108.18 80.228L112.182 78.2274L108.18 76.8936V70.8766Z" fill="#1268B3"/>
<path d="M142.962 116.534L149.417 114.718L150.16 104.666L140.289 104.976L142.962 116.534Z" fill="#F9D1A5"/>
<path d="M149.161 115.671V104.6L166.507 101.278L181.945 72.5828L193.035 74.5423C193.035 74.5423 191.117 85.6132 190.54 87.4952L176.588 109.128L169.823 112.216L149.161 115.671Z" fill="#72838A"/>
<path d="M175.335 39.9237L162.98 55.0354L170.366 57.7809L169.046 67.014L182.544 68.719L188.754 69.0843L197.094 44.1638L200.045 38.728L179.172 30.5799L175.756 27.0815L172.54 25.908L170.754 34.045L175.335 39.9237Z" fill="#F9D1A5"/>
<path d="M190.884 44.1195L188.976 52.1348L193.168 55.8989L197.105 44.4959L200.044 38.728L179.183 30.6463L175.778 27.0926L172.551 25.8748L170.677 34.0561L190.884 44.1195Z" fill="#14313C"/>
<path d="M194.632 199.289L194.233 205.776L168.348 205.654C168.348 205.654 168.814 196.997 179.172 200.949L182.056 200.695L194.632 199.289Z" fill="#72838A"/>
<path d="M179.25 71.1103L191.849 70.5457L196.984 81.8601L198.148 129.199H168.37L167.849 70.446L179.25 71.1103Z" fill="#14313C"/>
<path d="M194.655 129.199V199.289L182.078 200.695L170.843 128.535L194.655 129.199Z" fill="#14313C"/>
<path d="M190.729 134.281L190.196 126.52L181.235 127.527L177.952 136.262L190.729 134.281Z" fill="#F9D1A5"/>
<path d="M91.1356 199.289L91.4905 205.776L117.376 205.654C117.376 205.654 116.91 196.997 106.551 200.949L103.668 200.695L91.1356 199.289Z" fill="#FDB714"/>
<path d="M110.356 40.0234L122.522 54.9026L115.246 57.615L116.555 66.7152L103.258 68.3869L97.1357 68.7412L88.9287 44.1971L86.0229 38.8499L106.585 30.8235L109.945 27.3805L113.106 26.218L114.858 34.2333L110.356 40.0234Z" fill="#FFDCA8"/>
<path d="M95.0395 44.1528L96.9138 52.0574L92.7882 55.755L88.9065 44.5181L86.0229 38.8498L106.563 30.8899L109.912 27.3915L111.076 22L113.095 26.1959L114.936 34.2444L95.0395 44.1528Z" fill="#FDB714"/>
<path d="M91.1356 129.199V199.289L103.701 200.695L114.936 128.535L91.1356 129.199Z" fill="#14313C"/>
<path d="M142.818 116.534L136.374 114.718L135.62 104.666L145.49 104.976L142.818 116.534Z" fill="#FFDCA8"/>
<path d="M136.573 115.671V104.6L119.228 101.278L103.79 72.616L92.6992 74.5755C92.6992 74.5755 94.6179 85.6464 95.1946 87.5284L109.235 109.128L116 112.216L136.573 115.671Z" fill="#00377B"/>
<path d="M191.305 127.173L177.897 131.369L177.542 77.8082L187.756 73.1252C187.756 73.1252 192.448 83.3436 193.024 85.2146L191.305 127.173Z" fill="#72838A"/>
<path d="M117.955 70.225V73.0543V75.8836L115.126 73.0543L117.955 70.225Z" fill="#D71925"/>
<path d="M117.304 75.4385H117.956V98.8993L117.304 97.5959L115.349 78.0452L117.304 75.4385Z" fill="#D71925"/>
</g>
<g clip-path="url(#clip2_9205_76289)">
<path d="M16.6051 53.2809L20.5152 61.6278L29.9913 62.4045V61.6278L24.4254 31.1235L17.9085 41.5506L16.6051 53.2809Z" fill="#736357"/>
<path d="M52.1489 53.281L48.2388 61.6279L38.7627 62.4046V61.6279L49.1896 37.6405L50.8455 41.5506L52.1489 53.281Z" fill="#736357"/>
<path d="M50.4223 41.7192L49.295 41.3706L48.4117 41.8587L49.0393 37.8491L44.774 31.5499L39.9392 32.4564L22.9013 39.8829L23.2035 41.9168L22.2156 41.3706L21.0767 41.7192V47.3559L24.4703 50.5752L25.5744 58.0947L29.9327 61.5813V68.0431L27.155 69.6935L35.9761 87.1498L42.2985 73.6334L44.7973 69.7051L42.2985 68.3453V61.2675L45.8897 58.0947L47.0636 50.552L50.4223 47.3559V41.7192Z" fill="#FFDCA8"/>
<path d="M22.4375 202.069L24.0646 194.34H30.4218L31.6654 202.069L26.6795 203.277L22.4375 202.069Z" fill="#808080"/>
<path d="M32.1064 155.976L30.305 197.257L31.6647 202.069L22.5763 204.707L22.4368 202.069L24.3428 197.257L20.4495 155.976H32.1064Z" fill="#FFDCA8"/>
<path d="M31.6645 202.069L29.189 201.092H27.0506H24.9237L22.4366 202.069L22.2274 205.451H27.0506H31.8853L31.6645 202.069Z" fill="#00377B"/>
<path d="M49.2495 202.069L47.6224 194.34H41.2535L40.0216 202.069L45.0075 203.277L49.2495 202.069Z" fill="#808080"/>
<path d="M39.5802 155.976L41.3816 197.257L40.0218 202.069L49.1219 204.707L49.2497 202.069L47.3554 197.257L51.2371 155.976H39.5802Z" fill="#FFDCA8"/>
<path d="M40.0203 202.069L42.4958 201.092H44.6342H46.761L49.2482 202.069L49.469 205.451H44.6342H39.7994L40.0203 202.069Z" fill="#00377B"/>
<path d="M22.7395 111.719L18.3231 124.247L17.4979 130L20.3221 160.671H51.2251L53.5263 130.942L52.55 123.271L48.5378 111.719H22.7395Z" fill="#00377B"/>
<path d="M24.4255 31.1236L21.0767 39.8828L23.7381 45.566L29.1191 42.521L37.5219 38.2557L44.774 31.5498L38.5795 25.4598L24.4255 31.1236Z" fill="#736357"/>
<path d="M44.7741 31.5499L40.1252 35.8501L47.1566 44.6596L48.4118 41.8587L49.1897 37.6404L44.7741 31.5499Z" fill="#736357"/>
<path d="M22.9012 52.4581C23.9089 52.4581 24.7259 51.6308 24.7259 50.6102C24.7259 49.5897 23.9089 48.7623 22.9012 48.7623C21.8935 48.7623 21.0765 49.5897 21.0765 50.6102C21.0765 51.6308 21.8935 52.4581 22.9012 52.4581Z" fill="#FDB714"/>
<path d="M48.5986 52.4581C49.6063 52.4581 50.4232 51.6308 50.4232 50.6102C50.4232 49.5897 49.6063 48.7623 48.5986 48.7623C47.5909 48.7623 46.7739 49.5897 46.7739 50.6102C46.7739 51.6308 47.5909 52.4581 48.5986 52.4581Z" fill="#FDB714"/>
<path d="M52.619 127.525L52.8863 127.641L53.9555 108.256L50.4689 92.008L60.429 91.0317L62.3583 108.825L58.0814 129.745L58.4998 129.919L55.4548 136.695L47.854 137.078L52.619 127.525Z" fill="#FFDCA8"/>
<path d="M61.9393 90.9271L53.525 72.634L44.8782 69.7982C42.9256 68.5663 35.5805 86.2666 35.5805 86.2666C35.5805 86.2666 29.107 68.5198 27.1545 69.7517L16.7528 72.5178L8.78528 91.0791L20.5157 91.7307L22.7382 113.009H48.388L50.0383 92.0893L61.9393 90.9271Z" fill="#00377B"/>
<path d="M23.7739 108.023H48.7825L48.5381 111.933H23.7739V108.023Z" fill="#1268B3"/>
<rect width="22.1574" height="29.9777" transform="matrix(0.920505 0.390731 0.390731 -0.920505 15.8734 115.703)" fill="#D71925"/>
<path d="M32.2065 114.83L32.1486 115.116L16.9185 104.355L19.8635 91.7306L10.7403 91.0789L7.79454 106.31L9.74986 110.22L30.8966 120.579L30.7998 121.022L38.0978 122.408L42.7666 116.397L32.2065 114.83Z" fill="#FFDCA8"/>
</g>
<g clip-path="url(#clip3_9205_76289)">
<path d="M240.613 53.27L238.437 77.7298L247.819 72.4973V65.7424L243.534 62.3142L242.462 55.018L240.613 53.27Z" fill="#736357"/>
<path d="M266.245 53.27L268.422 77.7298L259.569 72.5988V65.5507L263.324 62.3142L264.396 55.018L266.245 53.27Z" fill="#736357"/>
<path d="M267.644 46.4248L266.55 46.0864L265.693 46.5601L266.302 42.6695L262.163 36.5574L257.472 37.437L240.94 44.643L241.233 46.6165L240.274 46.0864L239.169 46.4248V51.8941L242.462 55.0178L243.533 62.3141L247.762 65.6972V71.9672L245.067 73.5685L253.626 90.5066L259.761 77.3914L262.185 73.5798L259.761 72.2604V65.3927L263.245 62.3141L264.384 54.9953L267.644 51.8941V46.4248Z" fill="#FFDCA8"/>
<path d="M240.49 202.014L242.068 194.515H248.237L249.443 202.014L244.606 203.187L240.49 202.014Z" fill="#808080"/>
<path d="M249.871 157.289L248.123 197.345L249.443 202.014L240.624 204.574L240.489 202.014L242.338 197.345L238.561 157.289H249.871Z" fill="#FFDCA8"/>
<path d="M249.443 202.014L247.041 201.066H244.966H242.902L240.489 202.014L240.286 205.295H244.966H249.657L249.443 202.014Z" fill="#F04E30"/>
<path d="M266.506 202.014L264.927 194.515H258.747L257.552 202.014L262.389 203.187L266.506 202.014Z" fill="#808080"/>
<path d="M257.123 157.289L258.871 197.345L257.552 202.014L266.382 204.574L266.506 202.014L264.668 197.345L268.434 157.289H257.123Z" fill="#FFDCA8"/>
<path d="M257.55 202.014L259.952 201.066H262.027H264.091L266.504 202.014L266.718 205.295H262.027H257.336L257.55 202.014Z" fill="#F04E30"/>
<path d="M240.783 114.346L236.497 126.503L235.697 132.085L238.437 161.845H268.423L270.655 132.998L269.708 125.556L265.671 114.346H240.783Z" fill="#14313C"/>
<path d="M278.819 94.1716L270.654 76.4216L262.264 73.67C260.369 72.4746 253.242 89.6495 253.242 89.6495C253.242 89.6495 246.961 72.4295 245.067 73.6249L234.974 76.3088L227.632 94.1716L239.169 95.2993L240.781 115.598H265.67L267.271 95.2993L278.819 94.1716Z" fill="#72838A"/>
<path d="M242.71 36.2641L239.169 44.643L241.752 50.1574L246.973 47.2028L255.126 43.0642L262.163 36.5573L256.152 30.6482L242.71 36.2641Z" fill="#736357"/>
<path d="M262.163 36.5574L257.652 40.7299L264.475 49.2778L265.693 46.5601L266.302 42.6695L262.163 36.5574Z" fill="#736357"/>
<path d="M236.238 129.683L235.978 129.796L234.941 110.986L238.324 95.2205L228.659 94.2732L226.787 111.538L230.937 131.837L230.531 132.006L233.486 138.581L240.861 138.953L236.238 129.683Z" fill="#FFDCA8"/>
<path d="M270.37 129.683L270.629 129.796L271.667 110.986L268.284 95.2205L277.948 94.2732L279.82 111.538L275.67 131.837L276.076 132.006L273.122 138.581L265.746 138.953L270.37 129.683Z" fill="#FFDCA8"/>
<path d="M245.035 72.8318L253.507 98.8993L261.979 72.8318" stroke="#8ED8F8" stroke-width="0.8"/>
<rect x="247.642" y="98.8179" width="11.8304" height="7.27596" fill="#00377B"/>
<rect x="248.697" y="99.7621" width="3.66575" height="5.332" fill="#F9F8F4"/>
<mask id="mask0_9205_76289" style="mask-type:alpha" maskUnits="userSpaceOnUse" x="248" y="99" width="5" height="7">
<rect x="248.697" y="99.7621" width="3.66575" height="5.332" fill="#F9F8F4"/>
</mask>
<g mask="url(#mask0_9205_76289)">
<path d="M249.389 102.285L249.189 104.537L250.053 104.055V103.433L249.658 103.118L249.559 102.446L249.389 102.285Z" fill="#736357"/>
<path d="M251.749 102.285L251.949 104.537L251.134 104.065V103.416L251.48 103.118L251.579 102.446L251.749 102.285Z" fill="#736357"/>
<path d="M251.878 101.655L251.777 101.624L251.698 101.668L251.754 101.309L251.373 100.747L250.941 100.828L249.42 101.491L249.447 101.673L249.358 101.624L249.257 101.655V102.159L249.56 102.446L249.658 103.118L250.048 103.429V104.006L249.8 104.154L250.587 105.713L251.152 104.506L251.375 104.155L251.152 104.033V103.401L251.473 103.118L251.578 102.444L251.878 102.159V101.655Z" fill="#FFDCA8"/>
<path d="M252.906 106.05L252.155 104.416L251.382 104.163C251.208 104.053 250.552 105.634 250.552 105.634C250.552 105.634 249.973 104.049 249.799 104.159L248.87 104.406L248.194 106.05L249.256 106.154L249.405 108.023H251.696L251.843 106.154L252.906 106.05Z" fill="#F04E30"/>
<path d="M249.583 100.72L249.257 101.491L249.494 101.999L249.975 101.727L250.726 101.346L251.373 100.747L250.82 100.203L249.583 100.72Z" fill="#736357"/>
<path d="M251.373 100.747L250.958 101.131L251.586 101.918L251.698 101.668L251.754 101.309L251.373 100.747Z" fill="#736357"/>
</g>
<path d="M253.585 102.372H258.139V102.761H253.585V102.372Z" fill="white"/>
<path d="M253.585 101.151H258.139V101.539H253.585V101.151Z" fill="white"/>
<path d="M253.585 103.594H258.139V103.927H253.585V103.594Z" fill="white"/>
<path d="M255.862 104.761H258.139V105.094H255.862V104.761Z" fill="white"/>
<rect x="252.974" y="97.5959" width="1.16637" height="1.83287" fill="#C4C4C4"/>
</g>
<path d="M1.44 264V247.2H13.2L11.64 253.92H13.2V264H1.44ZM5.04 257.28V260.64H9.6V257.28H5.04ZM5.04 253.92H8.16L9 250.56H5.04V253.92ZM25.6706 260.88V264H16.5506V251.04H25.6706V254.16H19.9106V260.88H25.6706ZM30.9497 264V254.16H27.5897V251.04H37.6697V254.16H34.3097V264H30.9497ZM40.08 251.04H43.44V252.48L46.08 251.04H50.16V264H43.44V268.56H40.08V251.04ZM46.8 254.16H45.24L43.44 255.12V260.88H46.8V254.16ZM63.1088 260.88V264H53.5088V251.04H63.5888V258.96H56.8688V260.88H63.1088ZM60.2288 256.08V253.92H56.8688V256.08H60.2288ZM73.1775 264V260.16H66.6975V251.04H70.0575V257.04H73.1775V251.04H76.5375V264H73.1775ZM80.1375 254.16V251.04H89.7375V264H79.6575V256.08H86.3775V254.16H80.1375ZM83.0175 258.96V261.12H86.3775V258.96H83.0175ZM98.9794 264V247.2H109.299V250.56H102.579V264H98.9794ZM108.835 264V260.88H110.275L111.835 251.04H120.355V264H116.995V254.16H114.715L113.155 264H108.835ZM123.962 254.16V251.04H133.562V264H123.482V256.08H130.202V254.16H123.962ZM126.842 258.96V261.12H130.202V258.96H126.842ZM136.916 264V251.04H147.236L145.916 256.08H146.996V264H136.916ZM140.276 258.96V261.12H143.636V258.96H140.276ZM140.276 256.08H142.556L143.156 253.92H140.276V256.08ZM154.792 266.16V260.88H155.992L157.552 251.04H166.072V260.88H167.392V266.16H164.032V264H158.152V266.16H154.792ZM160.432 254.16L159.352 260.88H162.712V254.16H160.432ZM179.631 260.88V264H170.031V251.04H180.111V258.96H173.391V260.88H179.631ZM176.751 256.08V253.92H173.391V256.08H176.751ZM182.259 264V260.88H183.699L185.259 251.04H193.779V264H190.419V254.16H188.139L186.579 264H182.259ZM206.746 260.88V264H197.146V251.04H207.226V258.96H200.506V260.88H206.746ZM203.866 256.08V253.92H200.506V256.08H203.866ZM210.575 264V251.04H219.215V254.16H213.935V264H210.575ZM221.618 254.16V251.04H231.218V264H221.138V256.08H227.858V254.16H221.618ZM224.498 258.96V261.12H227.858V258.96H224.498ZM241.053 260.88V251.04H244.413V260.88H245.733V266.16H242.373V264H234.573V251.04H237.933V260.88H241.053ZM258.457 264H255.097V257.64L248.857 264.36H248.377V251.04H251.737V257.4L257.977 250.68H258.457V264ZM263.605 248.88V245.28H266.005V246.576H267.685V245.28H270.085V248.88H263.605ZM271.885 264H268.525V257.64L262.285 264.36H261.805V251.04H265.165V257.4L271.405 250.68H271.885V264ZM11.28 296H7.92V289.64L1.68 296.36H1.2V283.04H4.56V289.4L10.8 282.68H11.28V296ZM23.6363 286.16V296H20.2763V283.04H30.3563V296H26.9963V286.16H23.6363ZM34.425 300.56V297.44H40.425V293.84L37.785 295.28H33.705V283.04H37.065V292.16H38.625L40.425 291.2V283.04H43.785V300.56H34.425ZM56.7338 282.8H50.4938V285.2H57.2138V296H47.1338V279.44H53.3738V278.48H56.7338V282.8ZM53.8538 292.88V288.32H50.4938V292.88H53.8538ZM59.3625 296V292.88H60.8025L62.3625 283.04H70.8825V296H67.5225V286.16H65.2425L63.6825 296H59.3625ZM84.3291 296H80.9691V289.64L74.7291 296.36H74.2491V283.04H77.6091V289.4L83.8491 282.68H84.3291V296ZM87.6778 296V283.04H91.0378V296H87.6778ZM94.8778 289.52L98.2378 296H94.7578L91.3978 289.52L94.5178 283.04H97.9978L94.8778 289.52ZM100.643 286.16V283.04H110.243V296H100.163V288.08H106.883V286.16H100.643ZM103.523 290.96V293.12H106.883V290.96H103.523ZM120.078 292.88V283.04H123.438V292.88H124.758V298.16H121.398V296H113.598V283.04H116.958V292.88H120.078ZM137.482 296H134.122V289.64L127.882 296.36H127.402V283.04H130.762V289.4L137.002 282.68H137.482V296ZM147.55 296V291.92H145.39L143.83 296H140.35L141.91 291.92H140.83V283.04H150.91V296H147.55ZM144.19 286.16V288.8H147.55V286.16H144.19ZM159.907 283.04H163.267V284.48L165.907 283.04H169.987V296H163.267V300.56H159.907V283.04ZM166.627 286.16H165.067L163.267 287.12V292.88H166.627V286.16ZM174.055 300.56V297.44H180.055V293.84L177.415 295.28H173.335V283.04H176.695V292.16H178.255L180.055 291.2V283.04H183.415V300.56H174.055ZM186.764 296V283.04H190.124V296H186.764ZM193.964 289.52L197.324 296H193.844L190.484 289.52L193.604 283.04H197.084L193.964 289.52ZM209.57 296H199.49V283.04H209.57V296ZM206.21 292.88V286.16H202.85V292.88H206.21ZM212.918 296V283.04H223.238L221.918 288.08H222.998V296H212.918ZM216.278 290.96V293.12H219.638V290.96H216.278ZM216.278 288.08H218.558L219.158 285.92H216.278V288.08ZM236.427 296H226.347V283.04H236.427V296ZM233.067 292.88V286.16H229.707V292.88H233.067ZM238.576 298.16V292.88H239.776L241.336 283.04H249.856V292.88H251.176V298.16H247.816V296H241.936V298.16H238.576ZM244.216 286.16L243.136 292.88H246.496V286.16H244.216ZM262.934 292.88V296H253.814V283.04H262.934V286.16H257.174V292.88H262.934ZM268.213 296V286.16H264.853V283.04H274.933V286.16H271.573V296H268.213ZM277.343 296V283.04H287.663L286.343 288.08H287.423V296H277.343ZM280.703 290.96V293.12H284.063V290.96H280.703ZM280.703 288.08H282.983L283.583 285.92H280.703V288.08ZM291.012 286.16V283.04H300.612V296H290.532V288.08H297.252V286.16H291.012ZM293.892 290.96V293.12H297.252V290.96H293.892ZM0 330.16V324.88H1.2L2.76 315.04H11.28V324.88H12.6V330.16H9.24V328H3.36V330.16H0ZM5.64 318.16L4.56 324.88H7.92V318.16H5.64ZM14.0381 328V324.88H15.4781L17.0381 315.04H25.5581V328H22.1981V318.16H19.9181L18.3581 328H14.0381ZM35.6447 328V323.92H33.4847L31.9247 328H28.4447L30.0047 323.92H28.9247V315.04H39.0047V328H35.6447ZM32.2847 318.16V320.8H35.6447V318.16H32.2847ZM48.2409 328V311.2H58.5609V314.56H51.8409V328H48.2409ZM58.0969 328V324.88H59.5369L61.0969 315.04H69.6169V328H66.2569V318.16H63.9769L62.4169 328H58.0969ZM73.2234 318.16V315.04H82.8234V328H72.7434V320.08H79.4634V318.16H73.2234ZM76.1034 322.96V325.12H79.4634V322.96H76.1034ZM86.1778 328V315.04H96.4978L95.1778 320.08H96.2578V328H86.1778ZM89.5378 322.96V325.12H92.8978V322.96H89.5378ZM89.5378 320.08H91.8178L92.4178 317.92H89.5378V320.08ZM104.054 330.16V324.88H105.254L106.814 315.04H115.334V324.88H116.654V330.16H113.294V328H107.414V330.16H104.054ZM109.694 318.16L108.614 324.88H111.974V318.16H109.694ZM128.892 324.88V328H119.292V315.04H129.372V322.96H122.652V324.88H128.892ZM126.012 320.08V317.92H122.652V320.08H126.012ZM131.521 328V324.88H132.961L134.521 315.04H143.041V328H139.681V318.16H137.401L135.841 328H131.521ZM156.008 324.88V328H146.408V315.04H156.488V322.96H149.768V324.88H156.008ZM153.128 320.08V317.92H149.768V320.08H153.128ZM159.836 328V315.04H168.476V318.16H163.196V328H159.836ZM170.88 318.16V315.04H180.48V328H170.4V320.08H177.12V318.16H170.88ZM173.76 322.96V325.12H177.12V322.96H173.76ZM190.314 324.88V315.04H193.674V324.88H194.994V330.16H191.634V328H183.834V315.04H187.194V324.88H190.314ZM207.718 328H204.358V321.64L198.118 328.36H197.638V315.04H200.998V321.4L207.238 314.68H207.718V328ZM212.867 312.88V309.28H215.267V310.576H216.947V309.28H219.347V312.88H212.867ZM221.147 328H217.787V321.64L211.547 328.36H211.067V315.04H214.427V321.4L220.667 314.68H221.147V328ZM233.503 320.92L238.063 331.6H234.223L229.663 320.92L234.223 310.24H238.063L233.503 320.92ZM240.712 328V315.04H251.032L249.712 320.08H250.792V328H240.712ZM244.072 322.96V325.12H247.432V322.96H244.072ZM244.072 320.08H246.352L246.952 317.92H244.072V320.08ZM263.741 324.88V328H254.141V315.04H264.221V322.96H257.501V324.88H263.741ZM260.861 320.08V317.92H257.501V320.08H260.861ZM267.57 315.04H270.93V316.48L273.57 315.04H277.65V328H270.93V332.56H267.57V315.04ZM274.29 318.16H272.73L270.93 319.12V324.88H274.29V318.16ZM290.119 324.88V328H280.999V315.04H290.119V318.16H284.359V324.88H290.119ZM303.078 328H299.718V321.64L293.478 328.36H292.998V315.04H296.358V321.4L302.598 314.68H303.078V328ZM313.147 328V323.92H310.987L309.427 328H305.947L307.507 323.92H306.427V315.04H316.507V328H313.147ZM309.787 318.16V320.8H313.147V318.16H309.787ZM325.023 314.56V311.2H331.023V324.64H333.423V328H325.023V324.64H327.423V314.56H325.023ZM335.094 331.6L339.654 320.92L335.094 310.24H338.934L343.494 320.92L338.934 331.6H335.094Z" fill="#00377B"/>
<path d="M10.768 360H9.568C9.42933 360 9.31733 359.965 9.232 359.896C9.14667 359.827 9.08267 359.739 9.04 359.632L7.968 356.864H2.824L1.752 359.632C1.72 359.728 1.65867 359.813 1.568 359.888C1.47733 359.963 1.36267 360 1.224 360H0.032L4.616 348.536H6.184L10.768 360ZM3.256 355.744H7.536L5.736 351.08C5.67733 350.941 5.61867 350.781 5.56 350.6C5.50667 350.419 5.45067 350.224 5.392 350.016C5.33867 350.224 5.28267 350.421 5.224 350.608C5.17067 350.789 5.11467 350.949 5.056 351.088L3.256 355.744ZM21.1009 360H19.5409V349.76H13.8129V360H12.2609V348.536H21.1009V360ZM25.5705 355.712V360H24.0265V348.536H27.4105C28.1358 348.536 28.7652 348.621 29.2985 348.792C29.8372 348.957 30.2825 349.195 30.6345 349.504C30.9865 349.813 31.2478 350.187 31.4185 350.624C31.5945 351.061 31.6825 351.549 31.6825 352.088C31.6825 352.621 31.5892 353.109 31.4025 353.552C31.2158 353.995 30.9412 354.376 30.5785 354.696C30.2212 355.016 29.7758 355.267 29.2425 355.448C28.7145 355.624 28.1038 355.712 27.4105 355.712H25.5705ZM25.5705 354.48H27.4105C27.8532 354.48 28.2425 354.421 28.5785 354.304C28.9198 354.187 29.2052 354.024 29.4345 353.816C29.6692 353.603 29.8452 353.349 29.9625 353.056C30.0798 352.763 30.1385 352.44 30.1385 352.088C30.1385 351.357 29.9118 350.787 29.4585 350.376C29.0105 349.965 28.3278 349.76 27.4105 349.76H25.5705V354.48ZM40.6999 348.536V349.8H35.1879V353.608H39.6519V354.824H35.1879V358.736H40.7079L40.6999 360H33.6359V348.536H40.6999ZM51.5503 348.536V360H49.9983V349.76H46.2063C46.1316 351.232 46.0303 352.509 45.9023 353.592C45.7796 354.675 45.6276 355.6 45.4462 356.368C45.2703 357.136 45.0676 357.763 44.8383 358.248C44.6143 358.728 44.3663 359.107 44.0943 359.384C43.8276 359.661 43.5396 359.851 43.2303 359.952C42.9209 360.053 42.5929 360.104 42.2463 360.104C41.9583 360.104 41.7369 360.077 41.5823 360.024C41.4276 359.976 41.3502 359.901 41.3502 359.8V358.816H41.9103C42.1236 358.816 42.3343 358.776 42.5423 358.696C42.7503 358.611 42.9503 358.443 43.1423 358.192C43.3343 357.941 43.5156 357.584 43.6863 357.12C43.8569 356.656 44.0116 356.043 44.1503 355.28C44.2889 354.517 44.4089 353.587 44.5103 352.488C44.6116 351.384 44.6889 350.067 44.7423 348.536H51.5503ZM56.0236 348.536V353.472H58.2556C58.9543 353.472 59.557 353.549 60.0636 353.704C60.5703 353.853 60.9863 354.067 61.3116 354.344C61.6423 354.616 61.885 354.941 62.0396 355.32C62.1996 355.699 62.2796 356.112 62.2796 356.56C62.2796 357.088 62.189 357.565 62.0076 357.992C61.8316 358.413 61.5703 358.773 61.2236 359.072C60.8823 359.371 60.461 359.6 59.9596 359.76C59.4583 359.92 58.8876 360 58.2476 360H54.4796V348.536H56.0236ZM56.0236 354.704V358.768H58.2476C58.6903 358.768 59.069 358.717 59.3836 358.616C59.7036 358.515 59.9623 358.376 60.1596 358.2C60.3623 358.019 60.509 357.803 60.5996 357.552C60.6956 357.296 60.7436 357.016 60.7436 356.712C60.7436 356.392 60.6956 356.109 60.5996 355.864C60.509 355.613 60.3623 355.403 60.1596 355.232C59.9623 355.056 59.7063 354.925 59.3916 354.84C59.077 354.749 58.6983 354.704 58.2556 354.704H56.0236ZM71.5718 348.408C72.0571 348.408 72.5104 348.48 72.9318 348.624C73.3531 348.768 73.7184 348.979 74.0278 349.256C74.3371 349.528 74.5798 349.861 74.7558 350.256C74.9318 350.651 75.0198 351.099 75.0198 351.6C75.0198 352.027 74.9558 352.424 74.8278 352.792C74.6998 353.155 74.5264 353.501 74.3078 353.832C74.0891 354.163 73.8358 354.485 73.5478 354.8C73.2651 355.115 72.9638 355.432 72.6438 355.752L69.6198 358.84C69.8331 358.781 70.0491 358.736 70.2678 358.704C70.4864 358.667 70.6971 358.648 70.8998 358.648H74.7398C74.8944 358.648 75.0171 358.693 75.1077 358.784C75.1984 358.875 75.2438 358.992 75.2438 359.136V360H67.5958V359.512C67.5958 359.411 67.6171 359.307 67.6598 359.2C67.7024 359.093 67.7691 358.995 67.8598 358.904L71.5318 355.216C71.8358 354.907 72.1131 354.611 72.3638 354.328C72.6144 354.04 72.8278 353.752 73.0038 353.464C73.1798 353.176 73.3158 352.885 73.4118 352.592C73.5078 352.293 73.5558 351.976 73.5558 351.64C73.5558 351.304 73.5024 351.011 73.3958 350.76C73.2891 350.504 73.1424 350.293 72.9558 350.128C72.7744 349.963 72.5584 349.84 72.3078 349.76C72.0571 349.675 71.7878 349.632 71.4998 349.632C71.2064 349.632 70.9371 349.675 70.6918 349.76C70.4464 349.845 70.2278 349.965 70.0358 350.12C69.8491 350.269 69.6918 350.448 69.5638 350.656C69.4358 350.864 69.3451 351.093 69.2918 351.344C69.2278 351.531 69.1398 351.656 69.0278 351.72C68.9211 351.779 68.7691 351.795 68.5718 351.768L67.8278 351.64C67.9024 351.117 68.0464 350.656 68.2598 350.256C68.4784 349.851 68.7504 349.512 69.0758 349.24C69.4064 348.968 69.7824 348.763 70.2038 348.624C70.6251 348.48 71.0811 348.408 71.5718 348.408ZM84.925 354.272C84.925 355.275 84.8157 356.144 84.597 356.88C84.3837 357.611 84.0903 358.216 83.717 358.696C83.3437 359.176 82.901 359.533 82.389 359.768C81.8823 360.003 81.3383 360.12 80.757 360.12C80.1703 360.12 79.6237 360.003 79.117 359.768C78.6157 359.533 78.1783 359.176 77.805 358.696C77.4317 358.216 77.1383 357.611 76.925 356.88C76.7117 356.144 76.605 355.275 76.605 354.272C76.605 353.269 76.7117 352.4 76.925 351.664C77.1383 350.928 77.4317 350.32 77.805 349.84C78.1783 349.355 78.6157 348.995 79.117 348.76C79.6237 348.525 80.1703 348.408 80.757 348.408C81.3383 348.408 81.8823 348.525 82.389 348.76C82.901 348.995 83.3437 349.355 83.717 349.84C84.0903 350.32 84.3837 350.928 84.597 351.664C84.8157 352.4 84.925 353.269 84.925 354.272ZM83.445 354.272C83.445 353.397 83.3703 352.664 83.221 352.072C83.077 351.475 82.8797 350.995 82.629 350.632C82.3837 350.269 82.0983 350.011 81.773 349.856C81.4477 349.696 81.109 349.616 80.757 349.616C80.405 349.616 80.0663 349.696 79.741 349.856C79.4157 350.011 79.1303 350.269 78.885 350.632C78.6397 350.995 78.4423 351.475 78.293 352.072C78.149 352.664 78.077 353.397 78.077 354.272C78.077 355.147 78.149 355.88 78.293 356.472C78.4423 357.064 78.6397 357.541 78.885 357.904C79.1303 358.267 79.4157 358.528 79.741 358.688C80.0663 358.843 80.405 358.92 80.757 358.92C81.109 358.92 81.4477 358.843 81.773 358.688C82.0983 358.528 82.3837 358.267 82.629 357.904C82.8797 357.541 83.077 357.064 83.221 356.472C83.3703 355.88 83.445 355.147 83.445 354.272ZM90.1343 348.408C90.6196 348.408 91.0729 348.48 91.4943 348.624C91.9156 348.768 92.2809 348.979 92.5903 349.256C92.8996 349.528 93.1423 349.861 93.3183 350.256C93.4943 350.651 93.5823 351.099 93.5823 351.6C93.5823 352.027 93.5183 352.424 93.3903 352.792C93.2623 353.155 93.0889 353.501 92.8703 353.832C92.6516 354.163 92.3983 354.485 92.1103 354.8C91.8276 355.115 91.5263 355.432 91.2063 355.752L88.1823 358.84C88.3956 358.781 88.6116 358.736 88.8303 358.704C89.0489 358.667 89.2596 358.648 89.4623 358.648H93.3023C93.4569 358.648 93.5796 358.693 93.6702 358.784C93.7609 358.875 93.8063 358.992 93.8063 359.136V360H86.1583V359.512C86.1583 359.411 86.1796 359.307 86.2223 359.2C86.2649 359.093 86.3316 358.995 86.4223 358.904L90.0943 355.216C90.3983 354.907 90.6756 354.611 90.9263 354.328C91.1769 354.04 91.3903 353.752 91.5663 353.464C91.7423 353.176 91.8783 352.885 91.9743 352.592C92.0703 352.293 92.1183 351.976 92.1183 351.64C92.1183 351.304 92.0649 351.011 91.9583 350.76C91.8516 350.504 91.7049 350.293 91.5183 350.128C91.3369 349.963 91.1209 349.84 90.8703 349.76C90.6196 349.675 90.3503 349.632 90.0623 349.632C89.7689 349.632 89.4996 349.675 89.2543 349.76C89.0089 349.845 88.7903 349.965 88.5983 350.12C88.4116 350.269 88.2543 350.448 88.1263 350.656C87.9983 350.864 87.9076 351.093 87.8543 351.344C87.7903 351.531 87.7023 351.656 87.5903 351.72C87.4836 351.779 87.3316 351.795 87.1343 351.768L86.3903 351.64C86.4649 351.117 86.6089 350.656 86.8223 350.256C87.0409 349.851 87.3129 349.512 87.6383 349.24C87.9689 348.968 88.3449 348.763 88.7663 348.624C89.1876 348.48 89.6436 348.408 90.1343 348.408ZM99.4715 348.408C99.9568 348.408 100.405 348.477 100.816 348.616C101.226 348.755 101.578 348.952 101.872 349.208C102.17 349.464 102.402 349.773 102.568 350.136C102.733 350.499 102.816 350.901 102.816 351.344C102.816 351.707 102.768 352.032 102.672 352.32C102.581 352.603 102.448 352.853 102.272 353.072C102.101 353.285 101.893 353.467 101.648 353.616C101.402 353.765 101.128 353.885 100.824 353.976C101.57 354.173 102.13 354.504 102.504 354.968C102.882 355.432 103.072 356.013 103.072 356.712C103.072 357.24 102.97 357.715 102.767 358.136C102.57 358.557 102.298 358.917 101.952 359.216C101.605 359.509 101.2 359.736 100.736 359.896C100.277 360.051 99.7835 360.128 99.2555 360.128C98.6475 360.128 98.1275 360.053 97.6955 359.904C97.2635 359.749 96.8982 359.539 96.5995 359.272C96.3008 359.005 96.0555 358.691 95.8635 358.328C95.6715 357.96 95.5088 357.563 95.3755 357.136L95.9915 356.88C96.1515 356.811 96.3062 356.792 96.4555 356.824C96.6102 356.856 96.7222 356.944 96.7915 357.088C96.8608 357.237 96.9462 357.416 97.0475 357.624C97.1542 357.832 97.2982 358.032 97.4795 358.224C97.6608 358.416 97.8902 358.579 98.1675 358.712C98.4502 358.845 98.8075 358.912 99.2395 358.912C99.6395 358.912 99.9888 358.848 100.288 358.72C100.592 358.587 100.842 358.416 101.04 358.208C101.242 358 101.394 357.768 101.496 357.512C101.597 357.256 101.648 357.003 101.648 356.752C101.648 356.443 101.608 356.16 101.528 355.904C101.448 355.648 101.298 355.427 101.08 355.24C100.861 355.053 100.56 354.907 100.176 354.8C99.7968 354.693 99.3088 354.64 98.7115 354.64V353.608C99.2022 353.603 99.6182 353.549 99.9595 353.448C100.306 353.347 100.586 353.208 100.8 353.032C101.018 352.856 101.176 352.645 101.272 352.4C101.373 352.155 101.424 351.883 101.424 351.584C101.424 351.253 101.37 350.965 101.264 350.72C101.162 350.475 101.021 350.272 100.84 350.112C100.658 349.952 100.442 349.832 100.192 349.752C99.9462 349.672 99.6795 349.632 99.3915 349.632C99.1035 349.632 98.8342 349.675 98.5835 349.76C98.3382 349.845 98.1195 349.965 97.9275 350.12C97.7408 350.269 97.5835 350.448 97.4555 350.656C97.3275 350.864 97.2368 351.093 97.1835 351.344C97.1142 351.531 97.0262 351.656 96.9195 351.72C96.8182 351.779 96.6688 351.795 96.4715 351.768L95.7275 351.64C95.8022 351.117 95.9462 350.656 96.1595 350.256C96.3728 349.851 96.6422 349.512 96.9675 349.24C97.2982 348.968 97.6742 348.763 98.0955 348.624C98.5222 348.48 98.9808 348.408 99.4715 348.408Z" fill="#F04E30"/>
</g>
<defs>
<clipPath id="clip0_9205_76289">
<rect width="493" height="360" fill="white"/>
</clipPath>
<clipPath id="clip1_9205_76289">
<rect width="114.022" height="183.776" fill="white" transform="translate(86.0229 22)"/>
</clipPath>
<clipPath id="clip2_9205_76289">
<rect width="63.5267" height="181.169" fill="white" transform="translate(0 24.6067)"/>
</clipPath>
<clipPath id="clip3_9205_76289">
<rect width="53.2124" height="175.791" fill="white" transform="translate(226.788 29.8203)"/>
</clipPath>
</defs>
</svg>
