<svg width="493" height="350" viewBox="0 0 493 350" fill="none" xmlns="http://www.w3.org/2000/svg">
<path d="M1.44 231.2H13.2V248H9.6V234.56H5.04V248H1.44V231.2ZM17.5284 252.56V249.44H23.5284V245.84L20.8884 247.28H16.8084V235.04H20.1684V244.16H21.7284L23.5284 243.2V235.04H26.8884V252.56H17.5284ZM39.8372 234.8H33.5972V237.2H40.3172V248H30.2372V231.44H36.4772V230.48H39.8372V234.8ZM36.9572 244.88V240.32H33.5972V244.88H36.9572ZM42.4659 248V244.88H43.9059L45.4659 235.04H53.9859V248H50.6259V238.16H48.3459L46.7859 248H42.4659ZM67.4325 248H64.0725V241.64L57.8325 248.36H57.3525V235.04H60.7125V241.4L66.9525 234.68H67.4325V248ZM70.7813 248V235.04H74.1413V248H70.7813ZM77.9813 241.52L81.3413 248H77.8613L74.5013 241.52L77.6213 235.04H81.1013L77.9813 241.52ZM83.7469 238.16V235.04H93.3469V248H83.2669V240.08H89.9869V238.16H83.7469ZM86.6269 242.96V245.12H89.9869V242.96H86.6269ZM103.181 244.88V235.04H106.541V244.88H107.861V250.16H104.501V248H96.7013V235.04H100.061V244.88H103.181ZM120.585 248H117.225V241.64L110.985 248.36H110.505V235.04H113.865V241.4L120.105 234.68H120.585V248ZM130.654 248V243.92H128.494L126.934 248H123.454L125.014 243.92H123.934V235.04H134.014V248H130.654ZM127.294 238.16V240.8H130.654V238.16H127.294ZM143.01 235.04H146.37V236.48L149.01 235.04H153.09V248H146.37V252.56H143.01V235.04ZM149.73 238.16H148.17L146.37 239.12V244.88H149.73V238.16ZM157.159 252.56V249.44H163.159V245.84L160.519 247.28H156.439V235.04H159.799V244.16H161.359L163.159 243.2V235.04H166.519V252.56H157.159ZM169.867 248V235.04H173.227V248H169.867ZM177.067 241.52L180.427 248H176.947L173.587 241.52L176.707 235.04H180.187L177.067 241.52ZM192.673 248H182.593V235.04H192.673V248ZM189.313 244.88V238.16H185.953V244.88H189.313ZM196.022 248V235.04H206.342L205.022 240.08H206.102V248H196.022ZM199.382 242.96V245.12H202.742V242.96H199.382ZM199.382 240.08H201.662L202.262 237.92H199.382V240.08ZM219.531 248H209.451V235.04H219.531V248ZM216.171 244.88V238.16H212.811V244.88H216.171ZM221.679 250.16V244.88H222.879L224.439 235.04H232.959V244.88H234.279V250.16H230.919V248H225.039V250.16H221.679ZM227.319 238.16L226.239 244.88H229.599V238.16H227.319ZM246.037 244.88V248H236.917V235.04H246.037V238.16H240.277V244.88H246.037ZM251.317 248V238.16H247.957V235.04H258.037V238.16H254.677V248H251.317ZM260.447 248V235.04H270.767L269.447 240.08H270.527V248H260.447ZM263.807 242.96V245.12H267.167V242.96H263.807ZM263.807 240.08H266.087L266.687 237.92H263.807V240.08ZM274.116 238.16V235.04H283.716V248H273.636V240.08H280.356V238.16H274.116ZM276.996 242.96V245.12H280.356V242.96H276.996ZM0 282.16V276.88H1.2L2.76 267.04H11.28V276.88H12.6V282.16H9.24V280H3.36V282.16H0ZM5.64 270.16L4.56 276.88H7.92V270.16H5.64ZM14.0381 280V276.88H15.4781L17.0381 267.04H25.5581V280H22.1981V270.16H19.9181L18.3581 280H14.0381ZM35.6447 280V275.92H33.4847L31.9247 280H28.4447L30.0047 275.92H28.9247V267.04H39.0047V280H35.6447ZM32.2847 270.16V272.8H35.6447V270.16H32.2847ZM48.2409 280V263.2H58.5609V266.56H51.8409V280H48.2409ZM58.0969 280V276.88H59.5369L61.0969 267.04H69.6169V280H66.2569V270.16H63.9769L62.4169 280H58.0969ZM73.2234 270.16V267.04H82.8234V280H72.7434V272.08H79.4634V270.16H73.2234ZM76.1034 274.96V277.12H79.4634V274.96H76.1034ZM86.1778 280V267.04H96.4978L95.1778 272.08H96.2578V280H86.1778ZM89.5378 274.96V277.12H92.8978V274.96H89.5378ZM89.5378 272.08H91.8178L92.4178 269.92H89.5378V272.08ZM104.054 282.16V276.88H105.254L106.814 267.04H115.334V276.88H116.654V282.16H113.294V280H107.414V282.16H104.054ZM109.694 270.16L108.614 276.88H111.974V270.16H109.694ZM128.892 276.88V280H119.292V267.04H129.372V274.96H122.652V276.88H128.892ZM126.012 272.08V269.92H122.652V272.08H126.012ZM131.521 280V276.88H132.961L134.521 267.04H143.041V280H139.681V270.16H137.401L135.841 280H131.521ZM156.008 276.88V280H146.408V267.04H156.488V274.96H149.768V276.88H156.008ZM153.128 272.08V269.92H149.768V272.08H153.128ZM159.836 280V267.04H168.476V270.16H163.196V280H159.836ZM170.88 270.16V267.04H180.48V280H170.4V272.08H177.12V270.16H170.88ZM173.76 274.96V277.12H177.12V274.96H173.76ZM190.314 276.88V267.04H193.674V276.88H194.994V282.16H191.634V280H183.834V267.04H187.194V276.88H190.314ZM207.718 280H204.358V273.64L198.118 280.36H197.638V267.04H200.998V273.4L207.238 266.68H207.718V280ZM212.867 264.88V261.28H215.267V262.576H216.947V261.28H219.347V264.88H212.867ZM221.147 280H217.787V273.64L211.547 280.36H211.067V267.04H214.427V273.4L220.667 266.68H221.147V280ZM4.56 304.92L9.12 315.6H5.28L0.72 304.92L5.28 294.24H9.12L4.56 304.92ZM11.7694 312V299.04H22.0894L20.7694 304.08H21.8494V312H11.7694ZM15.1294 306.96V309.12H18.4894V306.96H15.1294ZM15.1294 304.08H17.4094L18.0094 301.92H15.1294V304.08ZM34.7981 308.88V312H25.1981V299.04H35.2781V306.96H28.5581V308.88H34.7981ZM31.9181 304.08V301.92H28.5581V304.08H31.9181ZM38.6269 299.04H41.9869V300.48L44.6269 299.04H48.7069V312H41.9869V316.56H38.6269V299.04ZM45.3469 302.16H43.7869L41.9869 303.12V308.88H45.3469V302.16ZM61.1756 308.88V312H52.0556V299.04H61.1756V302.16H55.4156V308.88H61.1756ZM74.1347 312H70.7747V305.64L64.5347 312.36H64.0547V299.04H67.4147V305.4L73.6547 298.68H74.1347V312ZM84.2034 312V307.92H82.0434L80.4834 312H77.0034L78.5634 307.92H77.4834V299.04H87.5634V312H84.2034ZM80.8434 302.16V304.8H84.2034V302.16H80.8434ZM107.24 295.2V305.04H100.16V308.64H107.24V312H96.5597V301.68H103.64V298.56H96.5597V295.2H107.24ZM109.878 315.6L114.438 304.92L109.878 294.24H113.718L118.278 304.92L113.718 315.6H109.878Z" fill="#00377B"/>
<path d="M10.768 344H9.568C9.42933 344 9.31733 343.965 9.232 343.896C9.14667 343.827 9.08267 343.739 9.04 343.632L7.968 340.864H2.824L1.752 343.632C1.72 343.728 1.65867 343.813 1.568 343.888C1.47733 343.963 1.36267 344 1.224 344H0.032L4.616 332.536H6.184L10.768 344ZM3.256 339.744H7.536L5.736 335.08C5.67733 334.941 5.61867 334.781 5.56 334.6C5.50667 334.419 5.45067 334.224 5.392 334.016C5.33867 334.224 5.28267 334.421 5.224 334.608C5.17067 334.789 5.11467 334.949 5.056 335.088L3.256 339.744ZM12.2609 344V332.536H15.9169C16.6209 332.536 17.2262 332.605 17.7329 332.744C18.2449 332.883 18.6635 333.08 18.9889 333.336C19.3195 333.592 19.5622 333.907 19.7169 334.28C19.8715 334.648 19.9489 335.064 19.9489 335.528C19.9489 335.811 19.9035 336.083 19.8129 336.344C19.7275 336.605 19.5969 336.848 19.4209 337.072C19.2449 337.296 19.0209 337.496 18.7489 337.672C18.4822 337.848 18.1675 337.992 17.8049 338.104C18.6422 338.269 19.2742 338.571 19.7009 339.008C20.1275 339.445 20.3409 340.021 20.3409 340.736C20.3409 341.221 20.2502 341.664 20.0689 342.064C19.8929 342.464 19.6315 342.808 19.2849 343.096C18.9435 343.384 18.5222 343.608 18.0209 343.768C17.5195 343.923 16.9489 344 16.3089 344H12.2609ZM13.8049 338.776V342.768H16.2849C16.7275 342.768 17.1089 342.717 17.4289 342.616C17.7489 342.515 18.0102 342.373 18.2129 342.192C18.4209 342.005 18.5729 341.787 18.6689 341.536C18.7649 341.28 18.8129 341 18.8129 340.696C18.8129 340.104 18.6022 339.637 18.1809 339.296C17.7595 338.949 17.1275 338.776 16.2849 338.776H13.8049ZM13.8049 337.672H15.8529C16.2902 337.672 16.6689 337.624 16.9889 337.528C17.3142 337.432 17.5809 337.299 17.7889 337.128C18.0022 336.957 18.1595 336.752 18.2609 336.512C18.3622 336.267 18.4129 336 18.4129 335.712C18.4129 335.035 18.2102 334.541 17.8049 334.232C17.3995 333.917 16.7702 333.76 15.9169 333.76H13.8049V337.672ZM29.5086 333.76H24.1566V344H22.6046V332.536H29.5086V333.76ZM32.414 342.816C32.5473 342.816 32.6807 342.803 32.814 342.776C32.9473 342.744 33.0753 342.691 33.198 342.616C33.3207 342.541 33.438 342.443 33.55 342.32C33.662 342.192 33.7633 342.032 33.854 341.84L34.414 340.672L29.806 332.536H31.254C31.3927 332.536 31.502 332.571 31.582 332.64C31.662 332.704 31.7313 332.789 31.79 332.896L34.622 338.096C34.8193 338.475 34.9793 338.859 35.102 339.248C35.1553 339.056 35.2193 338.864 35.294 338.672C35.3687 338.48 35.4513 338.288 35.542 338.096L37.95 332.896C37.9927 332.805 38.0567 332.723 38.142 332.648C38.2327 332.573 38.3447 332.536 38.478 332.536H39.758L35.102 342.504C34.958 342.819 34.8007 343.08 34.63 343.288C34.4647 343.491 34.286 343.653 34.094 343.776C33.902 343.893 33.694 343.976 33.47 344.024C33.246 344.077 33.006 344.104 32.75 344.104C32.462 344.104 32.2407 344.077 32.086 344.024C31.9313 343.976 31.854 343.901 31.854 343.8V342.816H32.414ZM48.8714 341.632C48.9567 341.632 49.0314 341.667 49.0954 341.736L49.7114 342.4C49.242 342.944 48.6714 343.368 47.9994 343.672C47.3327 343.976 46.5247 344.128 45.5754 344.128C44.754 344.128 44.0074 343.987 43.3354 343.704C42.6634 343.416 42.09 343.016 41.6154 342.504C41.1407 341.987 40.7727 341.368 40.5114 340.648C40.25 339.928 40.1194 339.136 40.1194 338.272C40.1194 337.408 40.2554 336.616 40.5274 335.896C40.7994 335.176 41.1807 334.557 41.6714 334.04C42.1674 333.523 42.7594 333.123 43.4474 332.84C44.1354 332.552 44.8954 332.408 45.7274 332.408C46.5434 332.408 47.2634 332.539 47.8874 332.8C48.5114 333.061 49.0607 333.416 49.5354 333.864L49.0234 334.576C48.9914 334.629 48.9487 334.675 48.8954 334.712C48.8474 334.744 48.7807 334.76 48.6954 334.76C48.5994 334.76 48.482 334.709 48.3434 334.608C48.2047 334.501 48.0234 334.384 47.7994 334.256C47.5754 334.128 47.2954 334.013 46.9594 333.912C46.6234 333.805 46.21 333.752 45.7194 333.752C45.1274 333.752 44.586 333.856 44.0954 334.064C43.6047 334.267 43.1807 334.563 42.8234 334.952C42.4714 335.341 42.1967 335.816 41.9994 336.376C41.802 336.936 41.7034 337.568 41.7034 338.272C41.7034 338.987 41.8047 339.624 42.0074 340.184C42.2154 340.744 42.4954 341.219 42.8474 341.608C43.2047 341.992 43.6234 342.285 44.1034 342.488C44.5887 342.691 45.1114 342.792 45.6714 342.792C46.0127 342.792 46.3194 342.773 46.5914 342.736C46.8687 342.693 47.122 342.629 47.3514 342.544C47.586 342.459 47.802 342.352 47.9994 342.224C48.202 342.091 48.402 341.933 48.5994 341.752C48.69 341.672 48.7807 341.632 48.8714 341.632ZM59.2629 332.536V333.84H55.5509V344H54.0069V333.84H50.2869V332.536H59.2629ZM68.3218 332.408C68.8071 332.408 69.2604 332.48 69.6818 332.624C70.1031 332.768 70.4684 332.979 70.7778 333.256C71.0871 333.528 71.3298 333.861 71.5058 334.256C71.6818 334.651 71.7698 335.099 71.7698 335.6C71.7698 336.027 71.7058 336.424 71.5778 336.792C71.4498 337.155 71.2764 337.501 71.0578 337.832C70.8391 338.163 70.5858 338.485 70.2978 338.8C70.0151 339.115 69.7138 339.432 69.3938 339.752L66.3698 342.84C66.5831 342.781 66.7991 342.736 67.0178 342.704C67.2364 342.667 67.4471 342.648 67.6498 342.648H71.4898C71.6444 342.648 71.7671 342.693 71.8577 342.784C71.9484 342.875 71.9938 342.992 71.9938 343.136V344H64.3458V343.512C64.3458 343.411 64.3671 343.307 64.4098 343.2C64.4524 343.093 64.5191 342.995 64.6098 342.904L68.2818 339.216C68.5858 338.907 68.8631 338.611 69.1138 338.328C69.3644 338.04 69.5778 337.752 69.7538 337.464C69.9298 337.176 70.0658 336.885 70.1618 336.592C70.2578 336.293 70.3058 335.976 70.3058 335.64C70.3058 335.304 70.2524 335.011 70.1458 334.76C70.0391 334.504 69.8924 334.293 69.7058 334.128C69.5244 333.963 69.3084 333.84 69.0578 333.76C68.8071 333.675 68.5378 333.632 68.2498 333.632C67.9564 333.632 67.6871 333.675 67.4418 333.76C67.1964 333.845 66.9778 333.965 66.7858 334.12C66.5991 334.269 66.4418 334.448 66.3138 334.656C66.1858 334.864 66.0951 335.093 66.0418 335.344C65.9778 335.531 65.8898 335.656 65.7778 335.72C65.6711 335.779 65.5191 335.795 65.3218 335.768L64.5778 335.64C64.6524 335.117 64.7964 334.656 65.0098 334.256C65.2284 333.851 65.5004 333.512 65.8258 333.24C66.1564 332.968 66.5324 332.763 66.9538 332.624C67.3751 332.48 67.8311 332.408 68.3218 332.408ZM81.675 338.272C81.675 339.275 81.5657 340.144 81.347 340.88C81.1337 341.611 80.8403 342.216 80.467 342.696C80.0937 343.176 79.651 343.533 79.139 343.768C78.6323 344.003 78.0883 344.12 77.507 344.12C76.9203 344.12 76.3737 344.003 75.867 343.768C75.3657 343.533 74.9283 343.176 74.555 342.696C74.1817 342.216 73.8883 341.611 73.675 340.88C73.4617 340.144 73.355 339.275 73.355 338.272C73.355 337.269 73.4617 336.4 73.675 335.664C73.8883 334.928 74.1817 334.32 74.555 333.84C74.9283 333.355 75.3657 332.995 75.867 332.76C76.3737 332.525 76.9203 332.408 77.507 332.408C78.0883 332.408 78.6323 332.525 79.139 332.76C79.651 332.995 80.0937 333.355 80.467 333.84C80.8403 334.32 81.1337 334.928 81.347 335.664C81.5657 336.4 81.675 337.269 81.675 338.272ZM80.195 338.272C80.195 337.397 80.1203 336.664 79.971 336.072C79.827 335.475 79.6297 334.995 79.379 334.632C79.1337 334.269 78.8483 334.011 78.523 333.856C78.1977 333.696 77.859 333.616 77.507 333.616C77.155 333.616 76.8163 333.696 76.491 333.856C76.1657 334.011 75.8803 334.269 75.635 334.632C75.3897 334.995 75.1923 335.475 75.043 336.072C74.899 336.664 74.827 337.397 74.827 338.272C74.827 339.147 74.899 339.88 75.043 340.472C75.1923 341.064 75.3897 341.541 75.635 341.904C75.8803 342.267 76.1657 342.528 76.491 342.688C76.8163 342.843 77.155 342.92 77.507 342.92C77.859 342.92 78.1977 342.843 78.523 342.688C78.8483 342.528 79.1337 342.267 79.379 341.904C79.6297 341.541 79.827 341.064 79.971 340.472C80.1203 339.88 80.195 339.147 80.195 338.272ZM86.8843 332.408C87.3696 332.408 87.8229 332.48 88.2443 332.624C88.6656 332.768 89.0309 332.979 89.3403 333.256C89.6496 333.528 89.8923 333.861 90.0683 334.256C90.2443 334.651 90.3323 335.099 90.3323 335.6C90.3323 336.027 90.2683 336.424 90.1403 336.792C90.0123 337.155 89.8389 337.501 89.6203 337.832C89.4016 338.163 89.1483 338.485 88.8603 338.8C88.5776 339.115 88.2763 339.432 87.9563 339.752L84.9323 342.84C85.1456 342.781 85.3616 342.736 85.5803 342.704C85.7989 342.667 86.0096 342.648 86.2123 342.648H90.0523C90.2069 342.648 90.3296 342.693 90.4202 342.784C90.5109 342.875 90.5563 342.992 90.5563 343.136V344H82.9083V343.512C82.9083 343.411 82.9296 343.307 82.9723 343.2C83.0149 343.093 83.0816 342.995 83.1723 342.904L86.8443 339.216C87.1483 338.907 87.4256 338.611 87.6763 338.328C87.9269 338.04 88.1403 337.752 88.3163 337.464C88.4923 337.176 88.6283 336.885 88.7243 336.592C88.8203 336.293 88.8683 335.976 88.8683 335.64C88.8683 335.304 88.8149 335.011 88.7083 334.76C88.6016 334.504 88.4549 334.293 88.2683 334.128C88.0869 333.963 87.8709 333.84 87.6203 333.76C87.3696 333.675 87.1003 333.632 86.8123 333.632C86.5189 333.632 86.2496 333.675 86.0043 333.76C85.7589 333.845 85.5403 333.965 85.3483 334.12C85.1616 334.269 85.0043 334.448 84.8763 334.656C84.7483 334.864 84.6576 335.093 84.6043 335.344C84.5403 335.531 84.4523 335.656 84.3403 335.72C84.2336 335.779 84.0816 335.795 83.8843 335.768L83.1403 335.64C83.2149 335.117 83.3589 334.656 83.5723 334.256C83.7909 333.851 84.0629 333.512 84.3883 333.24C84.7189 332.968 85.0949 332.763 85.5163 332.624C85.9376 332.48 86.3936 332.408 86.8843 332.408ZM96.2215 332.408C96.7068 332.408 97.1548 332.477 97.5655 332.616C97.9762 332.755 98.3282 332.952 98.6215 333.208C98.9202 333.464 99.1522 333.773 99.3175 334.136C99.4828 334.499 99.5655 334.901 99.5655 335.344C99.5655 335.707 99.5175 336.032 99.4215 336.32C99.3308 336.603 99.1975 336.853 99.0215 337.072C98.8508 337.285 98.6428 337.467 98.3975 337.616C98.1522 337.765 97.8775 337.885 97.5735 337.976C98.3202 338.173 98.8802 338.504 99.2535 338.968C99.6322 339.432 99.8215 340.013 99.8215 340.712C99.8215 341.24 99.7202 341.715 99.5175 342.136C99.3202 342.557 99.0482 342.917 98.7015 343.216C98.3548 343.509 97.9495 343.736 97.4855 343.896C97.0268 344.051 96.5335 344.128 96.0055 344.128C95.3975 344.128 94.8775 344.053 94.4455 343.904C94.0135 343.749 93.6482 343.539 93.3495 343.272C93.0508 343.005 92.8055 342.691 92.6135 342.328C92.4215 341.96 92.2588 341.563 92.1255 341.136L92.7415 340.88C92.9015 340.811 93.0562 340.792 93.2055 340.824C93.3602 340.856 93.4722 340.944 93.5415 341.088C93.6108 341.237 93.6962 341.416 93.7975 341.624C93.9042 341.832 94.0482 342.032 94.2295 342.224C94.4108 342.416 94.6402 342.579 94.9175 342.712C95.2002 342.845 95.5575 342.912 95.9895 342.912C96.3895 342.912 96.7388 342.848 97.0375 342.72C97.3415 342.587 97.5922 342.416 97.7895 342.208C97.9922 342 98.1442 341.768 98.2455 341.512C98.3468 341.256 98.3975 341.003 98.3975 340.752C98.3975 340.443 98.3575 340.16 98.2775 339.904C98.1975 339.648 98.0482 339.427 97.8295 339.24C97.6108 339.053 97.3095 338.907 96.9255 338.8C96.5468 338.693 96.0588 338.64 95.4615 338.64V337.608C95.9522 337.603 96.3682 337.549 96.7095 337.448C97.0562 337.347 97.3362 337.208 97.5495 337.032C97.7682 336.856 97.9255 336.645 98.0215 336.4C98.1228 336.155 98.1735 335.883 98.1735 335.584C98.1735 335.253 98.1202 334.965 98.0135 334.72C97.9122 334.475 97.7708 334.272 97.5895 334.112C97.4082 333.952 97.1922 333.832 96.9415 333.752C96.6962 333.672 96.4295 333.632 96.1415 333.632C95.8535 333.632 95.5842 333.675 95.3335 333.76C95.0882 333.845 94.8695 333.965 94.6775 334.12C94.4908 334.269 94.3335 334.448 94.2055 334.656C94.0775 334.864 93.9868 335.093 93.9335 335.344C93.8642 335.531 93.7762 335.656 93.6695 335.72C93.5682 335.779 93.4188 335.795 93.2215 335.768L92.4775 335.64C92.5522 335.117 92.6962 334.656 92.9095 334.256C93.1228 333.851 93.3922 333.512 93.7175 333.24C94.0482 332.968 94.4242 332.763 94.8455 332.624C95.2722 332.48 95.7308 332.408 96.2215 332.408Z" fill="#F04E30"/>
<path opacity="0.5" d="M259.975 108.996C243.695 147.365 199.372 165.268 161.01 148.98C122.63 132.692 104.728 88.3901 121.025 50.0036C137.322 11.6347 181.628 -6.26848 219.99 10.0199C258.37 26.3258 276.272 70.6274 259.975 108.996Z" fill="#FFE9A8"/>
<path fill-rule="evenodd" clip-rule="evenodd" d="M268.787 64.2111L266.991 68.4626L264.124 67.2515L265.92 63L268.787 64.2111ZM263.399 76.9656L259.807 85.4686L256.94 84.2575L260.532 75.7545L263.399 76.9656ZM256.215 93.9716L252.623 102.475L249.756 101.263L253.348 92.7605L256.215 93.9716ZM249.031 110.978L245.439 119.481L242.572 118.27L246.164 109.766L249.031 110.978ZM241.847 127.984L238.255 136.487L235.388 135.275L238.98 126.772L241.847 127.984ZM234.663 144.99L232.867 149.241L230 148.03L231.796 143.778L234.663 144.99Z" fill="#68AD45"/>
<rect x="19.439" y="90.6333" width="189" height="110" fill="#F04E30"/>
<rect x="108.439" y="90.6333" width="12" height="113" rx="6" fill="#F04E30"/>
<path fill-rule="evenodd" clip-rule="evenodd" d="M105.687 85.1504H27.439V200.464L27.439 193.368H105.687C109.886 193.368 113.367 196.443 114.001 200.464H114.104V93.5675C114.104 88.9188 110.335 85.1504 105.687 85.1504Z" fill="white"/>
<path fill-rule="evenodd" clip-rule="evenodd" d="M122.521 85.1504H200.769V193.368H122.521C118.322 193.368 114.841 196.443 114.207 200.464H114.104V93.5675C114.104 88.9188 117.872 85.1504 122.521 85.1504Z" fill="white"/>
<rect width="1.68342" height="110.264" transform="matrix(-1 0 0 1 114.946 90.2007)" fill="#72838A"/>
<rect x="43.439" y="133.633" width="58" height="3" fill="#E4E8E9"/>
<rect x="37.439" y="94.6333" width="64" height="34" fill="#E4E8E9"/>
<rect x="43.439" y="141.633" width="58" height="3" fill="#E4E8E9"/>
<rect x="43.439" y="149.633" width="58" height="3" fill="#E4E8E9"/>
<rect x="43.439" y="157.633" width="58" height="3" fill="#E4E8E9"/>
<rect x="43.439" y="165.633" width="58" height="3" fill="#E4E8E9"/>
<rect x="43.439" y="173.633" width="58" height="3" fill="#E4E8E9"/>
<rect x="43.439" y="181.633" width="58" height="3" fill="#E4E8E9"/>
<rect x="37.439" y="133.633" width="3" height="3" fill="#E4E8E9"/>
<rect x="37.439" y="141.633" width="3" height="3" fill="#E4E8E9"/>
<rect x="37.439" y="149.633" width="3" height="3" fill="#E4E8E9"/>
<rect x="37.439" y="157.633" width="3" height="3" fill="#E4E8E9"/>
<rect x="37.439" y="165.633" width="3" height="3" fill="#E4E8E9"/>
<rect x="37.439" y="173.633" width="3" height="3" fill="#E4E8E9"/>
<rect x="37.439" y="181.633" width="3" height="3" fill="#E4E8E9"/>
<rect x="132.439" y="133.633" width="58" height="3" fill="#E4E8E9"/>
<rect x="126.439" y="94.6333" width="64" height="34" fill="#E4E8E9"/>
<rect x="132.439" y="141.633" width="58" height="3" fill="#E4E8E9"/>
<rect x="132.439" y="149.633" width="58" height="3" fill="#E4E8E9"/>
<rect x="132.439" y="157.633" width="58" height="3" fill="#E4E8E9"/>
<rect x="132.439" y="165.633" width="58" height="3" fill="#E4E8E9"/>
<rect x="132.439" y="173.633" width="58" height="3" fill="#E4E8E9"/>
<rect x="132.439" y="181.633" width="58" height="3" fill="#E4E8E9"/>
<rect x="126.439" y="133.633" width="3" height="3" fill="#E4E8E9"/>
<rect x="126.439" y="141.633" width="3" height="3" fill="#E4E8E9"/>
<rect x="126.439" y="149.633" width="3" height="3" fill="#E4E8E9"/>
<rect x="126.439" y="157.633" width="3" height="3" fill="#E4E8E9"/>
<rect x="126.439" y="165.633" width="3" height="3" fill="#E4E8E9"/>
<rect x="126.439" y="173.633" width="3" height="3" fill="#E4E8E9"/>
<rect x="126.439" y="181.633" width="3" height="3" fill="#E4E8E9"/>
<path d="M8.54938 90.7757L8.20741 89.2368L4.78766 89.9208L4.10372 86.672L2.39384 87.014L3.24878 90.2627L0 90.9467L0.341996 92.6566L3.59075 91.8016L4.27469 95.2214L5.98457 94.8794L5.12963 91.4596L8.54938 90.7757Z" fill="#68AD45"/>
<path d="M85.8352 57.4333H81.3895V53.1586H79.3377V57.4333H75.063V59.4851H79.3377L79.1667 63.9308H81.3895V59.4851H85.8352V57.4333Z" fill="#FDB714"/>
<path d="M87.4595 131.235C86.9465 131.577 86.4335 131.919 85.9206 132.261C85.4076 132.603 84.7237 132.774 84.0397 132.774C82.3298 133.116 80.6199 132.945 79.0811 132.09C76.3453 130.038 75.6613 126.276 77.3712 123.369C78.3971 122.001 79.936 121.146 81.6459 120.804C82.3298 120.633 82.8428 120.633 83.5267 120.633C84.2107 120.633 84.7236 120.804 85.4076 120.975L85.9206 123.369C85.4076 123.198 84.7236 123.027 84.2107 122.856C83.6977 122.685 83.0138 122.685 82.5008 122.856C81.4749 123.027 80.7909 123.54 80.278 124.395C79.423 126.276 79.936 128.499 81.4749 130.038C82.1588 130.551 83.1848 130.893 84.0397 130.722C84.7237 130.551 85.2366 130.38 85.7496 130.209C86.2625 129.867 86.7755 129.525 87.2885 129.012L87.4595 131.235Z" fill="#F04E30"/>
<path d="M18.136 53.0259L2.64602 60.1217L0.866962 56.2916L16.5064 49.3859L18.136 53.0259Z" fill="#D71925"/>
<path d="M21.3211 49.4471L19.4536 49.2229L20.1191 50.8527L21.3211 49.4471Z" fill="#1268B3"/>
<path d="M200.563 68.9047L211.834 56.1272L215.015 58.904L203.531 71.5685L200.563 68.9047Z" fill="#1268B3"/>
<path d="M199.107 73.4686L200.904 72.9147L199.634 71.6958L199.107 73.4686Z" fill="#1268B3"/>
<path d="M136.634 134.456L129.63 122.176L130.992 121.398C131.281 121.234 131.547 121.261 131.792 121.48L132.461 122.234C132.591 121.595 132.82 121.005 133.151 120.466C133.487 119.923 133.98 119.467 134.63 119.096C135.135 118.808 135.655 118.651 136.19 118.625C136.731 118.595 137.267 118.696 137.798 118.927C138.331 119.149 138.847 119.509 139.346 120.006C139.847 120.493 140.314 121.116 140.746 121.874C141.141 122.565 141.413 123.259 141.562 123.955C141.712 124.651 141.736 125.315 141.634 125.947C141.539 126.576 141.314 127.154 140.962 127.682C140.612 128.2 140.133 128.633 139.525 128.98C139.002 129.278 138.512 129.454 138.056 129.507C137.603 129.55 137.151 129.513 136.701 129.395L138.863 133.184L136.634 134.456ZM134.866 121.293C134.403 121.557 134.063 121.883 133.845 122.27C133.63 122.648 133.482 123.095 133.402 123.611L135.769 127.762C136.201 127.93 136.599 127.994 136.966 127.952C137.336 127.901 137.695 127.776 138.044 127.577C138.38 127.384 138.648 127.148 138.847 126.867C139.045 126.587 139.164 126.264 139.203 125.899C139.248 125.53 139.21 125.121 139.089 124.672C138.965 124.217 138.751 123.721 138.445 123.186C138.136 122.645 137.831 122.213 137.528 121.892C137.227 121.561 136.929 121.324 136.633 121.183C136.336 121.041 136.04 120.982 135.744 121.008C135.453 121.03 135.161 121.125 134.866 121.293Z" fill="#8ED8F8"/>
<path d="M74.947 84.1095C74.9868 83.8765 75.0827 83.6618 75.2346 83.4655C75.3864 83.2691 75.5746 83.1253 75.7992 83.034L77.6658 82.2748L76.8572 86.876C76.8012 87.1978 76.7225 87.4728 76.6209 87.701C76.5167 87.9228 76.3642 88.1269 76.1634 88.3132C76.5233 88.279 76.845 88.3163 77.1285 88.4253C77.4095 88.5278 77.692 88.6895 77.9762 88.9103L81.9409 92.0411L80.2956 92.7103C79.8786 92.8799 79.526 92.9411 79.2376 92.8939C78.9493 92.8467 78.6715 92.7243 78.4042 92.5265L75.8398 90.3848C75.615 90.1997 75.3765 90.0911 75.1242 90.0591C74.8784 90.0245 74.6208 90.062 74.3514 90.1716L73.4566 90.5356L75.1863 94.7884L72.8097 95.7551L68.7944 85.8831L71.171 84.9164L72.8265 88.9865L73.5962 88.6734C73.8656 88.5638 74.061 88.4283 74.1822 88.2668C74.3072 88.0964 74.3857 87.885 74.4177 87.6328L74.947 84.1095Z" fill="#1268B3"/>
<path d="M131.169 64.3759H135.365C136.037 64.3759 136.615 64.4416 137.1 64.5732C137.592 64.7048 137.997 64.8848 138.315 65.1134C138.634 65.3419 138.869 65.6154 139.022 65.934C139.174 66.2456 139.25 66.5849 139.25 66.9519C139.25 67.1804 139.219 67.4193 139.157 67.6686C139.101 67.9179 138.997 68.1568 138.845 68.3854C138.693 68.607 138.488 68.8112 138.232 68.9982C137.976 69.1852 137.65 69.3306 137.256 69.4345C137.609 69.5106 137.931 69.618 138.222 69.7565C138.519 69.8881 138.772 70.0577 138.98 70.2655C139.188 70.4663 139.347 70.7052 139.458 70.9822C139.575 71.2523 139.634 71.5569 139.634 71.8963C139.634 72.4364 139.52 72.9038 139.292 73.2986C139.07 73.6933 138.769 74.0187 138.388 74.275C138.014 74.5312 137.578 74.7216 137.079 74.8463C136.587 74.9709 136.072 75.0332 135.531 75.0332H131.169V64.3759ZM133.61 70.4213V73.2778H135.521C136.061 73.2778 136.487 73.1462 136.799 72.8831C137.117 72.6199 137.276 72.2598 137.276 71.8028C137.276 71.6089 137.249 71.4288 137.193 71.2626C137.145 71.0895 137.055 70.9406 136.923 70.816C136.792 70.6913 136.612 70.5944 136.383 70.5251C136.162 70.4559 135.878 70.4213 135.531 70.4213H133.61ZM133.61 68.8424H135.292C135.542 68.8424 135.77 68.8078 135.978 68.7385C136.186 68.6624 136.366 68.5585 136.518 68.4269C136.671 68.2884 136.788 68.1291 136.871 67.9491C136.954 67.7621 136.996 67.5578 136.996 67.3362C136.996 67.177 136.968 67.0212 136.913 66.8688C136.857 66.7095 136.764 66.571 136.632 66.4533C136.501 66.3287 136.324 66.2317 136.103 66.1625C135.888 66.0863 135.618 66.0482 135.292 66.0482H133.61V68.8424Z" fill="#009A4E"/>
<path d="M171.525 40.6334V49.3899H173.478V54.0954C173.478 54.3308 173.408 54.5178 173.27 54.6563C173.138 54.7948 172.965 54.864 172.751 54.864H171.151V51.2908H163.173V54.1369C163.173 54.317 163.115 54.4832 162.997 54.6355C162.886 54.7879 162.709 54.864 162.467 54.864H160.847V49.4626H161.252C161.487 49.4557 161.716 49.4142 161.937 49.338C162.159 49.2618 162.37 49.1129 162.571 48.8913C162.779 48.6697 162.973 48.3616 163.153 47.9669C163.333 47.5652 163.495 47.0389 163.641 46.388C163.793 45.7371 163.925 44.9407 164.036 43.9989C164.146 43.0571 164.236 41.9353 164.306 40.6334H171.525ZM166.404 42.5966C166.335 43.4899 166.248 44.2967 166.144 45.0169C166.04 45.7301 165.919 46.3672 165.781 46.9281C165.642 47.489 165.49 47.9772 165.324 48.3927C165.164 48.8082 164.991 49.1649 164.804 49.4626H169.032V42.5966H166.404Z" fill="#8ED8F8"/>
<path d="M216.732 108.082C216.855 108.071 216.963 108.074 217.055 108.091C217.143 108.104 217.235 108.16 217.33 108.261C217.42 108.356 217.481 108.475 217.511 108.618C217.536 108.766 217.573 108.936 217.622 109.128C217.665 109.325 217.743 109.538 217.854 109.767C217.955 109.995 218.128 110.237 218.37 110.494C218.68 110.821 219.011 111.05 219.365 111.182C219.714 111.319 220.078 111.366 220.456 111.323C220.83 111.274 221.213 111.14 221.606 110.921C221.994 110.706 222.387 110.411 222.784 110.035C223.197 109.644 223.523 109.254 223.764 108.864C224.001 108.469 224.151 108.084 224.215 107.708C224.274 107.338 224.25 106.979 224.142 106.633C224.029 106.292 223.832 105.973 223.551 105.677C223.27 105.38 223.009 105.174 222.767 105.06C222.515 104.945 222.287 104.865 222.083 104.821C221.873 104.78 221.691 104.749 221.535 104.725C221.369 104.7 221.231 104.631 221.121 104.515C220.979 104.364 220.929 104.196 220.974 104.011L221.146 102.833C221.582 102.811 221.998 102.842 222.392 102.926C222.782 103.015 223.151 103.143 223.499 103.309C223.837 103.475 224.157 103.678 224.459 103.916C224.756 104.15 225.034 104.402 225.291 104.674C225.743 105.152 226.081 105.685 226.305 106.274C226.523 106.868 226.612 107.485 226.57 108.126C226.527 108.766 226.348 109.413 226.031 110.065C225.705 110.718 225.224 111.344 224.591 111.943C224.022 112.481 223.421 112.898 222.785 113.194C222.14 113.49 221.492 113.646 220.84 113.662C220.183 113.683 219.533 113.555 218.889 113.278C218.245 113.001 217.635 112.558 217.059 111.949C216.512 111.371 216.126 110.777 215.903 110.168C215.675 109.555 215.57 108.91 215.589 108.235L216.732 108.082Z" fill="#FDB714"/>
<path d="M169.672 120.222L161.439 114.271L162.552 112.73L165.634 114.957L170.763 107.86L172.842 109.363L167.713 116.46L170.786 118.681L169.672 120.222Z" fill="#00377B"/>
<path d="M46.5255 42.7676L47.0974 44.2755L50.7539 42.8888L51.3086 44.3513L42.5331 47.6796L41.9784 46.217L45.6348 44.8302L45.0629 43.3223C43.5815 43.6803 42.0204 43.4853 40.6725 42.7739C39.3247 42.0626 38.2827 40.8838 37.7423 39.4589L36.0781 35.0711L47.7787 30.6334L49.4429 35.0212C49.9833 36.4462 49.9851 38.0194 49.448 39.4457C48.9109 40.8719 47.8717 42.0531 46.5255 42.7676ZM38.0954 35.979L39.2048 38.9041C39.6462 40.0678 40.5317 41.0086 41.6667 41.5193C42.8016 42.0301 44.093 42.0691 45.2567 41.6277C46.4204 41.1864 47.3611 40.3008 47.8719 39.1659C48.3827 38.0309 48.4217 36.7396 47.9803 35.5759L46.8709 32.6507L38.0954 35.979ZM34.439 37.3658L35.9015 36.8111L37.011 39.7362L35.5484 40.2909L34.439 37.3658ZM49.0647 31.8186L50.5273 31.2639L51.6367 34.1891L50.1742 34.7438L49.0647 31.8186Z" fill="#68AD45"/>
<path d="M196.764 30.7199C198.761 30.2905 200.844 30.5559 202.669 31.4721C204.57 32.4225 205.987 33.9542 206.814 35.7448L208.763 35.095L209.396 36.9921L207.446 37.6419C207.8 39.2993 207.679 41.0229 207.096 42.6144C206.514 44.2059 205.494 45.6005 204.154 46.6379C202.814 47.6753 201.208 48.3133 199.521 48.4783C197.834 48.6434 196.135 48.3289 194.62 47.571C193.104 46.813 191.833 45.6426 190.953 44.1942C190.073 42.7458 189.62 41.0784 189.646 39.3839C189.671 37.6894 190.175 36.0365 191.099 34.6157C192.023 33.1948 193.329 32.0636 194.867 31.3523L194.217 29.4038L196.114 28.7714L196.764 30.7199ZM195.514 45.783C196.336 46.1941 197.231 46.4392 198.148 46.5044C199.065 46.5695 199.986 46.4535 200.858 46.1628C201.73 45.8721 202.536 45.4125 203.231 44.8102C203.925 44.2079 204.494 43.4747 204.905 42.6525C205.316 41.8303 205.561 40.9351 205.626 40.0182C205.692 39.1013 205.576 38.1805 205.285 37.3084C204.994 36.4363 204.535 35.63 203.932 34.9356C203.33 34.2411 202.597 33.6721 201.775 33.261C200.114 32.4307 198.192 32.2941 196.431 32.8812C194.669 33.4683 193.213 34.731 192.383 36.3915C191.553 38.052 191.416 39.9743 192.003 41.7356C192.59 43.4968 193.853 44.9527 195.514 45.783ZM199.986 39.0748L202.669 40.4164L195.29 43.9941L197.302 39.9692L194.619 38.6276L202 35.0454L199.986 39.0748ZM200.433 27L207.588 30.5777L206.694 32.3666L199.539 28.7889L200.433 27Z" fill="#009A4E"/>
<path d="M36.6975 61.5089L39.2467 59.7679C39.4157 59.6524 39.6236 59.6089 39.8248 59.6468C40.0259 59.6847 40.2038 59.8009 40.3192 59.9699L47.2834 70.1665C47.3988 70.3356 47.4424 70.5435 47.4045 70.7446C47.3666 70.9458 47.2504 71.1236 47.0814 71.2391L35.6102 79.0738C35.4411 79.1892 35.2332 79.2328 35.032 79.1949C34.8309 79.157 34.6531 79.0408 34.5376 78.8718L27.5734 68.6751C27.458 68.5061 27.4144 68.2982 27.4523 68.097C27.4902 67.8959 27.6064 67.718 27.7755 67.6026L30.3246 65.8615L29.4541 64.587L30.7287 63.7164L31.5992 64.991L35.4229 62.3795L34.5524 61.1049L35.827 60.2344L36.6975 61.5089ZM42.0915 65.3015L31.8948 72.2656L35.3769 77.364L45.5736 70.3998L42.0915 65.3015ZM36.2934 63.654L32.4697 66.2656L33.3402 67.5402L32.0657 68.4107L31.1951 67.1361L29.2833 68.4419L31.0243 70.9911L41.2209 64.0269L39.4799 61.4777L37.568 62.7835L38.4385 64.0581L37.164 64.9286L36.2934 63.654ZM34.0399 72.6697L35.3145 71.7992L36.185 73.0738L34.9105 73.9443L34.0399 72.6697ZM37.2264 70.4934L38.501 69.6229L39.3715 70.8974L38.0969 71.768L37.2264 70.4934ZM40.4128 68.3171L41.6874 67.4466L42.5579 68.7211L41.2833 69.5917L40.4128 68.3171Z" fill="#F04E30"/>
<path d="M225.269 78.382L229.212 77.3635L230.112 80.4491L233.771 79.504L233.2 77.5481L236.893 79.5268L234.791 83.0023L234.22 81.0464L228.922 82.4148L228.023 79.33L225.155 80.0702C225.274 81.6901 226.042 83.2069 227.305 84.3133C228.568 85.4197 230.23 86.0329 231.955 86.0286C233.681 86.0244 235.34 85.403 236.596 84.2904C237.853 83.1778 238.613 81.6572 238.723 80.0367C238.832 78.4163 238.283 76.8172 237.187 75.5634C236.091 74.3097 234.529 73.4952 232.818 73.2848C231.107 73.0745 229.376 73.4841 227.974 74.4307C226.572 75.3773 225.605 76.7901 225.269 78.3827L225.269 78.382ZM223.478 78.8563L223.475 78.8454L223.48 78.8442C223.597 77.7289 223.963 76.6493 224.553 75.6761C226.876 71.837 232.065 70.4968 236.144 72.6824C240.223 74.8681 241.647 79.7517 239.324 83.5908C237.002 87.4298 231.813 88.7701 227.734 86.5844C224.728 84.9738 223.165 81.8996 223.478 78.8563Z" fill="#F04E30"/>
<path d="M103.439 70.2855L105.369 70.8085L105.892 68.8781L103.962 68.3551L103.439 70.2855ZM104.485 66.4247L106.415 66.9476L107.984 61.1564L106.054 60.6334L104.485 66.4247Z" fill="#8ED8F8"/>
<path d="M40.9057 116.565C36.9226 118.082 32.4639 116.083 30.9466 112.1C29.4293 108.117 31.4282 103.658 35.4113 102.141C39.3945 100.624 43.8532 102.623 45.3704 106.606C46.8877 110.589 44.8889 115.048 40.9057 116.565ZM36.2806 115.235C37.6124 115.662 39.0501 115.622 40.3563 115.123C41.7771 114.581 42.8818 113.573 43.5629 112.339C42.9096 112.036 42.2022 111.867 41.4825 111.842C40.7628 111.817 40.0454 111.937 39.3728 112.194C38.6748 112.459 38.0395 112.866 37.5072 113.389C36.9749 113.913 36.5572 114.541 36.2806 115.235ZM34.8786 114.583C35.2397 113.709 35.776 112.918 36.4544 112.259C37.1329 111.6 37.9391 111.087 38.8234 110.751C39.6751 110.426 40.5829 110.271 41.4944 110.297C42.406 110.324 43.3034 110.529 44.1352 110.903C44.4216 109.799 44.3965 108.637 44.0627 107.546C43.7289 106.456 43.0995 105.479 42.2442 104.724C41.389 103.969 40.3414 103.466 39.2176 103.271C38.0938 103.075 36.9378 103.195 35.8779 103.616C34.8179 104.038 33.8954 104.744 33.2128 105.658C32.5301 106.572 32.114 107.657 32.0105 108.793C31.907 109.929 32.1203 111.071 32.6266 112.094C33.1329 113.116 33.9122 113.977 34.8786 114.583ZM38.4333 110.074C37.6682 110.366 36.8186 110.341 36.0716 110.006C35.3245 109.671 34.741 109.053 34.4496 108.288C34.1582 107.523 34.1826 106.674 34.5175 105.927C34.8524 105.18 35.4704 104.596 36.2355 104.305C37.0006 104.013 37.8501 104.038 38.5972 104.373C39.3443 104.707 39.9277 105.325 40.2191 106.091C40.5106 106.856 40.4861 107.705 40.1512 108.452C39.8163 109.199 39.1983 109.783 38.4333 110.074ZM37.8838 108.632C38.2664 108.486 38.5753 108.194 38.7428 107.821C38.9103 107.447 38.9225 107.023 38.7767 106.64C38.631 106.257 38.3393 105.948 37.9658 105.781C37.5922 105.614 37.1675 105.601 36.7849 105.747C36.4024 105.893 36.0934 106.184 35.9259 106.558C35.7585 106.932 35.7463 107.356 35.892 107.739C36.0377 108.121 36.3294 108.43 36.703 108.598C37.0765 108.765 37.5013 108.778 37.8838 108.632Z" fill="#8ED8F8"/>
<path d="M162.938 84.3942C164.702 85.0138 166.138 86.2838 166.93 87.9247C167.723 89.5657 167.807 91.4431 167.165 93.1441C166.523 94.845 165.206 96.2302 163.505 96.9947C161.803 97.7593 159.857 97.8408 158.093 97.2211C156.33 96.6014 154.894 95.3314 154.101 93.6905C153.308 92.0496 153.224 90.1721 153.866 88.4712C154.509 86.7702 155.826 85.3851 157.527 84.6205C159.228 83.8559 161.175 83.7745 162.938 84.3942ZM162.332 85.9975C161.01 85.5328 159.55 85.5938 158.274 86.1673C156.998 86.7407 156.011 87.7796 155.529 89.0553C155.047 90.331 155.11 91.7391 155.705 92.9698C156.299 94.2005 157.376 95.153 158.699 95.6177C160.022 96.0825 161.481 96.0214 162.757 95.448C164.033 94.8745 165.021 93.8357 165.503 92.56C165.984 91.2842 165.921 89.8762 165.327 88.6455C164.732 87.4148 163.655 86.4623 162.332 85.9975ZM161.878 87.2001L162.166 89.735L164.494 90.9433L162.084 91.9898L161.612 94.499L159.834 92.6114L157.215 92.9533L158.527 90.7398L157.38 88.4425L159.967 88.9614L161.878 87.2001ZM169.439 82.1381L168.531 84.5431L167.053 85.0574C166.293 84.2513 165.378 83.5942 164.36 83.1221L165.283 80.6778L169.439 82.1381ZM163.621 80.0929L162.698 82.538C161.603 82.2677 160.466 82.2033 159.346 82.3483L158.557 81.0385L159.465 78.6334L163.621 80.0929Z" fill="#FDB714"/>
</svg>
