<svg width="493" height="350" viewBox="0 0 493 350" fill="none" xmlns="http://www.w3.org/2000/svg">
<g clip-path="url(#clip0_9205_76067)">
<path d="M12.96 314H1.44V297.2H12.96V314ZM5.04 310.64H9.36V300.56H5.04V310.64ZM18.9506 314V304.16H15.5906V301.04H25.6706V304.16H22.3106V314H18.9506ZM28.0809 314V301.04H31.4409V314H28.0809ZM35.2809 307.52L38.6409 314H35.1609L31.8009 307.52L34.9209 301.04H38.4009L35.2809 307.52ZM40.8066 301.04H44.1666V302.48L46.8066 301.04H50.8866V314H44.1666V318.56H40.8066V301.04ZM47.5266 304.16H45.9666L44.1666 305.12V310.88H47.5266V304.16ZM57.5953 301.04V305.12H63.8353V314H54.2353V301.04H57.5953ZM60.4753 310.88V308.24H57.5953V310.88H60.4753ZM69.1153 314H65.7553V301.04H69.1153V314ZM74.8688 314V304.16H71.5088V301.04H81.5888V304.16H78.2288V314H74.8688ZM94.0791 314H90.7191V307.64L84.4791 314.36H83.9991V301.04H87.3591V307.4L93.5991 300.68H94.0791V314ZM107.028 310.88V314H97.4278V301.04H107.508V308.96H100.788V310.88H107.028ZM104.148 306.08V303.92H100.788V306.08H104.148ZM115.304 316.16V310.64H116.744L118.904 297.2H128.384V310.64H129.944V316.16H126.344V314H118.904V316.16H115.304ZM122.024 300.56L120.344 310.64H124.784V300.56H122.024ZM142.181 310.88V314H132.581V301.04H142.661V308.96H135.941V310.88H142.181ZM139.301 306.08V303.92H135.941V306.08H139.301ZM146.01 301.04H149.37V302.48L152.01 301.04H156.09V314H149.37V318.56H146.01V301.04ZM152.73 304.16H151.17L149.37 305.12V310.88H152.73V304.16ZM169.039 310.88V314H159.439V301.04H169.519V308.96H162.799V310.88H169.039ZM166.159 306.08V303.92H162.799V306.08H166.159ZM172.867 314V301.04H183.187L181.867 306.08H182.947V314H172.867ZM176.227 308.96V311.12H179.587V308.96H176.227ZM176.227 306.08H178.507L179.107 303.92H176.227V306.08ZM189.656 309.2V314H186.296V301.04H189.656V306.08H193.016V301.04H196.376V314H193.016V309.2H189.656ZM209.805 314H206.445V307.64L200.205 314.36H199.725V301.04H203.085V307.4L209.325 300.68H209.805V314ZM219.041 297.2H222.641V305.6L230.321 296.84H230.801V314H227.201V305.6L219.521 314.36H219.041V297.2ZM234.41 314V301.04H243.05V304.16H237.77V314H234.41ZM245.213 301.04H248.573V302.48L251.213 301.04H255.293V314H248.573V318.56H245.213V301.04ZM251.933 304.16H250.373L248.573 305.12V310.88H251.933V304.16Z" fill="#00377B"/>
<path d="M4.728 334.408C5.21333 334.408 5.66667 334.48 6.088 334.624C6.50933 334.768 6.87467 334.979 7.184 335.256C7.49333 335.528 7.736 335.861 7.912 336.256C8.088 336.651 8.176 337.099 8.176 337.6C8.176 338.027 8.112 338.424 7.984 338.792C7.856 339.155 7.68267 339.501 7.464 339.832C7.24533 340.163 6.992 340.485 6.704 340.8C6.42133 341.115 6.12 341.432 5.8 341.752L2.776 344.84C2.98933 344.781 3.20533 344.736 3.424 344.704C3.64267 344.667 3.85333 344.648 4.056 344.648H7.896C8.05067 344.648 8.17333 344.693 8.264 344.784C8.35467 344.875 8.4 344.992 8.4 345.136V346H0.752V345.512C0.752 345.411 0.773333 345.307 0.816 345.2C0.858667 345.093 0.925333 344.995 1.016 344.904L4.688 341.216C4.992 340.907 5.26933 340.611 5.52 340.328C5.77067 340.04 5.984 339.752 6.16 339.464C6.336 339.176 6.472 338.885 6.568 338.592C6.664 338.293 6.712 337.976 6.712 337.64C6.712 337.304 6.65867 337.011 6.552 336.76C6.44533 336.504 6.29867 336.293 6.112 336.128C5.93067 335.963 5.71467 335.84 5.464 335.76C5.21333 335.675 4.944 335.632 4.656 335.632C4.36267 335.632 4.09333 335.675 3.848 335.76C3.60267 335.845 3.384 335.965 3.192 336.12C3.00533 336.269 2.848 336.448 2.72 336.656C2.592 336.864 2.50133 337.093 2.448 337.344C2.384 337.531 2.296 337.656 2.184 337.72C2.07733 337.779 1.92533 337.795 1.728 337.768L0.984 337.64C1.05867 337.117 1.20267 336.656 1.416 336.256C1.63467 335.851 1.90667 335.512 2.232 335.24C2.56267 334.968 2.93867 334.763 3.36 334.624C3.78133 334.48 4.23733 334.408 4.728 334.408ZM24.143 346H22.943C22.8043 346 22.6923 345.965 22.607 345.896C22.5217 345.827 22.4577 345.739 22.415 345.632L21.343 342.864H16.199L15.127 345.632C15.095 345.728 15.0337 345.813 14.943 345.888C14.8523 345.963 14.7377 346 14.599 346H13.407L17.991 334.536H19.559L24.143 346ZM16.631 341.744H20.911L19.111 337.08C19.0523 336.941 18.9937 336.781 18.935 336.6C18.8817 336.419 18.8257 336.224 18.767 336.016C18.7137 336.224 18.6577 336.421 18.599 336.608C18.5457 336.789 18.4897 336.949 18.431 337.088L16.631 341.744ZM25.6359 346V334.536H29.2919C29.9959 334.536 30.6012 334.605 31.1079 334.744C31.6199 334.883 32.0385 335.08 32.3639 335.336C32.6945 335.592 32.9372 335.907 33.0919 336.28C33.2465 336.648 33.3239 337.064 33.3239 337.528C33.3239 337.811 33.2785 338.083 33.1879 338.344C33.1025 338.605 32.9719 338.848 32.7959 339.072C32.6199 339.296 32.3959 339.496 32.1239 339.672C31.8572 339.848 31.5425 339.992 31.1799 340.104C32.0172 340.269 32.6492 340.571 33.0759 341.008C33.5025 341.445 33.7159 342.021 33.7159 342.736C33.7159 343.221 33.6252 343.664 33.4439 344.064C33.2679 344.464 33.0065 344.808 32.6599 345.096C32.3185 345.384 31.8972 345.608 31.3959 345.768C30.8945 345.923 30.3239 346 29.6839 346H25.6359ZM27.1799 340.776V344.768H29.6599C30.1025 344.768 30.4839 344.717 30.8039 344.616C31.1239 344.515 31.3852 344.373 31.5879 344.192C31.7959 344.005 31.9479 343.787 32.0439 343.536C32.1399 343.28 32.1879 343 32.1879 342.696C32.1879 342.104 31.9772 341.637 31.5559 341.296C31.1345 340.949 30.5025 340.776 29.6599 340.776H27.1799ZM27.1799 339.672H29.2279C29.6652 339.672 30.0439 339.624 30.3639 339.528C30.6892 339.432 30.9559 339.299 31.1639 339.128C31.3772 338.957 31.5345 338.752 31.6359 338.512C31.7372 338.267 31.7879 338 31.7879 337.712C31.7879 337.035 31.5852 336.541 31.1799 336.232C30.7745 335.917 30.1452 335.76 29.2919 335.76H27.1799V339.672ZM42.8836 335.76H37.5316V346H35.9796V334.536H42.8836V335.76ZM45.789 344.816C45.9223 344.816 46.0557 344.803 46.189 344.776C46.3223 344.744 46.4503 344.691 46.573 344.616C46.6957 344.541 46.813 344.443 46.925 344.32C47.037 344.192 47.1383 344.032 47.229 343.84L47.789 342.672L43.181 334.536H44.629C44.7677 334.536 44.877 334.571 44.957 334.64C45.037 334.704 45.1063 334.789 45.165 334.896L47.997 340.096C48.1943 340.475 48.3543 340.859 48.477 341.248C48.5303 341.056 48.5943 340.864 48.669 340.672C48.7437 340.48 48.8263 340.288 48.917 340.096L51.325 334.896C51.3677 334.805 51.4317 334.723 51.517 334.648C51.6077 334.573 51.7197 334.536 51.853 334.536H53.133L48.477 344.504C48.333 344.819 48.1757 345.08 48.005 345.288C47.8397 345.491 47.661 345.653 47.469 345.776C47.277 345.893 47.069 345.976 46.845 346.024C46.621 346.077 46.381 346.104 46.125 346.104C45.837 346.104 45.6157 346.077 45.461 346.024C45.3063 345.976 45.229 345.901 45.229 345.8V344.816H45.789ZM62.2464 343.632C62.3317 343.632 62.4064 343.667 62.4704 343.736L63.0864 344.4C62.617 344.944 62.0464 345.368 61.3744 345.672C60.7077 345.976 59.8997 346.128 58.9504 346.128C58.129 346.128 57.3824 345.987 56.7104 345.704C56.0384 345.416 55.465 345.016 54.9904 344.504C54.5157 343.987 54.1477 343.368 53.8864 342.648C53.625 341.928 53.4944 341.136 53.4944 340.272C53.4944 339.408 53.6304 338.616 53.9024 337.896C54.1744 337.176 54.5557 336.557 55.0464 336.04C55.5424 335.523 56.1344 335.123 56.8224 334.84C57.5104 334.552 58.2704 334.408 59.1024 334.408C59.9184 334.408 60.6384 334.539 61.2624 334.8C61.8864 335.061 62.4357 335.416 62.9104 335.864L62.3984 336.576C62.3664 336.629 62.3237 336.675 62.2704 336.712C62.2224 336.744 62.1557 336.76 62.0704 336.76C61.9744 336.76 61.857 336.709 61.7184 336.608C61.5797 336.501 61.3984 336.384 61.1744 336.256C60.9504 336.128 60.6704 336.013 60.3344 335.912C59.9984 335.805 59.585 335.752 59.0944 335.752C58.5024 335.752 57.961 335.856 57.4704 336.064C56.9797 336.267 56.5557 336.563 56.1984 336.952C55.8464 337.341 55.5717 337.816 55.3744 338.376C55.177 338.936 55.0784 339.568 55.0784 340.272C55.0784 340.987 55.1797 341.624 55.3824 342.184C55.5904 342.744 55.8704 343.219 56.2224 343.608C56.5797 343.992 56.9984 344.285 57.4784 344.488C57.9637 344.691 58.4864 344.792 59.0464 344.792C59.3877 344.792 59.6944 344.773 59.9664 344.736C60.2437 344.693 60.497 344.629 60.7264 344.544C60.961 344.459 61.177 344.352 61.3744 344.224C61.577 344.091 61.777 343.933 61.9744 343.752C62.065 343.672 62.1557 343.632 62.2464 343.632ZM72.6379 334.536V335.84H68.9259V346H67.3819V335.84H63.6619V334.536H72.6379ZM82.5336 346H81.3336C81.195 346 81.083 345.965 80.9976 345.896C80.9123 345.827 80.8483 345.739 80.8056 345.632L79.7336 342.864H74.5896L73.5176 345.632C73.4856 345.728 73.4243 345.813 73.3336 345.888C73.243 345.963 73.1283 346 72.9896 346H71.7976L76.3816 334.536H77.9496L82.5336 346ZM75.0216 341.744H79.3016L77.5016 337.08C77.443 336.941 77.3843 336.781 77.3256 336.6C77.2723 336.419 77.2163 336.224 77.1576 336.016C77.1043 336.224 77.0483 336.421 76.9896 336.608C76.9363 336.789 76.8803 336.949 76.8216 337.088L75.0216 341.744ZM91.3843 334.408C91.8696 334.408 92.3229 334.48 92.7443 334.624C93.1656 334.768 93.5309 334.979 93.8403 335.256C94.1496 335.528 94.3923 335.861 94.5683 336.256C94.7443 336.651 94.8323 337.099 94.8323 337.6C94.8323 338.027 94.7683 338.424 94.6403 338.792C94.5123 339.155 94.3389 339.501 94.1203 339.832C93.9016 340.163 93.6483 340.485 93.3603 340.8C93.0776 341.115 92.7763 341.432 92.4563 341.752L89.4323 344.84C89.6456 344.781 89.8616 344.736 90.0803 344.704C90.2989 344.667 90.5096 344.648 90.7123 344.648H94.5523C94.7069 344.648 94.8296 344.693 94.9202 344.784C95.0109 344.875 95.0563 344.992 95.0563 345.136V346H87.4083V345.512C87.4083 345.411 87.4296 345.307 87.4723 345.2C87.5149 345.093 87.5816 344.995 87.6723 344.904L91.3443 341.216C91.6483 340.907 91.9256 340.611 92.1763 340.328C92.4269 340.04 92.6403 339.752 92.8163 339.464C92.9923 339.176 93.1283 338.885 93.2243 338.592C93.3203 338.293 93.3683 337.976 93.3683 337.64C93.3683 337.304 93.3149 337.011 93.2083 336.76C93.1016 336.504 92.9549 336.293 92.7683 336.128C92.5869 335.963 92.3709 335.84 92.1203 335.76C91.8696 335.675 91.6003 335.632 91.3123 335.632C91.0189 335.632 90.7496 335.675 90.5043 335.76C90.2589 335.845 90.0403 335.965 89.8483 336.12C89.6616 336.269 89.5043 336.448 89.3763 336.656C89.2483 336.864 89.1576 337.093 89.1043 337.344C89.0403 337.531 88.9523 337.656 88.8403 337.72C88.7336 337.779 88.5816 337.795 88.3843 337.768L87.6403 337.64C87.7149 337.117 87.8589 336.656 88.0723 336.256C88.2909 335.851 88.5629 335.512 88.8883 335.24C89.2189 334.968 89.5949 334.763 90.0163 334.624C90.4376 334.48 90.8936 334.408 91.3843 334.408ZM104.738 340.272C104.738 341.275 104.628 342.144 104.41 342.88C104.196 343.611 103.903 344.216 103.53 344.696C103.156 345.176 102.714 345.533 102.202 345.768C101.695 346.003 101.151 346.12 100.57 346.12C99.9828 346.12 99.4362 346.003 98.9295 345.768C98.4282 345.533 97.9908 345.176 97.6175 344.696C97.2442 344.216 96.9508 343.611 96.7375 342.88C96.5242 342.144 96.4175 341.275 96.4175 340.272C96.4175 339.269 96.5242 338.4 96.7375 337.664C96.9508 336.928 97.2442 336.32 97.6175 335.84C97.9908 335.355 98.4282 334.995 98.9295 334.76C99.4362 334.525 99.9828 334.408 100.57 334.408C101.151 334.408 101.695 334.525 102.202 334.76C102.714 334.995 103.156 335.355 103.53 335.84C103.903 336.32 104.196 336.928 104.41 337.664C104.628 338.4 104.738 339.269 104.738 340.272ZM103.258 340.272C103.258 339.397 103.183 338.664 103.034 338.072C102.89 337.475 102.692 336.995 102.442 336.632C102.196 336.269 101.911 336.011 101.586 335.856C101.26 335.696 100.922 335.616 100.57 335.616C100.218 335.616 99.8788 335.696 99.5535 335.856C99.2282 336.011 98.9428 336.269 98.6975 336.632C98.4522 336.995 98.2548 337.475 98.1055 338.072C97.9615 338.664 97.8895 339.397 97.8895 340.272C97.8895 341.147 97.9615 341.88 98.1055 342.472C98.2548 343.064 98.4522 343.541 98.6975 343.904C98.9428 344.267 99.2282 344.528 99.5535 344.688C99.8788 344.843 100.218 344.92 100.57 344.92C100.922 344.92 101.26 344.843 101.586 344.688C101.911 344.528 102.196 344.267 102.442 343.904C102.692 343.541 102.89 343.064 103.034 342.472C103.183 341.88 103.258 341.147 103.258 340.272ZM109.947 334.408C110.432 334.408 110.885 334.48 111.307 334.624C111.728 334.768 112.093 334.979 112.403 335.256C112.712 335.528 112.955 335.861 113.131 336.256C113.307 336.651 113.395 337.099 113.395 337.6C113.395 338.027 113.331 338.424 113.203 338.792C113.075 339.155 112.901 339.501 112.683 339.832C112.464 340.163 112.211 340.485 111.923 340.8C111.64 341.115 111.339 341.432 111.019 341.752L107.995 344.84C108.208 344.781 108.424 344.736 108.643 344.704C108.861 344.667 109.072 344.648 109.275 344.648H113.115C113.269 344.648 113.392 344.693 113.483 344.784C113.573 344.875 113.619 344.992 113.619 345.136V346H105.971V345.512C105.971 345.411 105.992 345.307 106.035 345.2C106.077 345.093 106.144 344.995 106.235 344.904L109.907 341.216C110.211 340.907 110.488 340.611 110.739 340.328C110.989 340.04 111.203 339.752 111.379 339.464C111.555 339.176 111.691 338.885 111.787 338.592C111.883 338.293 111.931 337.976 111.931 337.64C111.931 337.304 111.877 337.011 111.771 336.76C111.664 336.504 111.517 336.293 111.331 336.128C111.149 335.963 110.933 335.84 110.683 335.76C110.432 335.675 110.163 335.632 109.875 335.632C109.581 335.632 109.312 335.675 109.067 335.76C108.821 335.845 108.603 335.965 108.411 336.12C108.224 336.269 108.067 336.448 107.939 336.656C107.811 336.864 107.72 337.093 107.667 337.344C107.603 337.531 107.515 337.656 107.403 337.72C107.296 337.779 107.144 337.795 106.947 337.768L106.203 337.64C106.277 337.117 106.421 336.656 106.635 336.256C106.853 335.851 107.125 335.512 107.451 335.24C107.781 334.968 108.157 334.763 108.579 334.624C109 334.48 109.456 334.408 109.947 334.408ZM119.284 334.408C119.769 334.408 120.217 334.477 120.628 334.616C121.039 334.755 121.391 334.952 121.684 335.208C121.983 335.464 122.215 335.773 122.38 336.136C122.545 336.499 122.628 336.901 122.628 337.344C122.628 337.707 122.58 338.032 122.484 338.32C122.393 338.603 122.26 338.853 122.084 339.072C121.913 339.285 121.705 339.467 121.46 339.616C121.215 339.765 120.94 339.885 120.636 339.976C121.383 340.173 121.943 340.504 122.316 340.968C122.695 341.432 122.884 342.013 122.884 342.712C122.884 343.24 122.783 343.715 122.58 344.136C122.383 344.557 122.111 344.917 121.764 345.216C121.417 345.509 121.012 345.736 120.548 345.896C120.089 346.051 119.596 346.128 119.068 346.128C118.46 346.128 117.94 346.053 117.508 345.904C117.076 345.749 116.711 345.539 116.412 345.272C116.113 345.005 115.868 344.691 115.676 344.328C115.484 343.96 115.321 343.563 115.188 343.136L115.804 342.88C115.964 342.811 116.119 342.792 116.268 342.824C116.423 342.856 116.535 342.944 116.604 343.088C116.673 343.237 116.759 343.416 116.86 343.624C116.967 343.832 117.111 344.032 117.292 344.224C117.473 344.416 117.703 344.579 117.98 344.712C118.263 344.845 118.62 344.912 119.052 344.912C119.452 344.912 119.801 344.848 120.1 344.72C120.404 344.587 120.655 344.416 120.852 344.208C121.055 344 121.207 343.768 121.308 343.512C121.409 343.256 121.46 343.003 121.46 342.752C121.46 342.443 121.42 342.16 121.34 341.904C121.26 341.648 121.111 341.427 120.892 341.24C120.673 341.053 120.372 340.907 119.988 340.8C119.609 340.693 119.121 340.64 118.524 340.64V339.608C119.015 339.603 119.431 339.549 119.772 339.448C120.119 339.347 120.399 339.208 120.612 339.032C120.831 338.856 120.988 338.645 121.084 338.4C121.185 338.155 121.236 337.883 121.236 337.584C121.236 337.253 121.183 336.965 121.076 336.72C120.975 336.475 120.833 336.272 120.652 336.112C120.471 335.952 120.255 335.832 120.004 335.752C119.759 335.672 119.492 335.632 119.204 335.632C118.916 335.632 118.647 335.675 118.396 335.76C118.151 335.845 117.932 335.965 117.74 336.12C117.553 336.269 117.396 336.448 117.268 336.656C117.14 336.864 117.049 337.093 116.996 337.344C116.927 337.531 116.839 337.656 116.732 337.72C116.631 337.779 116.481 337.795 116.284 337.768L115.54 337.64C115.615 337.117 115.759 336.656 115.972 336.256C116.185 335.851 116.455 335.512 116.78 335.24C117.111 334.968 117.487 334.763 117.908 334.624C118.335 334.48 118.793 334.408 119.284 334.408Z" fill="#F04E30"/>
<path opacity="0.5" d="M215.818 185.161C196.412 230.899 143.576 252.241 97.846 232.824C52.0954 213.407 30.7549 160.598 50.1821 114.839C69.6093 69.101 122.424 47.7594 168.154 67.176C213.905 86.6136 235.245 139.423 215.818 185.161Z" fill="#FFE9A8"/>
<path d="M203.39 230.88C199.02 236.72 193.11 241.53 185.94 244.59C178.77 247.65 171.22 248.58 164 247.68L169.21 205L203.39 230.88Z" fill="#C6EBFB"/>
<rect x="220.363" y="120" width="27.4615" height="22.3761" fill="#E4E8E9"/>
<rect x="101.364" y="120" width="27.4615" height="22.3761" fill="#E4E8E9"/>
<rect x="93.2263" y="123.065" width="184.602" height="99.1666" fill="#E4E8E9"/>
<rect x="213.571" y="153.77" width="45.6349" height="68.4524" fill="#F04E30"/>
<rect x="93.0952" y="153.77" width="46.5476" height="68.4524" fill="#F04E30"/>
<rect x="277.829" y="123.065" width="10.1709" height="99.1666" fill="#AAB5B9"/>
<rect x="83.0555" y="123.065" width="10.1709" height="99.1666" fill="#AAB5B9"/>
<rect x="96.2776" y="129.168" width="5.08547" height="5.49924" fill="white"/>
<rect x="105.431" y="129.167" width="5.08547" height="5.49924" fill="white"/>
<rect x="114.585" y="129.167" width="5.08547" height="5.49924" fill="white"/>
<rect x="123.739" y="129.167" width="5.08547" height="5.49924" fill="white"/>
<rect x="132.893" y="129.167" width="5.08547" height="5.49924" fill="white"/>
<rect x="142.047" y="129.167" width="5.08547" height="5.49924" fill="white"/>
<rect x="151.2" y="129.167" width="5.08547" height="5.49924" fill="white"/>
<rect x="160.354" y="129.167" width="5.08547" height="5.49924" fill="white"/>
<rect x="169.508" y="129.167" width="5.08547" height="5.49924" fill="white"/>
<rect x="178.662" y="129.167" width="5.08547" height="5.49924" fill="white"/>
<rect x="187.816" y="129.167" width="5.08547" height="5.49924" fill="white"/>
<rect x="196.97" y="129.167" width="5.08547" height="5.49924" fill="white"/>
<rect x="206.124" y="129.167" width="5.08547" height="5.49924" fill="white"/>
<rect x="215.277" y="129.167" width="5.08547" height="5.49924" fill="white"/>
<rect x="224.431" y="129.167" width="5.08547" height="5.49924" fill="white"/>
<rect x="233.585" y="129.167" width="5.08547" height="5.49924" fill="white"/>
<rect x="242.739" y="129.167" width="5.08547" height="5.49924" fill="white"/>
<rect x="251.892" y="129.167" width="5.08547" height="5.49924" fill="white"/>
<rect x="96.2776" y="146.934" width="5.08547" height="5.49924" fill="white"/>
<rect x="105.431" y="146.934" width="5.08547" height="5.49924" fill="white"/>
<rect x="123.739" y="146.934" width="5.08547" height="5.49924" fill="white"/>
<rect x="132.893" y="146.934" width="5.08547" height="5.49924" fill="white"/>
<rect x="151.2" y="146.934" width="5.08547" height="5.49924" fill="white"/>
<rect x="160.354" y="146.934" width="5.08547" height="5.49924" fill="white"/>
<rect x="178.662" y="146.934" width="5.08547" height="5.49924" fill="white"/>
<rect x="187.816" y="146.934" width="5.08547" height="5.49924" fill="white"/>
<rect x="196.97" y="146.934" width="5.08547" height="5.49924" fill="white"/>
<rect x="206.124" y="146.934" width="5.08547" height="5.49924" fill="white"/>
<rect x="215.277" y="146.934" width="5.08547" height="5.49924" fill="white"/>
<rect x="224.431" y="146.934" width="5.08547" height="5.49924" fill="white"/>
<rect x="233.585" y="146.934" width="5.08547" height="5.49924" fill="white"/>
<rect x="242.739" y="146.934" width="5.08547" height="5.49924" fill="white"/>
<rect x="251.892" y="146.934" width="5.08547" height="5.49924" fill="white"/>
<rect x="96.2776" y="155.818" width="5.08547" height="5.49924" fill="white"/>
<rect x="105.431" y="155.817" width="5.08547" height="5.49924" fill="white"/>
<rect x="123.739" y="155.817" width="5.08547" height="5.49924" fill="white"/>
<rect x="132.893" y="155.817" width="5.08547" height="5.49924" fill="white"/>
<rect x="151.2" y="155.817" width="5.08547" height="5.49924" fill="white"/>
<rect x="160.354" y="155.817" width="5.08547" height="5.49924" fill="white"/>
<rect x="178.662" y="155.817" width="5.08547" height="5.49924" fill="white"/>
<rect x="187.816" y="155.817" width="5.08547" height="5.49924" fill="white"/>
<rect x="196.97" y="155.817" width="5.08547" height="5.49924" fill="white"/>
<rect x="206.124" y="155.817" width="5.08547" height="5.49924" fill="white"/>
<rect x="215.277" y="155.817" width="5.08547" height="5.49924" fill="white"/>
<rect x="224.431" y="155.817" width="5.08547" height="5.49924" fill="white"/>
<rect x="233.585" y="155.817" width="5.08547" height="5.49924" fill="white"/>
<rect x="242.739" y="155.817" width="5.08547" height="5.49924" fill="white"/>
<rect x="251.892" y="155.817" width="5.08547" height="5.49924" fill="white"/>
<rect x="96.2776" y="164.701" width="5.08547" height="5.49924" fill="white"/>
<rect x="105.431" y="164.701" width="5.08547" height="5.49924" fill="white"/>
<rect x="123.739" y="164.701" width="5.08547" height="5.49924" fill="white"/>
<rect x="132.893" y="164.701" width="5.08547" height="5.49924" fill="white"/>
<rect x="151.2" y="164.701" width="5.08547" height="5.49924" fill="white"/>
<rect x="160.354" y="164.701" width="5.08547" height="5.49924" fill="white"/>
<rect x="178.662" y="164.701" width="5.08547" height="5.49924" fill="white"/>
<rect x="187.816" y="164.701" width="5.08547" height="5.49924" fill="white"/>
<rect x="196.97" y="164.701" width="5.08547" height="5.49924" fill="white"/>
<rect x="206.124" y="164.701" width="5.08547" height="5.49924" fill="white"/>
<rect x="215.277" y="164.701" width="5.08547" height="5.49924" fill="white"/>
<rect x="224.431" y="164.701" width="5.08547" height="5.49924" fill="white"/>
<rect x="233.585" y="164.701" width="5.08547" height="5.49924" fill="white"/>
<rect x="242.739" y="164.701" width="5.08547" height="5.49924" fill="white"/>
<rect x="251.892" y="164.701" width="5.08547" height="5.49924" fill="white"/>
<rect x="96.2776" y="191.351" width="5.08547" height="5.49924" fill="white"/>
<rect x="105.431" y="191.351" width="5.08547" height="5.49924" fill="white"/>
<rect x="114.585" y="191.351" width="5.08547" height="5.49924" fill="white"/>
<rect x="123.739" y="191.351" width="5.08547" height="5.49924" fill="white"/>
<rect x="132.893" y="191.351" width="5.08547" height="5.49924" fill="white"/>
<rect x="142.047" y="191.351" width="5.08547" height="5.49924" fill="white"/>
<rect x="151.2" y="191.351" width="5.08547" height="5.49924" fill="white"/>
<rect x="160.354" y="191.351" width="5.08547" height="5.49924" fill="white"/>
<rect x="178.662" y="191.351" width="5.08547" height="5.49924" fill="white"/>
<rect x="187.816" y="191.351" width="5.08547" height="5.49924" fill="white"/>
<rect x="196.97" y="191.351" width="5.08547" height="5.49924" fill="white"/>
<rect x="206.124" y="191.351" width="5.08547" height="5.49924" fill="white"/>
<rect x="215.277" y="191.351" width="5.08547" height="5.49924" fill="white"/>
<rect x="224.431" y="191.351" width="5.08547" height="5.49924" fill="white"/>
<rect x="233.585" y="191.351" width="5.08547" height="5.49924" fill="white"/>
<rect x="242.739" y="191.351" width="5.08547" height="5.49924" fill="white"/>
<rect x="251.892" y="191.351" width="5.08547" height="5.49924" fill="white"/>
<rect x="96.2776" y="200.234" width="5.08547" height="5.49924" fill="white"/>
<rect x="105.431" y="200.234" width="5.08547" height="5.49924" fill="white"/>
<rect x="114.585" y="200.234" width="5.08547" height="5.49924" fill="white"/>
<rect x="123.739" y="200.234" width="5.08547" height="5.49924" fill="white"/>
<rect x="132.893" y="200.234" width="5.08547" height="5.49924" fill="white"/>
<rect x="142.047" y="200.234" width="5.08547" height="5.49924" fill="white"/>
<rect x="151.2" y="200.234" width="5.08547" height="5.49924" fill="white"/>
<rect x="160.354" y="200.234" width="5.08547" height="5.49924" fill="white"/>
<rect x="178.662" y="200.234" width="5.08547" height="5.49924" fill="white"/>
<rect x="187.816" y="200.234" width="5.08547" height="5.49924" fill="white"/>
<rect x="196.97" y="200.234" width="5.08547" height="5.49924" fill="white"/>
<rect x="206.124" y="200.234" width="5.08547" height="5.49924" fill="white"/>
<rect x="215.277" y="200.234" width="5.08547" height="5.49924" fill="white"/>
<rect x="224.431" y="200.234" width="5.08547" height="5.49924" fill="white"/>
<rect x="233.585" y="200.234" width="5.08547" height="5.49924" fill="white"/>
<rect x="242.739" y="200.234" width="5.08547" height="5.49924" fill="white"/>
<rect x="251.892" y="200.234" width="5.08547" height="5.49924" fill="white"/>
<rect x="96.2776" y="209.118" width="5.08547" height="5.49924" fill="white"/>
<rect x="105.431" y="209.118" width="5.08547" height="5.49924" fill="white"/>
<rect x="114.585" y="209.118" width="5.08547" height="5.49924" fill="white"/>
<rect x="123.739" y="209.118" width="5.08547" height="5.49924" fill="white"/>
<rect x="132.893" y="209.118" width="5.08547" height="5.49924" fill="white"/>
<rect x="142.047" y="209.118" width="5.08547" height="5.49924" fill="white"/>
<rect x="151.2" y="209.118" width="5.08547" height="5.49924" fill="white"/>
<rect x="160.354" y="209.118" width="5.08547" height="5.49924" fill="white"/>
<rect x="169.508" y="209.118" width="5.08547" height="5.49924" fill="white"/>
<rect x="178.662" y="209.118" width="5.08547" height="5.49924" fill="white"/>
<rect x="187.816" y="209.118" width="5.08547" height="5.49924" fill="white"/>
<rect x="196.97" y="209.118" width="5.08547" height="5.49924" fill="white"/>
<rect x="206.124" y="209.118" width="5.08547" height="5.49924" fill="white"/>
<rect x="215.277" y="209.118" width="5.08547" height="5.49924" fill="white"/>
<rect x="224.431" y="209.118" width="5.08547" height="5.49924" fill="white"/>
<rect x="233.585" y="209.118" width="5.08547" height="5.49924" fill="white"/>
<rect x="242.739" y="209.118" width="5.08547" height="5.49924" fill="white"/>
<rect x="251.892" y="209.118" width="5.08547" height="5.49924" fill="white"/>
<path d="M211.85 215.904L225.172 233.667V244.768H237.686V258.898H211.85V215.904Z" fill="#14313C"/>
<rect x="125.056" y="240.328" width="39.1581" height="18.5698" fill="#F0EFE9"/>
<rect x="172.692" y="240.328" width="39.1581" height="18.5698" fill="white"/>
<path d="M107.697 204.803L216.291 207.225L218.135 201.512L120.933 198.774L112.744 194.509L43.5105 175.131L48.7585 190.472L107.697 204.803Z" fill="#14313C"/>
<path d="M117.387 236.694L107.9 204.803L215.853 206.988L212.052 241.74H172.491L117.387 236.694Z" fill="white"/>
<path d="M107.9 204.803L48.9609 190.674C53.4015 203.188 62.5653 229.065 63.6957 232.456C64.826 235.847 65.7141 238.242 65.916 238.309L117.589 236.896L107.9 204.803Z" fill="#F0EFE9"/>
<path d="M164.07 258.898L160.178 243.154L173.903 243.982V258.898H164.07Z" fill="#AAB5B9"/>
<path d="M196.51 196.325L194.693 190.674L106.486 191.683L42.7031 173.113L43.5105 175.939L108.909 194.105L116.982 199.151L177.738 200.766L184.803 198.546L195.702 196.931L196.51 196.325Z" fill="#AAB5B9"/>
<path d="M110.726 214.491L214.878 216.51L214.484 218.853L111.533 216.51L54.6129 206.417L53.2 202.784L110.726 214.491Z" fill="#8ED8F8"/>
<path d="M121.02 228.419L213.667 229.63L213.062 231.85L121.02 231.245L60.4661 223.575L59.4569 220.547L121.02 228.419Z" fill="#8ED8F8"/>
<path fill-rule="evenodd" clip-rule="evenodd" d="M67.9362 232.658H88.7263L89.8539 238.075L67.5152 247.796H27.9154L11.4704 254.452L11.469 247.796L27.9154 241.741H66.3198H67.9362V238.309V232.658Z" fill="#F0EFE9"/>
<path d="M47.9516 254.458V247.796H27.9688L0.000244141 259.012L47.9516 254.458Z" fill="#14313C"/>
<path d="M123.038 237.704L141.406 258.897H0L43.1073 252.842L50.9792 253.246L63.2918 247.998L81.2561 248.603L94.5779 242.144L109.111 243.153L119.607 237.704H123.038Z" fill="#68AD45"/>
<path fill-rule="evenodd" clip-rule="evenodd" d="M119.168 231.178L173.869 236.963V242.218L120.054 236.963L108.13 242.218L95.0182 240.604L79.7648 247.428L62.7443 246.415L44.9587 253.451L44.9537 246.415L61.8299 240.699L78.7196 241.704L94.1467 234.803L107.275 236.419L119.168 231.178Z" fill="#AAB5B9"/>
<path d="M171.885 241.135L211.851 241.74L214.172 221.354L215.333 211.161L216.09 201.977L105.68 198.949V197.861L216.493 200.968H219.117L228.402 227.208L227.595 228.217L224.567 228.621L222.549 237.098L220.934 234.878L218.512 246.585L213.668 244.364H171.885L125.259 240.328L123.039 237.704H119.607L109.313 243.153L94.5785 242.346L81.2567 248.805L63.6961 248.2L51.1817 253.246H45.3281L62.8887 246.181L79.4401 246.988L94.5785 240.328L109.313 241.135L119.607 236.089L171.885 241.135Z" fill="#14313C"/>
<path d="M40.8865 168.47L6.37085 176.342C6.37085 177.015 6.49196 178.643 6.97639 179.774C7.58192 181.187 27.5647 231.245 29.785 236.694C31.5612 241.054 33.4855 242.01 34.2256 241.942H69.7504C69.6832 240.866 69.7504 238.309 67.5301 237.502C65.9825 236.939 64.9734 235.887 64.7043 235.281L43.1068 173.517L106.285 191.885H194.491V190.674L106.285 188.655L40.8865 168.47Z" fill="#8ED8F8"/>
<path d="M36.446 184.215L37.32 186.637H35.572L36.446 184.215Z" fill="white"/>
<path d="M36.0428 177.352L36.9168 179.774H35.1688L36.0428 177.352Z" fill="white"/>
<path d="M24.3353 183.003L25.2093 185.426H23.4613L24.3353 183.003Z" fill="white"/>
<path d="M42.5009 193.903L43.3749 196.326H41.6269L42.5009 193.903Z" fill="white"/>
<path d="M46.9411 207.225L47.8151 209.647H46.0671L46.9411 207.225Z" fill="white"/>
<path d="M44.5198 207.225L45.3939 209.647H43.6458L44.5198 207.225Z" fill="white"/>
<path d="M40.483 226.199L41.357 228.621H39.609L40.483 226.199Z" fill="white"/>
<path d="M38.0607 226.199L38.9348 228.621H37.1867L38.0607 226.199Z" fill="white"/>
<path d="M51.7863 225.795L52.6603 228.217H50.9123L51.7863 225.795Z" fill="white"/>
<path d="M49.3641 225.795L50.2381 228.217H48.4901L49.3641 225.795Z" fill="white"/>
<path d="M50.5756 222.565L51.4497 224.988H49.7016L50.5756 222.565Z" fill="white"/>
<path d="M45.7305 216.914L46.6046 219.336H44.8565L45.7305 216.914Z" fill="white"/>
<path d="M39.2714 223.373L40.1455 225.795H38.3974L39.2714 223.373Z" fill="white"/>
<path d="M46.9411 213.684L47.8151 216.106H46.0671L46.9411 213.684Z" fill="white"/>
<path d="M46.1346 222.969L47.0086 225.391H45.2606L46.1346 222.969Z" fill="white"/>
<path d="M42.5009 201.17L43.3749 203.592H41.6269L42.5009 201.17Z" fill="white"/>
<path d="M38.8677 189.463L37.9937 187.041L39.7417 187.041L38.8677 189.463Z" fill="white"/>
<path d="M40.0793 199.959L39.2053 197.537L40.9533 197.537L40.0793 199.959Z" fill="white"/>
<path d="M44.5203 206.014L43.6463 203.592L45.3943 203.592L44.5203 206.014Z" fill="white"/>
<path d="M46.9424 212.473L46.0684 210.051L47.8164 210.051L46.9424 212.473Z" fill="white"/>
<path d="M44.5203 212.473L43.6463 210.051L45.3943 210.051L44.5203 212.473Z" fill="white"/>
<path d="M50.5752 227.814L49.7012 225.392L51.4493 225.392L50.5752 227.814Z" fill="white"/>
<path d="M48.1523 221.758L47.2783 219.336L49.0263 219.336L48.1523 221.758Z" fill="white"/>
<path d="M43.7121 215.703L42.8381 213.281L44.5861 213.281L43.7121 215.703Z" fill="white"/>
<path d="M33.0146 222.162L32.3154 220.648L33.7139 220.648L33.0146 222.162Z" fill="white"/>
<path d="M37.0515 222.162L36.3523 220.648L37.7507 220.648L37.0515 222.162Z" fill="white"/>
<path d="M26.5557 216.914L25.8564 215.4L27.2549 215.4L26.5557 216.914Z" fill="white"/>
<path d="M23.3261 193.903L24.0253 195.417H22.6268L23.3261 193.903Z" fill="white"/>
<path d="M22.922 180.582L23.6212 182.095H22.2228L22.922 180.582Z" fill="white"/>
<path d="M18.4809 185.426L17.7817 183.912L19.1802 183.912L18.4809 185.426Z" fill="white"/>
<path d="M18.0776 195.518L17.3784 194.004L18.7768 194.004L18.0776 195.518Z" fill="white"/>
<path d="M32.2073 231.447L31.5081 229.933L32.9065 229.933L32.2073 231.447Z" fill="white"/>
<path d="M45.73 222.162L44.856 219.74L46.604 219.74L45.73 222.162Z" fill="white"/>
<path d="M39.2719 228.621L38.3979 226.199L40.1459 226.199L39.2719 228.621Z" fill="white"/>
<path d="M46.9424 218.932L46.0684 216.51L47.8164 216.51L46.9424 218.932Z" fill="white"/>
<path d="M46.1351 228.217L45.261 225.795L47.0091 225.795L46.1351 228.217Z" fill="white"/>
<path d="M44.5203 198.748L43.6463 196.326L45.3943 196.326L44.5203 198.748Z" fill="white"/>
</g>
<defs>
<clipPath id="clip0_9205_76067">
<rect width="493" height="350" fill="white"/>
</clipPath>
</defs>
</svg>
