<svg width="493" height="350" viewBox="0 0 493 350" fill="none" xmlns="http://www.w3.org/2000/svg">
<g clip-path="url(#clip0_9205_75882)">
<path d="M1.44 297.2H5.04V310.64H9.36V297.2H12.96V310.64H14.52V316.16H10.92V314H1.44V297.2ZM26.76 310.88V314H17.16V301.04H27.24V308.96H20.52V310.88H26.76ZM23.88 306.08V303.92H20.52V306.08H23.88ZM30.5888 301.04H33.9488V302.48L36.5888 301.04H40.6688V314H33.9488V318.56H30.5888V301.04ZM37.3088 304.16H35.7488L33.9488 305.12V310.88H37.3088V304.16ZM53.6175 310.88V314H44.0175V301.04H54.0975V308.96H47.3775V310.88H53.6175ZM50.7375 306.08V303.92H47.3775V306.08H50.7375ZM64.1663 314.24L60.8063 309.56V314H57.4463V300.68H57.9263L64.1663 309.2L70.4063 300.68H70.8863V314H67.5263V309.56L64.1663 314.24ZM84.33 314H74.25V301.04H84.33V314ZM80.97 310.88V304.16H77.61V310.88H80.97ZM91.0388 309.2V314H87.6788V301.04H91.0388V306.08H94.3988V301.04H97.7588V314H94.3988V309.2H91.0388ZM111.188 314H107.828V307.64L101.588 314.36H101.108V301.04H104.468V307.4L110.708 300.68H111.188V314ZM121.256 314V309.92H119.096L117.536 314H114.056L115.616 309.92H114.536V301.04H124.616V314H121.256ZM117.896 304.16V306.8H121.256V304.16H117.896ZM143.693 314H133.613V301.04H143.693V314ZM140.333 310.88V304.16H136.973V310.88H140.333ZM149.441 314V304.16H146.081V301.04H156.161V304.16H152.801V314H149.441ZM158.572 314V301.04H161.932V314H158.572ZM165.772 307.52L169.132 314H165.652L162.292 307.52L165.412 301.04H168.892L165.772 307.52ZM171.297 301.04H174.657V302.48L177.297 301.04H181.377V314H174.657V318.56H171.297V301.04ZM178.017 304.16H176.457L174.657 305.12V310.88H178.017V304.16ZM188.086 301.04V305.12H194.326V314H184.726V301.04H188.086ZM190.966 310.88V308.24H188.086V310.88H190.966ZM199.606 314H196.246V301.04H199.606V314ZM205.359 314V304.16H201.999V301.04H212.079V304.16H208.719V314H205.359ZM224.57 314H221.21V307.64L214.97 314.36H214.49V301.04H217.85V307.4L224.09 300.68H224.57V314ZM234.638 314V309.92H232.478L230.918 314H227.438L228.998 309.92H227.918V301.04H237.998V314H234.638ZM231.278 304.16V306.8H234.638V304.16H231.278Z" fill="#00377B"/>
<path d="M4.64 346.128C4.06933 346.128 3.54667 346.053 3.072 345.904C2.59733 345.749 2.18933 345.531 1.848 345.248C1.50667 344.965 1.24267 344.624 1.056 344.224C0.869333 343.819 0.776 343.365 0.776 342.864C0.776 342.128 0.968 341.523 1.352 341.048C1.736 340.568 2.28533 340.227 3 340.024C2.39733 339.8 1.94133 339.467 1.632 339.024C1.328 338.576 1.176 338.043 1.176 337.424C1.176 337.003 1.25867 336.608 1.424 336.24C1.58933 335.872 1.824 335.552 2.128 335.28C2.432 335.008 2.79467 334.795 3.216 334.64C3.64267 334.485 4.11733 334.408 4.64 334.408C5.15733 334.408 5.62933 334.485 6.056 334.64C6.48267 334.795 6.848 335.008 7.152 335.28C7.456 335.552 7.69067 335.872 7.856 336.24C8.02133 336.608 8.104 337.003 8.104 337.424C8.104 338.043 7.94933 338.576 7.64 339.024C7.33067 339.467 6.87733 339.8 6.28 340.024C6.99467 340.227 7.544 340.568 7.928 341.048C8.312 341.523 8.504 342.128 8.504 342.864C8.504 343.365 8.408 343.819 8.216 344.224C8.02933 344.624 7.76533 344.965 7.424 345.248C7.088 345.531 6.68267 345.749 6.208 345.904C5.73333 346.053 5.21067 346.128 4.64 346.128ZM4.64 344.992C5.01333 344.992 5.34667 344.941 5.64 344.84C5.93867 344.733 6.18933 344.587 6.392 344.4C6.6 344.208 6.75733 343.981 6.864 343.72C6.976 343.453 7.032 343.16 7.032 342.84C7.032 342.445 6.96533 342.109 6.832 341.832C6.704 341.549 6.528 341.32 6.304 341.144C6.08533 340.968 5.832 340.84 5.544 340.76C5.256 340.675 4.95467 340.632 4.64 340.632C4.32533 340.632 4.024 340.675 3.736 340.76C3.448 340.84 3.192 340.968 2.968 341.144C2.74933 341.32 2.57333 341.549 2.44 341.832C2.312 342.109 2.248 342.445 2.248 342.84C2.248 343.16 2.30133 343.453 2.408 343.72C2.52 343.981 2.67733 344.208 2.88 344.4C3.088 344.587 3.33867 344.733 3.632 344.84C3.93067 344.941 4.26667 344.992 4.64 344.992ZM4.64 339.488C5.01333 339.488 5.33067 339.432 5.592 339.32C5.85867 339.203 6.07467 339.051 6.24 338.864C6.40533 338.672 6.52533 338.453 6.6 338.208C6.67467 337.963 6.712 337.709 6.712 337.448C6.712 337.181 6.66667 336.931 6.576 336.696C6.49067 336.461 6.36 336.256 6.184 336.08C6.01333 335.904 5.79733 335.765 5.536 335.664C5.28 335.563 4.98133 335.512 4.64 335.512C4.29867 335.512 3.99733 335.563 3.736 335.664C3.48 335.765 3.264 335.904 3.088 336.08C2.91733 336.256 2.78667 336.461 2.696 336.696C2.61067 336.931 2.568 337.181 2.568 337.448C2.568 337.709 2.60533 337.963 2.68 338.208C2.75467 338.453 2.87467 338.672 3.04 338.864C3.20533 339.051 3.41867 339.203 3.68 339.32C3.94667 339.432 4.26667 339.488 4.64 339.488ZM24.143 346H22.943C22.8043 346 22.6923 345.965 22.607 345.896C22.5217 345.827 22.4577 345.739 22.415 345.632L21.343 342.864H16.199L15.127 345.632C15.095 345.728 15.0337 345.813 14.943 345.888C14.8523 345.963 14.7377 346 14.599 346H13.407L17.991 334.536H19.559L24.143 346ZM16.631 341.744H20.911L19.111 337.08C19.0523 336.941 18.9937 336.781 18.935 336.6C18.8817 336.419 18.8257 336.224 18.767 336.016C18.7137 336.224 18.6577 336.421 18.599 336.608C18.5457 336.789 18.4897 336.949 18.431 337.088L16.631 341.744ZM25.6359 346V334.536H29.2919C29.9959 334.536 30.6012 334.605 31.1079 334.744C31.6199 334.883 32.0385 335.08 32.3639 335.336C32.6945 335.592 32.9372 335.907 33.0919 336.28C33.2465 336.648 33.3239 337.064 33.3239 337.528C33.3239 337.811 33.2785 338.083 33.1879 338.344C33.1025 338.605 32.9719 338.848 32.7959 339.072C32.6199 339.296 32.3959 339.496 32.1239 339.672C31.8572 339.848 31.5425 339.992 31.1799 340.104C32.0172 340.269 32.6492 340.571 33.0759 341.008C33.5025 341.445 33.7159 342.021 33.7159 342.736C33.7159 343.221 33.6252 343.664 33.4439 344.064C33.2679 344.464 33.0065 344.808 32.6599 345.096C32.3185 345.384 31.8972 345.608 31.3959 345.768C30.8945 345.923 30.3239 346 29.6839 346H25.6359ZM27.1799 340.776V344.768H29.6599C30.1025 344.768 30.4839 344.717 30.8039 344.616C31.1239 344.515 31.3852 344.373 31.5879 344.192C31.7959 344.005 31.9479 343.787 32.0439 343.536C32.1399 343.28 32.1879 343 32.1879 342.696C32.1879 342.104 31.9772 341.637 31.5559 341.296C31.1345 340.949 30.5025 340.776 29.6599 340.776H27.1799ZM27.1799 339.672H29.2279C29.6652 339.672 30.0439 339.624 30.3639 339.528C30.6892 339.432 30.9559 339.299 31.1639 339.128C31.3772 338.957 31.5345 338.752 31.6359 338.512C31.7372 338.267 31.7879 338 31.7879 337.712C31.7879 337.035 31.5852 336.541 31.1799 336.232C30.7745 335.917 30.1452 335.76 29.2919 335.76H27.1799V339.672ZM42.8836 335.76H37.5316V346H35.9796V334.536H42.8836V335.76ZM45.789 344.816C45.9223 344.816 46.0557 344.803 46.189 344.776C46.3223 344.744 46.4503 344.691 46.573 344.616C46.6957 344.541 46.813 344.443 46.925 344.32C47.037 344.192 47.1383 344.032 47.229 343.84L47.789 342.672L43.181 334.536H44.629C44.7677 334.536 44.877 334.571 44.957 334.64C45.037 334.704 45.1063 334.789 45.165 334.896L47.997 340.096C48.1943 340.475 48.3543 340.859 48.477 341.248C48.5303 341.056 48.5943 340.864 48.669 340.672C48.7437 340.48 48.8263 340.288 48.917 340.096L51.325 334.896C51.3677 334.805 51.4317 334.723 51.517 334.648C51.6077 334.573 51.7197 334.536 51.853 334.536H53.133L48.477 344.504C48.333 344.819 48.1757 345.08 48.005 345.288C47.8397 345.491 47.661 345.653 47.469 345.776C47.277 345.893 47.069 345.976 46.845 346.024C46.621 346.077 46.381 346.104 46.125 346.104C45.837 346.104 45.6157 346.077 45.461 346.024C45.3063 345.976 45.229 345.901 45.229 345.8V344.816H45.789ZM62.2464 343.632C62.3317 343.632 62.4064 343.667 62.4704 343.736L63.0864 344.4C62.617 344.944 62.0464 345.368 61.3744 345.672C60.7077 345.976 59.8997 346.128 58.9504 346.128C58.129 346.128 57.3824 345.987 56.7104 345.704C56.0384 345.416 55.465 345.016 54.9904 344.504C54.5157 343.987 54.1477 343.368 53.8864 342.648C53.625 341.928 53.4944 341.136 53.4944 340.272C53.4944 339.408 53.6304 338.616 53.9024 337.896C54.1744 337.176 54.5557 336.557 55.0464 336.04C55.5424 335.523 56.1344 335.123 56.8224 334.84C57.5104 334.552 58.2704 334.408 59.1024 334.408C59.9184 334.408 60.6384 334.539 61.2624 334.8C61.8864 335.061 62.4357 335.416 62.9104 335.864L62.3984 336.576C62.3664 336.629 62.3237 336.675 62.2704 336.712C62.2224 336.744 62.1557 336.76 62.0704 336.76C61.9744 336.76 61.857 336.709 61.7184 336.608C61.5797 336.501 61.3984 336.384 61.1744 336.256C60.9504 336.128 60.6704 336.013 60.3344 335.912C59.9984 335.805 59.585 335.752 59.0944 335.752C58.5024 335.752 57.961 335.856 57.4704 336.064C56.9797 336.267 56.5557 336.563 56.1984 336.952C55.8464 337.341 55.5717 337.816 55.3744 338.376C55.177 338.936 55.0784 339.568 55.0784 340.272C55.0784 340.987 55.1797 341.624 55.3824 342.184C55.5904 342.744 55.8704 343.219 56.2224 343.608C56.5797 343.992 56.9984 344.285 57.4784 344.488C57.9637 344.691 58.4864 344.792 59.0464 344.792C59.3877 344.792 59.6944 344.773 59.9664 344.736C60.2437 344.693 60.497 344.629 60.7264 344.544C60.961 344.459 61.177 344.352 61.3744 344.224C61.577 344.091 61.777 343.933 61.9744 343.752C62.065 343.672 62.1557 343.632 62.2464 343.632ZM72.6379 334.536V335.84H68.9259V346H67.3819V335.84H63.6619V334.536H72.6379ZM82.5336 346H81.3336C81.195 346 81.083 345.965 80.9976 345.896C80.9123 345.827 80.8483 345.739 80.8056 345.632L79.7336 342.864H74.5896L73.5176 345.632C73.4856 345.728 73.4243 345.813 73.3336 345.888C73.243 345.963 73.1283 346 72.9896 346H71.7976L76.3816 334.536H77.9496L82.5336 346ZM75.0216 341.744H79.3016L77.5016 337.08C77.443 336.941 77.3843 336.781 77.3256 336.6C77.2723 336.419 77.2163 336.224 77.1576 336.016C77.1043 336.224 77.0483 336.421 76.9896 336.608C76.9363 336.789 76.8803 336.949 76.8216 337.088L75.0216 341.744ZM91.3843 334.408C91.8696 334.408 92.3229 334.48 92.7443 334.624C93.1656 334.768 93.5309 334.979 93.8403 335.256C94.1496 335.528 94.3923 335.861 94.5683 336.256C94.7443 336.651 94.8323 337.099 94.8323 337.6C94.8323 338.027 94.7683 338.424 94.6403 338.792C94.5123 339.155 94.3389 339.501 94.1203 339.832C93.9016 340.163 93.6483 340.485 93.3603 340.8C93.0776 341.115 92.7763 341.432 92.4563 341.752L89.4323 344.84C89.6456 344.781 89.8616 344.736 90.0803 344.704C90.2989 344.667 90.5096 344.648 90.7123 344.648H94.5523C94.7069 344.648 94.8296 344.693 94.9202 344.784C95.0109 344.875 95.0563 344.992 95.0563 345.136V346H87.4083V345.512C87.4083 345.411 87.4296 345.307 87.4723 345.2C87.5149 345.093 87.5816 344.995 87.6723 344.904L91.3443 341.216C91.6483 340.907 91.9256 340.611 92.1763 340.328C92.4269 340.04 92.6403 339.752 92.8163 339.464C92.9923 339.176 93.1283 338.885 93.2243 338.592C93.3203 338.293 93.3683 337.976 93.3683 337.64C93.3683 337.304 93.3149 337.011 93.2083 336.76C93.1016 336.504 92.9549 336.293 92.7683 336.128C92.5869 335.963 92.3709 335.84 92.1203 335.76C91.8696 335.675 91.6003 335.632 91.3123 335.632C91.0189 335.632 90.7496 335.675 90.5043 335.76C90.2589 335.845 90.0403 335.965 89.8483 336.12C89.6616 336.269 89.5043 336.448 89.3763 336.656C89.2483 336.864 89.1576 337.093 89.1043 337.344C89.0403 337.531 88.9523 337.656 88.8403 337.72C88.7336 337.779 88.5816 337.795 88.3843 337.768L87.6403 337.64C87.7149 337.117 87.8589 336.656 88.0723 336.256C88.2909 335.851 88.5629 335.512 88.8883 335.24C89.2189 334.968 89.5949 334.763 90.0163 334.624C90.4376 334.48 90.8936 334.408 91.3843 334.408ZM104.738 340.272C104.738 341.275 104.628 342.144 104.41 342.88C104.196 343.611 103.903 344.216 103.53 344.696C103.156 345.176 102.714 345.533 102.202 345.768C101.695 346.003 101.151 346.12 100.57 346.12C99.9828 346.12 99.4362 346.003 98.9295 345.768C98.4282 345.533 97.9908 345.176 97.6175 344.696C97.2442 344.216 96.9508 343.611 96.7375 342.88C96.5242 342.144 96.4175 341.275 96.4175 340.272C96.4175 339.269 96.5242 338.4 96.7375 337.664C96.9508 336.928 97.2442 336.32 97.6175 335.84C97.9908 335.355 98.4282 334.995 98.9295 334.76C99.4362 334.525 99.9828 334.408 100.57 334.408C101.151 334.408 101.695 334.525 102.202 334.76C102.714 334.995 103.156 335.355 103.53 335.84C103.903 336.32 104.196 336.928 104.41 337.664C104.628 338.4 104.738 339.269 104.738 340.272ZM103.258 340.272C103.258 339.397 103.183 338.664 103.034 338.072C102.89 337.475 102.692 336.995 102.442 336.632C102.196 336.269 101.911 336.011 101.586 335.856C101.26 335.696 100.922 335.616 100.57 335.616C100.218 335.616 99.8788 335.696 99.5535 335.856C99.2282 336.011 98.9428 336.269 98.6975 336.632C98.4522 336.995 98.2548 337.475 98.1055 338.072C97.9615 338.664 97.8895 339.397 97.8895 340.272C97.8895 341.147 97.9615 341.88 98.1055 342.472C98.2548 343.064 98.4522 343.541 98.6975 343.904C98.9428 344.267 99.2282 344.528 99.5535 344.688C99.8788 344.843 100.218 344.92 100.57 344.92C100.922 344.92 101.26 344.843 101.586 344.688C101.911 344.528 102.196 344.267 102.442 343.904C102.692 343.541 102.89 343.064 103.034 342.472C103.183 341.88 103.258 341.147 103.258 340.272ZM109.947 334.408C110.432 334.408 110.885 334.48 111.307 334.624C111.728 334.768 112.093 334.979 112.403 335.256C112.712 335.528 112.955 335.861 113.131 336.256C113.307 336.651 113.395 337.099 113.395 337.6C113.395 338.027 113.331 338.424 113.203 338.792C113.075 339.155 112.901 339.501 112.683 339.832C112.464 340.163 112.211 340.485 111.923 340.8C111.64 341.115 111.339 341.432 111.019 341.752L107.995 344.84C108.208 344.781 108.424 344.736 108.643 344.704C108.861 344.667 109.072 344.648 109.275 344.648H113.115C113.269 344.648 113.392 344.693 113.483 344.784C113.573 344.875 113.619 344.992 113.619 345.136V346H105.971V345.512C105.971 345.411 105.992 345.307 106.035 345.2C106.077 345.093 106.144 344.995 106.235 344.904L109.907 341.216C110.211 340.907 110.488 340.611 110.739 340.328C110.989 340.04 111.203 339.752 111.379 339.464C111.555 339.176 111.691 338.885 111.787 338.592C111.883 338.293 111.931 337.976 111.931 337.64C111.931 337.304 111.877 337.011 111.771 336.76C111.664 336.504 111.517 336.293 111.331 336.128C111.149 335.963 110.933 335.84 110.683 335.76C110.432 335.675 110.163 335.632 109.875 335.632C109.581 335.632 109.312 335.675 109.067 335.76C108.821 335.845 108.603 335.965 108.411 336.12C108.224 336.269 108.067 336.448 107.939 336.656C107.811 336.864 107.72 337.093 107.667 337.344C107.603 337.531 107.515 337.656 107.403 337.72C107.296 337.779 107.144 337.795 106.947 337.768L106.203 337.64C106.277 337.117 106.421 336.656 106.635 336.256C106.853 335.851 107.125 335.512 107.451 335.24C107.781 334.968 108.157 334.763 108.579 334.624C109 334.48 109.456 334.408 109.947 334.408ZM119.284 334.408C119.769 334.408 120.217 334.477 120.628 334.616C121.039 334.755 121.391 334.952 121.684 335.208C121.983 335.464 122.215 335.773 122.38 336.136C122.545 336.499 122.628 336.901 122.628 337.344C122.628 337.707 122.58 338.032 122.484 338.32C122.393 338.603 122.26 338.853 122.084 339.072C121.913 339.285 121.705 339.467 121.46 339.616C121.215 339.765 120.94 339.885 120.636 339.976C121.383 340.173 121.943 340.504 122.316 340.968C122.695 341.432 122.884 342.013 122.884 342.712C122.884 343.24 122.783 343.715 122.58 344.136C122.383 344.557 122.111 344.917 121.764 345.216C121.417 345.509 121.012 345.736 120.548 345.896C120.089 346.051 119.596 346.128 119.068 346.128C118.46 346.128 117.94 346.053 117.508 345.904C117.076 345.749 116.711 345.539 116.412 345.272C116.113 345.005 115.868 344.691 115.676 344.328C115.484 343.96 115.321 343.563 115.188 343.136L115.804 342.88C115.964 342.811 116.119 342.792 116.268 342.824C116.423 342.856 116.535 342.944 116.604 343.088C116.673 343.237 116.759 343.416 116.86 343.624C116.967 343.832 117.111 344.032 117.292 344.224C117.473 344.416 117.703 344.579 117.98 344.712C118.263 344.845 118.62 344.912 119.052 344.912C119.452 344.912 119.801 344.848 120.1 344.72C120.404 344.587 120.655 344.416 120.852 344.208C121.055 344 121.207 343.768 121.308 343.512C121.409 343.256 121.46 343.003 121.46 342.752C121.46 342.443 121.42 342.16 121.34 341.904C121.26 341.648 121.111 341.427 120.892 341.24C120.673 341.053 120.372 340.907 119.988 340.8C119.609 340.693 119.121 340.64 118.524 340.64V339.608C119.015 339.603 119.431 339.549 119.772 339.448C120.119 339.347 120.399 339.208 120.612 339.032C120.831 338.856 120.988 338.645 121.084 338.4C121.185 338.155 121.236 337.883 121.236 337.584C121.236 337.253 121.183 336.965 121.076 336.72C120.975 336.475 120.833 336.272 120.652 336.112C120.471 335.952 120.255 335.832 120.004 335.752C119.759 335.672 119.492 335.632 119.204 335.632C118.916 335.632 118.647 335.675 118.396 335.76C118.151 335.845 117.932 335.965 117.74 336.12C117.553 336.269 117.396 336.448 117.268 336.656C117.14 336.864 117.049 337.093 116.996 337.344C116.927 337.531 116.839 337.656 116.732 337.72C116.631 337.779 116.481 337.795 116.284 337.768L115.54 337.64C115.615 337.117 115.759 336.656 115.972 336.256C116.185 335.851 116.455 335.512 116.78 335.24C117.111 334.968 117.487 334.763 117.908 334.624C118.335 334.48 118.793 334.408 119.284 334.408Z" fill="#F04E30"/>
<path opacity="0.5" d="M115 232.242C176.785 258.644 248.109 229.625 274.317 167.432C300.524 105.239 271.705 33.402 209.948 7L115 232.242Z" fill="#FFE9A8"/>
<path d="M83.8914 82.7848C80.2143 75.4637 71.7812 58.6305 71.0216 57.4636L66.6179 60.1388C67.3445 61.3278 78.4638 76.5315 83.3079 83.1371C83.3546 83.2145 83.4302 83.2701 83.5179 83.2918C83.6057 83.3135 83.6984 83.2994 83.7758 83.2527C83.8532 83.206 83.9088 83.1304 83.9305 83.0427C83.9522 82.9549 83.9381 82.8622 83.8914 82.7848Z" fill="#F04E30"/>
<path d="M91.4107 58.8838C91.2896 59.6654 90.574 70.3004 90.3098 74.9242C90.3098 74.9709 90.3284 75.0157 90.3614 75.0488C90.3944 75.0818 90.4392 75.1004 90.486 75.1004C90.5327 75.1004 90.5775 75.0818 90.6105 75.0488C90.6436 75.0157 90.6621 74.9709 90.6621 74.9242C91.763 70.4104 94.1961 60.0508 94.3172 59.2581L91.4107 58.8838Z" fill="#F04E30"/>
<path d="M84.8051 69.0453C83.3629 65.0269 80.0601 55.8342 79.7629 55.1186L77.3408 56.2195C77.6381 56.8801 82.4271 65.4452 84.5188 69.1774C84.5424 69.2035 84.5738 69.2214 84.6083 69.2284C84.6427 69.2355 84.6786 69.2313 84.7105 69.2166C84.7425 69.2018 84.7689 69.1772 84.7859 69.1464C84.8029 69.1156 84.8096 69.0802 84.8051 69.0453Z" fill="#F04E30"/>
<path d="M90.0237 88.5096C85.7301 95.4454 75.8878 111.497 75.2493 112.73L79.8181 115.042C80.4456 113.798 87.5246 96.3261 90.5741 88.7298C90.5741 88.666 90.555 88.6036 90.5192 88.5508C90.4834 88.498 90.4327 88.4571 90.3734 88.4334C90.3142 88.4097 90.2492 88.4043 90.1868 88.4178C90.1245 88.4314 90.0677 88.4634 90.0237 88.5096Z" fill="#F04E30"/>
<path d="M66.9372 67.3058C63.128 62.5168 54.3757 51.5075 53.6601 50.7919L50.8748 53.4121C51.5904 54.1718 62.0381 63.5846 66.5849 67.7241C66.6124 67.7472 66.6441 67.7647 66.6784 67.7756C66.7126 67.7865 66.7486 67.7905 66.7844 67.7874C66.8202 67.7843 66.855 67.7743 66.8869 67.7577C66.9188 67.7412 66.9471 67.7186 66.9702 67.6911C66.9934 67.6636 67.0109 67.6319 67.0217 67.5976C67.0326 67.5634 67.0366 67.5274 67.0335 67.4916C67.0305 67.4558 67.0204 67.421 67.0039 67.3891C66.9873 67.3572 66.9647 67.3289 66.9372 67.3058Z" fill="#F04E30"/>
<path d="M45.3921 86.3077C45.4388 86.3077 45.4836 86.2892 45.5166 86.2561C45.5497 86.2231 45.5682 86.1783 45.5682 86.1316C45.5682 86.0848 45.5497 86.04 45.5166 86.007C45.4836 85.974 45.4388 85.9554 45.3921 85.9554C40.8233 85.6912 30.3315 85.0747 29.5498 85.0967L29.6159 87.9591C30.4305 87.9481 40.8453 86.8252 45.3921 86.3077Z" fill="#F04E30"/>
<path d="M91.9832 116.484C91.9832 124.686 92.0602 143.512 92.1703 144.91L97.2676 144.469C97.1465 143.071 93.9648 124.51 92.6107 116.429C92.5918 116.356 92.5476 116.292 92.4859 116.248C92.4241 116.204 92.3489 116.184 92.2736 116.19C92.1983 116.197 92.1277 116.23 92.0745 116.284C92.0213 116.338 91.989 116.409 91.9832 116.484Z" fill="#F04E30"/>
<path d="M127.312 98.6491C125.969 98.2527 107.495 94.4105 99.5135 92.7481C99.4381 92.7386 99.3618 92.7563 99.2983 92.798C99.2348 92.8397 99.1882 92.9027 99.167 92.9757C99.1458 93.0487 99.1513 93.1268 99.1825 93.1961C99.2137 93.2653 99.2686 93.3212 99.3373 93.3536C106.967 96.3261 124.515 103.163 125.859 103.559L127.312 98.6491Z" fill="#F04E30"/>
<path d="M124.009 91.2068C128.699 93.0343 139.488 97.2289 140.314 97.4821L141.205 94.4655C140.38 94.2233 129.095 91.8674 124.119 90.8435C124.077 90.8434 124.035 90.857 124.001 90.8824C123.966 90.9077 123.941 90.9434 123.929 90.9842C123.917 91.025 123.918 91.0687 123.932 91.1088C123.947 91.1489 123.974 91.1832 124.009 91.2068Z" fill="#F04E30"/>
<path d="M86.6548 113.401C85.0474 117.53 81.3593 127.02 81.1501 127.713L83.8034 128.495C84.0236 127.768 86.0933 117.794 86.996 113.456C86.9947 113.416 86.9791 113.377 86.9521 113.346C86.9252 113.315 86.8884 113.295 86.848 113.289C86.8077 113.282 86.7664 113.29 86.7312 113.31C86.6959 113.331 86.6689 113.363 86.6548 113.401Z" fill="#F04E30"/>
<path d="M121.73 84.216C121.679 84.2274 121.633 84.256 121.6 84.297C121.567 84.3381 121.549 84.3891 121.549 84.4417C121.549 84.4943 121.567 84.5453 121.6 84.5864C121.633 84.6274 121.679 84.656 121.73 84.6674C127.532 85.35 140.875 86.8692 141.877 86.9573L141.998 83.3022C140.996 83.2692 127.576 83.9188 121.73 84.216Z" fill="#F04E30"/>
<path d="M119.694 70.3333C123.47 67.9663 132.134 62.5167 132.75 62.0654L131.077 59.8635C130.472 60.3149 122.82 67.1186 119.484 70.0911C119.47 70.1218 119.466 70.1558 119.47 70.1891C119.475 70.2224 119.489 70.2537 119.511 70.2792C119.533 70.3047 119.562 70.3233 119.595 70.3329C119.627 70.3425 119.661 70.3426 119.694 70.3333Z" fill="#F04E30"/>
<path d="M103.785 88.5096C108.31 86.9353 118.703 83.3242 119.451 83.005L118.24 80.2637C117.492 80.5939 107.837 85.8784 103.631 88.1793C103.598 88.2054 103.574 88.242 103.565 88.283C103.555 88.3241 103.559 88.3673 103.577 88.4056C103.595 88.4438 103.625 88.4749 103.663 88.4938C103.701 88.5127 103.744 88.5183 103.785 88.5096Z" fill="#F04E30"/>
<path d="M129.062 75.6068C131.792 74.66 138.046 72.4912 138.497 72.304L137.77 70.6526C137.319 70.8508 131.506 74.0325 128.963 75.4196C128.946 75.4362 128.934 75.458 128.931 75.4816C128.927 75.5052 128.931 75.5295 128.942 75.5506C128.953 75.5718 128.971 75.5887 128.993 75.5989C129.014 75.609 129.039 75.6118 129.062 75.6068Z" fill="#F04E30"/>
<path d="M89.5283 50.0984C89.9686 47.247 90.9595 40.6855 90.9925 40.1901L89.198 40.069C89.198 40.5644 89.2641 47.1919 89.3081 50.0764C89.3052 50.1056 89.314 50.1347 89.3326 50.1574C89.3511 50.1801 89.378 50.1945 89.4072 50.1975C89.4364 50.2004 89.4655 50.1916 89.4882 50.173C89.511 50.1544 89.5254 50.1276 89.5283 50.0984Z" fill="#F04E30"/>
<path d="M126.53 107.666C129.723 109.328 137.044 113.17 137.616 113.379L138.486 111.31C137.925 111.067 130.064 108.524 126.64 107.412C126.609 107.408 126.577 107.414 126.55 107.429C126.523 107.444 126.501 107.468 126.488 107.497C126.476 107.526 126.473 107.558 126.481 107.588C126.488 107.619 126.506 107.646 126.53 107.666Z" fill="#F04E30"/>
<path d="M84.3757 54.381C84.2546 49.1627 83.9574 37.1736 83.8583 36.2819L80.6216 36.6342C80.7207 37.5259 82.9886 49.2948 83.9794 54.4251C83.9823 54.4511 83.9903 54.4763 84.0029 54.4992C84.0155 54.5222 84.0326 54.5424 84.053 54.5587C84.0735 54.5751 84.0969 54.5873 84.1221 54.5946C84.1472 54.6018 84.1736 54.6041 84.1996 54.6012C84.2256 54.5983 84.2508 54.5903 84.2737 54.5777C84.2967 54.5651 84.3169 54.548 84.3333 54.5276C84.3496 54.5072 84.3618 54.4837 84.3691 54.4585C84.3764 54.4334 84.3786 54.4071 84.3757 54.381Z" fill="#F04E30"/>
<path d="M95.6273 74.7921C100.24 68.0214 110.798 52.4544 111.536 51.2433L107.132 48.7222C106.394 49.9773 98.5007 67.0416 95.0769 74.4838C95.0504 74.5552 95.0502 74.6337 95.0765 74.7052C95.1028 74.7766 95.1537 74.8363 95.2202 74.8736C95.2866 74.9108 95.3641 74.923 95.4388 74.9081C95.5135 74.8931 95.5803 74.852 95.6273 74.7921Z" fill="#F04E30"/>
<path d="M95.2751 86.528C95.2541 86.546 95.2369 86.5681 95.2244 86.5928C95.212 86.6175 95.2045 86.6444 95.2025 86.672C95.2004 86.6996 95.2038 86.7274 95.2125 86.7536C95.2212 86.7799 95.235 86.8042 95.253 86.8252C95.2711 86.8462 95.2931 86.8634 95.3178 86.8758C95.3426 86.8883 95.3695 86.8957 95.3971 86.8978C95.4247 86.8998 95.4524 86.8964 95.4787 86.8877C95.505 86.8791 95.5293 86.8653 95.5503 86.8472C99.954 83.6876 110.082 76.4105 110.787 75.838L108.585 73.2618C107.881 73.8343 99.0953 82.6747 95.2751 86.528Z" fill="#F04E30"/>
<path d="M73.873 54.2158C72.1776 50.4726 68.2693 41.8524 67.9281 41.2469L65.6602 42.4909C66.0014 43.1074 71.2749 50.946 73.5648 54.3699C73.5852 54.4108 73.6211 54.4419 73.6644 54.4563C73.7078 54.4708 73.7551 54.4674 73.796 54.447C73.8369 54.4265 73.8679 54.3907 73.8824 54.3473C73.8968 54.304 73.8935 54.2566 73.873 54.2158Z" fill="#F04E30"/>
<path d="M77.9023 121.724C75.0509 125.412 68.5004 133.901 68.0601 134.572L70.5041 136.158C70.9335 135.486 76.0087 126.029 78.2106 121.923C78.2368 121.882 78.2458 121.832 78.2355 121.785C78.2252 121.737 78.1964 121.696 78.1555 121.669C78.1146 121.643 78.065 121.634 78.0175 121.644C77.97 121.655 77.9286 121.684 77.9023 121.724Z" fill="#F04E30"/>
<path d="M110.589 121.339C113.517 125.908 120.266 136.389 120.839 137.126L123.525 135.057C122.963 134.319 114.574 125.148 110.919 121.086C110.884 121.048 110.835 121.025 110.784 121.021C110.732 121.017 110.681 121.032 110.64 121.063C110.599 121.095 110.571 121.141 110.561 121.192C110.552 121.242 110.562 121.295 110.589 121.339Z" fill="#F04E30"/>
<path d="M92.4015 100.532C92.3768 100.496 92.34 100.472 92.2981 100.462C92.2562 100.452 92.2122 100.457 92.1743 100.478C92.1363 100.498 92.1072 100.532 92.0922 100.572C92.0773 100.612 92.0777 100.657 92.0932 100.697C93.8547 104.814 97.9061 114.282 98.2694 115.009L100.735 113.699C100.383 112.961 94.8235 104.297 92.4015 100.532Z" fill="#F04E30"/>
<path d="M114.409 109.801C119.914 114.535 132.42 125.401 133.411 126.128L136.119 122.484C135.128 121.757 120.948 113.115 114.783 109.361C114.754 109.336 114.721 109.318 114.685 109.306C114.649 109.295 114.611 109.29 114.573 109.293C114.535 109.296 114.498 109.307 114.464 109.324C114.431 109.341 114.401 109.365 114.376 109.394C114.326 109.452 114.302 109.528 114.308 109.605C114.314 109.681 114.351 109.752 114.409 109.801Z" fill="#F04E30"/>
<path d="M99.7118 122.759C101.682 128.98 106.24 143.281 106.659 144.315L110.424 142.763C109.994 141.728 103.158 128.385 100.163 122.572C100.129 122.528 100.082 122.497 100.028 122.482C99.9742 122.468 99.9173 122.472 99.8659 122.493C99.8146 122.515 99.7717 122.552 99.7439 122.6C99.716 122.648 99.7047 122.704 99.7118 122.759Z" fill="#F04E30"/>
<path d="M104.358 112.73L107 111.023C106.537 110.297 99.4805 101.115 96.3979 97.1518C96.3666 97.1168 96.3239 97.0941 96.2775 97.0876C96.231 97.0812 96.1838 97.0914 96.1441 97.1165C96.1045 97.1416 96.0751 97.1799 96.0611 97.2247C96.047 97.2695 96.0494 97.3178 96.0676 97.361C98.4456 101.842 103.895 112.047 104.358 112.73Z" fill="#F04E30"/>
<path d="M79.6858 132.073C77.429 136.565 72.2326 146.903 71.9133 147.706L74.8308 148.884C75.15 148.092 78.5629 137.038 80.0491 132.227C80.0642 132.18 80.0611 132.129 80.0405 132.084C80.0199 132.039 79.9832 132.004 79.9378 131.985C79.8923 131.965 79.8412 131.964 79.7946 131.98C79.748 131.996 79.7092 132.03 79.6858 132.073Z" fill="#F04E30"/>
<path d="M71.9905 107.622C68.2253 110.088 59.5721 115.757 58.9666 116.231L60.695 118.433C61.3005 117.959 68.8969 110.946 72.1996 107.886C72.2211 107.855 72.2321 107.818 72.2309 107.78C72.2296 107.742 72.2163 107.706 72.1929 107.676C72.1695 107.647 72.1372 107.625 72.1007 107.615C72.0643 107.606 72.0256 107.608 71.9905 107.622Z" fill="#F04E30"/>
<path d="M48.3866 118.003C45.6123 119.413 39.238 122.638 38.7976 122.935L39.8215 124.587C40.2728 124.312 46.0197 120.062 48.5188 118.202C48.5391 118.182 48.5518 118.156 48.5548 118.127C48.5578 118.099 48.5508 118.071 48.5351 118.047C48.5194 118.024 48.496 118.007 48.4689 117.999C48.4417 117.99 48.4126 117.992 48.3866 118.003Z" fill="#F04E30"/>
<path d="M52.0857 63.6176C49.8839 61.4158 44.6545 56.5387 44.2472 56.2084L43.0251 57.6837C43.4435 58.0139 49.3555 62.0213 51.9426 63.7718C51.9634 63.7766 51.9851 63.7759 52.0056 63.7697C52.026 63.7634 52.0444 63.7519 52.0589 63.7363C52.0735 63.7206 52.0836 63.7014 52.0883 63.6806C52.093 63.6597 52.0921 63.638 52.0857 63.6176Z" fill="#F04E30"/>
<path d="M111.899 62.2085C115.036 58.9057 122.236 51.3424 122.732 50.7369L120.53 48.9534C120.046 49.5589 114.189 58.2121 111.635 61.9883C111.616 62.0239 111.611 62.0648 111.618 62.104C111.626 62.1433 111.648 62.1787 111.678 62.2044C111.709 62.2301 111.748 62.2445 111.788 62.2452C111.828 62.2459 111.867 62.233 111.899 62.2085Z" fill="#F04E30"/>
<path d="M68.5996 119.776C64.5592 125.038 55.2234 137.126 54.6509 138.051L58.1408 140.253C58.7573 139.295 65.9463 125.831 69.073 119.974C69.0992 119.911 69.0995 119.84 69.0737 119.778C69.0479 119.715 68.9981 119.664 68.9353 119.638C68.8726 119.612 68.8019 119.612 68.739 119.637C68.676 119.663 68.6258 119.713 68.5996 119.776Z" fill="#F04E30"/>
<path d="M49.5207 73.6581C45.8436 71.115 37.2785 65.2691 36.6069 64.8837L35.2197 67.3278C35.8913 67.7131 45.2601 72.0617 49.3446 73.9333C49.3791 73.9398 49.4148 73.9359 49.447 73.9219C49.4793 73.908 49.5066 73.8848 49.5256 73.8552C49.5445 73.8256 49.5542 73.791 49.5533 73.7559C49.5524 73.7208 49.5411 73.6867 49.5207 73.6581Z" fill="#F04E30"/>
<path d="M81.1942 93.7279C75.0841 96.2821 61.0363 102.161 60.0234 102.689L61.928 106.367C62.9299 105.849 75.8107 97.7243 81.4144 94.1903C81.4757 94.1611 81.5229 94.1088 81.5456 94.0448C81.5683 93.9808 81.5647 93.9104 81.5355 93.849C81.5063 93.7877 81.4539 93.7405 81.3899 93.7178C81.3259 93.6951 81.2555 93.6987 81.1942 93.7279Z" fill="#F04E30"/>
<path d="M64.416 91.5041C65.2417 91.5041 76.317 90.9867 81.128 90.7334C81.1777 90.7334 81.2253 90.7137 81.2604 90.6786C81.2955 90.6435 81.3152 90.5959 81.3152 90.5463C81.3152 90.4967 81.2955 90.449 81.2604 90.414C81.2253 90.3789 81.1777 90.3591 81.128 90.3591C76.35 89.8087 65.3408 88.5096 64.5591 88.5096L64.416 91.5041Z" fill="#F04E30"/>
<path d="M55.961 123.31C52.4931 125.633 44.5334 131.016 43.9719 131.435L45.6013 133.471C46.1628 133.031 53.1316 126.436 56.1591 123.563C56.1824 123.534 56.1952 123.498 56.1955 123.461C56.1957 123.423 56.1833 123.387 56.1604 123.358C56.1374 123.328 56.1052 123.308 56.069 123.299C56.0328 123.29 55.9948 123.294 55.961 123.31Z" fill="#F04E30"/>
<path d="M54.1996 104.847C48.695 106.411 36.1335 110.022 35.2307 110.352L36.4858 113.655C37.3995 113.313 49.2124 107.677 54.3537 105.222C54.3839 105.191 54.4044 105.152 54.4126 105.11C54.4209 105.067 54.4165 105.023 54.4001 104.984C54.3837 104.944 54.356 104.91 54.3203 104.885C54.2847 104.861 54.2427 104.848 54.1996 104.847Z" fill="#F04E30"/>
<path d="M58.372 67.3389L56.6326 69.5407C57.6344 70.3224 71.5501 80.0655 77.6051 84.3041C77.8914 84.5022 78.0896 84.3041 77.8143 84.0288C72.2657 79.2178 59.3629 68.1095 58.372 67.3389Z" fill="#F04E30"/>
<path d="M43.3115 80.5499C44.2363 80.693 56.7758 81.6508 62.2364 82.0251C62.2919 82.0339 62.3485 82.0202 62.394 81.9872C62.4394 81.9542 62.4698 81.9044 62.4786 81.849C62.4873 81.7935 62.4737 81.7368 62.4407 81.6914C62.4076 81.646 62.3579 81.6155 62.3024 81.6068C56.985 80.3077 44.7647 77.3132 43.84 77.2031L43.3115 80.5499Z" fill="#F04E30"/>
<path d="M96.2769 54.8323C97.3778 50.2085 100.009 39.5736 100.13 38.7699L97.1906 38.3075C97.0585 39.1112 96.2549 50.0213 95.9136 54.8213C95.9223 54.8623 95.9446 54.8991 95.9767 54.9259C96.0089 54.9527 96.0491 54.9679 96.0909 54.9692C96.1328 54.9705 96.1738 54.9577 96.2075 54.9329C96.2412 54.9081 96.2657 54.8727 96.2769 54.8323Z" fill="#F04E30"/>
<path d="M57.8106 96.2161C52.3059 95.8308 29.1866 97.1188 28.2288 97.1298V100.62C29.1645 100.62 52.328 97.2399 57.7775 96.7115C57.8432 96.7159 57.908 96.694 57.9575 96.6506C58.0071 96.6073 58.0374 96.546 58.0417 96.4803C58.0461 96.4146 58.0242 96.3499 57.9809 96.3003C57.9375 96.2508 57.8762 96.2205 57.8106 96.2161Z" fill="#F04E30"/>
<path d="M83.0492 175.477C81.3648 172.108 77.4675 164.401 77.1263 163.807L75.1116 165.04C75.4529 165.59 80.6162 172.581 82.818 175.631C82.8416 175.652 82.8718 175.665 82.9037 175.668C82.9356 175.67 82.9673 175.662 82.9939 175.644C83.0206 175.626 83.0405 175.6 83.0505 175.57C83.0605 175.54 83.0601 175.507 83.0492 175.477Z" fill="#F04E30"/>
<path d="M86.517 164.467C86.517 164.831 86.1316 169.719 85.9885 171.855C85.9885 171.876 85.9972 171.897 86.0127 171.913C86.0282 171.928 86.0492 171.937 86.0711 171.937C86.093 171.937 86.114 171.928 86.1295 171.913C86.145 171.897 86.1537 171.876 86.1537 171.855C86.6491 169.774 87.783 165.007 87.8381 164.643L86.517 164.467Z" fill="#F04E30"/>
<path d="M83.4786 169.146C82.818 167.297 81.2767 163.047 81.1556 162.739L80.0547 163.245C80.1978 163.554 82.3997 167.495 83.3575 169.212C83.3692 169.22 83.383 169.225 83.3973 169.226C83.4116 169.227 83.4259 169.224 83.4384 169.217C83.451 169.21 83.4614 169.2 83.4685 169.187C83.4756 169.175 83.4791 169.161 83.4786 169.146Z" fill="#F04E30"/>
<path d="M85.8784 178.086C83.9078 181.3 79.372 188.688 79.0747 189.271L81.1775 190.372C81.4637 189.8 84.7224 181.763 86.1316 178.262C86.155 178.228 86.164 178.187 86.1568 178.147C86.1496 178.106 86.1267 178.071 86.0931 178.047C86.0595 178.024 86.018 178.015 85.9778 178.022C85.9375 178.029 85.9018 178.052 85.8784 178.086Z" fill="#F04E30"/>
<path d="M75.2436 168.343C73.4932 166.141 69.4638 161.065 69.1335 160.724L67.8564 161.935C68.1867 162.288 72.9978 166.614 75.0895 168.541C75.1158 168.561 75.1491 168.57 75.1821 168.566C75.2152 168.562 75.2452 168.545 75.2657 168.519C75.2861 168.492 75.2953 168.459 75.2911 168.426C75.287 168.393 75.2699 168.363 75.2436 168.343Z" fill="#F04E30"/>
<path d="M65.3242 177.106C65.3461 177.106 65.3671 177.097 65.3826 177.082C65.3981 177.066 65.4068 177.045 65.4068 177.023C65.4068 177.001 65.3981 176.98 65.3826 176.965C65.3671 176.949 65.3461 176.941 65.3242 176.941C63.2215 176.82 58.3884 176.533 58.0361 176.544V177.866C58.4215 177.855 63.2325 177.337 65.3242 177.106Z" fill="#F04E30"/>
<path d="M86.7812 190.989C86.7812 194.765 86.7812 203.429 86.8693 204.079L89.2142 203.88C89.1592 203.242 87.706 194.688 87.0674 190.967C87.0645 190.929 87.0466 190.893 87.0177 190.869C86.9888 190.844 86.9513 190.832 86.9133 190.834C86.8753 190.837 86.8401 190.855 86.8153 190.884C86.7905 190.913 86.7783 190.951 86.7812 190.989Z" fill="#F04E30"/>
<path d="M103.031 182.776C102.414 182.589 93.9262 180.827 90.2381 180.056C90.2024 180.048 90.165 180.055 90.1336 180.073C90.1021 180.092 90.0791 180.122 90.0693 180.158C90.0594 180.193 90.0634 180.23 90.0805 180.263C90.0976 180.295 90.1264 180.32 90.1611 180.332C93.673 181.697 101.754 184.845 102.37 185.033L103.031 182.776Z" fill="#F04E30"/>
<path d="M101.534 179.352C103.735 180.2 108.657 182.126 109.042 182.236L109.449 180.849C109.075 180.739 103.857 179.649 101.578 179.176C101.554 179.17 101.53 179.173 101.509 179.186C101.488 179.198 101.473 179.218 101.468 179.242C101.462 179.265 101.465 179.29 101.478 179.31C101.49 179.331 101.51 179.346 101.534 179.352Z" fill="#F04E30"/>
<path d="M84.3261 189.568C83.5885 191.473 81.882 195.844 81.783 196.174L83.005 196.537C83.1041 196.207 84.1059 191.616 84.4692 189.612C84.4702 189.595 84.4654 189.578 84.4556 189.564C84.4458 189.55 84.4314 189.539 84.4149 189.534C84.3984 189.529 84.3807 189.53 84.3646 189.536C84.3485 189.542 84.3349 189.554 84.3261 189.568Z" fill="#F04E30"/>
<path d="M100.433 176.126C100.405 176.126 100.378 176.137 100.359 176.157C100.339 176.176 100.328 176.203 100.328 176.231C100.328 176.258 100.339 176.285 100.359 176.305C100.378 176.324 100.405 176.335 100.433 176.335C103.108 176.655 109.24 177.37 109.702 177.436L109.758 175.752C109.339 175.697 103.163 175.994 100.433 176.126Z" fill="#F04E30"/>
<path d="M99.5299 169.741C101.269 168.64 105.255 166.141 105.541 165.932L104.77 164.908C104.495 165.117 100.972 168.21 99.4308 169.62C99.4147 169.633 99.4046 169.652 99.4025 169.672C99.4004 169.693 99.4066 169.714 99.4198 169.73C99.4329 169.746 99.4519 169.756 99.4726 169.758C99.4932 169.76 99.5138 169.754 99.5299 169.741Z" fill="#F04E30"/>
<path d="M92.2089 178.108C94.2896 177.381 99.0786 175.719 99.4199 175.565L98.8694 174.31C98.5282 174.464 94.0804 176.897 92.1428 177.954C92.1287 177.966 92.1189 177.982 92.1148 178C92.1106 178.019 92.1123 178.038 92.1197 178.055C92.127 178.072 92.1396 178.086 92.1556 178.096C92.1717 178.105 92.1903 178.109 92.2089 178.108Z" fill="#F04E30"/>
<path d="M103.846 172.174C105.101 171.733 107.985 170.732 108.194 170.643L107.853 169.884C107.644 169.972 104.968 171.436 103.802 172.086L103.846 172.174Z" fill="#F04E30"/>
<path d="M85.6473 160.427C85.8455 159.117 86.3078 156.1 86.3189 155.869L85.4932 155.814C85.4932 156.045 85.4932 159.117 85.4932 160.416L85.6473 160.427Z" fill="#F04E30"/>
<path d="M102.635 186.937C104.099 187.697 107.479 189.458 107.743 189.568L108.139 188.622C107.875 188.511 104.264 187.345 102.635 186.827C102.625 186.833 102.618 186.841 102.613 186.851C102.608 186.86 102.605 186.871 102.605 186.882C102.605 186.893 102.608 186.904 102.613 186.913C102.618 186.923 102.625 186.931 102.635 186.937Z" fill="#F04E30"/>
<path d="M83.2692 162.398C83.2142 159.998 83.0711 154.471 83.027 154.064L81.5298 154.229C81.5298 154.636 82.6307 160.064 83.0711 162.42C83.0725 162.433 83.0765 162.445 83.0828 162.457C83.0891 162.468 83.0977 162.478 83.1079 162.486C83.1181 162.495 83.1298 162.501 83.1424 162.504C83.155 162.508 83.1682 162.509 83.1812 162.508C83.1942 162.506 83.2068 162.502 83.2182 162.496C83.2297 162.49 83.2398 162.481 83.248 162.471C83.2562 162.461 83.2623 162.449 83.2659 162.436C83.2695 162.424 83.2707 162.411 83.2692 162.398Z" fill="#F04E30"/>
<path d="M88.4547 171.799C90.5794 168.684 95.4565 161.517 95.7758 160.955L93.7281 159.799C93.4088 160.361 89.7758 168.233 88.2235 171.656C88.2164 171.686 88.2188 171.716 88.2302 171.744C88.2417 171.772 88.2616 171.796 88.2873 171.812C88.3129 171.827 88.3429 171.835 88.3729 171.833C88.403 171.83 88.4316 171.819 88.4547 171.799Z" fill="#F04E30"/>
<path d="M88.3226 177.194C88.312 177.212 88.3072 177.232 88.3089 177.253C88.3106 177.273 88.3187 177.293 88.332 177.309C88.3454 177.325 88.3633 177.336 88.3833 177.341C88.4034 177.346 88.4245 177.345 88.4437 177.337C90.4694 175.884 95.1373 172.537 95.4566 172.262L94.4438 171.073C94.0915 171.348 90.0511 175.41 88.3226 177.194Z" fill="#F04E30"/>
<path d="M78.4143 162.321C77.6327 160.592 75.8382 156.629 75.684 156.354L74.6492 156.926C74.8033 157.212 77.2363 160.823 78.2932 162.431C78.3078 162.447 78.3282 162.456 78.3499 162.457C78.3716 162.458 78.3928 162.451 78.4088 162.436C78.4249 162.422 78.4345 162.401 78.4355 162.379C78.4365 162.358 78.4289 162.337 78.4143 162.321Z" fill="#F04E30"/>
<path d="M80.2968 193.4C78.9867 195.095 75.9701 199.003 75.772 199.312L76.8729 200.038C77.0711 199.73 79.405 195.381 80.4179 193.433C80.4121 193.422 80.4045 193.413 80.3953 193.406C80.386 193.399 80.3755 193.394 80.3642 193.391C80.353 193.388 80.3412 193.387 80.3296 193.388C80.318 193.39 80.3069 193.394 80.2968 193.4Z" fill="#F04E30"/>
<path d="M95.3354 193.223C96.6895 195.326 99.7391 200.148 100.047 200.49L101.28 199.543C101.016 199.201 97.1629 194.952 95.4785 193.113C95.4617 193.104 95.4427 193.1 95.4237 193.102C95.4047 193.104 95.3865 193.111 95.3714 193.122C95.3563 193.134 95.3449 193.15 95.3385 193.168C95.3321 193.185 95.331 193.205 95.3354 193.223Z" fill="#F04E30"/>
<path d="M86.9683 183.645C86.9632 183.636 86.9563 183.628 86.9481 183.621C86.9398 183.614 86.9303 183.609 86.9201 183.606C86.9098 183.603 86.8991 183.602 86.8885 183.603C86.8779 183.604 86.8676 183.607 86.8582 183.612C86.8488 183.617 86.8405 183.624 86.8337 183.633C86.827 183.641 86.8219 183.65 86.8189 183.661C86.8158 183.671 86.8148 183.682 86.8158 183.692C86.8169 183.703 86.8201 183.713 86.8251 183.722C87.6398 185.616 89.5004 189.976 89.6655 190.328L90.7665 189.722C90.6453 189.37 88.0802 185.374 86.9683 183.645Z" fill="#F04E30"/>
<path d="M97.13 187.917C99.6401 190.119 105.42 195.095 105.882 195.436L107.038 193.752C106.576 193.422 100.058 189.436 97.2181 187.708C97.1954 187.711 97.174 187.72 97.1558 187.734C97.1377 187.748 97.1235 187.766 97.1146 187.787C97.1057 187.808 97.1025 187.831 97.1052 187.854C97.1079 187.877 97.1164 187.899 97.13 187.917Z" fill="#F04E30"/>
<path d="M90.3372 193.873C91.2509 196.735 93.3427 203.319 93.5409 203.781L95.2803 203.066C95.0822 202.592 91.9775 196.46 90.5574 193.774C90.5427 193.747 90.5185 193.727 90.4896 193.717C90.4607 193.708 90.4293 193.709 90.4015 193.722C90.3737 193.734 90.3516 193.757 90.3397 193.785C90.3278 193.813 90.3269 193.844 90.3372 193.873Z" fill="#F04E30"/>
<path d="M92.4729 189.282L93.684 188.5C93.4638 188.17 90.216 183.954 88.8069 182.115C88.8004 182.105 88.7919 182.096 88.782 182.089C88.7722 182.082 88.761 182.078 88.7493 182.075C88.7375 182.073 88.7254 182.072 88.7135 182.074C88.7017 182.077 88.6904 182.081 88.6803 182.088C88.6701 182.094 88.6614 182.102 88.6545 182.112C88.6477 182.122 88.6428 182.133 88.6403 182.145C88.6377 182.157 88.6375 182.169 88.6396 182.181C88.6418 182.193 88.6462 182.204 88.6527 182.214C89.7537 184.218 92.2638 188.941 92.4729 189.282Z" fill="#F04E30"/>
<path d="M81.1115 198.167C80.0656 200.236 77.6766 204.992 77.5334 205.367L78.8766 205.906C79.0197 205.543 80.594 200.401 81.2766 198.2C81.2747 198.181 81.2669 198.163 81.2542 198.149C81.2415 198.135 81.2247 198.126 81.2062 198.122C81.1877 198.118 81.1686 198.121 81.1515 198.129C81.1344 198.137 81.1204 198.15 81.1115 198.167Z" fill="#F04E30"/>
<path d="M72.3813 191.924C72.6565 191.704 76.1575 188.478 77.6767 187.069C77.6928 187.056 77.703 187.037 77.705 187.017C77.7071 186.996 77.7009 186.975 77.6877 186.959C77.6746 186.943 77.6556 186.933 77.635 186.931C77.6143 186.929 77.5937 186.935 77.5776 186.948C75.8492 188.049 71.8639 190.691 71.5886 190.911L72.3813 191.924Z" fill="#F04E30"/>
<path d="M66.7116 191.693C65.4345 192.343 62.495 193.84 62.3079 193.961L62.7813 194.721C62.9904 194.589 65.6326 192.64 66.7886 191.781C66.7944 191.776 66.7991 191.77 66.8025 191.763C66.8059 191.756 66.808 191.749 66.8085 191.741C66.809 191.733 66.808 191.726 66.8055 191.718C66.8031 191.711 66.7992 191.704 66.7941 191.699C66.7891 191.693 66.7829 191.688 66.776 191.685C66.7691 191.681 66.7616 191.679 66.754 191.679C66.7463 191.678 66.7386 191.679 66.7313 191.682C66.7241 191.684 66.7173 191.688 66.7116 191.693Z" fill="#F04E30"/>
<path d="M68.4069 166.603C67.372 165.612 64.983 163.3 64.7958 163.19L64.2344 163.884C64.4215 164.038 67.1518 165.888 68.3408 166.68C68.3511 166.684 68.3622 166.684 68.3726 166.681C68.3831 166.678 68.3924 166.672 68.3994 166.664C68.4065 166.655 68.411 166.645 68.4123 166.634C68.4136 166.624 68.4117 166.613 68.4069 166.603Z" fill="#F04E30"/>
<path d="M95.9518 165.998C97.3941 164.478 100.719 160.999 100.939 160.713L99.9152 159.888C99.695 160.163 96.9977 164.148 95.8197 165.888C95.8051 165.905 95.7981 165.928 95.8002 165.95C95.8022 165.973 95.8132 165.994 95.8307 166.009C95.8483 166.023 95.8709 166.03 95.8936 166.028C95.9163 166.026 95.9372 166.015 95.9518 165.998Z" fill="#F04E30"/>
<path d="M76.0031 192.508C74.1316 194.93 69.849 200.501 69.5627 200.941L71.1701 201.976C71.4563 201.535 74.7591 195.37 76.2013 192.64C76.2125 192.614 76.2142 192.585 76.2061 192.558C76.198 192.531 76.1807 192.507 76.1572 192.491C76.1336 192.476 76.1053 192.469 76.0772 192.472C76.0491 192.475 76.0229 192.488 76.0031 192.508Z" fill="#F04E30"/>
<path d="M67.2288 171.271C65.5224 170.093 61.5921 167.407 61.2838 167.231L60.6453 168.332C60.9535 168.508 65.2691 170.533 67.1517 171.381C67.1653 171.382 67.1791 171.38 67.1915 171.374C67.2039 171.369 67.2146 171.36 67.2225 171.349C67.2303 171.337 67.235 171.324 67.2361 171.311C67.2373 171.297 67.2347 171.283 67.2288 171.271Z" fill="#F04E30"/>
<path d="M81.8052 180.508C78.9868 181.686 72.5244 184.394 72.062 184.636L72.9428 186.332C73.4051 186.089 79.3391 182.357 81.9153 180.728C81.9445 180.713 81.9667 180.688 81.977 180.657C81.9873 180.626 81.9849 180.592 81.9703 180.563C81.9557 180.534 81.9301 180.511 81.8991 180.501C81.8682 180.491 81.8344 180.493 81.8052 180.508Z" fill="#F04E30"/>
<path d="M74.0876 179.495C74.462 179.495 79.5923 179.253 81.7941 179.143C81.8175 179.143 81.8399 179.133 81.8564 179.117C81.8729 179.1 81.8822 179.078 81.8822 179.055C81.8822 179.031 81.8729 179.009 81.8564 178.992C81.8399 178.976 81.8175 178.966 81.7941 178.966C79.5923 178.702 74.517 178.119 74.0876 178.108V179.495Z" fill="#F04E30"/>
<path d="M70.1904 194.126C68.5941 195.227 64.928 197.66 64.6858 197.869L65.4344 198.805C65.6876 198.596 68.9023 195.568 70.3005 194.247C70.3166 194.233 70.3262 194.212 70.3272 194.191C70.3282 194.169 70.3206 194.148 70.306 194.132C70.2914 194.116 70.271 194.106 70.2493 194.105C70.2277 194.104 70.2065 194.112 70.1904 194.126Z" fill="#F04E30"/>
<path d="M69.3866 185.627C66.8655 186.343 61.0746 188.005 60.6562 188.17L61.2397 189.7C61.6581 189.546 67.0966 186.948 69.4636 185.814C69.4885 185.804 69.5082 185.784 69.5185 185.76C69.5288 185.735 69.5289 185.707 69.5187 185.682C69.5085 185.657 69.4888 185.638 69.464 185.627C69.4392 185.617 69.4114 185.617 69.3866 185.627Z" fill="#F04E30"/>
<path d="M71.3022 168.365L70.4985 169.388C70.9609 169.752 77.3683 174.232 80.1536 176.181C80.2857 176.269 80.3738 176.181 80.2527 176.06C77.6765 173.836 71.8086 168.717 71.3022 168.365Z" fill="#F04E30"/>
<path d="M64.3665 174.442C64.7958 174.508 70.5647 174.937 73.0858 175.124C73.1052 175.118 73.122 175.105 73.134 175.088C73.1459 175.071 73.1523 175.051 73.1523 175.031C73.1523 175.01 73.1459 174.99 73.134 174.973C73.122 174.957 73.1052 174.944 73.0858 174.937C70.6417 174.332 65.016 172.966 64.5866 172.889L64.3665 174.442Z" fill="#F04E30"/>
<path d="M88.7518 162.607C89.2802 160.482 90.5243 155.594 90.5243 155.209L89.1701 154.999C89.1151 155.374 88.7408 160.394 88.5756 162.585C88.5727 162.608 88.5792 162.632 88.5936 162.65C88.6081 162.669 88.6293 162.681 88.6527 162.684C88.6761 162.687 88.6996 162.68 88.7182 162.666C88.7368 162.651 88.7489 162.63 88.7518 162.607Z" fill="#F04E30"/>
<path d="M71.0491 181.675C68.539 181.499 57.838 182.093 57.4307 182.093V183.667C57.86 183.667 68.528 182.115 71.0381 181.862C71.058 181.856 71.0757 181.845 71.0886 181.829C71.1016 181.813 71.1092 181.793 71.1104 181.772C71.1117 181.752 71.1064 181.731 71.0954 181.714C71.0844 181.696 71.0682 181.683 71.0491 181.675Z" fill="#F04E30"/>
<path d="M210.561 71.9709C205.662 62.2058 194.399 39.791 193.409 38.1946L187.596 41.7506C188.565 43.347 203.383 63.5929 209.845 72.4003C209.906 72.4868 209.997 72.5471 210.101 72.569C210.204 72.591 210.312 72.5729 210.403 72.5185C210.494 72.4641 210.56 72.3774 210.59 72.2758C210.619 72.1742 210.609 72.0653 210.561 71.9709Z" fill="#8ED8F8"/>
<path d="M220.579 40.1212C220.425 41.1671 219.478 55.336 219.049 61.5011C219.05 61.5585 219.072 61.6136 219.11 61.6564C219.149 61.6993 219.201 61.7272 219.258 61.7351C219.315 61.743 219.372 61.7305 219.421 61.6998C219.469 61.669 219.505 61.622 219.522 61.5672C220.954 55.5562 224.234 41.7506 224.4 40.6497L220.579 40.1212Z" fill="#8ED8F8"/>
<path d="M211.772 53.6627C209.856 48.3012 205.453 36.0479 205.045 35.1121L201.809 36.5874C202.216 37.4681 208.59 48.8847 211.365 53.8498C211.389 53.9038 211.435 53.9458 211.49 53.9664C211.546 53.9871 211.608 53.9847 211.662 53.9599C211.716 53.9351 211.758 53.8898 211.778 53.8341C211.799 53.7783 211.797 53.7167 211.772 53.6627Z" fill="#8ED8F8"/>
<path d="M218.719 79.5453C213.005 88.8481 199.882 110.239 199.034 111.912L205.123 114.984C205.959 113.322 215.372 90.0591 219.435 79.9306C219.458 79.8399 219.45 79.744 219.413 79.6582C219.376 79.5723 219.31 79.5015 219.228 79.4571C219.145 79.4127 219.05 79.3973 218.958 79.4132C218.866 79.4292 218.782 79.4757 218.719 79.5453Z" fill="#8ED8F8"/>
<path d="M187.497 51.78C187.556 51.8273 187.631 51.8515 187.707 51.8485C187.783 51.8455 187.856 51.8153 187.912 51.7635C187.968 51.7116 188.003 51.6415 188.012 51.5658C188.02 51.4901 188.002 51.4138 187.959 51.3507C182.884 44.9653 171.225 30.301 170.267 29.3322L166.557 32.8221C167.515 33.791 181.431 46.3305 187.497 51.78Z" fill="#8ED8F8"/>
<path d="M159.247 76.6939C159.31 76.6939 159.37 76.669 159.414 76.6246C159.459 76.5802 159.484 76.52 159.484 76.4572C159.484 76.3945 159.459 76.3342 159.414 76.2899C159.37 76.2455 159.31 76.2205 159.247 76.2205C153.159 75.8572 139.177 75.0425 138.131 75.1196L138.23 78.9288C139.265 78.8627 153.192 77.3545 159.247 76.6939Z" fill="#8ED8F8"/>
<path d="M221.339 116.889C221.339 127.81 221.438 152.911 221.592 154.771L228.385 154.188C228.22 152.327 223.981 127.59 222.176 116.823C222.171 116.768 222.156 116.714 222.131 116.665C222.106 116.616 222.072 116.572 222.03 116.536C221.988 116.501 221.939 116.473 221.887 116.456C221.834 116.439 221.779 116.433 221.724 116.437C221.669 116.442 221.616 116.457 221.567 116.482C221.518 116.507 221.474 116.541 221.438 116.583C221.402 116.625 221.375 116.674 221.358 116.726C221.341 116.778 221.335 116.834 221.339 116.889Z" fill="#8ED8F8"/>
<path d="M268.393 93.1197C266.609 92.5912 242.047 87.4719 231.346 85.2591C231.24 85.2269 231.125 85.2385 231.027 85.2911C230.929 85.3438 230.856 85.4332 230.824 85.5398C230.791 85.6464 230.803 85.7613 230.856 85.8594C230.908 85.9575 230.998 86.0306 231.104 86.0627C241.277 90.0261 264.66 99.1307 266.444 99.6591L268.393 93.1197Z" fill="#8ED8F8"/>
<path d="M263.967 83.2004C270.22 85.6444 284.598 91.2371 285.699 91.5564L286.877 87.538C285.776 87.2077 270.682 84.0701 264.11 82.705C264.05 82.7013 263.991 82.7182 263.942 82.7528C263.892 82.7874 263.857 82.8377 263.84 82.8954C263.823 82.953 263.827 83.0147 263.85 83.0701C263.873 83.1256 263.914 83.1715 263.967 83.2004Z" fill="#8ED8F8"/>
<path d="M214.216 112.782C212.069 118.287 207.148 130.936 206.862 131.905L210.396 133.006C210.682 132.037 213.445 118.749 214.645 112.969C214.67 112.912 214.671 112.848 214.649 112.79C214.626 112.732 214.581 112.686 214.524 112.661C214.467 112.636 214.403 112.635 214.345 112.658C214.287 112.68 214.241 112.725 214.216 112.782Z" fill="#8ED8F8"/>
<path d="M260.983 73.8535C260.904 73.8535 260.829 73.8848 260.773 73.9405C260.717 73.9963 260.686 74.0719 260.686 74.1507C260.686 74.2296 260.717 74.3052 260.773 74.3609C260.829 74.4167 260.904 74.448 260.983 74.448C268.69 75.3617 286.503 77.4535 287.835 77.4975L288 72.6315C286.646 72.6204 268.767 73.4902 260.983 73.8535Z" fill="#8ED8F8"/>
<path d="M258.253 55.38C263.284 52.2204 274.833 44.9653 275.648 44.3708L273.446 41.3983C272.631 42.0038 262.436 51.0754 258.033 55.0167C258.007 55.0535 257.992 55.0972 257.99 55.1424C257.988 55.1876 258 55.2322 258.023 55.2709C258.047 55.3096 258.081 55.3405 258.122 55.3599C258.163 55.3793 258.208 55.3863 258.253 55.38Z" fill="#8ED8F8"/>
<path d="M237.071 79.6003C243.104 77.5086 256.954 72.6975 257.989 72.2572L256.37 68.6131C255.369 69.0535 242.51 76.0884 236.906 79.1599C236.861 79.1905 236.828 79.2352 236.812 79.2869C236.796 79.3385 236.797 79.3941 236.816 79.4448C236.835 79.4955 236.871 79.5384 236.917 79.5666C236.963 79.5947 237.017 79.6066 237.071 79.6003Z" fill="#8ED8F8"/>
<path d="M270.748 62.4149C274.381 61.1599 282.726 58.2534 283.321 58.0112L282.352 55.8094C281.758 56.0736 273.996 60.3122 270.627 62.1617C270.601 62.1816 270.582 62.21 270.574 62.2421C270.566 62.2742 270.57 62.3081 270.584 62.338C270.598 62.3678 270.623 62.3918 270.652 62.4058C270.682 62.4199 270.716 62.4231 270.748 62.4149Z" fill="#8ED8F8"/>
<path d="M218.069 28.4074C218.653 24.6092 219.985 15.8679 220.029 15.1963L217.629 15.0312C217.629 15.6917 217.717 24.5211 217.772 28.3634C217.769 28.3829 217.77 28.4028 217.775 28.4219C217.78 28.4411 217.788 28.4591 217.8 28.4749C217.812 28.4908 217.827 28.5041 217.843 28.5143C217.86 28.5244 217.879 28.5311 217.899 28.534C217.918 28.5369 217.938 28.5359 217.957 28.5311C217.976 28.5263 217.994 28.5178 218.01 28.506C218.026 28.4943 218.039 28.4795 218.05 28.4626C218.06 28.4457 218.066 28.4269 218.069 28.4074Z" fill="#8ED8F8"/>
<path d="M267.38 105.142C271.629 107.344 281.395 112.43 282.154 112.749L283.255 109.986C282.495 109.666 272.026 106.276 267.468 104.8C267.429 104.804 267.393 104.819 267.364 104.844C267.334 104.869 267.313 104.903 267.304 104.94C267.294 104.977 267.296 105.017 267.31 105.053C267.323 105.089 267.348 105.12 267.38 105.142Z" fill="#8ED8F8"/>
<path d="M211.166 34.1212C211.001 27.1634 210.605 11.178 210.473 10L206.157 10.4624C206.289 11.6404 209.306 27.3395 210.638 34.1763C210.645 34.2463 210.68 34.3106 210.735 34.355C210.79 34.3994 210.86 34.4203 210.93 34.413C211 34.4057 211.064 34.3708 211.109 34.3161C211.153 34.2614 211.174 34.1913 211.166 34.1212Z" fill="#8ED8F8"/>
<path d="M226.194 61.3251C232.348 52.2975 246.473 31.6002 247.387 29.9378L241.453 26.58C240.539 28.1983 230.025 50.9874 225.457 60.9177C225.403 61.0155 225.39 61.1308 225.421 61.2382C225.452 61.3455 225.524 61.4362 225.622 61.4902C225.72 61.5442 225.835 61.5572 225.942 61.5262C226.049 61.4952 226.14 61.4229 226.194 61.3251Z" fill="#8ED8F8"/>
<path d="M225.721 76.9581C225.664 77.0063 225.628 77.0751 225.622 77.1494C225.616 77.2238 225.639 77.2975 225.688 77.3544C225.736 77.4114 225.805 77.4468 225.879 77.453C225.953 77.4592 226.027 77.4356 226.084 77.3875C231.963 73.1709 245.46 63.4828 246.396 62.6791L243.468 59.2443C242.521 60.0479 230.818 71.8278 225.721 76.9581Z" fill="#8ED8F8"/>
<path d="M197.196 33.9011C194.939 28.9029 189.732 17.3872 189.28 16.6166L186.286 18.29C186.737 19.1047 193.761 29.5634 196.821 34.1102C196.849 34.1599 196.896 34.1965 196.95 34.2119C197.005 34.2274 197.064 34.2205 197.113 34.1928C197.163 34.1651 197.199 34.1187 197.215 34.064C197.23 34.0093 197.224 33.9507 197.196 33.9011Z" fill="#8ED8F8"/>
<path d="M202.568 123.868C198.803 128.79 189.996 140.107 189.467 141.01L192.77 143.124C193.343 142.232 200.091 129.637 203.02 124.144C203.056 124.084 203.067 124.012 203.051 123.944C203.034 123.876 202.991 123.817 202.932 123.78C202.872 123.744 202.8 123.733 202.732 123.749C202.664 123.766 202.605 123.809 202.568 123.868Z" fill="#8ED8F8"/>
<path d="M246.143 123.395C250.051 129.483 259.046 143.454 259.794 144.434L263.372 141.681C262.624 140.702 251.449 128.404 246.583 123.054C246.538 122.995 246.471 122.957 246.398 122.948C246.325 122.939 246.251 122.959 246.192 123.004C246.134 123.049 246.096 123.116 246.087 123.189C246.077 123.263 246.098 123.337 246.143 123.395Z" fill="#8ED8F8"/>
<path d="M221.922 95.6187C221.893 95.5647 221.844 95.5245 221.785 95.507C221.726 95.4894 221.663 95.496 221.609 95.5252C221.555 95.5544 221.515 95.6038 221.497 95.6627C221.479 95.7215 221.486 95.7849 221.515 95.8389C223.86 101.344 229.222 113.938 229.739 114.841L233.042 113.09C232.535 112.188 225.126 100.639 221.922 95.6187Z" fill="#8ED8F8"/>
<path d="M251.218 107.982C258.495 114.29 275.218 128.768 276.539 129.736L280.084 124.881C278.763 123.912 259.882 112.386 251.647 107.388C251.569 107.352 251.48 107.345 251.397 107.367C251.314 107.39 251.241 107.44 251.19 107.51C251.14 107.58 251.115 107.665 251.12 107.751C251.125 107.837 251.16 107.919 251.218 107.982Z" fill="#8ED8F8"/>
<path d="M231.633 125.245C234.264 133.546 240.33 152.602 240.891 153.968L245.912 151.898C245.35 150.522 236.224 132.731 232.249 124.991C232.205 124.928 232.14 124.881 232.066 124.859C231.991 124.837 231.911 124.841 231.839 124.87C231.767 124.9 231.708 124.953 231.67 125.021C231.633 125.089 231.619 125.168 231.633 125.245Z" fill="#8ED8F8"/>
<path d="M237.831 111.934L241.354 109.656C240.737 108.698 231.324 96.4444 227.229 91.171C227.186 91.1321 227.131 91.1084 227.073 91.1036C227.016 91.0988 226.958 91.1131 226.909 91.1444C226.86 91.1758 226.823 91.2223 226.803 91.2768C226.783 91.3314 226.782 91.3909 226.8 91.4463C229.948 97.3802 237.203 110.966 237.831 111.934Z" fill="#8ED8F8"/>
<path d="M204.946 137.707C201.93 143.696 195.038 157.524 194.587 158.536L198.473 160.1C198.902 158.999 203.449 144.313 205.431 137.905C205.447 137.843 205.439 137.778 205.411 137.721C205.382 137.664 205.334 137.619 205.275 137.595C205.216 137.571 205.15 137.569 205.09 137.59C205.029 137.61 204.978 137.652 204.946 137.707Z" fill="#8ED8F8"/>
<path d="M194.697 105.076C189.677 108.378 178.183 115.909 177.346 116.547L179.647 119.498C180.451 118.87 190.579 109.512 194.983 105.439C195.031 105.401 195.062 105.345 195.07 105.285C195.077 105.224 195.059 105.162 195.022 105.114C194.984 105.066 194.928 105.035 194.867 105.028C194.806 105.02 194.745 105.038 194.697 105.076Z" fill="#8ED8F8"/>
<path d="M163.243 118.914C159.544 120.797 151.056 125.112 150.451 125.52L151.816 127.722C152.421 127.347 160.084 121.689 163.409 119.223C163.449 119.201 163.48 119.163 163.493 119.119C163.507 119.075 163.502 119.027 163.48 118.986C163.458 118.945 163.421 118.914 163.377 118.901C163.332 118.888 163.284 118.892 163.243 118.914Z" fill="#8ED8F8"/>
<path d="M168.165 46.4405C165.159 43.5781 158.256 37.0056 157.717 36.5322L156.087 38.624C156.638 39.0643 164.532 44.4148 167.966 46.7378C168.006 46.7641 168.054 46.7736 168.1 46.7643C168.147 46.755 168.188 46.7277 168.214 46.6882C168.24 46.6488 168.25 46.6006 168.241 46.5541C168.231 46.5077 168.204 46.4668 168.165 46.4405Z" fill="#8ED8F8"/>
<path d="M247.893 44.5469C252.077 40.1432 261.677 30.0698 262.326 29.2661L259.354 26.8881C258.704 27.6918 250.899 39.2295 247.508 44.2497C247.488 44.275 247.474 44.3039 247.466 44.3347C247.457 44.3656 247.455 44.3977 247.459 44.4294C247.463 44.4611 247.474 44.4917 247.49 44.5194C247.505 44.5471 247.527 44.5714 247.552 44.591C247.577 44.6105 247.606 44.6248 247.637 44.6332C247.668 44.6415 247.7 44.6437 247.732 44.6396C247.763 44.6355 247.794 44.6252 247.822 44.6093C247.849 44.5934 247.874 44.5722 247.893 44.5469Z" fill="#8ED8F8"/>
<path d="M190.172 121.27C184.766 128.283 172.348 144.39 171.533 145.667L176.179 148.672C176.994 147.406 186.583 129.45 190.744 121.645C190.794 121.569 190.811 121.476 190.793 121.387C190.774 121.299 190.721 121.221 190.645 121.171C190.569 121.121 190.477 121.104 190.388 121.123C190.299 121.141 190.221 121.194 190.172 121.27Z" fill="#8ED8F8"/>
<path d="M164.741 59.8167C159.797 56.4259 148.436 48.6314 147.544 48.1249L145.695 51.4277C146.586 51.9341 159.082 57.747 164.52 60.2351C164.576 60.2643 164.641 60.2702 164.701 60.2517C164.76 60.2331 164.81 60.1915 164.84 60.136C164.869 60.0805 164.875 60.0157 164.856 59.9558C164.838 59.896 164.796 59.8459 164.741 59.8167Z" fill="#8ED8F8"/>
<path d="M206.961 86.5582C198.803 89.96 180.087 97.7986 178.755 98.4922L181.299 103.391C182.642 102.698 199.805 91.8756 207.269 87.1637C207.341 87.1181 207.393 87.0475 207.415 86.9657C207.438 86.8838 207.429 86.7965 207.39 86.7209C207.352 86.6452 207.286 86.5867 207.207 86.5566C207.128 86.5265 207.04 86.5271 206.961 86.5582Z" fill="#8ED8F8"/>
<path d="M184.601 83.5967C185.702 83.5967 200.455 82.9031 206.873 82.5728C206.93 82.5608 206.981 82.5296 207.017 82.4845C207.054 82.4394 207.074 82.3831 207.074 82.3251C207.074 82.2671 207.054 82.2108 207.017 82.1657C206.981 82.1206 206.93 82.0894 206.873 82.0774C200.488 81.3288 185.812 79.6113 184.711 79.5783L184.601 83.5967Z" fill="#8ED8F8"/>
<path d="M173.328 125.982C168.704 129.087 158.091 136.221 157.354 136.804L159.555 139.524C160.293 138.929 169.585 130.144 173.625 126.312C173.647 126.293 173.664 126.269 173.677 126.243C173.69 126.217 173.697 126.188 173.698 126.159C173.7 126.13 173.696 126.101 173.686 126.073C173.676 126.046 173.661 126.02 173.642 125.999C173.622 125.977 173.599 125.959 173.572 125.947C173.546 125.934 173.517 125.927 173.488 125.925C173.459 125.924 173.43 125.928 173.402 125.938C173.375 125.948 173.35 125.963 173.328 125.982Z" fill="#8ED8F8"/>
<path d="M170.983 101.377C163.684 103.468 146.917 108.268 145.662 108.731L147.346 113.134C148.557 112.672 164.3 105.164 171.159 101.894C171.202 101.855 171.233 101.804 171.248 101.748C171.263 101.692 171.26 101.632 171.242 101.577C171.223 101.522 171.188 101.474 171.142 101.438C171.096 101.402 171.041 101.381 170.983 101.377Z" fill="#8ED8F8"/>
<path d="M176.542 51.3836L174.23 54.3561C175.563 55.391 194.113 68.3818 202.183 74.0296C202.568 74.2938 202.821 73.9635 202.469 73.6663C195.005 67.2479 177.886 52.4185 176.542 51.3836Z" fill="#8ED8F8"/>
<path d="M156.473 68.9985C157.706 69.1966 174.418 70.4297 181.695 70.9691C181.759 70.9646 181.82 70.9383 181.868 70.8947C181.915 70.8511 181.947 70.7926 181.957 70.7288C181.967 70.6651 181.956 70.5997 181.924 70.5434C181.892 70.4871 181.843 70.4431 181.783 70.4187C174.693 68.6792 158.41 64.7049 157.177 64.5067L156.473 68.9985Z" fill="#8ED8F8"/>
<path d="M227.064 34.7266C228.528 28.5615 232.04 14.4036 232.205 13.3027L228.286 12.6862C228.121 13.7871 227.042 28.3082 226.579 34.6386C226.574 34.6704 226.574 34.703 226.581 34.7346C226.588 34.7662 226.601 34.7961 226.619 34.8227C226.638 34.8493 226.661 34.872 226.688 34.8895C226.715 34.907 226.746 34.919 226.778 34.9248C226.809 34.9306 226.842 34.93 226.874 34.9232C226.905 34.9164 226.935 34.9034 226.962 34.885C226.988 34.8666 227.011 34.8431 227.029 34.816C227.046 34.7888 227.058 34.7584 227.064 34.7266Z" fill="#8ED8F8"/>
<path d="M175.805 89.916C168.528 89.3985 137.625 91.116 136.381 91.138L136.436 95.6958C137.68 95.6958 168.55 91.1931 175.805 90.4775C175.87 90.4645 175.928 90.4295 175.97 90.3783C176.012 90.3271 176.035 90.2629 176.035 90.1967C176.035 90.1305 176.012 90.0663 175.97 90.0151C175.928 89.964 175.87 89.9289 175.805 89.916Z" fill="#8ED8F8"/>
<g clip-path="url(#clip1_9205_75882)">
<path d="M81.8415 107.987C88.5096 100.698 98.2699 96.2903 102.06 95.1355L86.6104 66.3898L57.5888 81.326L20.1734 129.884L38.2799 142.646C38.2799 142.646 44.4831 144.34 52.2548 139.105C61.9693 132.561 73.5064 117.098 81.8415 107.987Z" fill="#8ED8F8"/>
<path d="M52.7067 66.0871C62.1878 55.1694 72.8225 49.7625 76.9546 48.4238L89.0936 71.0098L77.2873 77.3552C64.4544 84.2523 56.9085 93.6006 47.4631 109.263C39.9068 121.792 26.1217 128.231 20.1737 129.884L1.51549 116.094C6.14816 114.046 17.2384 108.173 24.5378 101.075C33.6622 92.2011 40.8552 79.7342 52.7067 66.0871Z" fill="#00377B"/>
<path d="M156.982 192.542H149.697H139V208.566L139.978 254.542H149.243L151.192 214.814L152.796 211.851H153.891L155.723 214.814L157.679 254.542H167.03L168 208.566V192.542H156.982Z" fill="#FFDCA8"/>
<path d="M139.5 240.542H150L149 257.542H140L139.5 240.542Z" fill="#00377B"/>
<path d="M157 240.542H167.5L167 257.5L157.5 257.542L157 240.542Z" fill="#00377B"/>
<path d="M164.753 134.134L163.904 133.883L163.444 134.134L163.791 128.917L161.59 123.38L158.54 120L156.191 122.964L143.183 128.033L143.617 134.186L143.183 133.944L142.343 134.204V138.337L144.007 139.906L144.613 148.589L147.239 149.256V154.785L153.574 155.635L159.909 154.785V149.1L162.517 148.381L163.072 139.854L164.753 138.277V134.134Z" fill="#FFDCA8"/>
<path d="M143.183 128.033L156.19 122.964L158.539 120L161.589 123.38L163.79 128.917L163.123 136.049H162.083L161.329 129.983L145.566 131.716L144.777 136.049H143.798L143.183 128.033Z" fill="#FDB714"/>
<path d="M139.092 257.789H149.309C149.309 257.789 150.973 254.011 145.765 252.59C144.65 252.268 143.464 252.286 142.359 252.642C140.678 253.17 138.529 254.531 139.092 257.789Z" fill="#D71925"/>
<path d="M167.366 257.79H157.158C157.158 257.79 155.884 253.621 160.581 252.486C161.706 252.205 162.887 252.238 163.995 252.581C165.685 253.084 167.938 254.427 167.366 257.79Z" fill="#D71925"/>
<path d="M127 187.5L127.5 178L138 154.542V172.542L133 183.542L127 187.5Z" fill="#FFDCA8"/>
<path d="M179 186.5L181.5 182.5L169 154.542V172.542L174 183.542L171.5 185.5L179 186.5Z" fill="#FFDCA8"/>
<path d="M138 154.542L147.903 153.542H158.667L169 154.542V175.542L166.847 196.542H139.292L138 172.542V154.542Z" fill="#FFDCA8"/>
<path d="M146 153.542H140C140 153.542 142 172.542 138 172.542V180.542L139 197.542H168L169 180.542V172.542C165 172.542 166 159.875 166 153.542H160L153.5 159L146 153.542Z" fill="#D71925"/>
<path d="M149.435 192.542H157.223H168.5L170 224.542H155.876V214.814L153.918 211.851H152.747L151.033 214.814V224.542H137L138.5 192.542H149.435Z" fill="#00377B"/>
<mask id="mask0_9205_75882" style="mask-type:alpha" maskUnits="userSpaceOnUse" x="139" y="240" width="12" height="18">
<path d="M139.5 240.542H150L149 257.542H140L139.5 240.542Z" fill="#D71925"/>
</mask>
<g mask="url(#mask0_9205_75882)">
<path d="M139 244.542H150V245.542H139V244.542Z" fill="#D71925"/>
<path d="M139.5 242.542H150V243.542H139.5V242.542Z" fill="#D71925"/>
<path d="M139.5 240.542H150V241.542H139.5V240.542Z" fill="#D71925"/>
</g>
<mask id="mask1_9205_75882" style="mask-type:alpha" maskUnits="userSpaceOnUse" x="157" y="240" width="11" height="18">
<path d="M157 240.542H167.5L166.5 257.542H157.5L157 240.542Z" fill="#D71925"/>
</mask>
<g mask="url(#mask1_9205_75882)">
<path d="M156.5 244.542H167.5V245.542H156.5V244.542Z" fill="#D71925"/>
<path d="M157 242.542H167.5V243.542H157V242.542Z" fill="#D71925"/>
<path d="M157 240.542H167.5V241.542H157V240.542Z" fill="#D71925"/>
</g>
<path d="M144.5 170.5L146 154V153.5H138.5L132.5 165.5L130.5 184L134 185L138 172.5L144.5 170.5Z" fill="#D71925"/>
<path d="M153.5 159L141 153.5L145.5 149L153.5 159Z" fill="#00377B"/>
<rect x="138" y="172" width="31" height="2" fill="white"/>
<rect x="138" y="175" width="31" height="3" fill="white"/>
<rect x="76.5679" y="48.4092" width="3" height="181.359" transform="rotate(-28.0163 76.5679 48.4092)" fill="#C4C4C4"/>
<path d="M128.378 148.959L127.744 154.854L127.001 187.5L134.001 176L134.644 155.614L136.874 148.321L131 144L128.378 148.959Z" fill="#FFDCA8"/>
<path d="M125.5 184L127.5 159H134.5V163L134 185L133 187.5H127L125.5 184Z" fill="#D71925"/>
<rect x="127" y="160" width="3" height="8" transform="rotate(-90 127 160)" fill="white"/>
<path d="M162.716 196.917L157.823 200.267L151.818 194.223L158.811 191.179L172 182.5L173 180.5L181.5 182.5L179.053 186.664L162.716 196.917Z" fill="#FFDCA8"/>
<path d="M179 187L164.5 196L160.5 190L171.5 182.5L172.5 181L169 172.5V172H163V166L161 158L160 153.5H166L169 154L182 182.5L179 187Z" fill="#D71925"/>
<rect x="159.171" y="190.323" width="3" height="8" transform="rotate(-30.6396 159.171 190.323)" fill="white"/>
<path d="M153.5 159L165.5 153.5L161 149L153.5 159Z" fill="#00377B"/>
</g>
<g clip-path="url(#clip2_9205_75882)">
<path d="M208.316 141.589L211.355 148.076L218.719 148.679V148.076L214.393 124.369L209.329 132.473L208.316 141.589Z" fill="#14313C"/>
<path d="M235.938 141.589L232.9 148.076L225.535 148.679V148.076L233.639 129.434L234.926 132.473L235.938 141.589Z" fill="#14313C"/>
<path d="M234.597 132.604L233.72 132.333L233.034 132.712L233.522 129.596L230.207 124.701L226.45 125.405L213.209 131.177L213.444 132.757L212.676 132.333L211.791 132.604V136.984L214.428 139.486L215.286 145.33L218.673 148.039V153.061L216.515 154.344L223.37 167.91L228.283 157.406L230.225 154.353L228.283 153.296V147.796L231.074 145.33L231.986 139.468L234.597 136.984V132.604Z" fill="#FFDCA8"/>
<path d="M220.363 221.397L218.963 253.479L220.019 257.218L212.956 259.269L212.848 257.218L214.329 253.479L211.303 221.397H220.363Z" fill="#FFDCA8"/>
<path d="M220.019 257.218L218.095 256.46H216.433H214.78L212.848 257.218L212.685 259.847H216.433H220.191L220.019 257.218Z" fill="#D71925"/>
<path d="M226.171 221.397L227.571 253.479L226.514 257.218L233.586 259.269L233.685 257.218L232.213 253.479L235.23 221.397H226.171Z" fill="#FFDCA8"/>
<path d="M226.513 257.218L228.436 256.46H230.098H231.751L233.684 257.218L233.856 259.847H230.098H226.341L226.513 257.218Z" fill="#D71925"/>
<path d="M213.083 187.004L209.651 196.74L209.01 201.211L213.381 249.971H219.458L223.51 204.389L227.055 249.971H233.133L237.009 201.942L236.25 195.981L233.132 187.004H213.083Z" fill="#00377B"/>
<path d="M214.393 124.369L211.791 131.177L213.859 135.593L218.041 133.227L224.571 129.912L230.207 124.701L225.393 119.968L214.393 124.369Z" fill="#14313C"/>
<path d="M230.207 124.701L226.594 128.043L232.059 134.889L233.034 132.712L233.639 129.434L230.207 124.701Z" fill="#14313C"/>
<path d="M236.304 199.287L236.511 199.378L237.342 184.312L234.633 171.685L242.373 170.927L243.873 184.755L240.549 201.012L240.874 201.148L238.508 206.413L232.601 206.712L236.304 199.287Z" fill="#FFDCA8"/>
<path d="M237.008 156.629L242.755 170.963L243.768 185.144L241.742 199.325L236.171 197.806L237.184 184.638L234.298 171.749L233.016 188.006H213.082L211.355 171.47L209.329 156.783L216.514 154.389L223.51 160.328L230.288 154.425L237.008 156.629Z" fill="#D71925"/>
<path d="M190.465 127.59L190.24 127.613L199.463 145.134L213.138 155.77L207.567 162.353L193.892 148.679L185.921 128.184L185.572 128.227L184.776 120.824L189.84 117.279L190.153 122.434L191.866 123.357L190.465 127.59Z" fill="#FFDCA8"/>
<path d="M211.112 166.912L194.399 150.199L191.312 144.628L185.716 130.241L191.312 128.813L199.97 144.121L214.151 155.77L211.112 166.912Z" fill="#D71925"/>
<path d="M223.51 160.328L211.861 155.77L216.419 151.212L223.51 160.328Z" fill="#00377B"/>
<path d="M223.51 160.328L235.158 155.77L230.6 151.212L223.51 160.328Z" fill="#00377B"/>
<path d="M212.874 187.17H233.132V186.157H212.874V187.17Z" fill="#D71925"/>
</g>
</g>
<defs>
<clipPath id="clip0_9205_75882">
<rect width="493" height="350" fill="white"/>
</clipPath>
<clipPath id="clip1_9205_75882">
<rect width="184" height="211" fill="white" transform="translate(0 47)"/>
</clipPath>
<clipPath id="clip2_9205_75882">
<rect width="64.604" height="143.446" fill="white" transform="translate(179.427 116.654)"/>
</clipPath>
</defs>
</svg>
