<svg width="493" height="350" viewBox="0 0 493 350" fill="none" xmlns="http://www.w3.org/2000/svg">
<g clip-path="url(#clip0_9205_75629)">
<path d="M1.44 297.2H5.04V310.64H9.36V297.2H12.96V310.64H14.52V316.16H10.92V314H1.44V297.2ZM26.76 310.88V314H17.16V301.04H27.24V308.96H20.52V310.88H26.76ZM23.88 306.08V303.92H20.52V306.08H23.88ZM30.5888 301.04H33.9488V302.48L36.5888 301.04H40.6688V314H33.9488V318.56H30.5888V301.04ZM37.3088 304.16H35.7488L33.9488 305.12V310.88H37.3088V304.16ZM53.6175 310.88V314H44.0175V301.04H54.0975V308.96H47.3775V310.88H53.6175ZM50.7375 306.08V303.92H47.3775V306.08H50.7375ZM64.1663 314.24L60.8063 309.56V314H57.4463V300.68H57.9263L64.1663 309.2L70.4063 300.68H70.8863V314H67.5263V309.56L64.1663 314.24ZM84.33 314H74.25V301.04H84.33V314ZM80.97 310.88V304.16H77.61V310.88H80.97ZM91.0388 309.2V314H87.6788V301.04H91.0388V306.08H94.3988V301.04H97.7588V314H94.3988V309.2H91.0388ZM111.188 314H107.828V307.64L101.588 314.36H101.108V301.04H104.468V307.4L110.708 300.68H111.188V314ZM121.256 314V309.92H119.096L117.536 314H114.056L115.616 309.92H114.536V301.04H124.616V314H121.256ZM117.896 304.16V306.8H121.256V304.16H117.896ZM135.533 308.96V306.08H138.053L138.653 303.92H133.133V301.04H142.733L141.413 306.08H142.493V314H133.133V311.12H139.133V308.96H135.533ZM146.086 304.16V301.04H155.686V314H145.606V306.08H152.326V304.16H146.086ZM148.966 308.96V311.12H152.326V308.96H148.966ZM159.04 314V301.04H162.4V314H159.04ZM166.24 307.52L169.6 314H166.12L162.76 307.52L165.88 301.04H169.36L166.24 307.52ZM171.766 301.04H175.126V302.48L177.766 301.04H181.846V314H175.126V318.56H171.766V301.04ZM178.486 304.16H176.926L175.126 305.12V310.88H178.486V304.16ZM188.555 301.04V305.12H194.795V314H185.195V301.04H188.555ZM191.435 310.88V308.24H188.555V310.88H191.435ZM200.075 314H196.715V301.04H200.075V314ZM205.828 314V304.16H202.468V301.04H212.548V304.16H209.188V314H205.828ZM225.038 314H221.678V307.64L215.438 314.36H214.958V301.04H218.318V307.4L224.558 300.68H225.038V314ZM235.107 314V309.92H232.947L231.387 314H227.907L229.467 309.92H228.387V301.04H238.467V314H235.107ZM231.747 304.16V306.8H235.107V304.16H231.747Z" fill="#00377B"/>
<path d="M2 344.912H4.456V337.096C4.456 336.872 4.464 336.635 4.48 336.384L2.44 338.136C2.37067 338.195 2.30133 338.232 2.232 338.248C2.16267 338.259 2.09867 338.259 2.04 338.248C1.98133 338.237 1.92533 338.216 1.872 338.184C1.824 338.152 1.78667 338.117 1.76 338.08L1.312 337.464L4.728 334.512H5.888V344.912H8.144V346H2V344.912ZM14.8733 341.432C14.9906 341.277 15.0999 341.131 15.2013 340.992C15.3026 340.853 15.3986 340.715 15.4893 340.576C15.1959 340.811 14.8653 340.989 14.4973 341.112C14.1293 341.235 13.7399 341.296 13.3293 341.296C12.8973 341.296 12.4866 341.224 12.0973 341.08C11.7133 340.936 11.3746 340.725 11.0813 340.448C10.7879 340.165 10.5533 339.821 10.3773 339.416C10.2066 339.005 10.1213 338.536 10.1213 338.008C10.1213 337.507 10.2146 337.037 10.4013 336.6C10.5879 336.163 10.8493 335.781 11.1853 335.456C11.5213 335.131 11.9213 334.875 12.3853 334.688C12.8493 334.501 13.3586 334.408 13.9133 334.408C14.4626 334.408 14.9613 334.499 15.4093 334.68C15.8573 334.861 16.2413 335.115 16.5613 335.44C16.8813 335.765 17.1266 336.155 17.2973 336.608C17.4733 337.061 17.5613 337.563 17.5613 338.112C17.5613 338.443 17.5293 338.757 17.4653 339.056C17.4066 339.349 17.3186 339.64 17.2013 339.928C17.0893 340.211 16.9506 340.493 16.7853 340.776C16.6199 341.053 16.4333 341.339 16.2253 341.632L13.4333 345.664C13.3639 345.765 13.2653 345.848 13.1373 345.912C13.0093 345.971 12.8626 346 12.6973 346H11.3853L14.8733 341.432ZM16.1933 337.944C16.1933 337.587 16.1346 337.264 16.0173 336.976C15.9053 336.683 15.7479 336.435 15.5453 336.232C15.3426 336.029 15.0999 335.875 14.8173 335.768C14.5399 335.656 14.2333 335.6 13.8973 335.6C13.5453 335.6 13.2253 335.659 12.9373 335.776C12.6493 335.888 12.4013 336.045 12.1933 336.248C11.9853 336.451 11.8253 336.693 11.7133 336.976C11.6013 337.259 11.5453 337.568 11.5453 337.904C11.5453 338.267 11.5959 338.592 11.6973 338.88C11.8039 339.163 11.9533 339.403 12.1453 339.6C12.3426 339.797 12.5799 339.947 12.8573 340.048C13.1399 340.149 13.4546 340.2 13.8012 340.2C14.1853 340.2 14.5239 340.139 14.8173 340.016C15.1159 339.888 15.3666 339.72 15.5693 339.512C15.7719 339.304 15.9266 339.064 16.0333 338.792C16.1399 338.52 16.1933 338.237 16.1933 337.944ZM33.4243 346H32.2243C32.0856 346 31.9736 345.965 31.8883 345.896C31.8029 345.827 31.7389 345.739 31.6962 345.632L30.6243 342.864H25.4803L24.4083 345.632C24.3763 345.728 24.3149 345.813 24.2243 345.888C24.1336 345.963 24.0189 346 23.8803 346H22.6883L27.2723 334.536H28.8403L33.4243 346ZM25.9123 341.744H30.1923L28.3923 337.08C28.3336 336.941 28.2749 336.781 28.2163 336.6C28.1629 336.419 28.1069 336.224 28.0483 336.016C27.9949 336.224 27.9389 336.421 27.8803 336.608C27.8269 336.789 27.7709 336.949 27.7123 337.088L25.9123 341.744ZM34.9171 346V334.536H38.5731C39.2771 334.536 39.8825 334.605 40.3891 334.744C40.9011 334.883 41.3198 335.08 41.6451 335.336C41.9758 335.592 42.2185 335.907 42.3731 336.28C42.5278 336.648 42.6051 337.064 42.6051 337.528C42.6051 337.811 42.5598 338.083 42.4691 338.344C42.3838 338.605 42.2531 338.848 42.0771 339.072C41.9011 339.296 41.6771 339.496 41.4051 339.672C41.1385 339.848 40.8238 339.992 40.4611 340.104C41.2985 340.269 41.9305 340.571 42.3571 341.008C42.7838 341.445 42.9971 342.021 42.9971 342.736C42.9971 343.221 42.9065 343.664 42.7251 344.064C42.5491 344.464 42.2878 344.808 41.9411 345.096C41.5998 345.384 41.1785 345.608 40.6771 345.768C40.1758 345.923 39.6051 346 38.9651 346H34.9171ZM36.4611 340.776V344.768H38.9411C39.3838 344.768 39.7651 344.717 40.0851 344.616C40.4051 344.515 40.6665 344.373 40.8691 344.192C41.0771 344.005 41.2291 343.787 41.3251 343.536C41.4211 343.28 41.4691 343 41.4691 342.696C41.4691 342.104 41.2585 341.637 40.8371 341.296C40.4158 340.949 39.7838 340.776 38.9411 340.776H36.4611ZM36.4611 339.672H38.5091C38.9465 339.672 39.3251 339.624 39.6451 339.528C39.9705 339.432 40.2371 339.299 40.4451 339.128C40.6585 338.957 40.8158 338.752 40.9171 338.512C41.0185 338.267 41.0691 338 41.0691 337.712C41.0691 337.035 40.8665 336.541 40.4611 336.232C40.0558 335.917 39.4265 335.76 38.5731 335.76H36.4611V339.672ZM52.1649 335.76H46.8129V346H45.2609V334.536H52.1649V335.76ZM55.0703 344.816C55.2036 344.816 55.3369 344.803 55.4703 344.776C55.6036 344.744 55.7316 344.691 55.8543 344.616C55.9769 344.541 56.0943 344.443 56.2063 344.32C56.3183 344.192 56.4196 344.032 56.5103 343.84L57.0703 342.672L52.4623 334.536H53.9103C54.0489 334.536 54.1583 334.571 54.2383 334.64C54.3183 334.704 54.3876 334.789 54.4463 334.896L57.2783 340.096C57.4756 340.475 57.6356 340.859 57.7583 341.248C57.8116 341.056 57.8756 340.864 57.9503 340.672C58.0249 340.48 58.1076 340.288 58.1983 340.096L60.6063 334.896C60.6489 334.805 60.7129 334.723 60.7983 334.648C60.8889 334.573 61.0009 334.536 61.1343 334.536H62.4143L57.7583 344.504C57.6143 344.819 57.4569 345.08 57.2863 345.288C57.1209 345.491 56.9423 345.653 56.7503 345.776C56.5583 345.893 56.3503 345.976 56.1263 346.024C55.9023 346.077 55.6623 346.104 55.4063 346.104C55.1183 346.104 54.8969 346.077 54.7423 346.024C54.5876 345.976 54.5103 345.901 54.5103 345.8V344.816H55.0703ZM71.5276 343.632C71.613 343.632 71.6876 343.667 71.7516 343.736L72.3676 344.4C71.8983 344.944 71.3276 345.368 70.6556 345.672C69.989 345.976 69.181 346.128 68.2316 346.128C67.4103 346.128 66.6636 345.987 65.9916 345.704C65.3196 345.416 64.7463 345.016 64.2716 344.504C63.797 343.987 63.429 343.368 63.1676 342.648C62.9063 341.928 62.7756 341.136 62.7756 340.272C62.7756 339.408 62.9116 338.616 63.1836 337.896C63.4556 337.176 63.837 336.557 64.3276 336.04C64.8236 335.523 65.4156 335.123 66.1036 334.84C66.7916 334.552 67.5516 334.408 68.3836 334.408C69.1996 334.408 69.9196 334.539 70.5436 334.8C71.1676 335.061 71.717 335.416 72.1916 335.864L71.6796 336.576C71.6476 336.629 71.605 336.675 71.5516 336.712C71.5036 336.744 71.437 336.76 71.3516 336.76C71.2556 336.76 71.1383 336.709 70.9996 336.608C70.861 336.501 70.6796 336.384 70.4556 336.256C70.2316 336.128 69.9516 336.013 69.6156 335.912C69.2796 335.805 68.8663 335.752 68.3756 335.752C67.7836 335.752 67.2423 335.856 66.7516 336.064C66.261 336.267 65.837 336.563 65.4796 336.952C65.1276 337.341 64.853 337.816 64.6556 338.376C64.4583 338.936 64.3596 339.568 64.3596 340.272C64.3596 340.987 64.461 341.624 64.6636 342.184C64.8716 342.744 65.1516 343.219 65.5036 343.608C65.861 343.992 66.2796 344.285 66.7596 344.488C67.245 344.691 67.7676 344.792 68.3276 344.792C68.669 344.792 68.9756 344.773 69.2476 344.736C69.525 344.693 69.7783 344.629 70.0076 344.544C70.2423 344.459 70.4583 344.352 70.6556 344.224C70.8583 344.091 71.0583 343.933 71.2556 343.752C71.3463 343.672 71.437 343.632 71.5276 343.632ZM81.9191 334.536V335.84H78.2071V346H76.6631V335.84H72.9431V334.536H81.9191ZM91.8149 346H90.6149C90.4762 346 90.3642 345.965 90.2789 345.896C90.1935 345.827 90.1295 345.739 90.0869 345.632L89.0149 342.864H83.8709L82.7989 345.632C82.7669 345.728 82.7055 345.813 82.6149 345.888C82.5242 345.963 82.4095 346 82.2709 346H81.0789L85.6629 334.536H87.2309L91.8149 346ZM84.3029 341.744H88.5829L86.7829 337.08C86.7242 336.941 86.6655 336.781 86.6069 336.6C86.5535 336.419 86.4975 336.224 86.4389 336.016C86.3855 336.224 86.3295 336.421 86.2709 336.608C86.2175 336.789 86.1615 336.949 86.1029 337.088L84.3029 341.744ZM100.666 334.408C101.151 334.408 101.604 334.48 102.026 334.624C102.447 334.768 102.812 334.979 103.122 335.256C103.431 335.528 103.674 335.861 103.85 336.256C104.026 336.651 104.114 337.099 104.114 337.6C104.114 338.027 104.05 338.424 103.922 338.792C103.794 339.155 103.62 339.501 103.402 339.832C103.183 340.163 102.93 340.485 102.642 340.8C102.359 341.115 102.058 341.432 101.738 341.752L98.7135 344.84C98.9268 344.781 99.1428 344.736 99.3615 344.704C99.5802 344.667 99.7908 344.648 99.9935 344.648H103.834C103.988 344.648 104.111 344.693 104.201 344.784C104.292 344.875 104.338 344.992 104.338 345.136V346H96.6895V345.512C96.6895 345.411 96.7108 345.307 96.7535 345.2C96.7962 345.093 96.8628 344.995 96.9535 344.904L100.626 341.216C100.93 340.907 101.207 340.611 101.458 340.328C101.708 340.04 101.922 339.752 102.098 339.464C102.274 339.176 102.41 338.885 102.506 338.592C102.602 338.293 102.65 337.976 102.65 337.64C102.65 337.304 102.596 337.011 102.49 336.76C102.383 336.504 102.236 336.293 102.05 336.128C101.868 335.963 101.652 335.84 101.402 335.76C101.151 335.675 100.882 335.632 100.594 335.632C100.3 335.632 100.031 335.675 99.7855 335.76C99.5402 335.845 99.3215 335.965 99.1295 336.12C98.9428 336.269 98.7855 336.448 98.6575 336.656C98.5295 336.864 98.4388 337.093 98.3855 337.344C98.3215 337.531 98.2335 337.656 98.1215 337.72C98.0148 337.779 97.8628 337.795 97.6655 337.768L96.9215 337.64C96.9962 337.117 97.1402 336.656 97.3535 336.256C97.5722 335.851 97.8442 335.512 98.1695 335.24C98.5002 334.968 98.8762 334.763 99.2975 334.624C99.7188 334.48 100.175 334.408 100.666 334.408ZM114.019 340.272C114.019 341.275 113.909 342.144 113.691 342.88C113.477 343.611 113.184 344.216 112.811 344.696C112.437 345.176 111.995 345.533 111.483 345.768C110.976 346.003 110.432 346.12 109.851 346.12C109.264 346.12 108.717 346.003 108.211 345.768C107.709 345.533 107.272 345.176 106.899 344.696C106.525 344.216 106.232 343.611 106.019 342.88C105.805 342.144 105.699 341.275 105.699 340.272C105.699 339.269 105.805 338.4 106.019 337.664C106.232 336.928 106.525 336.32 106.899 335.84C107.272 335.355 107.709 334.995 108.211 334.76C108.717 334.525 109.264 334.408 109.851 334.408C110.432 334.408 110.976 334.525 111.483 334.76C111.995 334.995 112.437 335.355 112.811 335.84C113.184 336.32 113.477 336.928 113.691 337.664C113.909 338.4 114.019 339.269 114.019 340.272ZM112.539 340.272C112.539 339.397 112.464 338.664 112.315 338.072C112.171 337.475 111.973 336.995 111.723 336.632C111.477 336.269 111.192 336.011 110.867 335.856C110.541 335.696 110.203 335.616 109.851 335.616C109.499 335.616 109.16 335.696 108.835 335.856C108.509 336.011 108.224 336.269 107.979 336.632C107.733 336.995 107.536 337.475 107.387 338.072C107.243 338.664 107.171 339.397 107.171 340.272C107.171 341.147 107.243 341.88 107.387 342.472C107.536 343.064 107.733 343.541 107.979 343.904C108.224 344.267 108.509 344.528 108.835 344.688C109.16 344.843 109.499 344.92 109.851 344.92C110.203 344.92 110.541 344.843 110.867 344.688C111.192 344.528 111.477 344.267 111.723 343.904C111.973 343.541 112.171 343.064 112.315 342.472C112.464 341.88 112.539 341.147 112.539 340.272ZM119.228 334.408C119.713 334.408 120.167 334.48 120.588 334.624C121.009 334.768 121.375 334.979 121.684 335.256C121.993 335.528 122.236 335.861 122.412 336.256C122.588 336.651 122.676 337.099 122.676 337.6C122.676 338.027 122.612 338.424 122.484 338.792C122.356 339.155 122.183 339.501 121.964 339.832C121.745 340.163 121.492 340.485 121.204 340.8C120.921 341.115 120.62 341.432 120.3 341.752L117.276 344.84C117.489 344.781 117.705 344.736 117.924 344.704C118.143 344.667 118.353 344.648 118.556 344.648H122.396C122.551 344.648 122.673 344.693 122.764 344.784C122.855 344.875 122.9 344.992 122.9 345.136V346H115.252V345.512C115.252 345.411 115.273 345.307 115.316 345.2C115.359 345.093 115.425 344.995 115.516 344.904L119.188 341.216C119.492 340.907 119.769 340.611 120.02 340.328C120.271 340.04 120.484 339.752 120.66 339.464C120.836 339.176 120.972 338.885 121.068 338.592C121.164 338.293 121.212 337.976 121.212 337.64C121.212 337.304 121.159 337.011 121.052 336.76C120.945 336.504 120.799 336.293 120.612 336.128C120.431 335.963 120.215 335.84 119.964 335.76C119.713 335.675 119.444 335.632 119.156 335.632C118.863 335.632 118.593 335.675 118.348 335.76C118.103 335.845 117.884 335.965 117.692 336.12C117.505 336.269 117.348 336.448 117.22 336.656C117.092 336.864 117.001 337.093 116.948 337.344C116.884 337.531 116.796 337.656 116.684 337.72C116.577 337.779 116.425 337.795 116.228 337.768L115.484 337.64C115.559 337.117 115.703 336.656 115.916 336.256C116.135 335.851 116.407 335.512 116.732 335.24C117.063 334.968 117.439 334.763 117.86 334.624C118.281 334.48 118.737 334.408 119.228 334.408ZM128.565 334.408C129.051 334.408 129.499 334.477 129.909 334.616C130.32 334.755 130.672 334.952 130.965 335.208C131.264 335.464 131.496 335.773 131.661 336.136C131.827 336.499 131.909 336.901 131.909 337.344C131.909 337.707 131.861 338.032 131.765 338.32C131.675 338.603 131.541 338.853 131.365 339.072C131.195 339.285 130.987 339.467 130.741 339.616C130.496 339.765 130.221 339.885 129.917 339.976C130.664 340.173 131.224 340.504 131.597 340.968C131.976 341.432 132.165 342.013 132.165 342.712C132.165 343.24 132.064 343.715 131.861 344.136C131.664 344.557 131.392 344.917 131.045 345.216C130.699 345.509 130.293 345.736 129.829 345.896C129.371 346.051 128.877 346.128 128.349 346.128C127.741 346.128 127.221 346.053 126.789 345.904C126.357 345.749 125.992 345.539 125.693 345.272C125.395 345.005 125.149 344.691 124.957 344.328C124.765 343.96 124.603 343.563 124.469 343.136L125.085 342.88C125.245 342.811 125.4 342.792 125.549 342.824C125.704 342.856 125.816 342.944 125.885 343.088C125.955 343.237 126.04 343.416 126.141 343.624C126.248 343.832 126.392 344.032 126.573 344.224C126.755 344.416 126.984 344.579 127.261 344.712C127.544 344.845 127.901 344.912 128.333 344.912C128.733 344.912 129.083 344.848 129.381 344.72C129.685 344.587 129.936 344.416 130.133 344.208C130.336 344 130.488 343.768 130.589 343.512C130.691 343.256 130.741 343.003 130.741 342.752C130.741 342.443 130.701 342.16 130.621 341.904C130.541 341.648 130.392 341.427 130.173 341.24C129.955 341.053 129.653 340.907 129.269 340.8C128.891 340.693 128.403 340.64 127.805 340.64V339.608C128.296 339.603 128.712 339.549 129.053 339.448C129.4 339.347 129.68 339.208 129.893 339.032C130.112 338.856 130.269 338.645 130.365 338.4C130.467 338.155 130.517 337.883 130.517 337.584C130.517 337.253 130.464 336.965 130.357 336.72C130.256 336.475 130.115 336.272 129.933 336.112C129.752 335.952 129.536 335.832 129.285 335.752C129.04 335.672 128.773 335.632 128.485 335.632C128.197 335.632 127.928 335.675 127.677 335.76C127.432 335.845 127.213 335.965 127.021 336.12C126.835 336.269 126.677 336.448 126.549 336.656C126.421 336.864 126.331 337.093 126.277 337.344C126.208 337.531 126.12 337.656 126.013 337.72C125.912 337.779 125.763 337.795 125.565 337.768L124.821 337.64C124.896 337.117 125.04 336.656 125.253 336.256C125.467 335.851 125.736 335.512 126.061 335.24C126.392 334.968 126.768 334.763 127.189 334.624C127.616 334.48 128.075 334.408 128.565 334.408Z" fill="#F04E30"/>
<rect opacity="0.5" x="169.795" y="33" width="130" height="130" transform="rotate(23 169.795 33)" fill="#FFE9A8"/>
<path fill-rule="evenodd" clip-rule="evenodd" d="M255.787 110.681L253.991 114.932L251.124 113.721L252.92 109.47L255.787 110.681ZM250.399 123.435L246.807 131.938L243.94 130.727L247.532 122.224L250.399 123.435ZM243.215 140.441L239.623 148.944L236.756 147.733L240.348 139.23L243.215 140.441ZM236.031 157.447L232.439 165.95L229.572 164.739L233.164 156.236L236.031 157.447ZM228.847 174.453L225.255 182.956L222.388 181.745L225.98 173.242L228.847 174.453ZM221.663 191.459L219.867 195.711L217 194.5L218.796 190.248L221.663 191.459Z" fill="#68AD45"/>
<path d="M94.2822 84.3117C92.6058 80.9588 88.7269 73.2888 88.3872 72.6971L86.3821 73.9243C86.7218 74.4722 91.8607 81.43 94.0521 84.4651C94.0756 84.4866 94.1056 84.4996 94.1373 84.502C94.1691 84.5044 94.2007 84.4962 94.2272 84.4785C94.2537 84.4608 94.2735 84.4348 94.2834 84.4046C94.2934 84.3744 94.293 84.3417 94.2822 84.3117Z" fill="#F04E30"/>
<path d="M97.7337 73.3546C97.7337 73.7161 97.3502 78.5811 97.2078 80.7068C97.2078 80.7286 97.2164 80.7495 97.2318 80.7649C97.2472 80.7803 97.2681 80.789 97.2899 80.789C97.3117 80.789 97.3326 80.7803 97.3481 80.7649C97.3635 80.7495 97.3721 80.7286 97.3721 80.7068C97.8652 78.6359 98.9938 73.8915 99.0486 73.5299L97.7337 73.3546Z" fill="#F04E30"/>
<path d="M94.7094 78.0113C94.052 76.1705 92.518 71.941 92.3975 71.6342L91.3018 72.1383C91.4442 72.4451 93.6356 76.3678 94.5889 78.0771C94.6006 78.0852 94.6143 78.09 94.6286 78.0907C94.6428 78.0915 94.657 78.0883 94.6695 78.0815C94.682 78.0747 94.6924 78.0645 94.6995 78.0521C94.7065 78.0397 94.71 78.0256 94.7094 78.0113Z" fill="#F04E30"/>
<path d="M97.0981 86.9086C95.1367 90.1081 90.6224 97.4603 90.3265 98.0411L92.4194 99.1368C92.7042 98.567 95.9476 90.5683 97.3501 87.0839C97.3733 87.0505 97.3824 87.0092 97.3752 86.9691C97.368 86.9291 97.3452 86.8935 97.3117 86.8702C97.2783 86.847 97.237 86.838 97.197 86.8452C97.1569 86.8524 97.1213 86.8752 97.0981 86.9086Z" fill="#F04E30"/>
<path d="M86.5135 77.2115C84.7713 75.0201 80.761 69.9688 80.4323 69.6291L79.1613 70.8344C79.49 71.185 84.2783 75.4912 86.3601 77.4087C86.3863 77.4291 86.4194 77.4382 86.4523 77.4341C86.4852 77.43 86.5151 77.413 86.5354 77.3868C86.5558 77.3606 86.5649 77.3275 86.5608 77.2946C86.5567 77.2617 86.5397 77.2318 86.5135 77.2115Z" fill="#F04E30"/>
<path d="M76.6411 85.9334C76.6629 85.9334 76.6838 85.9247 76.6992 85.9093C76.7146 85.8939 76.7233 85.873 76.7233 85.8512C76.7233 85.8294 76.7146 85.8085 76.6992 85.7931C76.6838 85.7777 76.6629 85.769 76.6411 85.769C74.5483 85.6485 69.7381 85.3636 69.3875 85.3746V86.6894C69.771 86.6785 74.5592 86.1635 76.6411 85.9334Z" fill="#F04E30"/>
<path d="M97.9966 99.7504C97.9966 103.509 97.9966 112.132 98.0843 112.778L100.418 112.581C100.363 111.946 98.917 103.432 98.2815 99.7285C98.2786 99.6907 98.2608 99.6556 98.2321 99.631C98.2033 99.6063 98.1659 99.5941 98.1281 99.597C98.0903 99.5999 98.0553 99.6177 98.0306 99.6465C98.006 99.6752 97.9937 99.7126 97.9966 99.7504Z" fill="#F04E30"/>
<path d="M114.169 91.5763C113.556 91.3901 105.108 89.6369 101.437 88.8699C101.402 88.862 101.364 88.868 101.333 88.8868C101.302 88.9055 101.279 88.9355 101.269 88.9705C101.259 89.0056 101.263 89.0432 101.28 89.0754C101.297 89.1076 101.326 89.1321 101.36 89.1438C104.856 90.5025 112.898 93.6363 113.512 93.8226L114.169 91.5763Z" fill="#F04E30"/>
<path d="M112.679 88.1686C114.871 89.0124 119.768 90.9299 120.152 91.0394L120.557 89.6588C120.185 89.5493 114.991 88.4645 112.723 87.9933C112.7 87.9875 112.675 87.9912 112.655 88.0035C112.634 88.0158 112.619 88.0358 112.613 88.0591C112.608 88.0823 112.611 88.1069 112.624 88.1275C112.636 88.148 112.656 88.1628 112.679 88.1686Z" fill="#F04E30"/>
<path d="M95.5532 98.3369C94.8191 100.233 93.1207 104.582 93.0221 104.911L94.2383 105.273C94.337 104.944 95.3341 100.375 95.6956 98.3807C95.6967 98.3636 95.6919 98.3466 95.6821 98.3325C95.6723 98.3184 95.6581 98.3079 95.6416 98.3029C95.6252 98.2978 95.6076 98.2984 95.5915 98.3046C95.5755 98.3108 95.562 98.3222 95.5532 98.3369Z" fill="#F04E30"/>
<path d="M111.583 84.9582C111.556 84.9582 111.529 84.9692 111.51 84.9887C111.49 85.0082 111.479 85.0347 111.479 85.0623C111.479 85.0899 111.49 85.1164 111.51 85.1359C111.529 85.1554 111.556 85.1664 111.583 85.1664C114.246 85.4841 120.349 86.1963 120.809 86.2621L120.864 84.5856C120.448 84.5309 114.301 84.8267 111.583 84.9582Z" fill="#F04E30"/>
<path d="M110.685 78.603C112.416 77.5073 116.383 75.0201 116.668 74.8119L115.901 73.7928C115.627 74.001 112.12 77.08 110.586 78.4825C110.57 78.4956 110.56 78.5145 110.558 78.535C110.556 78.5556 110.562 78.5761 110.575 78.5921C110.589 78.6081 110.607 78.6182 110.628 78.6203C110.649 78.6223 110.669 78.6161 110.685 78.603Z" fill="#F04E30"/>
<path d="M103.398 86.9305C105.469 86.2073 110.236 84.5528 110.575 84.3994L110.028 83.1503C109.688 83.3037 105.261 85.7252 103.333 86.7771C103.319 86.7893 103.309 86.8056 103.305 86.8237C103.301 86.8418 103.302 86.8607 103.31 86.8777C103.317 86.8948 103.33 86.9091 103.345 86.9186C103.361 86.9281 103.38 86.9322 103.398 86.9305Z" fill="#F04E30"/>
<path d="M114.98 81.0245C116.229 80.5862 119.1 79.5891 119.308 79.5015L118.969 78.7455C118.76 78.8331 116.098 80.2904 114.936 80.9369L114.98 81.0245Z" fill="#F04E30"/>
<path d="M96.868 69.3333C97.0652 68.0294 97.5254 65.0271 97.5364 64.797L96.7146 64.7422C96.7146 64.9723 96.7146 68.0294 96.7146 69.3223L96.868 69.3333Z" fill="#F04E30"/>
<path d="M113.775 95.7182C115.232 96.4742 118.596 98.2273 118.859 98.3369L119.254 97.3946C118.991 97.285 115.397 96.1236 113.775 95.6086C113.766 95.6146 113.759 95.6227 113.753 95.6323C113.748 95.6418 113.746 95.6525 113.746 95.6634C113.746 95.6742 113.748 95.6849 113.753 95.6945C113.759 95.704 113.766 95.7122 113.775 95.7182Z" fill="#F04E30"/>
<path d="M94.5012 71.2946C94.4465 68.9059 94.304 63.4054 94.2602 63L92.77 63.1644C92.77 63.5698 93.8657 68.9717 94.304 71.3165C94.3055 71.3294 94.3094 71.342 94.3157 71.3534C94.322 71.3648 94.3305 71.3749 94.3406 71.383C94.3508 71.3912 94.3625 71.3972 94.375 71.4008C94.3875 71.4045 94.4006 71.4056 94.4136 71.4042C94.4265 71.4027 94.4391 71.3987 94.4505 71.3925C94.4619 71.3862 94.472 71.3777 94.4801 71.3675C94.4882 71.3573 94.4943 71.3457 94.4979 71.3332C94.5016 71.3206 94.5027 71.3075 94.5012 71.2946Z" fill="#F04E30"/>
<path d="M99.6622 80.652C101.777 77.5511 106.631 70.418 106.949 69.8592L104.911 68.7087C104.593 69.2675 100.977 77.1019 99.4321 80.5096C99.425 80.5387 99.4274 80.5694 99.4388 80.5971C99.4502 80.6249 99.4701 80.6483 99.4956 80.6641C99.5211 80.6799 99.5509 80.6872 99.5808 80.685C99.6107 80.6829 99.6392 80.6713 99.6622 80.652Z" fill="#F04E30"/>
<path d="M99.5306 86.021C99.52 86.0387 99.5153 86.0592 99.5169 86.0797C99.5186 86.1002 99.5267 86.1196 99.5399 86.1353C99.5532 86.151 99.5711 86.1622 99.591 86.1672C99.6109 86.1723 99.6319 86.171 99.6511 86.1635C101.667 84.7171 106.313 81.3861 106.631 81.1122L105.623 79.9288C105.272 80.2028 101.251 84.246 99.5306 86.021Z" fill="#F04E30"/>
<path d="M89.6691 71.2179C88.8911 69.4976 87.1051 65.553 86.9517 65.2791L85.9218 65.8489C86.0752 66.1338 88.4967 69.7277 89.5486 71.3275C89.5631 71.3434 89.5834 71.353 89.605 71.354C89.6265 71.3551 89.6476 71.3475 89.6636 71.3329C89.6796 71.3184 89.6892 71.2981 89.6902 71.2766C89.6912 71.255 89.6836 71.2339 89.6691 71.2179Z" fill="#F04E30"/>
<path d="M91.5428 102.15C90.2389 103.837 87.2367 107.727 87.0394 108.034L88.1351 108.757C88.3324 108.45 90.6553 104.122 91.6634 102.183C91.6577 102.173 91.65 102.164 91.6409 102.157C91.6317 102.15 91.6212 102.144 91.61 102.141C91.5988 102.138 91.587 102.137 91.5755 102.139C91.564 102.14 91.5529 102.144 91.5428 102.15Z" fill="#F04E30"/>
<path d="M106.51 101.975C107.858 104.068 110.893 108.867 111.2 109.206L112.427 108.264C112.164 107.924 108.329 103.695 106.653 101.865C106.636 101.856 106.617 101.852 106.598 101.854C106.579 101.855 106.561 101.862 106.546 101.874C106.531 101.886 106.52 101.901 106.513 101.919C106.507 101.937 106.506 101.956 106.51 101.975Z" fill="#F04E30"/>
<path d="M98.1829 92.4419C98.1778 92.4326 98.171 92.4243 98.1628 92.4176C98.1545 92.4109 98.1451 92.4059 98.1349 92.4028C98.1247 92.3997 98.114 92.3987 98.1035 92.3998C98.0929 92.4009 98.0827 92.404 98.0733 92.4091C98.0639 92.4141 98.0557 92.4209 98.049 92.4291C98.0423 92.4374 98.0372 92.4469 98.0342 92.457C98.0311 92.4672 98.0301 92.4779 98.0312 92.4885C98.0322 92.499 98.0354 92.5093 98.0404 92.5186C98.8513 94.4033 100.703 98.7423 100.867 99.0929L101.963 98.4903C101.843 98.1396 99.2895 94.1622 98.1829 92.4419Z" fill="#F04E30"/>
<path d="M108.296 96.6933C110.795 98.8848 116.547 103.837 117.007 104.177L118.158 102.501C117.698 102.172 111.211 98.2054 108.384 96.4851C108.361 96.4883 108.34 96.4973 108.322 96.5111C108.304 96.525 108.29 96.5434 108.281 96.5643C108.272 96.5853 108.269 96.6082 108.272 96.6309C108.274 96.6535 108.283 96.675 108.296 96.6933Z" fill="#F04E30"/>
<path d="M101.536 102.621C102.445 105.47 104.527 112.022 104.724 112.483L106.456 111.77C106.258 111.299 103.168 105.196 101.755 102.523C101.74 102.496 101.716 102.476 101.687 102.466C101.659 102.457 101.627 102.458 101.6 102.471C101.572 102.483 101.55 102.505 101.538 102.533C101.526 102.561 101.526 102.593 101.536 102.621Z" fill="#F04E30"/>
<path d="M103.661 98.052L104.867 97.274C104.648 96.9453 101.415 92.7487 100.013 90.9189C100.006 90.9088 99.9979 90.9001 99.988 90.8933C99.9782 90.8864 99.9671 90.8816 99.9554 90.8791C99.9437 90.8765 99.9316 90.8763 99.9198 90.8784C99.908 90.8806 99.8968 90.885 99.8867 90.8915C99.8767 90.8979 99.868 90.9063 99.8611 90.9162C99.8543 90.926 99.8495 90.9371 99.8469 90.9488C99.8444 90.9605 99.8442 90.9726 99.8463 90.9844C99.8484 90.9962 99.8529 91.0074 99.8593 91.0175C100.955 93.0117 103.453 97.7123 103.661 98.052Z" fill="#F04E30"/>
<path d="M92.3537 106.894C91.3128 108.954 88.935 113.688 88.7926 114.06L90.1294 114.597C90.2718 114.236 91.8387 109.119 92.518 106.927C92.5162 106.909 92.5084 106.891 92.4957 106.877C92.4831 106.863 92.4664 106.854 92.448 106.85C92.4296 106.846 92.4105 106.849 92.3936 106.857C92.3766 106.865 92.3626 106.878 92.3537 106.894Z" fill="#F04E30"/>
<path d="M83.6647 100.682C83.9386 100.463 87.423 97.2521 88.935 95.8496C88.951 95.8365 88.9612 95.8176 88.9632 95.7971C88.9653 95.7766 88.9591 95.756 88.946 95.74C88.9329 95.7241 88.914 95.7139 88.8935 95.7119C88.8729 95.7098 88.8524 95.716 88.8364 95.7291C87.1162 96.8248 83.1497 99.4545 82.8757 99.6737L83.6647 100.682Z" fill="#F04E30"/>
<path d="M78.0217 100.452C76.7506 101.098 73.8251 102.588 73.6388 102.709L74.11 103.465C74.3181 103.333 76.9479 101.394 78.0984 100.539C78.1041 100.534 78.1088 100.528 78.1122 100.521C78.1156 100.514 78.1176 100.507 78.1181 100.499C78.1186 100.492 78.1176 100.484 78.1152 100.477C78.1127 100.47 78.1089 100.463 78.1038 100.457C78.0988 100.451 78.0927 100.447 78.0858 100.443C78.079 100.44 78.0715 100.438 78.0639 100.437C78.0563 100.437 78.0486 100.438 78.0414 100.44C78.0341 100.443 78.0274 100.447 78.0217 100.452Z" fill="#F04E30"/>
<path d="M79.709 75.4802C78.6791 74.4941 76.3014 72.1931 76.1151 72.0835L75.5563 72.7738C75.7425 72.9272 78.4599 74.768 79.6433 75.5569C79.6536 75.5602 79.6646 75.5604 79.675 75.5575C79.6854 75.5546 79.6946 75.5486 79.7017 75.5404C79.7087 75.5322 79.7131 75.5222 79.7144 75.5115C79.7158 75.5008 79.7139 75.4899 79.709 75.4802Z" fill="#F04E30"/>
<path d="M107.124 74.8776C108.559 73.3655 111.868 69.9031 112.088 69.6182L111.069 68.7964C110.849 69.0703 108.165 73.0368 106.992 74.7681C106.978 74.7855 106.971 74.808 106.973 74.8306C106.975 74.8532 106.986 74.8741 107.003 74.8886C107.021 74.9031 107.043 74.9101 107.066 74.9081C107.089 74.906 107.109 74.8951 107.124 74.8776Z" fill="#F04E30"/>
<path d="M87.2696 101.262C85.4068 103.673 81.1445 109.217 80.8596 109.656L82.4594 110.686C82.7443 110.247 86.0314 104.111 87.4668 101.394C87.4779 101.368 87.4796 101.339 87.4716 101.312C87.4635 101.285 87.4463 101.262 87.4229 101.246C87.3994 101.231 87.3713 101.224 87.3433 101.227C87.3153 101.23 87.2892 101.242 87.2696 101.262Z" fill="#F04E30"/>
<path d="M78.5366 80.1261C76.8383 78.9537 72.9266 76.2801 72.6198 76.1048L71.9843 77.2005C72.2911 77.3759 76.5863 79.392 78.4599 80.2357C78.4735 80.237 78.4872 80.2347 78.4995 80.2291C78.5119 80.2234 78.5225 80.2145 78.5304 80.2033C78.5382 80.1922 78.5429 80.1792 78.544 80.1656C78.5451 80.152 78.5425 80.1384 78.5366 80.1261Z" fill="#F04E30"/>
<path d="M93.044 89.3191C90.239 90.4915 83.8071 93.187 83.3469 93.428L84.2235 95.1154C84.6837 94.8744 90.5896 91.1599 93.1536 89.5382C93.1827 89.5237 93.2048 89.4982 93.215 89.4674C93.2253 89.4366 93.2229 89.4029 93.2084 89.3739C93.1938 89.3448 93.1684 89.3227 93.1375 89.3124C93.1067 89.3022 93.0731 89.3046 93.044 89.3191Z" fill="#F04E30"/>
<path d="M85.363 88.3111C85.7356 88.3111 90.8416 88.07 93.0331 87.9605C93.0563 87.9605 93.0786 87.9512 93.095 87.9348C93.1115 87.9183 93.1207 87.896 93.1207 87.8728C93.1207 87.8496 93.1115 87.8273 93.095 87.8108C93.0786 87.7944 93.0563 87.7851 93.0331 87.7851C90.8416 87.5222 85.7904 86.9414 85.363 86.9305V88.3111Z" fill="#F04E30"/>
<path d="M81.4842 102.873C79.8954 103.969 76.2467 106.39 76.0056 106.599L76.7507 107.53C77.0027 107.322 80.2022 104.309 81.5938 102.994C81.6098 102.979 81.6193 102.959 81.6203 102.937C81.6214 102.916 81.6138 102.895 81.5993 102.879C81.5847 102.863 81.5644 102.853 81.5429 102.852C81.5213 102.851 81.5002 102.859 81.4842 102.873Z" fill="#F04E30"/>
<path d="M80.6843 94.4142C78.1751 95.1265 72.4116 96.781 71.9952 96.9453L72.576 98.4684C72.9923 98.315 78.4052 95.7291 80.761 94.6005C80.7857 94.5903 80.8053 94.5708 80.8156 94.5461C80.8259 94.5214 80.8259 94.4937 80.8158 94.469C80.8056 94.4443 80.786 94.4247 80.7614 94.4144C80.7367 94.4041 80.709 94.4041 80.6843 94.4142Z" fill="#F04E30"/>
<path d="M82.5909 77.2334L81.791 78.2524C82.2512 78.614 88.6283 83.0735 91.4005 85.013C91.5319 85.1006 91.6196 85.013 91.4991 84.8924C88.9351 82.6791 83.0949 77.584 82.5909 77.2334Z" fill="#F04E30"/>
<path d="M75.6877 83.2818C76.1151 83.3475 81.8566 83.7748 84.3658 83.9611C84.3852 83.9544 84.4019 83.9418 84.4138 83.9251C84.4257 83.9084 84.432 83.8884 84.432 83.868C84.432 83.8475 84.4257 83.8275 84.4138 83.8108C84.4019 83.7941 84.3852 83.7815 84.3658 83.7748C81.9333 83.1722 76.3342 81.8135 75.9069 81.7368L75.6877 83.2818Z" fill="#F04E30"/>
<path d="M99.958 71.5028C100.484 69.3881 101.722 64.5231 101.722 64.1396L100.374 63.9314C100.32 64.3039 99.947 69.3004 99.7827 71.4809C99.7798 71.5041 99.7862 71.5276 99.8006 71.5461C99.815 71.5646 99.8361 71.5766 99.8594 71.5795C99.8826 71.5824 99.9061 71.576 99.9246 71.5616C99.9431 71.5472 99.9551 71.5261 99.958 71.5028Z" fill="#F04E30"/>
<path d="M82.3388 90.4806C79.8406 90.3053 69.1902 90.897 68.7848 90.897V92.4639C69.2121 92.4639 79.8296 90.9189 82.3279 90.6669C82.3477 90.6614 82.3653 90.6498 82.3782 90.6338C82.3911 90.6178 82.3987 90.5982 82.3999 90.5777C82.4011 90.5571 82.3959 90.5368 82.3849 90.5194C82.374 90.502 82.3578 90.4884 82.3388 90.4806Z" fill="#F04E30"/>
<path d="M246.384 84.3117C244.707 80.9588 240.828 73.2888 240.489 72.6971L238.484 73.9243C238.823 74.4722 243.962 81.43 246.154 84.4651C246.177 84.4866 246.207 84.4996 246.239 84.502C246.271 84.5044 246.302 84.4962 246.329 84.4785C246.355 84.4608 246.375 84.4348 246.385 84.4046C246.395 84.3744 246.395 84.3417 246.384 84.3117Z" fill="#8ED8F8"/>
<path d="M249.835 73.3546C249.835 73.7161 249.452 78.5811 249.309 80.7068C249.309 80.7286 249.318 80.7495 249.333 80.7649C249.349 80.7803 249.37 80.789 249.392 80.789C249.413 80.789 249.434 80.7803 249.45 80.7649C249.465 80.7495 249.474 80.7286 249.474 80.7068C249.967 78.6359 251.095 73.8915 251.15 73.5299L249.835 73.3546Z" fill="#8ED8F8"/>
<path d="M246.811 78.0113C246.154 76.1705 244.62 71.941 244.499 71.6342L243.403 72.1383C243.546 72.4451 245.737 76.3678 246.691 78.0771C246.702 78.0852 246.716 78.09 246.73 78.0907C246.745 78.0915 246.759 78.0883 246.771 78.0815C246.784 78.0747 246.794 78.0645 246.801 78.0521C246.808 78.0397 246.812 78.0256 246.811 78.0113Z" fill="#8ED8F8"/>
<path d="M249.2 86.9086C247.238 90.1081 242.724 97.4603 242.428 98.0411L244.521 99.1368C244.806 98.567 248.049 90.5683 249.452 87.0839C249.475 87.0505 249.484 87.0092 249.477 86.9691C249.47 86.9291 249.447 86.8935 249.413 86.8702C249.38 86.847 249.339 86.838 249.299 86.8452C249.259 86.8524 249.223 86.8752 249.2 86.9086Z" fill="#8ED8F8"/>
<path d="M238.615 77.2115C236.873 75.0201 232.863 69.9688 232.534 69.6291L231.263 70.8344C231.592 71.185 236.38 75.4912 238.462 77.4087C238.488 77.4291 238.521 77.4382 238.554 77.4341C238.587 77.43 238.617 77.413 238.637 77.3868C238.657 77.3606 238.667 77.3275 238.662 77.2946C238.658 77.2617 238.641 77.2318 238.615 77.2115Z" fill="#8ED8F8"/>
<path d="M228.743 85.9334C228.765 85.9334 228.785 85.9247 228.801 85.9093C228.816 85.8939 228.825 85.873 228.825 85.8512C228.825 85.8294 228.816 85.8085 228.801 85.7931C228.785 85.7777 228.765 85.769 228.743 85.769C226.65 85.6485 221.84 85.3636 221.489 85.3746V86.6894C221.873 86.6785 226.661 86.1635 228.743 85.9334Z" fill="#8ED8F8"/>
<path d="M250.098 99.7504C250.098 103.509 250.098 112.132 250.186 112.778L252.52 112.581C252.465 111.946 251.019 103.432 250.383 99.7285C250.38 99.6907 250.363 99.6556 250.334 99.631C250.305 99.6063 250.268 99.5941 250.23 99.597C250.192 99.5999 250.157 99.6177 250.132 99.6465C250.108 99.6752 250.095 99.7126 250.098 99.7504Z" fill="#8ED8F8"/>
<path d="M266.271 91.5763C265.657 91.3901 257.209 89.6369 253.539 88.8699C253.503 88.862 253.466 88.868 253.435 88.8868C253.403 88.9055 253.381 88.9355 253.371 88.9705C253.361 89.0056 253.365 89.0432 253.382 89.0754C253.399 89.1076 253.428 89.1321 253.462 89.1438C256.957 90.5025 265 93.6363 265.614 93.8226L266.271 91.5763Z" fill="#8ED8F8"/>
<path d="M264.781 88.1686C266.972 89.0124 271.87 90.9299 272.254 91.0394L272.659 89.6588C272.287 89.5493 267.093 88.4645 264.825 87.9933C264.801 87.9875 264.777 87.9912 264.756 88.0035C264.736 88.0158 264.721 88.0358 264.715 88.0591C264.709 88.0823 264.713 88.1069 264.725 88.1275C264.738 88.148 264.758 88.1628 264.781 88.1686Z" fill="#8ED8F8"/>
<path d="M247.655 98.3369C246.921 100.233 245.222 104.582 245.124 104.911L246.34 105.273C246.439 104.944 247.436 100.375 247.797 98.3807C247.798 98.3636 247.794 98.3466 247.784 98.3325C247.774 98.3184 247.76 98.3079 247.743 98.3029C247.727 98.2978 247.709 98.2984 247.693 98.3046C247.677 98.3108 247.664 98.3222 247.655 98.3369Z" fill="#8ED8F8"/>
<path d="M263.685 84.9582C263.658 84.9582 263.631 84.9692 263.612 84.9887C263.592 85.0082 263.581 85.0347 263.581 85.0623C263.581 85.0899 263.592 85.1164 263.612 85.1359C263.631 85.1554 263.658 85.1664 263.685 85.1664C266.348 85.4841 272.451 86.1963 272.911 86.2621L272.966 84.5856C272.549 84.5309 266.403 84.8267 263.685 84.9582Z" fill="#8ED8F8"/>
<path d="M262.787 78.603C264.518 77.5073 268.484 75.0201 268.769 74.8119L268.002 73.7928C267.728 74.001 264.222 77.08 262.688 78.4825C262.672 78.4956 262.662 78.5145 262.66 78.535C262.658 78.5556 262.664 78.5761 262.677 78.5921C262.69 78.6081 262.709 78.6182 262.73 78.6203C262.75 78.6223 262.771 78.6161 262.787 78.603Z" fill="#8ED8F8"/>
<path d="M255.5 86.9305C257.571 86.2073 262.337 84.5528 262.677 84.3994L262.129 83.1503C261.79 83.3037 257.363 85.7252 255.434 86.7771C255.42 86.7893 255.411 86.8056 255.407 86.8237C255.402 86.8418 255.404 86.8607 255.411 86.8777C255.419 86.8948 255.431 86.9091 255.447 86.9186C255.463 86.9281 255.482 86.9322 255.5 86.9305Z" fill="#8ED8F8"/>
<path d="M267.082 81.0245C268.331 80.5862 271.202 79.5891 271.41 79.5015L271.07 78.7455C270.862 78.8331 268.2 80.2904 267.038 80.9369L267.082 81.0245Z" fill="#8ED8F8"/>
<path d="M248.97 69.3333C249.167 68.0294 249.627 65.0271 249.638 64.797L248.816 64.7422C248.816 64.9723 248.816 68.0294 248.816 69.3223L248.97 69.3333Z" fill="#8ED8F8"/>
<path d="M265.877 95.7182C267.334 96.4742 270.698 98.2273 270.961 98.3369L271.355 97.3946C271.092 97.285 267.498 96.1236 265.877 95.6086C265.868 95.6146 265.86 95.6227 265.855 95.6323C265.85 95.6418 265.847 95.6525 265.847 95.6634C265.847 95.6742 265.85 95.6849 265.855 95.6945C265.86 95.704 265.868 95.7122 265.877 95.7182Z" fill="#8ED8F8"/>
<path d="M246.603 71.2946C246.548 68.9059 246.406 63.4054 246.362 63L244.872 63.1644C244.872 63.5698 245.967 68.9717 246.406 71.3165C246.407 71.3294 246.411 71.342 246.417 71.3534C246.424 71.3648 246.432 71.3749 246.442 71.383C246.453 71.3912 246.464 71.3972 246.477 71.4008C246.489 71.4045 246.502 71.4056 246.515 71.4042C246.528 71.4027 246.541 71.3987 246.552 71.3925C246.564 71.3862 246.574 71.3777 246.582 71.3675C246.59 71.3573 246.596 71.3457 246.6 71.3332C246.603 71.3206 246.604 71.3075 246.603 71.2946Z" fill="#8ED8F8"/>
<path d="M251.764 80.652C253.878 77.5511 258.732 70.418 259.05 69.8592L257.012 68.7087C256.694 69.2675 253.079 77.1019 251.534 80.5096C251.527 80.5387 251.529 80.5694 251.54 80.5971C251.552 80.6249 251.572 80.6483 251.597 80.6641C251.623 80.6799 251.652 80.6872 251.682 80.685C251.712 80.6829 251.741 80.6713 251.764 80.652Z" fill="#8ED8F8"/>
<path d="M251.632 86.021C251.622 86.0387 251.617 86.0592 251.619 86.0797C251.62 86.1002 251.628 86.1196 251.642 86.1353C251.655 86.151 251.673 86.1622 251.693 86.1672C251.713 86.1723 251.734 86.171 251.753 86.1635C253.769 84.7171 258.415 81.3861 258.732 81.1122L257.724 79.9288C257.374 80.2028 253.353 84.246 251.632 86.021Z" fill="#8ED8F8"/>
<path d="M241.771 71.2179C240.993 69.4976 239.207 65.553 239.053 65.2791L238.023 65.8489C238.177 66.1338 240.598 69.7277 241.65 71.3275C241.665 71.3434 241.685 71.353 241.707 71.354C241.728 71.3551 241.749 71.3475 241.765 71.3329C241.781 71.3184 241.791 71.2981 241.792 71.2766C241.793 71.255 241.785 71.2339 241.771 71.2179Z" fill="#8ED8F8"/>
<path d="M243.645 102.15C242.341 103.837 239.338 107.727 239.141 108.034L240.237 108.757C240.434 108.45 242.757 104.122 243.765 102.183C243.759 102.173 243.752 102.164 243.743 102.157C243.733 102.15 243.723 102.144 243.712 102.141C243.7 102.138 243.689 102.137 243.677 102.139C243.666 102.14 243.655 102.144 243.645 102.15Z" fill="#8ED8F8"/>
<path d="M258.612 101.975C259.96 104.068 262.995 108.867 263.302 109.206L264.529 108.264C264.266 107.924 260.431 103.695 258.754 101.865C258.738 101.856 258.719 101.852 258.7 101.854C258.681 101.855 258.663 101.862 258.648 101.874C258.633 101.886 258.621 101.901 258.615 101.919C258.609 101.937 258.608 101.956 258.612 101.975Z" fill="#8ED8F8"/>
<path d="M250.285 92.4419C250.28 92.4326 250.273 92.4243 250.264 92.4176C250.256 92.4109 250.247 92.4059 250.237 92.4028C250.226 92.3997 250.216 92.3987 250.205 92.3998C250.195 92.4009 250.184 92.404 250.175 92.4091C250.166 92.4141 250.157 92.4209 250.151 92.4291C250.144 92.4374 250.139 92.4469 250.136 92.457C250.133 92.4672 250.132 92.4779 250.133 92.4885C250.134 92.499 250.137 92.5093 250.142 92.5186C250.953 94.4033 252.805 98.7423 252.969 99.0929L254.065 98.4903C253.944 98.1396 251.391 94.1622 250.285 92.4419Z" fill="#8ED8F8"/>
<path d="M260.398 96.6933C262.896 98.8848 268.649 103.837 269.109 104.177L270.26 102.501C269.799 102.172 263.313 98.2054 260.486 96.4851C260.463 96.4883 260.442 96.4973 260.424 96.5111C260.406 96.525 260.392 96.5434 260.383 96.5643C260.374 96.5853 260.371 96.6082 260.373 96.6309C260.376 96.6535 260.385 96.675 260.398 96.6933Z" fill="#8ED8F8"/>
<path d="M253.637 102.621C254.547 105.47 256.629 112.022 256.826 112.483L258.557 111.77C258.36 111.299 255.27 105.196 253.857 102.523C253.842 102.496 253.818 102.476 253.789 102.466C253.76 102.457 253.729 102.458 253.701 102.471C253.674 102.483 253.652 102.505 253.64 102.533C253.628 102.561 253.627 102.593 253.637 102.621Z" fill="#8ED8F8"/>
<path d="M255.763 98.052L256.968 97.274C256.749 96.9453 253.517 92.7487 252.114 90.9189C252.108 90.9088 252.1 90.9001 252.09 90.8933C252.08 90.8864 252.069 90.8816 252.057 90.8791C252.045 90.8765 252.033 90.8763 252.022 90.8784C252.01 90.8806 251.998 90.885 251.988 90.8915C251.978 90.8979 251.97 90.9063 251.963 90.9162C251.956 90.926 251.951 90.9371 251.949 90.9488C251.946 90.9605 251.946 90.9726 251.948 90.9844C251.95 90.9962 251.955 91.0074 251.961 91.0175C253.057 93.0117 255.555 97.7123 255.763 98.052Z" fill="#8ED8F8"/>
<path d="M244.455 106.894C243.414 108.954 241.037 113.688 240.894 114.06L242.231 114.597C242.374 114.236 243.94 109.119 244.62 106.927C244.618 106.909 244.61 106.891 244.597 106.877C244.585 106.863 244.568 106.854 244.55 106.85C244.531 106.846 244.512 106.849 244.495 106.857C244.478 106.865 244.464 106.878 244.455 106.894Z" fill="#8ED8F8"/>
<path d="M235.766 100.682C236.04 100.463 239.525 97.2521 241.037 95.8496C241.053 95.8365 241.063 95.8176 241.065 95.7971C241.067 95.7766 241.061 95.756 241.048 95.74C241.035 95.7241 241.016 95.7139 240.995 95.7119C240.975 95.7098 240.954 95.716 240.938 95.7291C239.218 96.8248 235.251 99.4545 234.977 99.6737L235.766 100.682Z" fill="#8ED8F8"/>
<path d="M230.123 100.452C228.852 101.098 225.927 102.588 225.74 102.709L226.212 103.465C226.42 103.333 229.05 101.394 230.2 100.539C230.206 100.534 230.211 100.528 230.214 100.521C230.217 100.514 230.219 100.507 230.22 100.499C230.22 100.492 230.219 100.484 230.217 100.477C230.214 100.47 230.211 100.463 230.206 100.457C230.2 100.451 230.194 100.447 230.188 100.443C230.181 100.44 230.173 100.438 230.166 100.437C230.158 100.437 230.15 100.438 230.143 100.44C230.136 100.443 230.129 100.447 230.123 100.452Z" fill="#8ED8F8"/>
<path d="M231.811 75.4802C230.781 74.4941 228.403 72.1931 228.217 72.0835L227.658 72.7738C227.844 72.9272 230.562 74.768 231.745 75.5569C231.755 75.5602 231.766 75.5604 231.777 75.5575C231.787 75.5546 231.796 75.5486 231.803 75.5404C231.81 75.5322 231.815 75.5222 231.816 75.5115C231.818 75.5008 231.816 75.4899 231.811 75.4802Z" fill="#8ED8F8"/>
<path d="M259.226 74.8776C260.661 73.3655 263.97 69.9031 264.189 69.6182L263.17 68.7964C262.951 69.0703 260.267 73.0368 259.094 74.7681C259.08 74.7855 259.073 74.808 259.075 74.8306C259.077 74.8532 259.088 74.8741 259.105 74.8886C259.123 74.9031 259.145 74.9101 259.168 74.9081C259.19 74.906 259.211 74.8951 259.226 74.8776Z" fill="#8ED8F8"/>
<path d="M239.371 101.262C237.508 103.673 233.246 109.217 232.961 109.656L234.561 110.686C234.846 110.247 238.133 104.111 239.568 101.394C239.579 101.368 239.581 101.339 239.573 101.312C239.565 101.285 239.548 101.262 239.524 101.246C239.501 101.231 239.473 101.224 239.445 101.227C239.417 101.23 239.391 101.242 239.371 101.262Z" fill="#8ED8F8"/>
<path d="M230.638 80.1261C228.94 78.9537 225.028 76.2801 224.721 76.1048L224.086 77.2005C224.393 77.3759 228.688 79.392 230.562 80.2357C230.575 80.237 230.589 80.2347 230.601 80.2291C230.614 80.2234 230.624 80.2145 230.632 80.2033C230.64 80.1922 230.645 80.1792 230.646 80.1656C230.647 80.152 230.644 80.1384 230.638 80.1261Z" fill="#8ED8F8"/>
<path d="M245.146 89.3191C242.341 90.4915 235.909 93.187 235.449 93.428L236.325 95.1154C236.785 94.8744 242.691 91.1599 245.255 89.5382C245.284 89.5237 245.306 89.4982 245.317 89.4674C245.327 89.4366 245.325 89.4029 245.31 89.3739C245.296 89.3448 245.27 89.3227 245.239 89.3124C245.208 89.3022 245.175 89.3046 245.146 89.3191Z" fill="#8ED8F8"/>
<path d="M237.465 88.3111C237.837 88.3111 242.943 88.07 245.135 87.9605C245.158 87.9605 245.18 87.9512 245.197 87.9348C245.213 87.9183 245.222 87.896 245.222 87.8728C245.222 87.8496 245.213 87.8273 245.197 87.8108C245.18 87.7944 245.158 87.7851 245.135 87.7851C242.943 87.5222 237.892 86.9414 237.465 86.9305V88.3111Z" fill="#8ED8F8"/>
<path d="M233.586 102.873C231.997 103.969 228.348 106.39 228.107 106.599L228.852 107.53C229.104 107.322 232.304 104.309 233.695 102.994C233.711 102.979 233.721 102.959 233.722 102.937C233.723 102.916 233.715 102.895 233.701 102.879C233.686 102.863 233.666 102.853 233.644 102.852C233.623 102.851 233.602 102.859 233.586 102.873Z" fill="#8ED8F8"/>
<path d="M232.786 94.4142C230.277 95.1265 224.513 96.781 224.097 96.9453L224.678 98.4684C225.094 98.315 230.507 95.7291 232.863 94.6005C232.887 94.5903 232.907 94.5708 232.917 94.5461C232.928 94.5214 232.928 94.4937 232.917 94.469C232.907 94.4443 232.888 94.4247 232.863 94.4144C232.838 94.4041 232.811 94.4041 232.786 94.4142Z" fill="#8ED8F8"/>
<path d="M234.692 77.2334L233.893 78.2524C234.353 78.614 240.73 83.0735 243.502 85.013C243.634 85.1006 243.721 85.013 243.601 84.8924C241.037 82.6791 235.196 77.584 234.692 77.2334Z" fill="#8ED8F8"/>
<path d="M227.789 83.2818C228.217 83.3475 233.958 83.7748 236.468 83.9611C236.487 83.9544 236.504 83.9418 236.515 83.9251C236.527 83.9084 236.534 83.8884 236.534 83.868C236.534 83.8475 236.527 83.8275 236.515 83.8108C236.504 83.7941 236.487 83.7815 236.468 83.7748C234.035 83.1722 228.436 81.8135 228.009 81.7368L227.789 83.2818Z" fill="#8ED8F8"/>
<path d="M252.06 71.5028C252.586 69.3881 253.824 64.5231 253.824 64.1396L252.476 63.9314C252.421 64.3039 252.049 69.3004 251.884 71.4809C251.881 71.5041 251.888 71.5276 251.902 71.5461C251.917 71.5646 251.938 71.5766 251.961 71.5795C251.984 71.5824 252.008 71.576 252.026 71.5616C252.045 71.5472 252.057 71.5261 252.06 71.5028Z" fill="#8ED8F8"/>
<path d="M234.44 90.4806C231.942 90.3053 221.292 90.897 220.886 90.897V92.4639C221.314 92.4639 231.931 90.9189 234.43 90.6669C234.449 90.6614 234.467 90.6498 234.48 90.6338C234.493 90.6178 234.5 90.5982 234.502 90.5777C234.503 90.5571 234.498 90.5368 234.487 90.5194C234.476 90.502 234.46 90.4884 234.44 90.4806Z" fill="#8ED8F8"/>
<rect x="236.256" y="197.236" width="11.106" height="20.1928" fill="#14313C"/>
<path d="M238.78 221.468L236.256 216.672L239.537 215.41L238.78 214.148L245.848 210.614L234.994 190.421L262.002 176.034L264.526 178.306L267.05 176.539L269.574 179.315L275.127 176.034L288 186.635L281.69 189.917L284.466 192.946L280.933 194.712L285.223 199.256L238.78 221.468Z" fill="#D71925"/>
<path d="M236.256 216.672L238.78 221.468L285.224 199.256L280.933 194.713L284.466 192.946L281.69 189.664L288 186.636V240.904L236.256 241.156V216.672Z" fill="#C4C4C4"/>
<rect width="11.106" height="20.1928" transform="matrix(-1 0 0 1 51.7439 197.236)" fill="#14313C"/>
<path d="M49.2207 221.468L51.7448 216.672L48.4635 215.41L49.2207 214.148L42.1532 210.614L53.0068 190.421L25.999 176.034L23.4749 178.306L20.9508 176.539L18.4267 179.315L12.8737 176.034L0.000850677 186.635L6.31108 189.917L3.53458 192.946L7.06831 194.712L2.77736 199.256L49.2207 221.468Z" fill="#D71925"/>
<path d="M51.7439 216.672L49.2198 221.468L2.77646 199.256L7.06742 194.713L3.53369 192.946L6.3102 189.665L-4.19617e-05 186.636V240.904L51.7439 241.156V216.672Z" fill="#C4C4C4"/>
<path fill-rule="evenodd" clip-rule="evenodd" d="M243.445 188.402L230.32 238.127L143.491 257.562V257.563L56.6625 238.127L43.5372 188.403H143.491V188.402H243.445Z" fill="#AAB5B9"/>
<path fill-rule="evenodd" clip-rule="evenodd" d="M45.1657 194.572L43.5372 188.403H143.491V188.402H243.445L242.217 193.055C229.506 204.229 189.776 212.381 142.733 212.381C97.8462 212.381 59.6176 204.959 45.1657 194.572Z" fill="#14313C"/>
<ellipse cx="142.735" cy="184.364" rx="103.74" ry="24.4837" fill="#C4C4C4"/>
<path d="M126.329 241.156C109.502 241.408 76.0995 239.339 64.9935 235.098C61.4787 233.756 57.7194 231.21 54.1399 228.536L57.4212 240.904C73.277 250.383 98.462 257.942 126.645 259.811L126.329 241.156Z" fill="#72838A"/>
<path d="M160.466 241.156C177.293 241.408 210.695 239.339 221.801 235.098C225.316 233.756 229.264 231.21 232.844 228.536L229.563 240.904C213.707 250.383 188.333 257.942 160.15 259.811L160.466 241.156Z" fill="#72838A"/>
<ellipse cx="142.735" cy="184.364" rx="90.1102" ry="21.9596" fill="white"/>
<ellipse cx="142.734" cy="187.897" rx="51.2391" ry="12.3681" fill="#14313C"/>
<rect x="123.804" y="238.631" width="38.3662" height="21.7072" fill="#C4C4C4"/>
<rect x="138.444" y="232.574" width="9.08674" height="8.0771" fill="#C4C4C4"/>
<path d="M126.833 245.951C126.833 244.697 127.85 243.68 129.105 243.68C130.359 243.68 131.376 244.697 131.376 245.951V260.339H126.833V245.951Z" fill="#AAB5B9"/>
<path d="M133.9 245.951C133.9 244.697 134.917 243.68 136.171 243.68C137.426 243.68 138.443 244.697 138.443 245.951V260.339H133.9V245.951Z" fill="#AAB5B9"/>
<path d="M140.968 245.951C140.968 244.697 141.985 243.68 143.24 243.68C144.495 243.68 145.512 244.697 145.512 245.951V260.339H140.968V245.951Z" fill="#AAB5B9"/>
<path d="M148.035 245.951C148.035 244.697 149.052 243.68 150.307 243.68C151.561 243.68 152.578 244.697 152.578 245.951V260.339H148.035V245.951Z" fill="#AAB5B9"/>
<path d="M155.103 245.951C155.103 244.697 156.12 243.68 157.374 243.68C158.629 243.68 159.646 244.697 159.646 245.951V260.339H155.103V245.951Z" fill="#AAB5B9"/>
<path d="M126.833 245.951C126.833 244.697 127.85 243.68 129.105 243.68C130.359 243.68 131.376 244.697 131.376 245.951V248.223H126.833V245.951Z" fill="#14313C"/>
<path d="M133.9 245.951C133.9 244.697 134.917 243.68 136.171 243.68C137.426 243.68 138.443 244.697 138.443 245.951V248.223H133.9V245.951Z" fill="#14313C"/>
<path d="M140.968 245.951C140.968 244.697 141.985 243.68 143.24 243.68C144.495 243.68 145.512 244.697 145.512 245.951V248.223H140.968V245.951Z" fill="#14313C"/>
<path d="M148.035 245.951C148.035 244.697 149.052 243.68 150.307 243.68C151.561 243.68 152.578 244.697 152.578 245.951V248.223H148.035V245.951Z" fill="#14313C"/>
<path d="M155.103 245.951C155.103 244.697 156.12 243.68 157.374 243.68C158.629 243.68 159.646 244.697 159.646 245.951V248.223H155.103V245.951Z" fill="#14313C"/>
<path d="M184.074 118.811C180.811 112.306 173.309 97.3758 172.649 96.3125L168.777 98.6811C169.423 99.7444 179.293 113.23 183.598 119.097C183.638 119.154 183.699 119.195 183.768 119.209C183.837 119.224 183.909 119.212 183.969 119.176C184.03 119.139 184.074 119.082 184.094 119.014C184.113 118.946 184.106 118.874 184.074 118.811Z" fill="#FDB714"/>
<path d="M190.747 97.5958C190.645 98.2924 190.014 107.73 189.728 111.837C189.729 111.875 189.744 111.912 189.769 111.94C189.794 111.969 189.829 111.987 189.867 111.993C189.905 111.998 189.944 111.99 189.976 111.969C190.008 111.949 190.032 111.917 190.043 111.881C190.997 107.877 193.182 98.6811 193.292 97.9478L190.747 97.5958Z" fill="#FDB714"/>
<path d="M184.881 106.616C183.605 103.044 180.672 94.8825 180.401 94.2592L178.245 95.2418C178.516 95.8285 182.762 103.433 184.61 106.74C184.627 106.776 184.657 106.804 184.694 106.818C184.731 106.832 184.772 106.83 184.808 106.814C184.844 106.797 184.872 106.767 184.886 106.73C184.899 106.693 184.898 106.652 184.881 106.616Z" fill="#FDB714"/>
<path d="M189.508 123.856C185.702 130.053 176.961 144.301 176.396 145.416L180.452 147.462C181.009 146.354 187.279 130.859 189.985 124.113C190.001 124.052 189.996 123.988 189.971 123.931C189.946 123.874 189.902 123.827 189.847 123.797C189.792 123.768 189.729 123.758 189.668 123.768C189.606 123.779 189.55 123.81 189.508 123.856Z" fill="#FDB714"/>
<path d="M168.711 105.362C168.751 105.393 168.801 105.409 168.852 105.407C168.902 105.405 168.951 105.385 168.988 105.351C169.025 105.316 169.049 105.269 169.055 105.219C169.06 105.169 169.048 105.118 169.019 105.076C165.639 100.822 157.873 91.0546 157.235 90.4093L154.764 92.7339C155.402 93.3792 164.671 101.732 168.711 105.362Z" fill="#FDB714"/>
<path d="M149.894 121.957C149.936 121.957 149.976 121.94 150.005 121.911C150.035 121.881 150.052 121.841 150.052 121.799C150.052 121.757 150.035 121.717 150.005 121.688C149.976 121.658 149.936 121.641 149.894 121.641C145.839 121.399 136.526 120.857 135.829 120.908L135.895 123.445C136.584 123.401 145.861 122.397 149.894 121.957Z" fill="#FDB714"/>
<path d="M191.254 148.73C191.254 156.005 191.32 172.725 191.422 173.964L195.947 173.575C195.837 172.336 193.014 155.858 191.811 148.686C191.808 148.65 191.798 148.614 191.781 148.581C191.765 148.549 191.742 148.52 191.714 148.496C191.686 148.472 191.654 148.454 191.619 148.443C191.584 148.431 191.547 148.427 191.51 148.43C191.474 148.433 191.438 148.443 191.405 148.459C191.373 148.476 191.344 148.499 191.32 148.527C191.296 148.555 191.278 148.587 191.267 148.622C191.255 148.657 191.251 148.694 191.254 148.73Z" fill="#FDB714"/>
<path d="M222.596 132.898C221.408 132.546 205.048 129.136 197.92 127.662C197.849 127.641 197.772 127.648 197.707 127.683C197.641 127.718 197.593 127.778 197.571 127.849C197.55 127.92 197.558 127.997 197.593 128.062C197.628 128.127 197.687 128.176 197.758 128.197C204.534 130.837 220.11 136.902 221.298 137.254L222.596 132.898Z" fill="#FDB714"/>
<path d="M219.648 126.291C223.814 127.919 233.391 131.644 234.124 131.857L234.909 129.18C234.175 128.96 224.122 126.87 219.744 125.961C219.704 125.958 219.664 125.969 219.631 125.992C219.599 126.015 219.575 126.049 219.564 126.087C219.553 126.126 219.555 126.167 219.57 126.204C219.586 126.241 219.613 126.271 219.648 126.291Z" fill="#FDB714"/>
<path d="M186.509 145.995C185.079 149.662 181.801 158.087 181.611 158.733L183.965 159.466C184.155 158.821 185.996 149.97 186.795 146.12C186.812 146.082 186.813 146.039 186.797 146C186.782 145.962 186.753 145.931 186.715 145.914C186.677 145.898 186.634 145.897 186.595 145.912C186.557 145.927 186.526 145.957 186.509 145.995Z" fill="#FDB714"/>
<path d="M217.661 120.065C217.608 120.065 217.558 120.086 217.521 120.123C217.484 120.16 217.463 120.21 217.463 120.263C217.463 120.315 217.484 120.366 217.521 120.403C217.558 120.44 217.608 120.461 217.661 120.461C222.794 121.069 234.659 122.463 235.547 122.492L235.657 119.251C234.755 119.243 222.846 119.823 217.661 120.065Z" fill="#FDB714"/>
<path d="M215.842 107.76C219.193 105.655 226.886 100.822 227.428 100.426L225.962 98.4464C225.419 98.8498 218.629 104.892 215.695 107.518C215.678 107.542 215.668 107.571 215.667 107.601C215.666 107.631 215.673 107.661 215.689 107.687C215.705 107.713 215.727 107.733 215.755 107.746C215.782 107.759 215.812 107.764 215.842 107.76Z" fill="#FDB714"/>
<path d="M201.733 123.893C205.752 122.499 214.977 119.295 215.666 119.001L214.588 116.574C213.921 116.867 205.356 121.553 201.623 123.599C201.593 123.62 201.571 123.649 201.56 123.684C201.55 123.718 201.551 123.755 201.563 123.789C201.576 123.823 201.6 123.851 201.63 123.87C201.661 123.889 201.697 123.897 201.733 123.893Z" fill="#FDB714"/>
<path d="M224.165 112.446C226.585 111.61 232.144 109.674 232.54 109.512L231.894 108.046C231.498 108.222 226.328 111.045 224.084 112.277C224.067 112.29 224.054 112.309 224.049 112.33C224.044 112.352 224.046 112.374 224.056 112.394C224.065 112.414 224.081 112.43 224.101 112.439C224.121 112.449 224.144 112.451 224.165 112.446Z" fill="#FDB714"/>
<path d="M189.076 89.7932C189.464 87.2632 190.352 81.4407 190.381 80.9933L188.782 80.8833C188.782 81.3233 188.841 87.2046 188.878 89.7639C188.876 89.7769 188.876 89.7901 188.879 89.8029C188.883 89.8156 188.888 89.8276 188.896 89.8382C188.904 89.8487 188.914 89.8576 188.925 89.8644C188.936 89.8711 188.949 89.8756 188.962 89.8775C188.975 89.8795 188.988 89.8788 189.001 89.8756C189.014 89.8724 189.026 89.8667 189.036 89.8589C189.047 89.8511 189.056 89.8412 189.062 89.83C189.069 89.8187 189.074 89.8062 189.076 89.7932Z" fill="#FDB714"/>
<path d="M221.922 140.906C224.752 142.373 231.257 145.76 231.763 145.973L232.496 144.132C231.99 143.92 225.016 141.661 221.98 140.679C221.955 140.681 221.93 140.691 221.911 140.708C221.891 140.724 221.877 140.747 221.871 140.772C221.864 140.796 221.866 140.823 221.875 140.847C221.884 140.871 221.9 140.891 221.922 140.906Z" fill="#FDB714"/>
<path d="M184.477 93.5991C184.367 88.9645 184.104 78.3167 184.016 77.532L181.141 77.84C181.229 78.6247 183.238 89.0819 184.125 93.6358C184.13 93.6825 184.154 93.7253 184.19 93.7549C184.226 93.7844 184.273 93.7983 184.32 93.7935C184.367 93.7886 184.409 93.7654 184.439 93.7289C184.468 93.6925 184.482 93.6458 184.477 93.5991Z" fill="#FDB714"/>
<path d="M194.488 111.72C198.587 105.706 207.996 91.9199 208.604 90.8125L204.652 88.5759C204.043 89.6539 197.04 104.834 193.997 111.448C193.961 111.513 193.952 111.59 193.973 111.662C193.993 111.733 194.041 111.794 194.107 111.83C194.172 111.866 194.249 111.874 194.32 111.854C194.392 111.833 194.452 111.785 194.488 111.72Z" fill="#FDB714"/>
<path d="M194.172 122.133C194.134 122.165 194.111 122.211 194.107 122.26C194.103 122.31 194.118 122.359 194.15 122.397C194.182 122.435 194.228 122.458 194.278 122.462C194.327 122.467 194.376 122.451 194.414 122.419C198.33 119.61 207.321 113.157 207.944 112.622L205.994 110.334C205.363 110.869 197.568 118.715 194.172 122.133Z" fill="#FDB714"/>
<path d="M175.172 93.4525C173.669 90.1232 170.2 82.4526 169.899 81.9393L167.905 83.054C168.205 83.5966 172.884 90.5632 174.923 93.5918C174.941 93.6249 174.972 93.6492 175.008 93.6595C175.045 93.6699 175.084 93.6653 175.117 93.6468C175.15 93.6283 175.174 93.5975 175.185 93.561C175.195 93.5246 175.19 93.4855 175.172 93.4525Z" fill="#FDB714"/>
<path d="M178.751 153.38C176.243 156.658 170.376 164.196 170.024 164.797L172.224 166.205C172.605 165.611 177.101 157.222 179.051 153.563C179.076 153.523 179.083 153.475 179.072 153.43C179.061 153.384 179.032 153.345 178.993 153.321C178.953 153.297 178.905 153.289 178.859 153.3C178.814 153.311 178.775 153.34 178.751 153.38Z" fill="#FDB714"/>
<path d="M207.775 153.064C210.379 157.12 216.37 166.425 216.869 167.078L219.252 165.245C218.753 164.592 211.31 156.401 208.069 152.837C208.039 152.798 207.994 152.773 207.945 152.767C207.897 152.76 207.847 152.774 207.808 152.804C207.77 152.834 207.744 152.878 207.738 152.927C207.732 152.976 207.745 153.025 207.775 153.064Z" fill="#FDB714"/>
<path d="M191.642 134.563C191.623 134.527 191.59 134.5 191.551 134.488C191.511 134.476 191.469 134.481 191.433 134.5C191.397 134.52 191.37 134.553 191.359 134.592C191.347 134.631 191.351 134.673 191.371 134.709C192.933 138.376 196.504 146.765 196.849 147.366L199.049 146.2C198.711 145.599 193.776 137.907 191.642 134.563Z" fill="#FDB714"/>
<path d="M211.156 142.798C216.004 147 227.143 156.643 228.023 157.288L230.384 154.054C229.504 153.409 216.928 145.731 211.442 142.402C211.39 142.378 211.331 142.374 211.276 142.388C211.22 142.403 211.171 142.437 211.138 142.483C211.104 142.53 211.088 142.587 211.091 142.644C211.094 142.701 211.117 142.756 211.156 142.798Z" fill="#FDB714"/>
<path d="M198.111 154.296C199.863 159.826 203.904 172.519 204.278 173.429L207.622 172.05C207.248 171.133 201.168 159.283 198.521 154.128C198.492 154.085 198.448 154.054 198.399 154.039C198.349 154.025 198.296 154.027 198.248 154.047C198.2 154.067 198.161 154.102 198.135 154.147C198.11 154.193 198.102 154.245 198.111 154.296Z" fill="#FDB714"/>
<path d="M202.239 145.43L204.586 143.912C204.175 143.275 197.905 135.113 195.177 131.6C195.148 131.574 195.112 131.558 195.074 131.555C195.035 131.552 194.996 131.561 194.964 131.582C194.931 131.603 194.907 131.634 194.893 131.67C194.88 131.707 194.879 131.746 194.891 131.783C196.988 135.736 201.821 144.785 202.239 145.43Z" fill="#FDB714"/>
<path d="M180.334 162.597C178.325 166.587 173.735 175.797 173.434 176.472L176.022 177.513C176.308 176.78 179.337 166.997 180.657 162.729C180.668 162.688 180.663 162.645 180.644 162.607C180.625 162.569 180.592 162.539 180.553 162.523C180.514 162.507 180.47 162.506 180.43 162.519C180.39 162.533 180.356 162.561 180.334 162.597Z" fill="#FDB714"/>
<path d="M173.508 140.862C170.164 143.062 162.508 148.078 161.95 148.503L163.483 150.468C164.018 150.05 170.765 143.817 173.698 141.104C173.73 141.078 173.751 141.041 173.756 141.001C173.761 140.96 173.749 140.92 173.724 140.887C173.699 140.855 173.662 140.835 173.621 140.83C173.58 140.825 173.54 140.836 173.508 140.862Z" fill="#FDB714"/>
<path d="M152.556 150.08C150.092 151.334 144.438 154.208 144.035 154.48L144.944 155.946C145.348 155.697 150.452 151.928 152.666 150.285C152.693 150.27 152.714 150.246 152.723 150.216C152.732 150.186 152.728 150.154 152.714 150.127C152.699 150.1 152.675 150.08 152.645 150.071C152.615 150.062 152.583 150.065 152.556 150.08Z" fill="#FDB714"/>
<path d="M155.834 101.805C153.832 99.8983 149.234 95.5203 148.875 95.205L147.79 96.5983C148.156 96.8917 153.414 100.456 155.702 102.003C155.729 102.02 155.761 102.027 155.792 102.021C155.823 102.014 155.85 101.996 155.867 101.97C155.885 101.944 155.891 101.912 155.885 101.881C155.879 101.85 155.861 101.822 155.834 101.805Z" fill="#FDB714"/>
<path d="M208.941 100.544C211.728 97.6104 218.122 90.9005 218.555 90.3652L216.575 88.7812C216.143 89.3165 210.943 97.0017 208.685 100.346C208.672 100.363 208.662 100.382 208.657 100.402C208.651 100.423 208.649 100.444 208.652 100.465C208.655 100.487 208.662 100.507 208.672 100.525C208.683 100.544 208.697 100.56 208.714 100.573C208.731 100.586 208.75 100.596 208.771 100.601C208.791 100.607 208.813 100.608 208.834 100.605C208.855 100.603 208.875 100.596 208.894 100.585C208.912 100.575 208.928 100.561 208.941 100.544Z" fill="#FDB714"/>
<path d="M170.494 151.649C166.893 156.32 158.621 167.049 158.078 167.899L161.173 169.901C161.716 169.058 168.103 157.098 170.875 151.898C170.908 151.848 170.92 151.786 170.907 151.727C170.895 151.668 170.859 151.616 170.809 151.583C170.758 151.55 170.697 151.538 170.638 151.551C170.578 151.563 170.527 151.598 170.494 151.649Z" fill="#FDB714"/>
<path d="M153.554 110.715C150.261 108.456 142.693 103.264 142.099 102.927L140.867 105.127C141.461 105.464 149.784 109.336 153.407 110.994C153.444 111.013 153.487 111.017 153.527 111.005C153.567 110.992 153.6 110.965 153.62 110.928C153.639 110.891 153.643 110.847 153.631 110.808C153.618 110.768 153.591 110.734 153.554 110.715Z" fill="#FDB714"/>
<path d="M181.676 128.527C176.242 130.793 163.776 136.015 162.889 136.477L164.583 139.74C165.477 139.278 176.91 132.069 181.882 128.931C181.929 128.9 181.964 128.853 181.979 128.799C181.994 128.744 181.988 128.686 181.962 128.636C181.937 128.585 181.893 128.546 181.84 128.526C181.787 128.506 181.729 128.507 181.676 128.527Z" fill="#FDB714"/>
<path d="M166.783 126.555C167.516 126.555 177.343 126.093 181.618 125.873C181.656 125.865 181.69 125.844 181.714 125.814C181.738 125.784 181.752 125.746 181.752 125.708C181.752 125.669 181.738 125.632 181.714 125.602C181.69 125.571 181.656 125.551 181.618 125.543C177.365 125.044 167.589 123.9 166.856 123.878L166.783 126.555Z" fill="#FDB714"/>
<path d="M159.274 154.788C156.194 156.856 149.125 161.608 148.633 161.996L150.1 163.807C150.591 163.411 156.78 157.56 159.472 155.008C159.486 154.995 159.498 154.979 159.506 154.961C159.515 154.944 159.519 154.925 159.52 154.905C159.521 154.886 159.519 154.867 159.512 154.848C159.506 154.83 159.496 154.813 159.483 154.799C159.47 154.784 159.454 154.772 159.436 154.764C159.419 154.756 159.4 154.751 159.38 154.75C159.361 154.749 159.342 154.752 159.323 154.758C159.305 154.765 159.288 154.775 159.274 154.788Z" fill="#FDB714"/>
<path d="M157.711 138.398C152.849 139.791 141.681 142.988 140.845 143.296L141.967 146.23C142.774 145.922 153.26 140.92 157.829 138.742C157.858 138.717 157.878 138.683 157.888 138.645C157.898 138.608 157.896 138.568 157.884 138.531C157.871 138.495 157.848 138.462 157.818 138.439C157.787 138.415 157.75 138.401 157.711 138.398Z" fill="#FDB714"/>
<path d="M161.415 105.098L159.875 107.078C160.762 107.767 173.119 116.42 178.494 120.182C178.751 120.358 178.919 120.138 178.684 119.94C173.713 115.665 162.309 105.787 161.415 105.098Z" fill="#FDB714"/>
<path d="M148.046 116.831C148.868 116.963 159.999 117.784 164.847 118.143C164.89 118.14 164.93 118.123 164.962 118.094C164.994 118.065 165.015 118.026 165.021 117.983C165.028 117.941 165.02 117.897 164.999 117.86C164.978 117.822 164.945 117.793 164.905 117.777C160.183 116.618 149.337 113.971 148.516 113.839L148.046 116.831Z" fill="#FDB714"/>
<path d="M195.067 94.0024C196.042 89.8957 198.382 80.4652 198.492 79.7319L195.881 79.3212C195.771 80.0546 195.052 89.7271 194.744 93.9437C194.74 93.9649 194.741 93.9866 194.745 94.0077C194.75 94.0287 194.759 94.0487 194.771 94.0664C194.783 94.0841 194.799 94.0992 194.817 94.1108C194.835 94.1225 194.855 94.1305 194.876 94.1344C194.898 94.1382 194.919 94.1378 194.94 94.1333C194.961 94.1287 194.981 94.1201 194.999 94.1078C195.017 94.0956 195.032 94.08 195.043 94.0619C195.055 94.0438 195.063 94.0235 195.067 94.0024Z" fill="#FDB714"/>
<path d="M160.924 130.764C156.076 130.419 135.492 131.563 134.663 131.578L134.7 134.614C135.529 134.614 156.091 131.615 160.924 131.138C160.967 131.129 161.006 131.106 161.034 131.072C161.062 131.038 161.077 130.995 161.077 130.951C161.077 130.907 161.062 130.864 161.034 130.83C161.006 130.796 160.967 130.772 160.924 130.764Z" fill="#FDB714"/>
<path d="M71.9997 146.315C70.3233 142.962 66.4444 135.292 66.1048 134.7L64.0996 135.928C64.4393 136.475 69.5782 143.433 71.7696 146.468C71.7931 146.49 71.8231 146.503 71.8549 146.505C71.8866 146.508 71.9182 146.499 71.9447 146.482C71.9712 146.464 71.991 146.438 72.001 146.408C72.0109 146.378 72.0105 146.345 71.9997 146.315Z" fill="#68AD45"/>
<path d="M75.4512 135.358C75.4512 135.719 75.0677 140.584 74.9253 142.71C74.9253 142.732 74.9339 142.753 74.9494 142.768C74.9648 142.784 74.9857 142.792 75.0075 142.792C75.0293 142.792 75.0502 142.784 75.0656 142.768C75.081 142.753 75.0896 142.732 75.0896 142.71C75.5827 140.639 76.7113 135.895 76.7661 135.533L75.4512 135.358Z" fill="#68AD45"/>
<path d="M72.4271 140.015C71.7697 138.174 70.2357 133.944 70.1151 133.637L69.0194 134.141C69.1619 134.448 71.3533 138.371 72.3066 140.08C72.3183 140.088 72.332 140.093 72.3462 140.094C72.3605 140.095 72.3747 140.092 72.3872 140.085C72.3997 140.078 72.4101 140.068 72.4171 140.055C72.4242 140.043 72.4276 140.029 72.4271 140.015Z" fill="#68AD45"/>
<path d="M74.8157 148.912C72.8544 152.111 68.34 159.464 68.0442 160.044L70.137 161.14C70.4219 160.57 73.6652 152.571 75.0677 149.087C75.091 149.054 75.1 149.012 75.0928 148.972C75.0856 148.932 75.0628 148.897 75.0294 148.873C74.996 148.85 74.9547 148.841 74.9146 148.848C74.8745 148.856 74.839 148.878 74.8157 148.912Z" fill="#68AD45"/>
<path d="M64.2312 139.215C62.489 137.023 58.4787 131.972 58.1499 131.632L56.8789 132.838C57.2076 133.188 61.9959 137.494 64.0778 139.412C64.1039 139.432 64.1371 139.441 64.17 139.437C64.2028 139.433 64.2327 139.416 64.2531 139.39C64.2734 139.364 64.2825 139.331 64.2784 139.298C64.2743 139.265 64.2573 139.235 64.2312 139.215Z" fill="#68AD45"/>
<path d="M54.3588 147.937C54.3805 147.937 54.4014 147.928 54.4169 147.913C54.4323 147.897 54.4409 147.876 54.4409 147.854C54.4409 147.833 54.4323 147.812 54.4169 147.796C54.4014 147.781 54.3805 147.772 54.3588 147.772C52.2659 147.652 47.4557 147.367 47.1051 147.378V148.693C47.4886 148.682 52.2769 148.167 54.3588 147.937Z" fill="#68AD45"/>
<path d="M75.7143 161.754C75.7143 165.512 75.7143 174.135 75.8019 174.782L78.1358 174.584C78.081 173.949 76.6347 165.435 75.9992 161.732C75.9963 161.694 75.9785 161.659 75.9497 161.634C75.9209 161.61 75.8836 161.597 75.8458 161.6C75.808 161.603 75.7729 161.621 75.7483 161.65C75.7236 161.678 75.7114 161.716 75.7143 161.754Z" fill="#68AD45"/>
<path d="M91.887 153.58C91.2734 153.393 82.8254 151.64 79.1548 150.873C79.1192 150.865 79.082 150.871 79.0507 150.89C79.0194 150.909 78.9965 150.939 78.9867 150.974C78.9769 151.009 78.9809 151.046 78.9979 151.079C79.0149 151.111 79.0436 151.135 79.0781 151.147C82.5734 152.506 90.616 155.639 91.2296 155.826L91.887 153.58Z" fill="#68AD45"/>
<path d="M90.3968 150.172C92.5882 151.016 97.4861 152.933 97.8696 153.043L98.275 151.662C97.9025 151.552 92.7088 150.468 90.4406 149.997C90.4174 149.991 90.3928 149.994 90.3722 150.007C90.3517 150.019 90.3369 150.039 90.3311 150.062C90.3253 150.086 90.3289 150.11 90.3412 150.131C90.3536 150.151 90.3736 150.166 90.3968 150.172Z" fill="#68AD45"/>
<path d="M73.2708 160.34C72.5367 162.236 70.8384 166.586 70.7397 166.914L71.956 167.276C72.0546 166.947 73.0517 162.378 73.4133 160.384C73.4143 160.367 73.4095 160.35 73.3998 160.336C73.39 160.322 73.3757 160.311 73.3593 160.306C73.3429 160.301 73.3252 160.302 73.3092 160.308C73.2932 160.314 73.2796 160.325 73.2708 160.34Z" fill="#68AD45"/>
<path d="M89.3011 146.961C89.2735 146.961 89.247 146.972 89.2275 146.992C89.208 147.011 89.197 147.038 89.197 147.065C89.197 147.093 89.208 147.12 89.2275 147.139C89.247 147.159 89.2735 147.17 89.3011 147.17C91.9637 147.487 98.0668 148.2 98.527 148.265L98.5818 146.589C98.1655 146.534 92.0185 146.83 89.3011 146.961Z" fill="#68AD45"/>
<path d="M88.4027 140.606C90.1339 139.511 94.1004 137.023 94.3853 136.815L93.6183 135.796C93.3444 136.004 89.8381 139.083 88.3041 140.486C88.2881 140.499 88.278 140.518 88.2759 140.538C88.2738 140.559 88.28 140.579 88.2931 140.595C88.3062 140.611 88.3251 140.621 88.3456 140.623C88.3662 140.626 88.3867 140.619 88.4027 140.606Z" fill="#68AD45"/>
<path d="M81.1161 148.934C83.187 148.211 87.9534 146.556 88.2931 146.403L87.7452 145.153C87.4055 145.307 82.9788 147.728 81.0504 148.78C81.0364 148.792 81.0266 148.809 81.0225 148.827C81.0183 148.845 81.02 148.864 81.0273 148.881C81.0347 148.898 81.0472 148.912 81.0631 148.922C81.0791 148.931 81.0976 148.935 81.1161 148.934Z" fill="#68AD45"/>
<path d="M92.6979 143.028C93.947 142.589 96.8178 141.592 97.026 141.505L96.6863 140.749C96.4781 140.836 93.8155 142.294 92.6541 142.94L92.6979 143.028Z" fill="#68AD45"/>
<path d="M74.5857 131.336C74.7829 130.033 75.2431 127.03 75.254 126.8L74.4323 126.745C74.4323 126.976 74.4323 130.033 74.4323 131.326L74.5857 131.336Z" fill="#68AD45"/>
<path d="M91.4925 157.721C92.9498 158.477 96.3137 160.231 96.5767 160.34L96.9711 159.398C96.7082 159.288 93.1142 158.127 91.4925 157.612C91.4835 157.618 91.4761 157.626 91.4709 157.635C91.4658 157.645 91.4631 157.656 91.4631 157.667C91.4631 157.677 91.4658 157.688 91.4709 157.698C91.4761 157.707 91.4835 157.715 91.4925 157.721Z" fill="#68AD45"/>
<path d="M72.2189 133.298C72.1641 130.909 72.0217 125.409 71.9778 125.003L70.4877 125.168C70.4877 125.573 71.5834 130.975 72.0217 133.32C72.0231 133.333 72.0271 133.345 72.0334 133.357C72.0397 133.368 72.0481 133.378 72.0583 133.386C72.0685 133.394 72.0802 133.4 72.0927 133.404C72.1052 133.408 72.1183 133.409 72.1312 133.407C72.1442 133.406 72.1567 133.402 72.1681 133.396C72.1796 133.389 72.1896 133.381 72.1978 133.371C72.2059 133.361 72.212 133.349 72.2156 133.336C72.2192 133.324 72.2203 133.311 72.2189 133.298Z" fill="#68AD45"/>
<path d="M77.3797 142.655C79.4944 139.554 84.3485 132.421 84.6662 131.862L82.6282 130.712C82.3104 131.271 78.6946 139.105 77.1496 142.513C77.1426 142.542 77.1449 142.573 77.1563 142.6C77.1677 142.628 77.1876 142.651 77.2131 142.667C77.2386 142.683 77.2684 142.69 77.2983 142.688C77.3283 142.686 77.3567 142.675 77.3797 142.655Z" fill="#68AD45"/>
<path d="M77.2482 148.024C77.2377 148.042 77.2329 148.062 77.2346 148.083C77.2363 148.103 77.2443 148.123 77.2576 148.139C77.2709 148.154 77.2887 148.165 77.3087 148.17C77.3286 148.175 77.3496 148.174 77.3687 148.167C79.3849 146.72 84.0307 143.389 84.3485 143.115L83.3404 141.932C82.9898 142.206 78.9685 146.249 77.2482 148.024Z" fill="#68AD45"/>
<path d="M67.3868 133.221C66.6088 131.501 64.8228 127.556 64.6694 127.282L63.6394 127.852C63.7928 128.137 66.2143 131.731 67.2662 133.331C67.2808 133.347 67.301 133.356 67.3226 133.357C67.3442 133.358 67.3653 133.351 67.3813 133.336C67.3973 133.322 67.4068 133.301 67.4078 133.28C67.4089 133.258 67.4013 133.237 67.3868 133.221Z" fill="#68AD45"/>
<path d="M69.2605 164.153C67.9566 165.841 64.9543 169.73 64.7571 170.037L65.8528 170.76C66.05 170.454 68.3729 166.126 69.381 164.186C69.3753 164.176 69.3677 164.167 69.3585 164.16C69.3493 164.153 69.3388 164.147 69.3276 164.144C69.3164 164.141 69.3047 164.141 69.2932 164.142C69.2816 164.144 69.2705 164.147 69.2605 164.153Z" fill="#68AD45"/>
<path d="M84.228 163.978C85.5757 166.071 88.6108 170.87 88.9176 171.21L90.1448 170.267C89.8819 169.928 86.0469 165.698 84.3704 163.868C84.3537 163.859 84.3347 163.855 84.3158 163.857C84.2969 163.859 84.2789 163.866 84.2638 163.877C84.2488 163.889 84.2374 163.904 84.2311 163.922C84.2247 163.94 84.2236 163.959 84.228 163.978Z" fill="#68AD45"/>
<path d="M75.9005 154.445C75.8955 154.436 75.8887 154.428 75.8804 154.421C75.8722 154.414 75.8627 154.409 75.8525 154.406C75.8424 154.403 75.8317 154.402 75.8211 154.403C75.8106 154.404 75.8003 154.407 75.791 154.412C75.7816 154.417 75.7733 154.424 75.7666 154.432C75.7599 154.441 75.7549 154.45 75.7518 154.46C75.7488 154.47 75.7478 154.481 75.7488 154.492C75.7499 154.502 75.753 154.512 75.7581 154.522C76.5689 156.406 78.4207 160.745 78.585 161.096L79.6808 160.493C79.5602 160.143 77.0072 156.165 75.9005 154.445Z" fill="#68AD45"/>
<path d="M86.014 158.697C88.5122 160.888 94.2648 165.841 94.725 166.18L95.8755 164.504C95.4153 164.175 88.9286 160.209 86.1017 158.488C86.0791 158.491 86.0578 158.5 86.0397 158.514C86.0217 158.528 86.0075 158.547 85.9987 158.568C85.9899 158.589 85.9866 158.611 85.9893 158.634C85.992 158.657 86.0005 158.678 86.014 158.697Z" fill="#68AD45"/>
<path d="M79.2534 164.624C80.1628 167.473 82.2447 174.026 82.4419 174.486L84.1732 173.774C83.9759 173.302 80.886 167.199 79.4725 164.526C79.458 164.499 79.4339 164.479 79.4051 164.469C79.3764 164.46 79.3451 164.461 79.3174 164.474C79.2898 164.486 79.2678 164.509 79.2559 164.537C79.2441 164.564 79.2432 164.596 79.2534 164.624Z" fill="#68AD45"/>
<path d="M81.3791 160.055L82.5844 159.277C82.3653 158.948 79.1329 154.752 77.7304 152.922C77.7239 152.912 77.7155 152.903 77.7057 152.896C77.6958 152.89 77.6848 152.885 77.6731 152.882C77.6613 152.88 77.6493 152.88 77.6375 152.882C77.6257 152.884 77.6144 152.888 77.6044 152.895C77.5943 152.901 77.5856 152.91 77.5788 152.919C77.5719 152.929 77.5671 152.94 77.5646 152.952C77.562 152.964 77.5618 152.976 77.564 152.988C77.5661 152.999 77.5705 153.011 77.577 153.021C78.6727 155.015 81.1709 159.715 81.3791 160.055Z" fill="#68AD45"/>
<path d="M70.0713 168.898C69.0304 170.958 66.6527 175.691 66.5103 176.064L67.847 176.601C67.9895 176.239 69.5563 171.122 70.2357 168.931C70.2338 168.912 70.226 168.894 70.2134 168.88C70.2008 168.866 70.1841 168.857 70.1657 168.853C70.1473 168.85 70.1282 168.852 70.1112 168.86C70.0942 168.868 70.0802 168.881 70.0713 168.898Z" fill="#68AD45"/>
<path d="M61.3823 162.685C61.6562 162.466 65.1406 159.255 66.6527 157.853C66.6687 157.84 66.6788 157.821 66.6809 157.8C66.6829 157.78 66.6767 157.759 66.6637 157.743C66.6506 157.727 66.6317 157.717 66.6111 157.715C66.5906 157.713 66.5701 157.719 66.5541 157.732C64.8338 158.828 60.8673 161.458 60.5934 161.677L61.3823 162.685Z" fill="#68AD45"/>
<path d="M55.7393 162.455C54.4683 163.101 51.5427 164.591 51.3564 164.712L51.8276 165.468C52.0358 165.337 54.6655 163.397 55.816 162.542C55.8218 162.537 55.8265 162.531 55.8299 162.524C55.8333 162.518 55.8353 162.51 55.8358 162.503C55.8363 162.495 55.8353 162.487 55.8328 162.48C55.8304 162.473 55.8265 162.466 55.8215 162.46C55.8165 162.455 55.8103 162.45 55.8035 162.446C55.7966 162.443 55.7892 162.441 55.7815 162.441C55.7739 162.44 55.7663 162.441 55.759 162.443C55.7518 162.446 55.7451 162.45 55.7393 162.455Z" fill="#68AD45"/>
<path d="M57.4267 137.483C56.3967 136.497 54.019 134.196 53.8327 134.087L53.2739 134.777C53.4602 134.93 56.1776 136.771 57.3609 137.56C57.3712 137.563 57.3822 137.564 57.3926 137.561C57.403 137.558 57.4123 137.552 57.4193 137.544C57.4263 137.535 57.4308 137.525 57.4321 137.515C57.4334 137.504 57.4315 137.493 57.4267 137.483Z" fill="#68AD45"/>
<path d="M84.8415 136.881C86.2769 135.369 89.586 131.906 89.8051 131.621L88.7861 130.8C88.5669 131.074 85.8824 135.04 84.71 136.771C84.6955 136.789 84.6885 136.811 84.6905 136.834C84.6926 136.856 84.7035 136.877 84.721 136.892C84.7384 136.906 84.7609 136.913 84.7835 136.911C84.8061 136.909 84.827 136.898 84.8415 136.881Z" fill="#68AD45"/>
<path d="M64.9872 163.266C63.1245 165.676 58.8622 171.221 58.5773 171.659L60.177 172.689C60.4619 172.251 63.7491 166.115 65.1844 163.397C65.1955 163.371 65.1972 163.342 65.1892 163.315C65.1812 163.288 65.164 163.265 65.1405 163.249C65.1171 163.234 65.0889 163.227 65.0609 163.23C65.0329 163.233 65.0068 163.245 64.9872 163.266Z" fill="#68AD45"/>
<path d="M56.2543 142.129C54.5559 140.957 50.6442 138.283 50.3374 138.108L49.7019 139.204C50.0087 139.379 54.3039 141.395 56.1776 142.239C56.1911 142.24 56.2048 142.238 56.2172 142.232C56.2296 142.227 56.2402 142.218 56.248 142.207C56.2558 142.195 56.2605 142.182 56.2616 142.169C56.2627 142.155 56.2602 142.142 56.2543 142.129Z" fill="#68AD45"/>
<path d="M70.7617 151.322C67.9566 152.495 61.5248 155.19 61.0646 155.431L61.9412 157.119C62.4014 156.878 68.3073 153.163 70.8712 151.541C70.9003 151.527 70.9224 151.501 70.9327 151.471C70.943 151.44 70.9406 151.406 70.926 151.377C70.9115 151.348 70.886 151.326 70.8552 151.316C70.8244 151.305 70.7907 151.308 70.7617 151.322Z" fill="#68AD45"/>
<path d="M63.0806 150.314C63.4531 150.314 68.5592 150.073 70.7506 149.964C70.7738 149.964 70.7961 149.954 70.8126 149.938C70.829 149.922 70.8382 149.899 70.8382 149.876C70.8382 149.853 70.829 149.83 70.8126 149.814C70.7961 149.798 70.7738 149.788 70.7506 149.788C68.5592 149.525 63.5079 148.945 63.0806 148.934V150.314Z" fill="#68AD45"/>
<path d="M59.2017 164.876C57.6129 165.972 53.9642 168.394 53.7231 168.602L54.4682 169.533C54.7202 169.325 57.9197 166.312 59.3113 164.997C59.3273 164.982 59.3368 164.962 59.3379 164.941C59.3389 164.919 59.3313 164.898 59.3168 164.882C59.3023 164.866 59.282 164.856 59.2604 164.855C59.2388 164.854 59.2177 164.862 59.2017 164.876Z" fill="#68AD45"/>
<path d="M58.4019 156.417C55.8927 157.13 50.1293 158.784 49.7129 158.949L50.2936 160.472C50.71 160.318 56.1228 157.732 58.4786 156.604C58.5033 156.594 58.523 156.574 58.5333 156.549C58.5435 156.525 58.5436 156.497 58.5334 156.472C58.5232 156.448 58.5037 156.428 58.479 156.418C58.4544 156.407 58.4266 156.407 58.4019 156.417Z" fill="#68AD45"/>
<path d="M60.3084 139.237L59.5085 140.256C59.9687 140.617 66.3458 145.077 69.118 147.016C69.2495 147.104 69.3371 147.016 69.2166 146.896C66.6526 144.682 60.8124 139.587 60.3084 139.237Z" fill="#68AD45"/>
<path d="M53.4054 145.285C53.8327 145.351 59.5743 145.778 62.0835 145.964C62.1028 145.958 62.1196 145.945 62.1314 145.928C62.1433 145.912 62.1497 145.892 62.1497 145.871C62.1497 145.851 62.1433 145.831 62.1314 145.814C62.1196 145.797 62.1028 145.785 62.0835 145.778C59.651 145.175 54.0519 143.817 53.6245 143.74L53.4054 145.285Z" fill="#68AD45"/>
<path d="M77.6755 133.506C78.2015 131.391 79.4396 126.526 79.4396 126.143L78.0919 125.935C78.0371 126.307 77.6646 131.304 77.5002 133.484C77.4973 133.507 77.5037 133.531 77.5181 133.549C77.5325 133.568 77.5536 133.58 77.5769 133.583C77.6001 133.586 77.6236 133.579 77.6421 133.565C77.6606 133.55 77.6726 133.529 77.6755 133.506Z" fill="#68AD45"/>
<path d="M60.0565 152.484C57.5582 152.309 46.9079 152.9 46.5024 152.9V154.467C46.9298 154.467 57.5473 152.922 60.0455 152.67C60.0653 152.665 60.0829 152.653 60.0958 152.637C60.1087 152.621 60.1163 152.601 60.1175 152.581C60.1187 152.56 60.1135 152.54 60.1026 152.523C60.0916 152.505 60.0755 152.492 60.0565 152.484Z" fill="#68AD45"/>
<path d="M125.284 183.129C123.607 179.776 119.728 172.106 119.389 171.515L117.384 172.742C117.723 173.29 122.862 180.248 125.054 183.283C125.077 183.304 125.107 183.317 125.139 183.32C125.171 183.322 125.202 183.314 125.229 183.296C125.255 183.278 125.275 183.252 125.285 183.222C125.295 183.192 125.294 183.159 125.284 183.129Z" fill="#F04E30"/>
<path d="M128.735 172.172C128.735 172.534 128.352 177.399 128.209 179.524C128.209 179.546 128.218 179.567 128.233 179.583C128.249 179.598 128.27 179.607 128.291 179.607C128.313 179.607 128.334 179.598 128.35 179.583C128.365 179.567 128.374 179.546 128.374 179.524C128.867 177.454 129.995 172.709 130.05 172.347L128.735 172.172Z" fill="#F04E30"/>
<path d="M125.711 176.829C125.054 174.988 123.52 170.759 123.399 170.452L122.303 170.956C122.446 171.263 124.637 175.185 125.59 176.895C125.602 176.903 125.616 176.908 125.63 176.908C125.644 176.909 125.659 176.906 125.671 176.899C125.684 176.892 125.694 176.882 125.701 176.87C125.708 176.857 125.712 176.843 125.711 176.829Z" fill="#F04E30"/>
<path d="M128.1 185.726C126.138 188.926 121.624 196.278 121.328 196.859L123.421 197.954C123.706 197.385 126.949 189.386 128.352 185.902C128.375 185.868 128.384 185.827 128.377 185.787C128.37 185.747 128.347 185.711 128.313 185.688C128.28 185.665 128.239 185.656 128.199 185.663C128.158 185.67 128.123 185.693 128.1 185.726Z" fill="#F04E30"/>
<path d="M117.515 176.029C115.773 173.838 111.763 168.786 111.434 168.447L110.163 169.652C110.492 170.003 115.28 174.309 117.362 176.226C117.388 176.247 117.421 176.256 117.454 176.252C117.487 176.248 117.517 176.231 117.537 176.204C117.557 176.178 117.566 176.145 117.562 176.112C117.558 176.079 117.541 176.049 117.515 176.029Z" fill="#F04E30"/>
<path d="M107.643 184.751C107.664 184.751 107.685 184.742 107.701 184.727C107.716 184.712 107.725 184.691 107.725 184.669C107.725 184.647 107.716 184.626 107.701 184.611C107.685 184.595 107.664 184.587 107.643 184.587C105.55 184.466 100.74 184.181 100.389 184.192V185.507C100.773 185.496 105.561 184.981 107.643 184.751Z" fill="#F04E30"/>
<path d="M128.998 198.568C128.998 202.326 128.998 210.95 129.086 211.596L131.42 211.399C131.365 210.763 129.919 202.25 129.283 198.546C129.28 198.508 129.262 198.473 129.234 198.449C129.205 198.424 129.167 198.412 129.13 198.415C129.092 198.418 129.057 198.435 129.032 198.464C129.008 198.493 128.995 198.53 128.998 198.568Z" fill="#F04E30"/>
<path d="M145.171 190.394C144.557 190.208 136.109 188.455 132.439 187.688C132.403 187.68 132.366 187.686 132.335 187.704C132.303 187.723 132.28 187.753 132.271 187.788C132.261 187.823 132.265 187.861 132.282 187.893C132.299 187.925 132.328 187.95 132.362 187.961C135.857 189.32 143.9 192.454 144.514 192.64L145.171 190.394Z" fill="#F04E30"/>
<path d="M143.681 186.986C145.872 187.83 150.77 189.747 151.154 189.857L151.559 188.476C151.186 188.367 145.993 187.282 143.725 186.811C143.701 186.805 143.677 186.809 143.656 186.821C143.636 186.833 143.621 186.853 143.615 186.877C143.609 186.9 143.613 186.925 143.625 186.945C143.638 186.966 143.657 186.98 143.681 186.986Z" fill="#F04E30"/>
<path d="M126.555 197.155C125.821 199.05 124.122 203.4 124.024 203.729L125.24 204.09C125.339 203.762 126.336 199.193 126.697 197.198C126.698 197.181 126.693 197.164 126.684 197.15C126.674 197.136 126.66 197.126 126.643 197.12C126.627 197.115 126.609 197.116 126.593 197.122C126.577 197.128 126.564 197.14 126.555 197.155Z" fill="#F04E30"/>
<path d="M142.585 183.776C142.557 183.776 142.531 183.787 142.511 183.806C142.492 183.826 142.481 183.852 142.481 183.88C142.481 183.908 142.492 183.934 142.511 183.953C142.531 183.973 142.557 183.984 142.585 183.984C145.248 184.302 151.351 185.014 151.811 185.08L151.866 183.403C151.449 183.348 145.302 183.644 142.585 183.776Z" fill="#F04E30"/>
<path d="M141.687 177.421C143.418 176.325 147.384 173.838 147.669 173.629L146.902 172.61C146.628 172.819 143.122 175.898 141.588 177.3C141.572 177.313 141.562 177.332 141.56 177.353C141.558 177.373 141.564 177.394 141.577 177.41C141.59 177.426 141.609 177.436 141.63 177.438C141.65 177.44 141.671 177.434 141.687 177.421Z" fill="#F04E30"/>
<path d="M134.4 185.748C136.471 185.025 141.237 183.37 141.577 183.217L141.029 181.968C140.689 182.121 136.263 184.543 134.334 185.595C134.32 185.607 134.311 185.623 134.306 185.641C134.302 185.659 134.304 185.678 134.311 185.695C134.319 185.712 134.331 185.727 134.347 185.736C134.363 185.746 134.382 185.75 134.4 185.748Z" fill="#F04E30"/>
<path d="M145.982 179.842C147.231 179.404 150.102 178.407 150.31 178.319L149.97 177.563C149.762 177.651 147.099 179.108 145.938 179.754L145.982 179.842Z" fill="#F04E30"/>
<path d="M127.87 168.151C128.067 166.847 128.527 163.845 128.538 163.615L127.716 163.56C127.716 163.79 127.716 166.847 127.716 168.14L127.87 168.151Z" fill="#F04E30"/>
<path d="M144.776 194.536C146.234 195.292 149.598 197.045 149.861 197.155L150.255 196.212C149.992 196.103 146.398 194.941 144.776 194.426C144.767 194.432 144.76 194.44 144.755 194.45C144.75 194.459 144.747 194.47 144.747 194.481C144.747 194.492 144.75 194.502 144.755 194.512C144.76 194.522 144.767 194.53 144.776 194.536Z" fill="#F04E30"/>
<path d="M125.503 170.112C125.448 167.724 125.306 162.223 125.262 161.818L123.772 161.982C123.772 162.387 124.867 167.789 125.306 170.134C125.307 170.147 125.311 170.16 125.317 170.171C125.324 170.182 125.332 170.192 125.342 170.201C125.352 170.209 125.364 170.215 125.377 170.218C125.389 170.222 125.402 170.223 125.415 170.222C125.428 170.22 125.441 170.216 125.452 170.21C125.463 170.204 125.474 170.195 125.482 170.185C125.49 170.175 125.496 170.163 125.5 170.151C125.503 170.138 125.504 170.125 125.503 170.112Z" fill="#F04E30"/>
<path d="M130.664 179.47C132.778 176.369 137.632 169.236 137.95 168.677L135.912 167.526C135.594 168.085 131.978 175.919 130.434 179.327C130.427 179.356 130.429 179.387 130.44 179.415C130.452 179.442 130.472 179.466 130.497 179.482C130.523 179.497 130.552 179.505 130.582 179.503C130.612 179.5 130.641 179.489 130.664 179.47Z" fill="#F04E30"/>
<path d="M130.532 184.839C130.522 184.856 130.517 184.877 130.519 184.897C130.52 184.918 130.528 184.937 130.542 184.953C130.555 184.969 130.573 184.98 130.593 184.985C130.613 184.99 130.634 184.989 130.653 184.981C132.669 183.535 137.315 180.204 137.632 179.93L136.624 178.746C136.274 179.02 132.252 183.064 130.532 184.839Z" fill="#F04E30"/>
<path d="M120.671 170.035C119.893 168.315 118.107 164.371 117.953 164.097L116.923 164.666C117.077 164.951 119.498 168.545 120.55 170.145C120.565 170.161 120.585 170.171 120.607 170.172C120.628 170.173 120.649 170.165 120.665 170.151C120.681 170.136 120.691 170.116 120.692 170.094C120.693 170.073 120.685 170.051 120.671 170.035Z" fill="#F04E30"/>
<path d="M122.544 200.968C121.241 202.655 118.238 206.545 118.041 206.852L119.137 207.575C119.334 207.268 121.657 202.94 122.665 201C122.659 200.99 122.652 200.981 122.642 200.974C122.633 200.967 122.623 200.962 122.612 200.959C122.6 200.956 122.589 200.955 122.577 200.956C122.566 200.958 122.554 200.962 122.544 200.968Z" fill="#F04E30"/>
<path d="M137.512 200.792C138.86 202.885 141.895 207.684 142.202 208.024L143.429 207.082C143.166 206.742 139.331 202.513 137.654 200.683C137.638 200.674 137.619 200.67 137.6 200.671C137.581 200.673 137.563 200.68 137.548 200.692C137.533 200.703 137.521 200.719 137.515 200.737C137.509 200.754 137.508 200.774 137.512 200.792Z" fill="#F04E30"/>
<path d="M129.184 191.26C129.179 191.25 129.173 191.242 129.164 191.235C129.156 191.228 129.147 191.223 129.136 191.22C129.126 191.217 129.116 191.216 129.105 191.217C129.094 191.218 129.084 191.222 129.075 191.227C129.066 191.232 129.057 191.239 129.051 191.247C129.044 191.255 129.039 191.264 129.036 191.275C129.033 191.285 129.032 191.295 129.033 191.306C129.034 191.317 129.037 191.327 129.042 191.336C129.853 193.221 131.705 197.56 131.869 197.911L132.965 197.308C132.844 196.957 130.291 192.98 129.184 191.26Z" fill="#F04E30"/>
<path d="M139.298 195.511C141.796 197.702 147.549 202.655 148.009 202.995L149.159 201.318C148.699 200.99 142.213 197.023 139.386 195.303C139.363 195.306 139.342 195.315 139.324 195.329C139.306 195.343 139.291 195.361 139.283 195.382C139.274 195.403 139.271 195.426 139.273 195.448C139.276 195.471 139.284 195.493 139.298 195.511Z" fill="#F04E30"/>
<path d="M132.537 201.439C133.447 204.288 135.529 210.84 135.726 211.3L137.457 210.588C137.26 210.117 134.17 204.014 132.756 201.34C132.742 201.314 132.718 201.293 132.689 201.284C132.66 201.274 132.629 201.276 132.601 201.288C132.574 201.301 132.552 201.323 132.54 201.351C132.528 201.379 132.527 201.41 132.537 201.439Z" fill="#F04E30"/>
<path d="M134.663 196.87L135.868 196.092C135.649 195.763 132.417 191.566 131.014 189.736C131.008 189.726 130.999 189.718 130.99 189.711C130.98 189.704 130.969 189.699 130.957 189.697C130.945 189.694 130.933 189.694 130.921 189.696C130.91 189.698 130.898 189.703 130.888 189.709C130.878 189.716 130.87 189.724 130.863 189.734C130.856 189.744 130.851 189.755 130.849 189.766C130.846 189.778 130.846 189.79 130.848 189.802C130.85 189.814 130.854 189.825 130.861 189.835C131.957 191.829 134.455 196.53 134.663 196.87Z" fill="#F04E30"/>
<path d="M123.355 205.712C122.314 207.772 119.937 212.506 119.794 212.878L121.131 213.415C121.273 213.053 122.84 207.936 123.52 205.745C123.518 205.726 123.51 205.709 123.497 205.695C123.485 205.681 123.468 205.671 123.45 205.668C123.431 205.664 123.412 205.666 123.395 205.674C123.378 205.682 123.364 205.696 123.355 205.712Z" fill="#F04E30"/>
<path d="M114.666 199.499C114.94 199.28 118.425 196.07 119.937 194.667C119.953 194.654 119.963 194.635 119.965 194.615C119.967 194.594 119.961 194.574 119.948 194.558C119.935 194.542 119.916 194.532 119.895 194.529C119.875 194.527 119.854 194.534 119.838 194.547C118.118 195.642 114.151 198.272 113.877 198.491L114.666 199.499Z" fill="#F04E30"/>
<path d="M109.023 199.269C107.752 199.916 104.827 201.406 104.64 201.526L105.112 202.282C105.32 202.151 107.949 200.212 109.1 199.357C109.106 199.352 109.11 199.346 109.114 199.339C109.117 199.332 109.119 199.325 109.12 199.317C109.12 199.309 109.119 199.302 109.117 199.294C109.114 199.287 109.11 199.28 109.105 199.275C109.1 199.269 109.094 199.264 109.087 199.261C109.081 199.257 109.073 199.255 109.065 199.255C109.058 199.254 109.05 199.255 109.043 199.258C109.036 199.26 109.029 199.264 109.023 199.269Z" fill="#F04E30"/>
<path d="M110.711 174.298C109.681 173.312 107.303 171.011 107.117 170.901L106.558 171.591C106.744 171.745 109.462 173.586 110.645 174.375C110.655 174.378 110.666 174.378 110.677 174.375C110.687 174.372 110.696 174.366 110.703 174.358C110.71 174.35 110.715 174.34 110.716 174.329C110.717 174.318 110.715 174.308 110.711 174.298Z" fill="#F04E30"/>
<path d="M138.125 173.695C139.561 172.183 142.87 168.721 143.089 168.436L142.07 167.614C141.851 167.888 139.166 171.854 137.994 173.586C137.979 173.603 137.972 173.626 137.974 173.648C137.977 173.671 137.987 173.692 138.005 173.706C138.022 173.721 138.045 173.728 138.067 173.726C138.09 173.724 138.111 173.713 138.125 173.695Z" fill="#F04E30"/>
<path d="M118.271 200.08C116.408 202.491 112.146 208.035 111.861 208.473L113.461 209.503C113.746 209.065 117.033 202.929 118.468 200.212C118.479 200.186 118.481 200.157 118.473 200.13C118.465 200.103 118.448 200.079 118.424 200.064C118.401 200.048 118.373 200.041 118.345 200.044C118.317 200.047 118.291 200.06 118.271 200.08Z" fill="#F04E30"/>
<path d="M109.538 178.944C107.84 177.771 103.928 175.098 103.621 174.922L102.986 176.018C103.293 176.193 107.588 178.21 109.462 179.053C109.475 179.055 109.489 179.052 109.501 179.047C109.513 179.041 109.524 179.032 109.532 179.021C109.54 179.01 109.544 178.997 109.546 178.983C109.547 178.97 109.544 178.956 109.538 178.944Z" fill="#F04E30"/>
<path d="M124.046 188.137C121.241 189.309 114.809 192.005 114.349 192.246L115.225 193.933C115.685 193.692 121.591 189.978 124.155 188.356C124.184 188.341 124.206 188.316 124.217 188.285C124.227 188.254 124.224 188.221 124.21 188.192C124.195 188.162 124.17 188.14 124.139 188.13C124.108 188.12 124.075 188.122 124.046 188.137Z" fill="#F04E30"/>
<path d="M116.365 187.129C116.737 187.129 121.843 186.888 124.035 186.778C124.058 186.778 124.08 186.769 124.097 186.752C124.113 186.736 124.122 186.714 124.122 186.69C124.122 186.667 124.113 186.645 124.097 186.628C124.08 186.612 124.058 186.603 124.035 186.603C121.843 186.34 116.792 185.759 116.365 185.748V187.129Z" fill="#F04E30"/>
<path d="M112.486 201.691C110.897 202.786 107.248 205.208 107.007 205.416L107.752 206.348C108.004 206.139 111.204 203.126 112.595 201.811C112.611 201.797 112.621 201.776 112.622 201.755C112.623 201.733 112.615 201.712 112.601 201.696C112.586 201.68 112.566 201.671 112.544 201.67C112.523 201.669 112.502 201.676 112.486 201.691Z" fill="#F04E30"/>
<path d="M111.686 193.232C109.177 193.944 103.413 195.599 102.997 195.763L103.578 197.286C103.994 197.133 109.407 194.547 111.763 193.418C111.787 193.408 111.807 193.388 111.817 193.364C111.827 193.339 111.828 193.311 111.817 193.287C111.807 193.262 111.788 193.242 111.763 193.232C111.738 193.222 111.711 193.222 111.686 193.232Z" fill="#F04E30"/>
<path d="M113.592 176.051L112.792 177.07C113.253 177.432 119.63 181.891 122.402 183.831C122.533 183.918 122.621 183.831 122.501 183.71C119.937 181.497 114.096 176.402 113.592 176.051Z" fill="#F04E30"/>
<path d="M106.689 182.099C107.117 182.165 112.858 182.592 115.367 182.779C115.387 182.772 115.404 182.759 115.415 182.743C115.427 182.726 115.434 182.706 115.434 182.686C115.434 182.665 115.427 182.645 115.415 182.628C115.404 182.612 115.387 182.599 115.367 182.592C112.935 181.99 107.336 180.631 106.908 180.554L106.689 182.099Z" fill="#F04E30"/>
<path d="M130.96 170.32C131.486 168.206 132.724 163.341 132.724 162.957L131.376 162.749C131.321 163.122 130.949 168.118 130.784 170.298C130.781 170.322 130.788 170.345 130.802 170.364C130.817 170.382 130.838 170.394 130.861 170.397C130.884 170.4 130.908 170.394 130.926 170.379C130.945 170.365 130.957 170.344 130.96 170.32Z" fill="#F04E30"/>
<path d="M113.34 189.298C110.842 189.123 100.192 189.715 99.7864 189.715V191.281C100.214 191.281 110.831 189.737 113.329 189.485C113.349 189.479 113.367 189.467 113.38 189.451C113.393 189.435 113.4 189.416 113.401 189.395C113.403 189.375 113.397 189.354 113.386 189.337C113.376 189.32 113.359 189.306 113.34 189.298Z" fill="#F04E30"/>
</g>
<defs>
<clipPath id="clip0_9205_75629">
<rect width="493" height="350" fill="white"/>
</clipPath>
</defs>
</svg>
