<svg width="493" height="350" viewBox="0 0 493 350" fill="none" xmlns="http://www.w3.org/2000/svg">
<g clip-path="url(#clip0_9205_75586)">
<path d="M7.32 300.56H0.72V297.2H11.52L9.96 303.92H11.52V314H0.72V310.64H7.92V307.28H3.6V303.92H6.48L7.32 300.56ZM15.1266 304.16V301.04H24.7266V314H14.6466V306.08H21.3666V304.16H15.1266ZM18.0066 308.96V311.12H21.3666V308.96H18.0066ZM28.0809 314V301.04H31.4409V314H28.0809ZM35.2809 307.52L38.6409 314H35.1609L31.8009 307.52L34.9209 301.04H38.4009L35.2809 307.52ZM40.8066 301.04H44.1666V302.48L46.8066 301.04H50.8866V314H44.1666V318.56H40.8066V301.04ZM47.5266 304.16H45.9666L44.1666 305.12V310.88H47.5266V304.16ZM57.5953 301.04V305.12H63.8353V314H54.2353V301.04H57.5953ZM60.4753 310.88V308.24H57.5953V310.88H60.4753ZM69.1153 314H65.7553V301.04H69.1153V314ZM74.8688 314V304.16H71.5088V301.04H81.5888V304.16H78.2288V314H74.8688ZM94.0791 314H90.7191V307.64L84.4791 314.36H83.9991V301.04H87.3591V307.4L93.5991 300.68H94.0791V314ZM107.028 310.88V314H97.4278V301.04H107.508V308.96H100.788V310.88H107.028ZM104.148 306.08V303.92H100.788V306.08H104.148ZM115.304 316.16V310.64H116.744L118.904 297.2H128.384V310.64H129.944V316.16H126.344V314H118.904V316.16H115.304ZM122.024 300.56L120.344 310.64H124.784V300.56H122.024ZM142.181 310.88V314H132.581V301.04H142.661V308.96H135.941V310.88H142.181ZM139.301 306.08V303.92H135.941V306.08H139.301ZM146.01 301.04H149.37V302.48L152.01 301.04H156.09V314H149.37V318.56H146.01V301.04ZM152.73 304.16H151.17L149.37 305.12V310.88H152.73V304.16ZM169.039 310.88V314H159.439V301.04H169.519V308.96H162.799V310.88H169.039ZM166.159 306.08V303.92H162.799V306.08H166.159ZM172.867 314V301.04H183.187L181.867 306.08H182.947V314H172.867ZM176.227 308.96V311.12H179.587V308.96H176.227ZM176.227 306.08H178.507L179.107 303.92H176.227V306.08ZM189.656 309.2V314H186.296V301.04H189.656V306.08H193.016V301.04H196.376V314H193.016V309.2H189.656ZM209.805 314H206.445V307.64L200.205 314.36H199.725V301.04H203.085V307.4L209.325 300.68H209.805V314ZM219.041 297.2H222.641V305.6L230.321 296.84H230.801V314H227.201V305.6L219.521 314.36H219.041V297.2ZM234.41 314V301.04H243.05V304.16H237.77V314H234.41ZM245.213 301.04H248.573V302.48L251.213 301.04H255.293V314H248.573V318.56H245.213V301.04ZM251.933 304.16H250.373L248.573 305.12V310.88H251.933V304.16Z" fill="#00377B"/>
<path d="M4.728 334.408C5.21333 334.408 5.66667 334.48 6.088 334.624C6.50933 334.768 6.87467 334.979 7.184 335.256C7.49333 335.528 7.736 335.861 7.912 336.256C8.088 336.651 8.176 337.099 8.176 337.6C8.176 338.027 8.112 338.424 7.984 338.792C7.856 339.155 7.68267 339.501 7.464 339.832C7.24533 340.163 6.992 340.485 6.704 340.8C6.42133 341.115 6.12 341.432 5.8 341.752L2.776 344.84C2.98933 344.781 3.20533 344.736 3.424 344.704C3.64267 344.667 3.85333 344.648 4.056 344.648H7.896C8.05067 344.648 8.17333 344.693 8.264 344.784C8.35467 344.875 8.4 344.992 8.4 345.136V346H0.752V345.512C0.752 345.411 0.773333 345.307 0.816 345.2C0.858667 345.093 0.925333 344.995 1.016 344.904L4.688 341.216C4.992 340.907 5.26933 340.611 5.52 340.328C5.77067 340.04 5.984 339.752 6.16 339.464C6.336 339.176 6.472 338.885 6.568 338.592C6.664 338.293 6.712 337.976 6.712 337.64C6.712 337.304 6.65867 337.011 6.552 336.76C6.44533 336.504 6.29867 336.293 6.112 336.128C5.93067 335.963 5.71467 335.84 5.464 335.76C5.21333 335.675 4.944 335.632 4.656 335.632C4.36267 335.632 4.09333 335.675 3.848 335.76C3.60267 335.845 3.384 335.965 3.192 336.12C3.00533 336.269 2.848 336.448 2.72 336.656C2.592 336.864 2.50133 337.093 2.448 337.344C2.384 337.531 2.296 337.656 2.184 337.72C2.07733 337.779 1.92533 337.795 1.728 337.768L0.984 337.64C1.05867 337.117 1.20267 336.656 1.416 336.256C1.63467 335.851 1.90667 335.512 2.232 335.24C2.56267 334.968 2.93867 334.763 3.36 334.624C3.78133 334.48 4.23733 334.408 4.728 334.408ZM14.0653 334.408C14.5506 334.408 14.9986 334.477 15.4093 334.616C15.8199 334.755 16.1719 334.952 16.4653 335.208C16.7639 335.464 16.9959 335.773 17.1613 336.136C17.3266 336.499 17.4093 336.901 17.4093 337.344C17.4093 337.707 17.3613 338.032 17.2653 338.32C17.1746 338.603 17.0413 338.853 16.8653 339.072C16.6946 339.285 16.4866 339.467 16.2413 339.616C15.9959 339.765 15.7213 339.885 15.4173 339.976C16.1639 340.173 16.7239 340.504 17.0973 340.968C17.4759 341.432 17.6653 342.013 17.6653 342.712C17.6653 343.24 17.5639 343.715 17.3612 344.136C17.1639 344.557 16.8919 344.917 16.5453 345.216C16.1986 345.509 15.7933 345.736 15.3293 345.896C14.8706 346.051 14.3773 346.128 13.8493 346.128C13.2413 346.128 12.7213 346.053 12.2893 345.904C11.8573 345.749 11.4919 345.539 11.1933 345.272C10.8946 345.005 10.6493 344.691 10.4572 344.328C10.2653 343.96 10.1026 343.563 9.96925 343.136L10.5853 342.88C10.7453 342.811 10.8999 342.792 11.0493 342.824C11.2039 342.856 11.3159 342.944 11.3853 343.088C11.4546 343.237 11.5399 343.416 11.6413 343.624C11.7479 343.832 11.8919 344.032 12.0733 344.224C12.2546 344.416 12.4839 344.579 12.7613 344.712C13.0439 344.845 13.4013 344.912 13.8333 344.912C14.2333 344.912 14.5826 344.848 14.8813 344.72C15.1853 344.587 15.4359 344.416 15.6333 344.208C15.8359 344 15.9879 343.768 16.0893 343.512C16.1906 343.256 16.2413 343.003 16.2413 342.752C16.2413 342.443 16.2013 342.16 16.1213 341.904C16.0413 341.648 15.8919 341.427 15.6733 341.24C15.4546 341.053 15.1533 340.907 14.7693 340.8C14.3906 340.693 13.9026 340.64 13.3053 340.64V339.608C13.7959 339.603 14.2119 339.549 14.5533 339.448C14.8999 339.347 15.1799 339.208 15.3933 339.032C15.6119 338.856 15.7693 338.645 15.8653 338.4C15.9666 338.155 16.0173 337.883 16.0173 337.584C16.0173 337.253 15.9639 336.965 15.8573 336.72C15.7559 336.475 15.6146 336.272 15.4333 336.112C15.2519 335.952 15.0359 335.832 14.7853 335.752C14.5399 335.672 14.2733 335.632 13.9852 335.632C13.6973 335.632 13.4279 335.675 13.1773 335.76C12.9319 335.845 12.7133 335.965 12.5213 336.12C12.3346 336.269 12.1773 336.448 12.0493 336.656C11.9213 336.864 11.8306 337.093 11.7773 337.344C11.7079 337.531 11.6199 337.656 11.5133 337.72C11.4119 337.779 11.2626 337.795 11.0653 337.768L10.3213 337.64C10.3959 337.117 10.5399 336.656 10.7533 336.256C10.9666 335.851 11.2359 335.512 11.5613 335.24C11.8919 334.968 12.2679 334.763 12.6893 334.624C13.1159 334.48 13.5746 334.408 14.0653 334.408ZM33.4243 346H32.2243C32.0856 346 31.9736 345.965 31.8883 345.896C31.8029 345.827 31.7389 345.739 31.6962 345.632L30.6243 342.864H25.4803L24.4083 345.632C24.3763 345.728 24.3149 345.813 24.2243 345.888C24.1336 345.963 24.0189 346 23.8803 346H22.6883L27.2723 334.536H28.8403L33.4243 346ZM25.9123 341.744H30.1923L28.3923 337.08C28.3336 336.941 28.2749 336.781 28.2163 336.6C28.1629 336.419 28.1069 336.224 28.0483 336.016C27.9949 336.224 27.9389 336.421 27.8803 336.608C27.8269 336.789 27.7709 336.949 27.7123 337.088L25.9123 341.744ZM34.9171 346V334.536H38.5731C39.2771 334.536 39.8825 334.605 40.3891 334.744C40.9011 334.883 41.3198 335.08 41.6451 335.336C41.9758 335.592 42.2185 335.907 42.3731 336.28C42.5278 336.648 42.6051 337.064 42.6051 337.528C42.6051 337.811 42.5598 338.083 42.4691 338.344C42.3838 338.605 42.2531 338.848 42.0771 339.072C41.9011 339.296 41.6771 339.496 41.4051 339.672C41.1385 339.848 40.8238 339.992 40.4611 340.104C41.2985 340.269 41.9305 340.571 42.3571 341.008C42.7838 341.445 42.9971 342.021 42.9971 342.736C42.9971 343.221 42.9065 343.664 42.7251 344.064C42.5491 344.464 42.2878 344.808 41.9411 345.096C41.5998 345.384 41.1785 345.608 40.6771 345.768C40.1758 345.923 39.6051 346 38.9651 346H34.9171ZM36.4611 340.776V344.768H38.9411C39.3838 344.768 39.7651 344.717 40.0851 344.616C40.4051 344.515 40.6665 344.373 40.8691 344.192C41.0771 344.005 41.2291 343.787 41.3251 343.536C41.4211 343.28 41.4691 343 41.4691 342.696C41.4691 342.104 41.2585 341.637 40.8371 341.296C40.4158 340.949 39.7838 340.776 38.9411 340.776H36.4611ZM36.4611 339.672H38.5091C38.9465 339.672 39.3251 339.624 39.6451 339.528C39.9705 339.432 40.2371 339.299 40.4451 339.128C40.6585 338.957 40.8158 338.752 40.9171 338.512C41.0185 338.267 41.0691 338 41.0691 337.712C41.0691 337.035 40.8665 336.541 40.4611 336.232C40.0558 335.917 39.4265 335.76 38.5731 335.76H36.4611V339.672ZM52.1649 335.76H46.8129V346H45.2609V334.536H52.1649V335.76ZM55.0703 344.816C55.2036 344.816 55.3369 344.803 55.4703 344.776C55.6036 344.744 55.7316 344.691 55.8543 344.616C55.9769 344.541 56.0943 344.443 56.2063 344.32C56.3183 344.192 56.4196 344.032 56.5103 343.84L57.0703 342.672L52.4623 334.536H53.9103C54.0489 334.536 54.1583 334.571 54.2383 334.64C54.3183 334.704 54.3876 334.789 54.4463 334.896L57.2783 340.096C57.4756 340.475 57.6356 340.859 57.7583 341.248C57.8116 341.056 57.8756 340.864 57.9503 340.672C58.0249 340.48 58.1076 340.288 58.1983 340.096L60.6063 334.896C60.6489 334.805 60.7129 334.723 60.7983 334.648C60.8889 334.573 61.0009 334.536 61.1343 334.536H62.4143L57.7583 344.504C57.6143 344.819 57.4569 345.08 57.2863 345.288C57.1209 345.491 56.9423 345.653 56.7503 345.776C56.5583 345.893 56.3503 345.976 56.1263 346.024C55.9023 346.077 55.6623 346.104 55.4063 346.104C55.1183 346.104 54.8969 346.077 54.7423 346.024C54.5876 345.976 54.5103 345.901 54.5103 345.8V344.816H55.0703ZM71.5276 343.632C71.613 343.632 71.6876 343.667 71.7516 343.736L72.3676 344.4C71.8983 344.944 71.3276 345.368 70.6556 345.672C69.989 345.976 69.181 346.128 68.2316 346.128C67.4103 346.128 66.6636 345.987 65.9916 345.704C65.3196 345.416 64.7463 345.016 64.2716 344.504C63.797 343.987 63.429 343.368 63.1676 342.648C62.9063 341.928 62.7756 341.136 62.7756 340.272C62.7756 339.408 62.9116 338.616 63.1836 337.896C63.4556 337.176 63.837 336.557 64.3276 336.04C64.8236 335.523 65.4156 335.123 66.1036 334.84C66.7916 334.552 67.5516 334.408 68.3836 334.408C69.1996 334.408 69.9196 334.539 70.5436 334.8C71.1676 335.061 71.717 335.416 72.1916 335.864L71.6796 336.576C71.6476 336.629 71.605 336.675 71.5516 336.712C71.5036 336.744 71.437 336.76 71.3516 336.76C71.2556 336.76 71.1383 336.709 70.9996 336.608C70.861 336.501 70.6796 336.384 70.4556 336.256C70.2316 336.128 69.9516 336.013 69.6156 335.912C69.2796 335.805 68.8663 335.752 68.3756 335.752C67.7836 335.752 67.2423 335.856 66.7516 336.064C66.261 336.267 65.837 336.563 65.4796 336.952C65.1276 337.341 64.853 337.816 64.6556 338.376C64.4583 338.936 64.3596 339.568 64.3596 340.272C64.3596 340.987 64.461 341.624 64.6636 342.184C64.8716 342.744 65.1516 343.219 65.5036 343.608C65.861 343.992 66.2796 344.285 66.7596 344.488C67.245 344.691 67.7676 344.792 68.3276 344.792C68.669 344.792 68.9756 344.773 69.2476 344.736C69.525 344.693 69.7783 344.629 70.0076 344.544C70.2423 344.459 70.4583 344.352 70.6556 344.224C70.8583 344.091 71.0583 343.933 71.2556 343.752C71.3463 343.672 71.437 343.632 71.5276 343.632ZM81.9191 334.536V335.84H78.2071V346H76.6631V335.84H72.9431V334.536H81.9191ZM91.8149 346H90.6149C90.4762 346 90.3642 345.965 90.2789 345.896C90.1935 345.827 90.1295 345.739 90.0869 345.632L89.0149 342.864H83.8709L82.7989 345.632C82.7669 345.728 82.7055 345.813 82.6149 345.888C82.5242 345.963 82.4095 346 82.2709 346H81.0789L85.6629 334.536H87.2309L91.8149 346ZM84.3029 341.744H88.5829L86.7829 337.08C86.7242 336.941 86.6655 336.781 86.6069 336.6C86.5535 336.419 86.4975 336.224 86.4389 336.016C86.3855 336.224 86.3295 336.421 86.2709 336.608C86.2175 336.789 86.1615 336.949 86.1029 337.088L84.3029 341.744ZM100.666 334.408C101.151 334.408 101.604 334.48 102.026 334.624C102.447 334.768 102.812 334.979 103.122 335.256C103.431 335.528 103.674 335.861 103.85 336.256C104.026 336.651 104.114 337.099 104.114 337.6C104.114 338.027 104.05 338.424 103.922 338.792C103.794 339.155 103.62 339.501 103.402 339.832C103.183 340.163 102.93 340.485 102.642 340.8C102.359 341.115 102.058 341.432 101.738 341.752L98.7135 344.84C98.9268 344.781 99.1428 344.736 99.3615 344.704C99.5802 344.667 99.7908 344.648 99.9935 344.648H103.834C103.988 344.648 104.111 344.693 104.201 344.784C104.292 344.875 104.338 344.992 104.338 345.136V346H96.6895V345.512C96.6895 345.411 96.7108 345.307 96.7535 345.2C96.7962 345.093 96.8628 344.995 96.9535 344.904L100.626 341.216C100.93 340.907 101.207 340.611 101.458 340.328C101.708 340.04 101.922 339.752 102.098 339.464C102.274 339.176 102.41 338.885 102.506 338.592C102.602 338.293 102.65 337.976 102.65 337.64C102.65 337.304 102.596 337.011 102.49 336.76C102.383 336.504 102.236 336.293 102.05 336.128C101.868 335.963 101.652 335.84 101.402 335.76C101.151 335.675 100.882 335.632 100.594 335.632C100.3 335.632 100.031 335.675 99.7855 335.76C99.5402 335.845 99.3215 335.965 99.1295 336.12C98.9428 336.269 98.7855 336.448 98.6575 336.656C98.5295 336.864 98.4388 337.093 98.3855 337.344C98.3215 337.531 98.2335 337.656 98.1215 337.72C98.0148 337.779 97.8628 337.795 97.6655 337.768L96.9215 337.64C96.9962 337.117 97.1402 336.656 97.3535 336.256C97.5722 335.851 97.8442 335.512 98.1695 335.24C98.5002 334.968 98.8762 334.763 99.2975 334.624C99.7188 334.48 100.175 334.408 100.666 334.408ZM114.019 340.272C114.019 341.275 113.909 342.144 113.691 342.88C113.477 343.611 113.184 344.216 112.811 344.696C112.437 345.176 111.995 345.533 111.483 345.768C110.976 346.003 110.432 346.12 109.851 346.12C109.264 346.12 108.717 346.003 108.211 345.768C107.709 345.533 107.272 345.176 106.899 344.696C106.525 344.216 106.232 343.611 106.019 342.88C105.805 342.144 105.699 341.275 105.699 340.272C105.699 339.269 105.805 338.4 106.019 337.664C106.232 336.928 106.525 336.32 106.899 335.84C107.272 335.355 107.709 334.995 108.211 334.76C108.717 334.525 109.264 334.408 109.851 334.408C110.432 334.408 110.976 334.525 111.483 334.76C111.995 334.995 112.437 335.355 112.811 335.84C113.184 336.32 113.477 336.928 113.691 337.664C113.909 338.4 114.019 339.269 114.019 340.272ZM112.539 340.272C112.539 339.397 112.464 338.664 112.315 338.072C112.171 337.475 111.973 336.995 111.723 336.632C111.477 336.269 111.192 336.011 110.867 335.856C110.541 335.696 110.203 335.616 109.851 335.616C109.499 335.616 109.16 335.696 108.835 335.856C108.509 336.011 108.224 336.269 107.979 336.632C107.733 336.995 107.536 337.475 107.387 338.072C107.243 338.664 107.171 339.397 107.171 340.272C107.171 341.147 107.243 341.88 107.387 342.472C107.536 343.064 107.733 343.541 107.979 343.904C108.224 344.267 108.509 344.528 108.835 344.688C109.16 344.843 109.499 344.92 109.851 344.92C110.203 344.92 110.541 344.843 110.867 344.688C111.192 344.528 111.477 344.267 111.723 343.904C111.973 343.541 112.171 343.064 112.315 342.472C112.464 341.88 112.539 341.147 112.539 340.272ZM119.228 334.408C119.713 334.408 120.167 334.48 120.588 334.624C121.009 334.768 121.375 334.979 121.684 335.256C121.993 335.528 122.236 335.861 122.412 336.256C122.588 336.651 122.676 337.099 122.676 337.6C122.676 338.027 122.612 338.424 122.484 338.792C122.356 339.155 122.183 339.501 121.964 339.832C121.745 340.163 121.492 340.485 121.204 340.8C120.921 341.115 120.62 341.432 120.3 341.752L117.276 344.84C117.489 344.781 117.705 344.736 117.924 344.704C118.143 344.667 118.353 344.648 118.556 344.648H122.396C122.551 344.648 122.673 344.693 122.764 344.784C122.855 344.875 122.9 344.992 122.9 345.136V346H115.252V345.512C115.252 345.411 115.273 345.307 115.316 345.2C115.359 345.093 115.425 344.995 115.516 344.904L119.188 341.216C119.492 340.907 119.769 340.611 120.02 340.328C120.271 340.04 120.484 339.752 120.66 339.464C120.836 339.176 120.972 338.885 121.068 338.592C121.164 338.293 121.212 337.976 121.212 337.64C121.212 337.304 121.159 337.011 121.052 336.76C120.945 336.504 120.799 336.293 120.612 336.128C120.431 335.963 120.215 335.84 119.964 335.76C119.713 335.675 119.444 335.632 119.156 335.632C118.863 335.632 118.593 335.675 118.348 335.76C118.103 335.845 117.884 335.965 117.692 336.12C117.505 336.269 117.348 336.448 117.22 336.656C117.092 336.864 117.001 337.093 116.948 337.344C116.884 337.531 116.796 337.656 116.684 337.72C116.577 337.779 116.425 337.795 116.228 337.768L115.484 337.64C115.559 337.117 115.703 336.656 115.916 336.256C116.135 335.851 116.407 335.512 116.732 335.24C117.063 334.968 117.439 334.763 117.86 334.624C118.281 334.48 118.737 334.408 119.228 334.408ZM128.565 334.408C129.051 334.408 129.499 334.477 129.909 334.616C130.32 334.755 130.672 334.952 130.965 335.208C131.264 335.464 131.496 335.773 131.661 336.136C131.827 336.499 131.909 336.901 131.909 337.344C131.909 337.707 131.861 338.032 131.765 338.32C131.675 338.603 131.541 338.853 131.365 339.072C131.195 339.285 130.987 339.467 130.741 339.616C130.496 339.765 130.221 339.885 129.917 339.976C130.664 340.173 131.224 340.504 131.597 340.968C131.976 341.432 132.165 342.013 132.165 342.712C132.165 343.24 132.064 343.715 131.861 344.136C131.664 344.557 131.392 344.917 131.045 345.216C130.699 345.509 130.293 345.736 129.829 345.896C129.371 346.051 128.877 346.128 128.349 346.128C127.741 346.128 127.221 346.053 126.789 345.904C126.357 345.749 125.992 345.539 125.693 345.272C125.395 345.005 125.149 344.691 124.957 344.328C124.765 343.96 124.603 343.563 124.469 343.136L125.085 342.88C125.245 342.811 125.4 342.792 125.549 342.824C125.704 342.856 125.816 342.944 125.885 343.088C125.955 343.237 126.04 343.416 126.141 343.624C126.248 343.832 126.392 344.032 126.573 344.224C126.755 344.416 126.984 344.579 127.261 344.712C127.544 344.845 127.901 344.912 128.333 344.912C128.733 344.912 129.083 344.848 129.381 344.72C129.685 344.587 129.936 344.416 130.133 344.208C130.336 344 130.488 343.768 130.589 343.512C130.691 343.256 130.741 343.003 130.741 342.752C130.741 342.443 130.701 342.16 130.621 341.904C130.541 341.648 130.392 341.427 130.173 341.24C129.955 341.053 129.653 340.907 129.269 340.8C128.891 340.693 128.403 340.64 127.805 340.64V339.608C128.296 339.603 128.712 339.549 129.053 339.448C129.4 339.347 129.68 339.208 129.893 339.032C130.112 338.856 130.269 338.645 130.365 338.4C130.467 338.155 130.517 337.883 130.517 337.584C130.517 337.253 130.464 336.965 130.357 336.72C130.256 336.475 130.115 336.272 129.933 336.112C129.752 335.952 129.536 335.832 129.285 335.752C129.04 335.672 128.773 335.632 128.485 335.632C128.197 335.632 127.928 335.675 127.677 335.76C127.432 335.845 127.213 335.965 127.021 336.12C126.835 336.269 126.677 336.448 126.549 336.656C126.421 336.864 126.331 337.093 126.277 337.344C126.208 337.531 126.12 337.656 126.013 337.72C125.912 337.779 125.763 337.795 125.565 337.768L124.821 337.64C124.896 337.117 125.04 336.656 125.253 336.256C125.467 335.851 125.736 335.512 126.061 335.24C126.392 334.968 126.768 334.763 127.189 334.624C127.616 334.48 128.075 334.408 128.565 334.408Z" fill="#F04E30"/>
<path opacity="0.5" d="M195.325 5L268 35.9006L180.649 242L108 211.099L195.325 5Z" fill="#FFE9A8"/>
<path fill-rule="evenodd" clip-rule="evenodd" d="M222 110.03L257.92 25L260.787 26.2111L224.867 111.241L222 110.03Z" fill="#F04E30"/>
<path d="M93.8521 97.138L88.6884 103.66L79.9305 100.606L79.9308 92.2085L82.6247 92.2085L83.9716 85.4733L86.6663 84.1251L94.0761 86.146L93.8521 97.138Z" fill="#FFDCA8"/>
<path d="M89.3606 102.986L79.7704 99.6181L69.9619 120.21L55.0062 120.21L39.8167 124.218L35.4714 138.214C35.4714 138.214 50.9508 134.639 52.9854 134.646L74.6479 132.479L79.7704 126.748L89.3606 102.986Z" fill="#D9DEE0"/>
<rect x="73.3766" y="159.033" width="17.0112" height="59.9741" stroke="#14313C" stroke-width="3.12766"/>
<rect x="207.654" y="188.589" width="16.3169" height="30.4826" stroke="#14313C" stroke-width="3"/>
<g clip-path="url(#clip1_9205_75586)">
<path d="M178.423 97.9049L177.309 97.5604L176.436 98.0427L177.056 94.0811L172.842 87.8572L168.065 88.7529L151.231 96.0906L151.529 98.1001L150.553 97.5604L149.428 97.9049V103.474L152.781 106.655L153.872 114.085L158.178 117.53V123.914L155.434 125.545L164.149 142.792L170.396 129.437L172.865 125.556L170.396 124.213V117.219L173.944 114.085L175.247 106.602L178.423 103.474V97.9049Z" fill="#FFDCA8"/>
<path d="M160.326 210.795L158.546 251.583L159.89 256.337L150.91 258.944L150.772 256.337L152.655 251.583L148.808 210.795H160.326Z" fill="#FFDCA8"/>
<path d="M159.889 256.337L157.443 255.372H155.33H153.229L150.772 256.337L150.565 259.679H155.33H160.107L159.889 256.337Z" fill="#14313C"/>
<path d="M167.71 210.795L169.49 251.583L168.147 256.337L177.138 258.944L177.264 256.337L175.392 251.583L179.228 210.795H167.71Z" fill="#FFDCA8"/>
<path d="M168.145 256.337L170.591 255.372H172.704H174.805L177.262 256.337L177.481 259.679H172.704H167.927L168.145 256.337Z" fill="#14313C"/>
<path d="M151.071 167.067L146.707 179.446L145.892 185.13L151.449 247.122H159.176L164.327 189.172L168.835 247.122H176.561L181.49 186.06L180.525 178.482L176.561 167.067H151.071Z" fill="#AAB5B9"/>
<path d="M180.593 182.685L180.857 182.799L181.914 163.646L178.469 147.592L188.31 146.628L190.216 164.208L185.99 184.878L186.403 185.05L183.395 191.745L175.885 192.124L180.593 182.685Z" fill="#FFDCA8"/>
<path d="M181.488 128.45L188.795 146.675L190.083 164.704L187.508 182.733L180.425 180.801L181.713 164.06L178.043 147.673L176.413 168.342H151.07L148.874 147.318L146.298 128.645L155.433 125.602L164.327 133.153L172.945 125.648L181.488 128.45Z" fill="#AAB5B9"/>
<path d="M122.315 91.53L122.028 91.5604L133.755 113.836L151.14 127.358L144.058 135.728L126.672 118.343L116.538 92.2859L116.094 92.3401L115.082 82.9288L121.521 78.4215L121.918 84.9757L124.096 86.1482L122.315 91.53Z" fill="#FFDCA8"/>
<path d="M148.564 141.523L127.316 120.275L123.391 113.192L116.278 94.9003L123.391 93.0849L134.399 112.548L152.428 127.357L148.564 141.523Z" fill="#AAB5B9"/>
<path d="M164.327 133.153L149.517 127.358L155.312 121.562L164.327 133.153Z" fill="#D9DEE0"/>
<path d="M164.327 133.153L179.136 127.358L173.341 121.562L164.327 133.153Z" fill="#D9DEE0"/>
<path d="M150.805 167.279H176.561V165.991H150.805V167.279Z" fill="#72838A"/>
<path d="M151.423 105.314L149.491 128.755L158.506 123.987V117.548L153.998 114.329L152.711 106.602L151.423 105.314Z" fill="#736357"/>
<path d="M176.535 105.314L179.017 129.138L170.301 124.086V117.145L173.998 113.959L175.247 106.602L176.535 105.314Z" fill="#736357"/>
<path d="M153.7 87.0198L150.135 96.2995L152.067 100.807L157.897 97.791L165.926 93.7157L172.672 86.6411L166.936 81.4899L153.7 87.0198Z" fill="#736357"/>
<path d="M172.672 86.6411L167.521 91.2876L175.647 100.807L177.098 97.7803L177.823 93.4477L172.672 86.6411Z" fill="#736357"/>
</g>
<path d="M65.6193 92.5385L64.6605 92.0957L64.0752 92.3131L65.383 86.2171L63.7397 79.3038L60.7225 74.7903L57.4409 77.8828L41.219 81.6239L40.6703 88.9586L40.2008 88.5976L39.1642 88.7596L38.452 93.6372L40.1451 95.7746L39.365 106.125L42.3483 107.365L40.2008 115.111L46.9237 118.479L55.6807 116.459L57.3249 109.363L60.5267 108.964L62.6502 98.9977L64.9056 97.4263L65.6193 92.5385Z" fill="#FFDCA8"/>
<path d="M41.2169 81.6237L57.4387 77.8826L60.7204 74.7901L63.7376 79.3036L65.3809 86.2169L63.3648 94.5175L62.1377 94.3383L62.2932 87.0506L43.3944 86.3801L41.7174 91.357L40.5619 91.1883L41.2169 81.6237Z" fill="#14313C"/>
<path d="M28.6326 251.212L28.9994 257.917L55.7556 257.791C55.7556 257.791 55.2741 248.843 44.5671 252.928L41.5865 252.665L28.6326 251.212Z" fill="#14313C"/>
<path d="M44.543 118.721L31.5203 118.137L28.7361 129.931L22 164.959L25.0089 178.764H55.8003L58.3752 129.931L55.8003 115.785L44.543 118.721Z" fill="#AAB5B9"/>
<path d="M28.633 178.764L31.4314 214.806L26.7161 251.181L40.862 253.876L49.6189 214.806L53.234 178.077L28.633 178.764Z" fill="#AAB5B9"/>
<path d="M82.0532 165.673L75.3928 163.796L74.6133 153.406L84.8159 153.726L82.0532 165.673Z" fill="#FFDCA8"/>
<path d="M75.5976 164.78V153.337L57.6684 149.904L50.2913 140.708L44.9024 122.303L30.2473 122.302C30.2473 122.302 32.2305 133.746 32.8266 135.691L47.3396 158.017L54.3325 161.21L75.5976 164.78Z" fill="#D9DEE0"/>
<path d="M55.2831 120.52L27.5637 119.813L33.6231 106.872L55.2831 120.52Z" fill="#D9DEE0"/>
<path d="M41.5353 178.431L40.8617 214.806L33.4519 252.528" stroke="#72838A" stroke-width="2.09231"/>
<rect x="60.6338" y="194.816" width="42.4971" height="59.2384" rx="2" fill="#FDB714"/>
<rect x="194.564" y="210.269" width="42.4971" height="43.7849" rx="2" fill="#8ED8F8"/>
<circle cx="63.2093" cy="252.766" r="5.15117" fill="#14313C"/>
<circle cx="197.14" cy="252.766" r="5.15117" fill="#14313C"/>
<circle cx="104.181" cy="252.529" r="5.38891" fill="#14313C"/>
<circle cx="234.486" cy="252.766" r="5.15117" fill="#14313C"/>
</g>
<defs>
<clipPath id="clip0_9205_75586">
<rect width="493" height="350" fill="white"/>
</clipPath>
<clipPath id="clip1_9205_75586">
<rect width="82.1359" height="182.373" fill="white" transform="translate(108.282 77.6265)"/>
</clipPath>
</defs>
</svg>
