<svg width="78" height="70" viewBox="0 0 78 70" fill="none" xmlns="http://www.w3.org/2000/svg">
<path fill-rule="evenodd" clip-rule="evenodd" d="M30.4604 41.8882C49.324 43.6791 59.5999 35.5612 63.6368 0.696613C63.6955 0.285578 63.3285 -0.0520573 62.9322 0.00666195L48.7662 2.50223C48.5019 2.54627 48.2964 2.78115 48.2671 3.06006C45.6834 32.6399 40.2959 42.2552 30.4604 41.8882ZM34.865 37.0308C33.9255 35.6803 32.7511 33.3315 31.7382 29.7937C30.7106 26.2558 29.8592 21.5289 29.2573 15.613C28.9784 12.9119 28.7582 9.96123 28.6114 6.77571C28.5967 6.40871 28.2591 6.12979 27.8921 6.20319L27.1287 6.33531C26.8205 6.39403 26.6003 6.67295 26.615 6.98122C26.8351 10.4016 27.1434 13.5284 27.5251 16.3763C28.3325 22.3216 29.4482 27.0338 30.7547 30.4983C32.0465 33.9627 33.4704 36.1647 34.6008 37.3538C35.1586 37.9556 35.6284 38.3079 35.966 38.5281C36.3036 38.7337 36.4798 38.8071 36.4798 38.8071C36.4798 38.8071 36.3183 38.6896 36.0247 38.4254C35.7458 38.1465 35.3348 37.7207 34.865 37.0308ZM20.4637 52.0469H6.29764C5.41685 52.0469 4.59478 52.1643 3.83143 52.3992C3.06808 52.6341 2.40749 52.9864 1.83498 53.4561C1.26246 53.9259 0.80739 54.4837 0.499114 55.1443C0.161478 55.8049 0 56.5683 0 57.4197V69.4865C0 69.6333 0.117438 69.7507 0.264237 69.7507H4.81498C4.96178 69.7507 5.07921 69.6333 5.07921 69.4865V66.343C5.73195 64.2214 9.53671 62.9793 18.746 62.3234C18.8634 62.3087 18.9662 62.2206 18.9808 62.1179L19.6268 58.4773C19.6561 58.3011 19.524 58.1543 19.3478 58.169C9.6465 59.1379 5.862 61.1694 5.07921 64.589V57.4197C5.07921 57.038 5.21133 56.7151 5.47557 56.4508C5.73981 56.1866 6.06276 56.0545 6.44444 56.0545H19.8618C19.9792 56.0545 20.0967 55.9664 20.1113 55.8343L20.7279 52.3405C20.7426 52.1937 20.6105 52.0469 20.4637 52.0469ZM52.5684 60.2969C52.084 59.8125 51.5115 59.4455 50.8362 59.1813C50.161 58.917 49.4563 58.7849 48.7223 58.7849H37.6978C37.3161 58.7849 36.9932 58.6528 36.7289 58.3886C36.4647 58.1243 36.3326 57.8014 36.3326 57.4197C36.3326 57.038 36.4647 56.7151 36.7289 56.4508C36.9932 56.1866 37.3161 56.0545 37.6978 56.0545H50.6601C50.7922 56.0545 50.8949 55.9664 50.9096 55.8489L51.5262 52.3551C51.5555 52.1937 51.4381 52.0469 51.2766 52.0469H37.5657C36.6849 52.0469 35.8628 52.1643 35.0995 52.3992C34.3361 52.6341 33.6755 52.9864 33.103 53.4561C32.5305 53.9259 32.0901 54.4837 31.7671 55.1443C31.4442 55.8049 31.2827 56.5536 31.2827 57.405C31.2827 58.2564 31.4442 59.0051 31.7671 59.6657C32.0901 60.3263 32.5452 60.8841 33.103 61.3539C33.6755 61.8236 34.3361 62.1759 35.0995 62.4108C35.8628 62.6457 36.6849 62.7631 37.5657 62.7631H47.6213H47.6654C48.0764 62.7631 48.4287 62.9099 48.7076 63.1889C48.9866 63.4678 49.1187 63.8054 49.1187 64.2164C49.1187 64.6275 48.9866 64.9651 48.7076 65.244C48.4287 65.5229 48.0911 65.6697 47.6654 65.6697H32.736C32.6039 65.6697 32.5011 65.7578 32.4865 65.8753L31.8699 69.4131C31.8405 69.5746 31.958 69.7214 32.1195 69.7214H48.693H48.737C49.471 69.7214 50.1756 69.5892 50.8509 69.325C51.5262 69.0608 52.0987 68.6938 52.5831 68.2093C53.0676 67.7249 53.4492 67.1524 53.7428 66.4771C54.0364 65.8019 54.1832 65.0532 54.1832 64.2311C54.1832 63.409 54.0364 62.6604 53.7428 62.0145C53.4492 61.3539 53.0529 60.7814 52.5684 60.2969ZM72.9291 52.8822C72.8117 52.9116 72.7089 53.0143 72.7089 53.1318V61.1763C72.7089 62.2039 72.5768 63.026 72.3126 63.6572C72.0483 64.2884 71.696 64.7729 71.2409 65.1252C70.7859 65.4775 70.2574 65.7124 69.6555 65.8298C69.0536 65.9473 68.4371 66.006 67.7912 66.006H65.9856C65.3397 66.006 64.7231 65.9473 64.1359 65.8298C63.5487 65.7124 63.0202 65.4775 62.5652 65.1252C62.1101 64.7729 61.7578 64.2884 61.4935 63.6572C61.2293 63.026 61.0972 62.2039 61.0972 61.1763V52.3391C61.0972 52.1776 60.9504 52.0601 60.7889 52.0895L56.2822 52.8822C56.1648 52.9116 56.062 53.0143 56.062 53.1318V61.1763C56.062 62.4975 56.2675 63.7012 56.6639 64.8022C57.0602 65.9032 57.6621 66.828 58.4695 67.5914C59.2769 68.3547 60.3045 68.9419 61.5523 69.3676C62.8 69.7934 64.268 69.9989 65.9709 69.9989H67.7765C71.1529 69.9989 73.6484 69.1915 75.2485 67.5767C76.8633 65.9619 77.6707 63.8187 77.6707 61.147V52.3244C77.6707 52.1629 77.5239 52.0455 77.3624 52.0748L72.9291 52.8822ZM28.523 52.34V69.4713C28.523 69.6181 28.4055 69.7356 28.2587 69.7356H23.752C23.6052 69.7356 23.4878 69.6181 23.4878 69.4713V53.1327C23.4878 53.0153 23.5906 52.9125 23.708 52.8832L28.2147 52.0905C28.3762 52.0611 28.523 52.1785 28.523 52.34ZM28.2443 31.4232C26.7469 27.9588 25.4257 23.1585 24.5009 17.037C24.0752 14.1744 23.7229 10.9889 23.488 7.52449C23.4733 7.21622 23.6935 6.9373 24.0018 6.87858L24.7651 6.74646C25.1321 6.68774 25.4698 6.95198 25.4845 7.31897C25.6753 10.5485 25.9248 13.5285 26.2478 16.2443C26.9524 22.3364 27.9947 27.1367 29.2131 30.6746C30.4169 34.2271 31.7821 36.4731 32.839 37.7502C33.3382 38.3778 33.7958 38.7697 34.1042 39.0339L34.1309 39.0567C34.4391 39.3063 34.6153 39.409 34.6153 39.409C34.6153 39.409 34.4245 39.3503 34.0721 39.1595C33.7198 38.9687 33.206 38.6457 32.5895 38.0879C31.3564 36.9722 29.7269 34.8877 28.2443 31.4232ZM21.4768 17.7091C22.5043 24.0068 24.031 28.8952 25.7192 32.3449C27.3927 35.8093 29.213 37.7911 30.5636 38.804C31.2388 39.3178 31.7967 39.6114 32.1637 39.7729C32.5453 39.9344 32.7362 39.9931 32.7362 39.9931C32.7362 39.9931 32.56 39.8903 32.2077 39.6701C31.8701 39.4353 31.3709 39.0683 30.7837 38.4517C29.6094 37.248 28.0386 35.09 26.644 31.5375C25.2348 27.9997 24.0164 23.1113 23.1943 16.8724C22.8273 14.1273 22.5337 11.1326 22.3135 7.87366C22.2841 7.50667 21.9612 7.24243 21.5942 7.30115L20.8308 7.43327C20.5226 7.49199 20.3024 7.7709 20.3317 8.09386C20.6106 11.5877 20.9923 14.8025 21.4768 17.7091ZM23.1795 33.2551C21.3005 29.82 19.583 24.8435 18.4379 18.3697C17.9095 15.4338 17.4984 12.1895 17.1755 8.63703C17.1461 8.31407 17.3663 8.03516 17.6746 7.97644L18.4379 7.84432C18.8049 7.77092 19.1279 8.03516 19.1573 8.40215C19.4068 11.6904 19.7298 14.7292 20.1408 17.489C21.0803 23.904 22.4896 28.8658 24.0897 32.4036C25.6604 35.9562 27.422 38.026 28.7285 39.1564C29.3744 39.7289 29.9176 40.0665 30.2845 40.2867C30.6515 40.5069 30.8424 40.595 30.8424 40.595C30.8424 40.595 30.6369 40.5509 30.2405 40.4041C29.8442 40.2427 29.2423 39.9931 28.523 39.5234C27.0697 38.5985 25.0439 36.7342 23.1795 33.2551ZM15.4138 19.0322C16.6762 25.6822 18.5993 30.7467 20.6691 34.1818C22.7243 37.6609 24.941 39.4078 26.5117 40.2592C27.2897 40.6996 27.921 40.9051 28.3467 41.0373C28.7724 41.1694 28.9779 41.1987 28.9779 41.1987C28.9779 41.1987 28.7724 41.1253 28.376 40.9198C27.9797 40.729 27.4072 40.406 26.6879 39.8776C25.2639 38.8206 23.2968 36.8535 21.5499 33.2863C19.7737 29.7485 18.1589 24.7133 17.1166 18.1368C16.6616 15.3623 16.2946 12.2942 16.0303 8.97655C16.001 8.60956 15.6633 8.36 15.311 8.41872L14.5477 8.55084C14.2247 8.60956 14.0045 8.88847 14.0339 9.21143C14.3715 12.7933 14.8413 16.0669 15.4138 19.0322Z" fill="white"/>
</svg>
