<svg width="48" height="48" viewBox="0 0 48 48" fill="none" xmlns="http://www.w3.org/2000/svg">
<path d="M11.4493 44.4568C14.3993 46.2667 17.7059 47.4172 21.1423 47.8293C24.5787 48.2414 28.0635 47.9054 31.3578 46.8443C34.6521 45.7833 37.678 44.0222 40.2279 41.6821C42.7778 39.3419 44.7914 36.4779 46.1306 33.2865C47.4697 30.0951 48.1028 26.6518 47.9864 23.1928C47.87 19.7337 47.0069 16.3408 45.4561 13.2467C43.9054 10.1525 41.7038 7.43038 39.0024 5.26692C36.3009 3.10346 33.1635 1.54987 29.8053 0.712701L28.5862 5.60303C31.2392 6.2644 33.7177 7.49173 35.8519 9.20087C37.986 10.91 39.7253 13.0605 40.9504 15.5049C42.1754 17.9492 42.8573 20.6297 42.9493 23.3623C43.0412 26.0949 42.5411 28.8151 41.4831 31.3363C40.4252 33.8575 38.8345 36.1201 36.82 37.9688C34.8056 39.8176 32.4152 41.2088 29.8127 42.047C27.2102 42.8852 24.4571 43.1507 21.7424 42.8251C19.0277 42.4996 16.4155 41.5907 14.085 40.1609L11.4493 44.4568Z" fill="#68AD45"/>
<path fill-rule="evenodd" clip-rule="evenodd" d="M24 43C34.4934 43 43 34.4934 43 24C43 13.5066 34.4934 5 24 5C13.5066 5 5 13.5066 5 24C5 34.4934 13.5066 43 24 43ZM32.7364 16.2603C32.5676 16.0937 32.3387 16 32.1 16H15.9C15.6613 16 15.4324 16.0937 15.2636 16.2603C15.0948 16.427 15 16.6531 15 16.8889V31.1111C15 31.3469 15.0948 31.573 15.2636 31.7397C15.4324 31.9064 15.6613 32 15.9 32H32.1C32.3387 32 32.5676 31.9064 32.7364 31.7397C32.9052 31.573 33 31.3469 33 31.1111V16.8889C33 16.6531 32.9052 16.427 32.7364 16.2603ZM18.2832 18.8782L24.054 23.7182H24.0549L29.7114 18.8836L30.8886 20.2284L24.0657 26.0596L17.1177 20.2329L18.2832 18.8782Z" fill="#1268B3"/>
</svg>
