<svg width="247" height="100" viewBox="0 0 247 100" fill="none" xmlns="http://www.w3.org/2000/svg">
<g clip-path="url(#clip0_12772_614)">
<path d="M4.97915 92.123V93.4633H1.88637V95.2158H4.24719V96.5045H1.88637V98.2983H4.97915V99.6385H0.133789V92.123H4.97915Z" fill="#00377B"/>
<path d="M7.76234 95.1648H8.04069C8.29842 95.1648 8.48399 95.0824 8.59739 94.9277L10.2881 92.4638C10.3912 92.3298 10.4943 92.2473 10.6077 92.1957C10.7211 92.1442 10.8654 92.1236 11.0407 92.1236H12.5562L10.3293 95.1648C10.1747 95.371 9.99945 95.5256 9.81388 95.6184C9.9479 95.67 10.0613 95.7318 10.1747 95.8246C10.2778 95.9071 10.3809 96.0205 10.4737 96.1545L12.7417 99.6494H11.185C11.0819 99.6494 10.9995 99.6391 10.9273 99.6287C10.8551 99.6184 10.7933 99.5978 10.7417 99.5669C10.6902 99.536 10.6489 99.505 10.6077 99.4638C10.5665 99.4226 10.5355 99.3813 10.4943 99.3298L8.79327 96.7112C8.73141 96.6184 8.64894 96.5463 8.55615 96.505C8.46337 96.4638 8.32935 96.4432 8.17471 96.4432H7.75203V99.639H6.00977V92.1133H7.75203V95.1648H7.76234Z" fill="#00377B"/>
<path d="M20.4427 99.639H19.0921C18.9375 99.639 18.8241 99.5978 18.7313 99.536C18.6385 99.4638 18.5664 99.3813 18.5148 99.2679L18.0715 97.9586H15.2159L14.7726 99.2679C14.7313 99.3607 14.6695 99.4535 14.5664 99.5256C14.4633 99.6081 14.3499 99.639 14.2056 99.639H12.8447L15.7519 92.1133H17.5251L20.4427 99.639ZM15.6076 96.7628H17.6592L16.9684 94.7009C16.9169 94.5669 16.8653 94.4122 16.8035 94.237C16.7416 94.0617 16.6798 93.8659 16.6282 93.6597C16.5767 93.8659 16.5148 94.0617 16.4633 94.2473C16.4117 94.4226 16.3499 94.5772 16.2983 94.7112L15.6076 96.7628Z" fill="#00377B"/>
<path d="M25.5878 92.123V93.5045H23.4744V99.6385H21.7321V93.5045H19.6084V92.123H25.5878Z" fill="#00377B"/>
<path d="M31.1032 92.123V93.4633H28.0104V95.2158H30.3815V96.5045H28.0104V98.2983H31.1032V99.6385H26.2578V92.123H31.1032Z" fill="#00377B"/>
<path d="M33.8868 96.8555V99.639H32.1445V92.1133H34.5878C35.1342 92.1133 35.5981 92.1751 35.9796 92.2782C36.361 92.3916 36.6806 92.5463 36.9177 92.7421C37.1651 92.938 37.3404 93.1751 37.4435 93.4535C37.5569 93.7215 37.6085 94.0205 37.6085 94.3401C37.6085 94.5875 37.5775 94.8143 37.5054 95.0308C37.4435 95.2473 37.3404 95.4535 37.2167 95.6287C37.093 95.8143 36.928 95.9793 36.7425 96.1236C36.5569 96.2679 36.3404 96.3916 36.093 96.4844C36.2064 96.5463 36.3198 96.6184 36.4229 96.7009C36.526 96.7834 36.6084 96.8968 36.6909 97.0102L38.2889 99.6287H36.7115C36.4229 99.6287 36.2064 99.5153 36.0827 99.2989L34.8353 97.1133C34.7734 97.0205 34.7115 96.9483 34.6394 96.9071C34.5672 96.8659 34.4641 96.8452 34.3301 96.8452H33.8868V96.8555ZM33.8868 95.6597H34.5878C34.8249 95.6597 35.0311 95.6287 35.1961 95.5669C35.361 95.505 35.495 95.4226 35.6084 95.3195C35.7115 95.2164 35.794 95.0927 35.8456 94.9483C35.8971 94.804 35.9177 94.6494 35.9177 94.4844C35.9177 94.1545 35.8146 93.8968 35.5981 93.7112C35.3816 93.5256 35.0517 93.4329 34.5981 93.4329H33.8971V95.6597H33.8868Z" fill="#00377B"/>
<path d="M40.5875 92.123H38.835V99.6488H40.5875V92.123Z" fill="#00377B"/>
<path d="M43.0929 92.1339C43.1444 92.1442 43.1857 92.1545 43.2269 92.1751C43.2682 92.1958 43.3094 92.2164 43.3506 92.2576C43.3919 92.2885 43.4331 92.3401 43.4743 92.3916L47.0517 96.9071C47.0413 96.7628 47.031 96.6184 47.0207 96.4844C47.0104 96.3504 47.0104 96.2164 47.0104 96.103V92.1236H48.5465V99.6494H47.6393C47.5053 99.6494 47.3919 99.6288 47.2991 99.5875C47.2063 99.5463 47.1135 99.4741 47.031 99.3607L43.4846 94.8762C43.495 95.0102 43.5053 95.1339 43.5053 95.2576C43.5156 95.3813 43.5156 95.505 43.5156 95.6081V99.639H41.9795V92.1133H42.897C42.9795 92.1236 43.0414 92.1236 43.0929 92.1339Z" fill="#00377B"/>
<path d="M49.9375 99.639V92.1133H52.7004C53.2262 92.1133 53.6592 92.1648 54.0303 92.2576C54.4014 92.3504 54.6901 92.4947 54.9272 92.6597C55.154 92.8349 55.3293 93.0514 55.4323 93.2988C55.5354 93.5463 55.587 93.8349 55.587 94.1442C55.587 94.3092 55.5664 94.4741 55.5148 94.6287C55.4633 94.7834 55.3911 94.9277 55.288 95.072C55.1849 95.2061 55.0509 95.3298 54.8963 95.4432C54.7313 95.5566 54.5354 95.6494 54.3086 95.7318C54.8035 95.8555 55.1746 96.0514 55.4117 96.3195C55.6488 96.5875 55.7726 96.938 55.7726 97.3607C55.7726 97.6803 55.7107 97.9793 55.587 98.2576C55.4633 98.536 55.2777 98.7731 55.0406 98.9793C54.8035 99.1854 54.5045 99.3401 54.154 99.4638C53.8035 99.5772 53.4014 99.639 52.9478 99.639H49.9375ZM51.6798 95.2885H52.587C52.7829 95.2885 52.9581 95.2782 53.1128 95.2473C53.2674 95.2164 53.4014 95.1751 53.5045 95.103C53.6179 95.0308 53.6901 94.938 53.7519 94.8246C53.8035 94.7009 53.8344 94.5566 53.8344 94.371C53.8344 94.1957 53.8138 94.0411 53.7726 93.9277C53.7313 93.804 53.6591 93.7112 53.5664 93.6391C53.4736 93.5669 53.3602 93.5153 53.2159 93.4844C53.0715 93.4535 52.9066 93.4432 52.7107 93.4432H51.6901V95.2885H51.6798ZM51.6798 96.4535V98.3298H52.9066C53.1334 98.3298 53.3293 98.2988 53.4736 98.237C53.6179 98.1751 53.7313 98.103 53.8138 98.0102C53.8963 97.9174 53.9581 97.8143 53.9891 97.6906C54.02 97.5772 54.0406 97.4535 54.0406 97.3298C54.0406 97.1958 54.02 97.072 53.9891 96.9586C53.9478 96.8452 53.886 96.7525 53.8035 96.6803C53.7107 96.6081 53.5973 96.5463 53.453 96.505C53.3086 96.4638 53.1231 96.4432 52.9066 96.4432H51.6798V96.4535Z" fill="#00377B"/>
<path d="M59.9173 98.2688C60.1545 98.2688 60.3606 98.2276 60.5462 98.1554C60.7318 98.0729 60.8864 97.9698 61.0101 97.8255C61.1441 97.6812 61.2369 97.5059 61.2988 97.2997C61.3709 97.0935 61.4019 96.8564 61.4019 96.5884V92.1348H63.1441V96.5884C63.1441 97.0523 63.072 97.475 62.9173 97.8564C62.7627 98.2379 62.5565 98.5781 62.2782 98.8564C61.9998 99.1348 61.6596 99.3513 61.2575 99.5059C60.8555 99.6605 60.4122 99.743 59.907 99.743C59.4019 99.743 58.9483 99.6605 58.5565 99.5059C58.1545 99.3513 57.8142 99.1348 57.5359 98.8564C57.2575 98.5781 57.0411 98.2482 56.8967 97.8564C56.7524 97.475 56.6699 97.0523 56.6699 96.5884V92.1348H58.4122V96.5884C58.4122 96.8564 58.4431 97.0935 58.5153 97.2997C58.5771 97.5059 58.6802 97.6812 58.8039 97.8358C58.938 97.9801 59.0926 98.0935 59.2782 98.176C59.474 98.2276 59.6905 98.2688 59.9173 98.2688Z" fill="#00377B"/>
<path d="M66.2061 96.8555V99.639H64.4639V92.1133H66.9175C67.4639 92.1133 67.9278 92.1751 68.3092 92.2782C68.6907 92.3916 69.0103 92.5463 69.2474 92.7421C69.4948 92.938 69.6701 93.1751 69.7731 93.4535C69.8865 93.7215 69.9381 94.0205 69.9381 94.3401C69.9381 94.5875 69.9072 94.8143 69.835 95.0308C69.7731 95.2473 69.6701 95.4535 69.5463 95.6287C69.4226 95.8143 69.2577 95.9793 69.0721 96.1236C68.8865 96.2679 68.6701 96.3916 68.4226 96.4844C68.536 96.5463 68.6494 96.6184 68.7525 96.7009C68.8556 96.7834 68.9381 96.8968 69.0206 97.0102L70.6185 99.6287H69.0412C68.7525 99.6287 68.536 99.5153 68.4123 99.2989L67.1649 97.1133C67.103 97.0205 67.0412 96.9483 66.969 96.9071C66.8969 96.8659 66.7938 96.8452 66.6597 96.8452H66.2061V96.8555ZM66.2061 95.6597H66.9072C67.1443 95.6597 67.3505 95.6287 67.5154 95.5669C67.6804 95.505 67.8144 95.4226 67.9278 95.3195C68.0309 95.2164 68.1134 95.0927 68.1649 94.9483C68.2164 94.804 68.2371 94.6494 68.2371 94.4844C68.2371 94.1545 68.1237 93.8968 67.9175 93.7112C67.701 93.5256 67.3711 93.4329 66.9175 93.4329H66.2164V95.6597H66.2061Z" fill="#00377B"/>
<path d="M76.113 99.5359C75.68 99.6596 75.2264 99.7317 74.7419 99.7317C74.1233 99.7317 73.5563 99.639 73.0512 99.4431C72.546 99.2472 72.1027 98.9792 71.7522 98.6389C71.3914 98.2987 71.113 97.8864 70.9171 97.4225C70.7213 96.9482 70.6182 96.4431 70.6182 95.8864C70.6182 95.3297 70.7109 94.8142 70.8965 94.34C71.0821 93.8658 71.3501 93.4637 71.6903 93.1235C72.0305 92.7833 72.4532 92.5152 72.9481 92.3297C73.4429 92.1441 73.9893 92.041 74.5975 92.041C74.9068 92.041 75.2058 92.0616 75.4841 92.1132C75.7625 92.1647 76.0099 92.2369 76.247 92.3297C76.4738 92.4225 76.6903 92.5255 76.8862 92.6493C77.0821 92.773 77.247 92.907 77.4017 93.0513L76.8965 93.8245C76.814 93.9482 76.7109 94.0204 76.5872 94.041C76.4635 94.0719 76.3295 94.041 76.1852 93.9482C76.0511 93.8658 75.9171 93.7936 75.7934 93.7317C75.6697 93.6699 75.546 93.6183 75.4223 93.5874C75.2883 93.5462 75.1542 93.5255 75.0202 93.5049C74.8759 93.4843 74.7213 93.4843 74.546 93.4843C74.2161 93.4843 73.9274 93.5462 73.6594 93.6596C73.4017 93.773 73.1749 93.9379 72.9893 94.1441C72.8037 94.3503 72.6594 94.608 72.5666 94.8967C72.4635 95.1957 72.4223 95.5152 72.4223 95.8761C72.4223 96.2781 72.4738 96.6286 72.5872 96.9379C72.7006 97.2472 72.8553 97.5049 73.0512 97.7214C73.2573 97.9379 73.4945 98.1029 73.7728 98.206C74.0512 98.3194 74.3604 98.3709 74.7006 98.3709C74.9068 98.3709 75.1027 98.3503 75.2676 98.3091C75.4429 98.2678 75.6079 98.2163 75.7625 98.1441V96.9998H75.0202C74.9171 96.9998 74.8243 96.9689 74.7625 96.907C74.7006 96.8451 74.6697 96.773 74.6697 96.6905V95.7317H77.3501V98.907C76.9687 99.206 76.5563 99.4122 76.113 99.5359Z" fill="#00377B"/>
<path d="M83.1546 92.041C83.5257 92.041 83.8556 92.0926 84.1546 92.206C84.4536 92.3091 84.7113 92.4637 84.9175 92.6596C85.134 92.8555 85.2886 93.0823 85.402 93.3503C85.5154 93.6183 85.567 93.907 85.567 94.2266C85.567 94.5049 85.5257 94.7627 85.4536 94.9895C85.3711 95.2266 85.268 95.4431 85.134 95.6596C85 95.8658 84.8453 96.0719 84.6701 96.2781C84.4948 96.474 84.3092 96.6802 84.103 96.8761L82.6288 98.3812C82.8144 98.3297 83 98.2781 83.1855 98.2472C83.3711 98.2163 83.5463 98.1957 83.701 98.1957H85.1031C85.2783 98.1957 85.4123 98.2472 85.5154 98.34C85.6185 98.4328 85.6597 98.5565 85.6597 98.7111V99.6389H80.3711V99.1235C80.3711 99.0204 80.3917 98.9173 80.4329 98.8039C80.4742 98.6905 80.5463 98.5874 80.6494 98.4946L82.8144 96.3091C83 96.1235 83.1546 95.9482 83.2989 95.773C83.4433 95.608 83.5567 95.4431 83.6391 95.2781C83.7319 95.1132 83.7938 94.9482 83.835 94.7833C83.8763 94.6183 83.9072 94.4431 83.9072 94.2678C83.9072 93.9689 83.835 93.7421 83.6907 93.5771C83.5463 93.4122 83.3299 93.34 83.0412 93.34C82.8041 93.34 82.5979 93.4018 82.4433 93.5256C82.2783 93.6493 82.1649 93.8039 82.103 93.9895C82.0309 94.175 81.9381 94.3091 81.8144 94.3709C81.701 94.4328 81.5257 94.4431 81.3092 94.4122L80.4639 94.2575C80.5154 93.8864 80.6288 93.5565 80.7835 93.2781C80.9381 92.9998 81.134 92.773 81.3711 92.5874C81.6082 92.4018 81.8659 92.2575 82.1649 92.175C82.4845 92.0823 82.8144 92.041 83.1546 92.041Z" fill="#00377B"/>
<path d="M94 95.8766C94 96.423 93.9072 96.9282 93.7216 97.3921C93.5361 97.856 93.268 98.2684 92.9278 98.6086C92.5876 98.9591 92.1752 99.2271 91.6907 99.423C91.2062 99.6189 90.6804 99.7117 90.0928 99.7117C89.5051 99.7117 88.9794 99.6086 88.4948 99.423C88.0103 99.2271 87.5979 98.9591 87.2577 98.6086C86.9175 98.2684 86.6495 97.856 86.4639 97.3921C86.2783 96.9282 86.1855 96.423 86.1855 95.8766C86.1855 95.3302 86.2783 94.8251 86.4639 94.3611C86.6495 93.8972 86.9175 93.4849 87.2577 93.1447C87.5979 92.8044 88.0103 92.5261 88.4948 92.3302C88.9794 92.1343 89.5154 92.0312 90.0928 92.0312C90.6701 92.0312 91.2062 92.1343 91.6907 92.3302C92.1649 92.5261 92.5773 92.8044 92.9278 93.1447C93.268 93.4849 93.5361 93.8972 93.7216 94.3611C93.9072 94.8354 94 95.3405 94 95.8766ZM92.2165 95.8766C92.2165 95.5055 92.1649 95.1756 92.0721 94.8766C91.9794 94.5776 91.835 94.3302 91.6598 94.124C91.4845 93.9178 91.2577 93.7632 91 93.6498C90.7422 93.5364 90.4433 93.4848 90.1031 93.4848C89.7629 93.4848 89.4639 93.5364 89.2062 93.6498C88.9381 93.7632 88.7216 93.9178 88.5361 94.124C88.3505 94.3302 88.2165 94.5879 88.1237 94.8766C88.0309 95.1756 87.9794 95.5055 87.9794 95.8766C87.9794 96.2581 88.0309 96.5879 88.1237 96.8869C88.2165 97.1859 88.3608 97.4333 88.5361 97.6395C88.7216 97.8457 88.9381 98.0003 89.2062 98.1137C89.4742 98.2271 89.7732 98.2787 90.1031 98.2787C90.433 98.2787 90.7319 98.2271 91 98.1137C91.2577 98.0003 91.4845 97.8457 91.6598 97.6395C91.8453 97.4333 91.9794 97.1859 92.0721 96.8869C92.1649 96.5879 92.2165 96.2581 92.2165 95.8766Z" fill="#00377B"/>
<path d="M97.1136 92.041C97.4847 92.041 97.8146 92.0926 98.1136 92.206C98.4126 92.3091 98.66 92.4637 98.8765 92.6596C99.0827 92.8555 99.2476 93.0823 99.361 93.3503C99.4744 93.6183 99.5259 93.907 99.5259 94.2266C99.5259 94.5049 99.4847 94.7627 99.4125 94.9895C99.3404 95.2163 99.227 95.4431 99.093 95.6596C98.9589 95.8658 98.8043 96.0719 98.629 96.2781C98.4538 96.474 98.2682 96.6802 98.062 96.8761L96.5878 98.3812C96.7734 98.3297 96.9589 98.2781 97.1445 98.2472C97.3301 98.2163 97.5053 98.1957 97.66 98.1957H99.062C99.2373 98.1957 99.3713 98.2472 99.4744 98.34C99.5775 98.4328 99.6187 98.5565 99.6187 98.7111V99.6389H94.3301V99.1235C94.3301 99.0204 94.3507 98.9173 94.3919 98.8039C94.4332 98.6905 94.5053 98.5874 94.6084 98.4946L96.7734 96.3091C96.9589 96.1235 97.1239 95.9482 97.2579 95.773C97.3919 95.608 97.5053 95.4431 97.5981 95.2781C97.6909 95.1132 97.7528 94.9482 97.794 94.7833C97.8352 94.6183 97.8662 94.4431 97.8662 94.2678C97.8662 93.9689 97.794 93.7421 97.6497 93.5771C97.5053 93.4122 97.2888 93.34 97.0002 93.34C96.7631 93.34 96.5569 93.4018 96.4022 93.5256C96.2373 93.6493 96.1239 93.8039 96.062 93.9895C95.9899 94.175 95.8971 94.3091 95.7837 94.3709C95.6703 94.4328 95.5053 94.4431 95.2785 94.4122L94.4332 94.2575C94.4847 93.8864 94.5981 93.5565 94.7528 93.2781C94.9074 92.9998 95.1033 92.773 95.3404 92.5874C95.5775 92.4018 95.8352 92.2575 96.1342 92.175C96.4435 92.0823 96.7631 92.041 97.1136 92.041Z" fill="#00377B"/>
<path d="M102.979 92.041C103.35 92.041 103.68 92.0926 103.969 92.1956C104.258 92.2987 104.505 92.4431 104.701 92.6183C104.897 92.7936 105.051 93.0101 105.155 93.2369C105.258 93.474 105.309 93.7214 105.309 93.9792C105.309 94.2163 105.289 94.4225 105.237 94.608C105.185 94.7833 105.113 94.9482 105.02 95.0719C104.928 95.206 104.814 95.3194 104.67 95.4122C104.526 95.5049 104.371 95.5874 104.196 95.6493C105.031 95.9379 105.443 96.5049 105.443 97.3503C105.443 97.7524 105.371 98.0926 105.227 98.3915C105.082 98.6905 104.886 98.9379 104.649 99.1338C104.402 99.3297 104.124 99.474 103.804 99.5771C103.484 99.6802 103.155 99.7214 102.804 99.7214C102.443 99.7214 102.124 99.6802 101.845 99.608C101.567 99.5359 101.319 99.4122 101.103 99.2472C100.886 99.0823 100.691 98.8761 100.536 98.6183C100.371 98.3606 100.227 98.0616 100.113 97.7111L100.825 97.4225C101.01 97.3503 101.185 97.3297 101.34 97.3709C101.495 97.4018 101.608 97.4843 101.68 97.608C101.835 97.8967 102 98.1029 102.175 98.2266C102.35 98.3606 102.557 98.4225 102.783 98.4225C102.959 98.4225 103.113 98.3915 103.247 98.3297C103.381 98.2678 103.495 98.1957 103.577 98.0926C103.67 97.9998 103.732 97.8864 103.773 97.773C103.814 97.6493 103.845 97.5256 103.845 97.4018C103.845 97.2369 103.835 97.0926 103.814 96.9689C103.794 96.8348 103.732 96.7317 103.629 96.639C103.526 96.5462 103.371 96.474 103.165 96.4225C102.959 96.3709 102.67 96.3503 102.299 96.3503V95.2472C102.608 95.2472 102.866 95.2266 103.062 95.175C103.258 95.1235 103.402 95.0616 103.505 94.9792C103.608 94.8967 103.68 94.7936 103.711 94.6699C103.742 94.5565 103.763 94.4225 103.763 94.2678C103.763 93.9689 103.691 93.742 103.546 93.5874C103.402 93.4225 103.185 93.3503 102.897 93.3503C102.66 93.3503 102.453 93.4121 102.299 93.5359C102.134 93.6596 102.02 93.8142 101.959 93.9998C101.886 94.1853 101.794 94.3194 101.68 94.3812C101.567 94.4431 101.392 94.4534 101.175 94.4225L100.33 94.2678C100.381 93.8967 100.495 93.5668 100.649 93.2884C100.804 93.0101 101 92.7833 101.237 92.5977C101.474 92.4122 101.732 92.2678 102.031 92.1853C102.319 92.0823 102.639 92.041 102.979 92.041Z" fill="#00377B"/>
<path d="M129.495 6.9082H128.443V99.5165H129.495V6.9082Z" fill="#00377B"/>
<path d="M157.68 40.9175L160.68 31.8969C160.742 31.7216 160.793 31.5051 160.845 31.2783C160.876 31.3917 160.907 31.4948 160.938 31.6082C160.969 31.7113 161 31.8144 161.03 31.9072L164.01 40.9278H165.567L169.319 28.866H167.969C167.824 28.866 167.69 28.9072 167.587 28.9897C167.474 29.0722 167.412 29.1649 167.381 29.2783L164.958 37.4433C164.917 37.5979 164.886 37.7526 164.845 37.9278C164.804 38.1031 164.773 38.2886 164.752 38.4845C164.68 38.1031 164.587 37.7526 164.484 37.4433L161.742 29.2783C161.69 29.1546 161.618 29.0618 161.525 28.9794C161.433 28.9072 161.309 28.866 161.154 28.866H160.649C160.505 28.866 160.381 28.9072 160.268 28.9897C160.164 29.0722 160.092 29.1649 160.061 29.2783L157.309 37.4433C157.257 37.5979 157.206 37.7732 157.164 37.9484C157.123 38.134 157.082 38.3196 157.041 38.5258C157 38.3299 156.958 38.134 156.927 37.9588C156.886 37.7732 156.855 37.5979 156.814 37.4433L154.402 29.2783C154.371 29.1546 154.299 29.0515 154.195 28.9794C154.092 28.9072 153.969 28.866 153.814 28.866H152.36L156.123 40.9175H157.68Z" fill="#00377B"/>
<path d="M171.423 39.3195C171.949 39.8659 172.578 40.2783 173.31 40.5876C174.041 40.8865 174.846 41.0412 175.743 41.0412C176.629 41.0412 177.444 40.8968 178.176 40.5876C178.907 40.2783 179.536 39.8659 180.062 39.3195C180.578 38.7731 180.99 38.1236 181.279 37.3711C181.567 36.6185 181.712 35.7834 181.712 34.8865C181.712 33.9896 181.567 33.1649 181.279 32.4123C180.99 31.6597 180.588 31.0102 180.062 30.4638C179.536 29.9175 178.918 29.4948 178.176 29.1958C177.444 28.8865 176.629 28.7422 175.743 28.7422C174.856 28.7422 174.041 28.8968 173.31 29.1958C172.578 29.5051 171.949 29.9278 171.423 30.4638C170.897 31.0102 170.495 31.6597 170.206 32.4123C169.918 33.1649 169.773 33.9896 169.773 34.8865C169.773 35.7834 169.918 36.6185 170.206 37.3711C170.495 38.1236 170.897 38.7731 171.423 39.3195ZM171.835 32.9381C172.031 32.3607 172.32 31.8762 172.681 31.4741C173.052 31.0721 173.495 30.7628 174.011 30.5566C174.526 30.3401 175.103 30.237 175.743 30.237C176.382 30.237 176.959 30.3401 177.474 30.5566C177.99 30.7731 178.433 31.0721 178.804 31.4741C179.165 31.8762 179.454 32.3607 179.65 32.9381C179.846 33.5154 179.938 34.1649 179.938 34.8865C179.938 35.6185 179.835 36.268 179.65 36.8453C179.454 37.4226 179.176 37.9071 178.804 38.3092C178.433 38.7113 177.99 39.0102 177.474 39.2267C176.959 39.4329 176.382 39.5463 175.743 39.5463C175.103 39.5463 174.526 39.4432 174.011 39.2267C173.495 39.0102 173.052 38.7113 172.681 38.3092C172.31 37.9071 172.031 37.4226 171.835 36.8453C171.639 36.268 171.536 35.6185 171.536 34.8865C171.536 34.1649 171.629 33.5154 171.835 32.9381Z" fill="#00377B"/>
<path d="M190.887 34.4123C191.134 34.1133 191.33 33.7834 191.454 33.4226C191.588 33.0515 191.65 32.6597 191.65 32.2267C191.65 31.7216 191.567 31.2577 191.392 30.8453C191.217 30.4329 190.949 30.0721 190.578 29.7834C190.207 29.4948 189.743 29.268 189.186 29.1133C188.629 28.9587 187.959 28.8762 187.186 28.8762H183.732V40.9278H185.464V35.9587H186.66C186.887 35.9587 187.052 35.9896 187.165 36.0515C187.279 36.1133 187.382 36.2061 187.475 36.3401L190.495 40.5669C190.64 40.8144 190.866 40.9381 191.186 40.9381H192.732L189.299 36.2164C189.145 35.9793 188.949 35.8041 188.732 35.67C189.196 35.5669 189.598 35.402 189.959 35.1958C190.341 34.9587 190.64 34.701 190.887 34.4123ZM189.784 33.2886C189.66 33.5669 189.485 33.8144 189.248 34.0205C189.011 34.2267 188.722 34.3917 188.372 34.4948C188.021 34.6082 187.609 34.6597 187.145 34.6597H185.485V30.2061H187.207C188.134 30.2061 188.825 30.3814 189.279 30.7422C189.743 31.103 189.97 31.6288 189.97 32.3298C189.97 32.6907 189.908 33.0102 189.784 33.2886Z" fill="#00377B"/>
<path d="M200.99 39.4536H195.845V28.866H194.113V40.9175H200.99V39.4536Z" fill="#00377B"/>
<path d="M209.412 29.299C208.68 29.0103 207.866 28.866 206.979 28.866H202.464V40.9175H206.979C207.866 40.9175 208.68 40.7732 209.412 40.4845C210.144 40.1959 210.773 39.7835 211.299 39.2577C211.825 38.7319 212.227 38.0928 212.515 37.3505C212.804 36.6082 212.948 35.7835 212.948 34.8866C212.948 33.9897 212.804 33.1752 212.515 32.433C212.227 31.6907 211.814 31.0618 211.299 30.5258C210.773 30 210.144 29.5876 209.412 29.299ZM210.876 36.835C210.68 37.4124 210.402 37.8969 210.031 38.2886C209.66 38.6804 209.216 38.9897 208.701 39.1959C208.186 39.402 207.608 39.5051 206.969 39.5051H204.186V30.2577H206.969C207.608 30.2577 208.186 30.3608 208.701 30.567C209.216 30.7732 209.66 31.0825 210.031 31.4742C210.402 31.866 210.68 32.3505 210.876 32.9278C211.072 33.5051 211.165 34.1443 211.165 34.8763C211.165 35.6082 211.072 36.268 210.876 36.835Z" fill="#00377B"/>
<path d="M153.475 48.3815V55.6804C153.475 56.3815 153.588 57.0309 153.805 57.6289C154.031 58.2268 154.351 58.7423 154.763 59.1856C155.176 59.6186 155.691 59.9691 156.279 60.2062C156.877 60.4536 157.547 60.5773 158.299 60.5773C159.042 60.5773 159.712 60.4536 160.32 60.2062C160.918 59.9588 161.423 59.6186 161.846 59.1856C162.258 58.7526 162.578 58.2268 162.805 57.6289C163.031 57.0309 163.145 56.3815 163.145 55.6804V48.3815H161.413V55.6804C161.413 56.1753 161.341 56.6289 161.207 57.0412C161.062 57.4536 160.866 57.8041 160.598 58.1031C160.33 58.4021 160.011 58.6289 159.619 58.7938C159.238 58.9588 158.805 59.0412 158.31 59.0412C157.825 59.0412 157.392 58.9588 157 58.7938C156.619 58.6289 156.289 58.3918 156.021 58.0928C155.753 57.7938 155.557 57.4433 155.413 57.0206C155.268 56.6083 155.207 56.1546 155.207 55.6598V48.3608H153.475V48.3815Z" fill="#00377B"/>
<path d="M174.391 60.3608C174.484 60.4123 174.598 60.433 174.732 60.433H175.608V48.3814H174.092V56.6907C174.092 56.8144 174.092 56.9587 174.103 57.1134C174.113 57.268 174.123 57.4123 174.134 57.567L167.278 48.6701C167.185 48.5464 167.103 48.4639 167.02 48.4226C166.948 48.3917 166.835 48.3711 166.68 48.3711H165.783V60.4226H167.309V52.0515C167.309 51.9278 167.309 51.7938 167.299 51.6494C167.288 51.5051 167.278 51.3608 167.268 51.2165L174.134 60.1134C174.206 60.2268 174.299 60.3092 174.391 60.3608Z" fill="#00377B"/>
<path d="M180.093 48.3813H178.351V60.4329H180.093V48.3813Z" fill="#00377B"/>
<path d="M183.206 48.4948C183.113 48.4226 182.979 48.3813 182.835 48.3813H181.443L186.351 60.4329H187.907L192.814 48.3813H191.423C191.278 48.3813 191.155 48.4226 191.052 48.5051C190.949 48.5875 190.876 48.6803 190.845 48.7937L187.546 57.0824C187.464 57.2783 187.402 57.4948 187.33 57.7319C187.268 57.969 187.206 58.2164 187.155 58.4741C187.093 58.2164 187.021 57.969 186.959 57.7319C186.887 57.4948 186.815 57.2783 186.732 57.0824L183.423 48.7937C183.371 48.67 183.299 48.5669 183.206 48.4948Z" fill="#00377B"/>
<path d="M201.629 59.0205H195.907V55.0308H200.516V53.67H195.907V49.7834H201.629V48.3813H194.165V60.4329H201.629V59.0205Z" fill="#00377B"/>
<path d="M210.515 53.9279C210.762 53.629 210.958 53.2991 211.082 52.9382C211.216 52.5671 211.278 52.1753 211.278 51.7424C211.278 51.2372 211.195 50.7733 211.02 50.3609C210.845 49.9485 210.577 49.5877 210.206 49.2991C209.845 49.0104 209.381 48.7836 208.814 48.629C208.257 48.4743 207.587 48.3918 206.814 48.3918H203.36V60.4434H205.092V55.4743H206.288C206.515 55.4743 206.68 55.5052 206.793 55.5671C206.907 55.629 207.01 55.7217 207.103 55.8558L210.123 60.0826C210.268 60.33 210.494 60.4537 210.814 60.4537H212.36L208.927 55.732C208.773 55.4949 208.587 55.3197 208.36 55.1857C208.814 55.0826 209.226 54.9176 209.587 54.7114C209.958 54.4743 210.257 54.2166 210.515 53.9279ZM209.402 52.8042C209.278 53.0826 209.103 53.33 208.866 53.5362C208.628 53.7424 208.34 53.9073 207.979 54.0104C207.628 54.1238 207.216 54.1753 206.752 54.1753H205.092V49.7217H206.814C207.731 49.7217 208.433 49.897 208.886 50.2578C209.35 50.6186 209.577 51.1444 209.577 51.8455C209.587 52.2063 209.525 52.5259 209.402 52.8042Z" fill="#00377B"/>
<path d="M216.66 60.567C217.309 60.567 217.876 60.4639 218.381 60.268C218.886 60.0722 219.309 59.7938 219.66 59.4536C220.01 59.1134 220.268 58.7113 220.453 58.2474C220.639 57.7835 220.732 57.2887 220.732 56.7526C220.732 56.2577 220.649 55.8351 220.484 55.4845C220.319 55.1443 220.103 54.8454 219.835 54.6083C219.567 54.3711 219.258 54.1753 218.917 54.0206C218.577 53.866 218.227 53.732 217.866 53.6083C217.505 53.4845 217.154 53.3711 216.814 53.2577C216.474 53.1443 216.165 53.0103 215.897 52.8557C215.629 52.701 215.412 52.5155 215.247 52.3093C215.082 52.0928 215 51.8247 215 51.4948C215 51.2371 215.041 51 215.134 50.7732C215.227 50.5567 215.361 50.3608 215.546 50.1959C215.732 50.0309 215.959 49.9072 216.227 49.8144C216.495 49.7217 216.814 49.6804 217.175 49.6804C217.546 49.6804 217.876 49.732 218.144 49.8144C218.412 49.9072 218.639 50.0103 218.835 50.1237C219.031 50.2371 219.185 50.3402 219.319 50.433C219.453 50.5258 219.567 50.567 219.66 50.567C219.752 50.567 219.835 50.5464 219.886 50.5052C219.948 50.4639 220 50.4021 220.051 50.3093L220.484 49.4742C220.062 49.0722 219.577 48.7629 219.01 48.5464C218.443 48.3299 217.825 48.2268 217.154 48.2268C216.546 48.2268 216.01 48.3196 215.546 48.5052C215.082 48.6907 214.691 48.9381 214.361 49.2474C214.041 49.5567 213.804 49.9072 213.629 50.3196C213.464 50.7217 213.371 51.134 213.371 51.567C213.371 52.1031 213.453 52.5567 213.618 52.9175C213.783 53.2784 214 53.5876 214.268 53.8247C214.536 54.0619 214.845 54.268 215.185 54.4124C215.526 54.567 215.876 54.6907 216.237 54.8144C216.598 54.9278 216.948 55.0412 217.288 55.1443C217.629 55.2474 217.938 55.3814 218.206 55.5258C218.474 55.6804 218.691 55.866 218.855 56.0928C219.02 56.3196 219.103 56.6083 219.103 56.9691C219.103 57.2887 219.051 57.5773 218.938 57.8454C218.835 58.1134 218.68 58.3299 218.474 58.5155C218.268 58.701 218.02 58.8454 217.721 58.9485C217.422 59.0515 217.093 59.1031 216.711 59.1031C216.258 59.1031 215.876 59.0412 215.556 58.9175C215.237 58.7938 214.969 58.6598 214.742 58.5155C214.515 58.3711 214.33 58.2268 214.175 58.1031C214.02 57.9794 213.886 57.9175 213.763 57.9175C213.68 57.9175 213.598 57.9381 213.536 57.9794C213.464 58.0206 213.412 58.0722 213.361 58.1443L212.855 58.9691C213.082 59.2062 213.33 59.4227 213.618 59.6186C213.897 59.8144 214.206 59.9794 214.526 60.1134C214.845 60.2474 215.185 60.3608 215.546 60.433C215.897 60.5258 216.268 60.567 216.66 60.567Z" fill="#00377B"/>
<path d="M224.475 48.3813H222.732V60.4329H224.475V48.3813Z" fill="#00377B"/>
<path d="M225.928 49.835H229.794V60.4329H231.526V49.835H235.371V48.3813H225.928V49.835Z" fill="#00377B"/>
<path d="M245.144 48.3814C245 48.3814 244.876 48.4226 244.783 48.5051C244.691 48.5876 244.608 48.6804 244.557 48.7835L241.897 53.3402C241.794 53.5464 241.711 53.7319 241.629 53.9175C241.546 54.1031 241.474 54.2783 241.412 54.4536C241.35 54.2783 241.268 54.0927 241.185 53.9175C241.103 53.7422 241.01 53.5464 240.897 53.3402L238.237 48.7835C238.175 48.6598 238.093 48.567 238 48.4845C237.907 48.4123 237.783 48.3711 237.639 48.3711H236.113L240.536 55.6494V60.4226H242.268V55.6494L246.68 48.3711H245.144V48.3814Z" fill="#00377B"/>
<path d="M163.443 74.1031H159.691V75.0825C159.691 75.1752 159.722 75.2577 159.794 75.3196C159.866 75.3814 159.949 75.4124 160.062 75.4124H161.866V77.9897C161.66 78.0928 161.464 78.1855 161.258 78.268C161.052 78.3505 160.845 78.4227 160.629 78.4845C160.412 78.5464 160.186 78.5876 159.949 78.6185C159.711 78.6495 159.454 78.6598 159.186 78.6598C158.495 78.6598 157.866 78.5567 157.299 78.3402C156.732 78.1237 156.258 77.8144 155.866 77.402C155.474 76.9897 155.165 76.4948 154.959 75.9072C154.742 75.3196 154.639 74.6495 154.639 73.8969C154.639 73.1855 154.742 72.5464 154.949 71.969C155.155 71.3917 155.443 70.9072 155.825 70.5051C156.206 70.1031 156.66 69.7938 157.196 69.5773C157.732 69.3608 158.33 69.2474 159 69.2474C159.454 69.2474 159.845 69.2783 160.175 69.3505C160.505 69.4227 160.794 69.5051 161.031 69.5979C161.278 69.701 161.485 69.8041 161.66 69.9072C161.835 70.0103 162 70.1134 162.144 70.1959C162.289 70.2886 162.423 70.3196 162.557 70.2886C162.681 70.2577 162.784 70.1855 162.866 70.0618L163.351 69.268C163.103 69.0309 162.825 68.8247 162.526 68.6288C162.227 68.4433 161.897 68.2783 161.546 68.1546C161.196 68.0206 160.815 67.9175 160.402 67.8453C159.99 67.7732 159.546 67.7319 159.062 67.7319C158.114 67.7319 157.258 67.8763 156.505 68.1752C155.742 68.4742 155.093 68.8969 154.557 69.433C154.021 69.9794 153.608 70.6288 153.32 71.3814C153.031 72.134 152.887 72.969 152.887 73.8866C152.887 74.7938 153.031 75.6288 153.34 76.3814C153.639 77.134 154.062 77.7835 154.619 78.3299C155.175 78.8763 155.845 79.2989 156.629 79.5979C157.412 79.8969 158.289 80.0515 159.258 80.0515C160.072 80.0515 160.815 79.9484 161.505 79.7319C162.196 79.5154 162.845 79.1959 163.454 78.7526V74.1031H163.443Z" fill="#00377B"/>
<path d="M170.989 67.897H169.237L164.433 79.9485H165.773C165.917 79.9485 166.041 79.9073 166.144 79.8248C166.247 79.7423 166.319 79.6496 166.35 79.5362L167.433 76.7011H172.783L173.866 79.5362C173.917 79.6599 173.989 79.7526 174.082 79.8351C174.175 79.9073 174.299 79.9485 174.453 79.9485H175.793L170.989 67.897ZM167.917 75.464L169.742 70.732C169.804 70.5774 169.866 70.4021 169.927 70.2062C169.989 70.0001 170.051 69.7836 170.113 69.5568C170.175 69.7939 170.237 70.0104 170.299 70.2062C170.36 70.4021 170.422 70.5774 170.484 70.732L172.309 75.4743H167.917V75.464Z" fill="#00377B"/>
<path d="M188.123 67.9382C188.031 67.9691 187.959 68.0516 187.886 68.1959L183.886 75.464C183.804 75.6083 183.732 75.763 183.67 75.9176C183.608 76.0722 183.546 76.2269 183.484 76.3918C183.361 76.0619 183.227 75.763 183.093 75.4846L179.02 68.1959C178.948 68.0516 178.866 67.9691 178.783 67.9382C178.701 67.9073 178.577 67.897 178.422 67.897H177.134V79.9485H178.649V71.2887C178.649 71.1547 178.649 71.0207 178.639 70.8764C178.629 70.732 178.618 70.5774 178.608 70.4331L182.742 77.866C182.876 78.1341 183.082 78.2681 183.371 78.2681H183.608C183.742 78.2681 183.866 78.2372 183.979 78.165C184.093 78.1032 184.175 78.0001 184.237 77.866L188.288 70.464C188.278 70.6083 188.268 70.7526 188.268 70.897C188.257 71.0413 188.257 71.165 188.257 71.2887V79.9485H189.773V67.897H188.484C188.33 67.897 188.216 67.9073 188.123 67.9382Z" fill="#00377B"/>
<path d="M199.876 78.5362H194.154V74.5465H198.763V73.1856H194.154V69.299H199.876V67.897H192.412V79.9382H199.876V78.5362Z" fill="#00377B"/>
<path d="M208.011 78.969C208.361 78.6288 208.619 78.2267 208.805 77.7628C208.99 77.2989 209.073 76.8041 209.073 76.268C209.073 75.7731 208.99 75.3504 208.825 74.9999C208.66 74.6597 208.444 74.3608 208.176 74.1236C207.908 73.8865 207.598 73.6906 207.258 73.536C206.918 73.3814 206.567 73.2473 206.207 73.1236C205.846 72.9999 205.495 72.8865 205.155 72.7731C204.815 72.6597 204.506 72.5257 204.238 72.3711C203.969 72.2164 203.753 72.0308 203.588 71.8247C203.423 71.6082 203.341 71.3401 203.341 71.0102C203.341 70.7525 203.392 70.5154 203.475 70.2886C203.567 70.0721 203.701 69.8762 203.887 69.7113C204.073 69.5463 204.299 69.4226 204.567 69.3298C204.835 69.237 205.155 69.1958 205.516 69.1958C205.887 69.1958 206.217 69.237 206.485 69.3298C206.753 69.4226 206.99 69.5257 207.176 69.6391C207.372 69.7525 207.526 69.8556 207.66 69.9484C207.784 70.0412 207.908 70.0824 208 70.0824C208.093 70.0824 208.176 70.0618 208.227 70.0205C208.289 69.9793 208.341 69.9175 208.392 69.8247L208.815 68.9896C208.392 68.5875 207.908 68.2783 207.341 68.0618C206.774 67.8453 206.155 67.7422 205.485 67.7422C204.877 67.7422 204.341 67.835 203.877 68.0205C203.413 68.2061 203.011 68.4535 202.701 68.7628C202.382 69.0721 202.134 69.4226 201.969 69.8247C201.805 70.2267 201.722 70.6391 201.722 71.0721C201.722 71.6082 201.805 72.0618 201.969 72.4226C202.134 72.7834 202.351 73.0927 202.619 73.3298C202.887 73.5772 203.196 73.7731 203.536 73.9174C203.877 74.0721 204.227 74.2061 204.588 74.3195C204.949 74.4329 205.299 74.5463 205.64 74.6494C205.98 74.7525 206.289 74.8865 206.557 75.0309C206.825 75.1855 207.042 75.3711 207.207 75.5979C207.372 75.8247 207.454 76.1133 207.454 76.4742C207.454 76.7937 207.402 77.0824 207.289 77.3504C207.186 77.6082 207.031 77.835 206.825 78.0205C206.619 78.2061 206.372 78.3504 206.073 78.4535C205.774 78.5566 205.444 78.6082 205.062 78.6082C204.609 78.6082 204.217 78.5463 203.908 78.4226C203.588 78.2989 203.32 78.1649 203.083 78.0102C202.856 77.8659 202.671 77.7319 202.516 77.6082C202.361 77.4845 202.227 77.4226 202.114 77.4226C202.031 77.4226 201.949 77.4432 201.877 77.4845C201.805 77.5257 201.753 77.5772 201.701 77.6494L201.196 78.4742C201.423 78.7113 201.671 78.9278 201.959 79.1236C202.238 79.3195 202.547 79.4845 202.866 79.6185C203.186 79.7525 203.526 79.8659 203.887 79.9381C204.248 80.0102 204.619 80.0515 205.011 80.0515C205.65 80.0515 206.227 79.9484 206.732 79.7525C207.238 79.5772 207.66 79.3092 208.011 78.969Z" fill="#00377B"/>
<path d="M159.619 93.6393C159.351 93.4021 159.041 93.2063 158.701 93.0516C158.361 92.897 158.011 92.763 157.65 92.6393C157.289 92.5155 156.938 92.4021 156.598 92.2887C156.258 92.1753 155.949 92.0413 155.681 91.8867C155.413 91.732 155.196 91.5465 155.031 91.3403C154.866 91.1238 154.784 90.8557 154.784 90.5258C154.784 90.2681 154.825 90.031 154.928 89.8042C155.021 89.5877 155.155 89.3918 155.34 89.2269C155.526 89.0619 155.753 88.9382 156.021 88.8454C156.289 88.7527 156.608 88.7114 156.969 88.7114C157.34 88.7114 157.67 88.7527 157.938 88.8454C158.206 88.9382 158.433 89.0413 158.629 89.1547C158.825 89.2681 158.98 89.3712 159.114 89.464C159.237 89.5568 159.361 89.598 159.454 89.598C159.547 89.598 159.629 89.5774 159.681 89.5362C159.743 89.4949 159.794 89.4228 159.846 89.3403L160.279 88.5052C159.856 88.1032 159.371 87.7939 158.804 87.5774C158.237 87.3609 157.619 87.2578 156.949 87.2578C156.34 87.2578 155.804 87.3506 155.34 87.5362C154.877 87.7217 154.485 87.9691 154.165 88.2784C153.846 88.5877 153.598 88.9382 153.433 89.3403C153.268 89.7424 153.186 90.1547 153.186 90.5877C153.186 91.1238 153.268 91.5774 153.433 91.9382C153.598 92.299 153.815 92.6083 154.083 92.8454C154.351 93.0929 154.66 93.2887 155 93.4434C155.34 93.598 155.691 93.7217 156.052 93.8454C156.413 93.9588 156.763 94.0722 157.103 94.1753C157.444 94.2784 157.753 94.4124 158.021 94.5671C158.289 94.7217 158.505 94.9073 158.67 95.1341C158.835 95.3609 158.918 95.6496 158.918 96.0104C158.918 96.33 158.866 96.6186 158.753 96.8867C158.65 97.1547 158.495 97.3712 158.289 97.5568C158.083 97.7423 157.835 97.8867 157.536 97.9898C157.237 98.0929 156.907 98.1444 156.526 98.1444C156.072 98.1444 155.681 98.0826 155.371 97.9588C155.052 97.8351 154.784 97.7011 154.557 97.5568C154.33 97.4124 154.145 97.2681 153.99 97.1444C153.835 97.0207 153.701 96.9588 153.588 96.9588C153.505 96.9588 153.423 96.9795 153.361 97.0207C153.289 97.0619 153.237 97.1135 153.186 97.1856L152.681 98.0104C152.907 98.2475 153.155 98.464 153.444 98.6599C153.722 98.8557 154.031 99.0207 154.351 99.1547C154.67 99.2887 155.011 99.4021 155.371 99.4743C155.732 99.5568 156.103 99.5877 156.495 99.5877C157.145 99.5877 157.712 99.4846 158.217 99.2887C158.722 99.0929 159.145 98.8145 159.495 98.4743C159.846 98.1341 160.103 97.732 160.289 97.2681C160.474 96.8042 160.557 96.3094 160.557 95.7836C160.557 95.2887 160.474 94.866 160.31 94.5155C160.103 94.1753 159.887 93.8867 159.619 93.6393Z" fill="#00377B"/>
<path d="M170.206 94.7112C170.206 95.206 170.134 95.6596 170 96.072C169.856 96.4844 169.66 96.8349 169.392 97.1339C169.124 97.4328 168.804 97.6596 168.423 97.8246C168.041 97.9895 167.608 98.072 167.113 98.072C166.629 98.072 166.186 97.9895 165.804 97.8246C165.423 97.6596 165.093 97.4225 164.825 97.1236C164.557 96.8246 164.35 96.4638 164.216 96.0514C164.072 95.639 164.01 95.1854 164.01 94.6906V87.3916H162.278V94.6906C162.278 95.3916 162.392 96.0411 162.619 96.639C162.845 97.237 163.165 97.7524 163.577 98.1957C163.99 98.6287 164.505 98.9792 165.103 99.2164C165.701 99.4638 166.371 99.5875 167.124 99.5875C167.866 99.5875 168.536 99.4638 169.134 99.2164C169.732 98.9689 170.237 98.6287 170.66 98.1957C171.072 97.7627 171.392 97.237 171.619 96.639C171.845 96.0411 171.959 95.3916 171.959 94.6906V87.3916H170.227V94.7112H170.206Z" fill="#00377B"/>
<path d="M185.557 87.4536C185.464 87.4845 185.392 87.567 185.32 87.7113L181.32 94.9794C181.237 95.1237 181.165 95.2783 181.103 95.433C181.042 95.5876 180.98 95.7422 180.918 95.9072C180.794 95.5876 180.66 95.2783 180.526 95L176.454 87.7113C176.382 87.567 176.299 87.4845 176.217 87.4536C176.134 87.4227 176.011 87.4124 175.856 87.4124H174.567V99.4639H176.093V90.7938C176.093 90.6701 176.083 90.5258 176.073 90.3814C176.062 90.2371 176.052 90.0825 176.042 89.9381L180.176 97.3711C180.31 97.6391 180.516 97.7732 180.805 97.7732H181.052C181.186 97.7732 181.31 97.7423 181.413 97.6701C181.526 97.5979 181.609 97.5051 181.67 97.3711L185.722 89.969C185.712 90.1134 185.701 90.2577 185.701 90.402C185.701 90.5464 185.691 90.6701 185.691 90.7938V99.4639H187.207V87.4124H185.918C185.763 87.4124 185.65 87.4227 185.557 87.4536Z" fill="#00377B"/>
<path d="M200.938 87.4536C200.845 87.4845 200.773 87.567 200.701 87.7113L196.701 94.9794C196.618 95.1237 196.546 95.2783 196.484 95.433C196.422 95.5876 196.361 95.7422 196.299 95.9072C196.175 95.5876 196.041 95.2783 195.907 95L191.835 87.7113C191.763 87.567 191.68 87.4845 191.598 87.4536C191.515 87.4227 191.392 87.4124 191.237 87.4124H189.948V99.4639H191.464V90.7938C191.464 90.6701 191.464 90.5258 191.453 90.3814C191.443 90.2371 191.433 90.0825 191.422 89.9381L195.556 97.3711C195.691 97.6391 195.897 97.7732 196.185 97.7732H196.422C196.556 97.7732 196.68 97.7423 196.794 97.6701C196.907 97.5979 196.989 97.5051 197.051 97.3711L201.103 89.969C201.093 90.1134 201.082 90.2577 201.082 90.402C201.072 90.5464 201.072 90.6701 201.072 90.7938V99.4639H202.587V87.4124H201.299C201.144 87.4124 201.02 87.4227 200.938 87.4536Z" fill="#00377B"/>
<path d="M207.062 94.0618H211.67V92.701H207.062V88.8247H212.783V87.4124H205.319V99.4639H212.783L212.794 98.0515H207.062V94.0618Z" fill="#00377B"/>
<path d="M219.526 94.1958C219.99 94.0824 220.392 93.9278 220.753 93.7216C221.114 93.5051 221.413 93.2577 221.67 92.9587C221.928 92.6597 222.114 92.3298 222.237 91.969C222.371 91.5979 222.433 91.2061 222.433 90.7731C222.433 90.268 222.351 89.804 222.175 89.3917C222 88.9793 221.732 88.6185 221.361 88.3298C220.99 88.0309 220.536 87.8144 219.969 87.6597C219.413 87.5051 218.742 87.4226 217.969 87.4226H214.516V99.4742H216.248V94.5051H217.443C217.67 94.5051 217.835 94.536 217.949 94.5875C218.062 94.6494 218.165 94.7422 218.258 94.8762L221.279 99.103C221.423 99.3504 221.65 99.4742 221.969 99.4742H223.516L220.083 94.7525C219.928 94.5051 219.742 94.3195 219.526 94.1958ZM217.918 93.2164H216.258V88.7628H217.98C218.907 88.7628 219.598 88.9381 220.052 89.2989C220.516 89.6597 220.742 90.1855 220.742 90.8865C220.742 91.237 220.681 91.5463 220.557 91.835C220.433 92.1133 220.258 92.3607 220.021 92.5669C219.784 92.7731 219.495 92.9278 219.134 93.0412C218.794 93.1649 218.382 93.2164 217.918 93.2164Z" fill="#00377B"/>
<path d="M177.392 14.0308C177.825 14.3917 178.34 14.6597 178.918 14.8349C179.505 15.0205 180.124 15.103 180.794 15.103H188.474H188.505C188.814 15.103 189.082 15.2061 189.299 15.4226C189.505 15.6391 189.619 15.8968 189.619 16.2061C189.619 16.5257 189.505 16.7834 189.299 16.9999C189.082 17.2164 188.825 17.3195 188.505 17.3195H177.113C177.021 17.3195 176.938 17.3917 176.918 17.4844L176.443 20.1855C176.423 20.3092 176.515 20.4123 176.639 20.4123H189.289H189.32C189.876 20.4123 190.423 20.3092 190.928 20.1133C191.443 19.9071 191.887 19.6288 192.258 19.2576C192.629 18.8865 192.928 18.4432 193.144 17.9277C193.371 17.4123 193.485 16.8453 193.485 16.2164C193.485 15.5875 193.371 15.0205 193.144 14.5257C192.918 14.0205 192.629 13.5875 192.258 13.2164C191.887 12.8453 191.443 12.5566 190.928 12.3607C190.412 12.1545 189.876 12.0618 189.32 12.0618H180.897C180.598 12.0618 180.361 11.9587 180.155 11.7628C179.948 11.5566 179.845 11.3195 179.845 11.0205C179.845 10.7319 179.948 10.4844 180.155 10.2782C180.351 10.0721 180.598 9.97928 180.897 9.97928H190.794C190.887 9.97928 190.969 9.90712 190.99 9.81433L191.454 7.15454C191.474 7.03082 191.381 6.92773 191.258 6.92773H180.794C180.124 6.92773 179.495 7.02052 178.918 7.19577C178.33 7.37103 177.825 7.63907 177.392 7.9999C176.959 8.36072 176.608 8.7834 176.371 9.28856C176.124 9.79371 176 10.371 176 11.0205C176 11.67 176.124 12.2473 176.371 12.7525C176.619 13.237 176.959 13.67 177.392 14.0308Z" fill="#00377B"/>
<path d="M196.773 18.7833C197.391 19.3606 198.175 19.8142 199.123 20.1441C200.072 20.474 201.196 20.6287 202.505 20.6287H203.886C206.464 20.6287 208.36 20.0101 209.598 18.7833C210.824 17.5565 211.443 15.9173 211.443 13.8761V7.13381C211.443 7.0101 211.33 6.91732 211.216 6.93794L207.814 7.53588C207.721 7.55649 207.649 7.62866 207.649 7.73175V13.8761C207.649 14.6596 207.546 15.2885 207.35 15.773C207.144 16.2575 206.876 16.6287 206.525 16.8967C206.175 17.1647 205.773 17.34 205.319 17.4328C204.866 17.5256 204.381 17.5668 203.897 17.5668H202.515C202.02 17.5668 201.546 17.5256 201.103 17.4328C200.659 17.34 200.257 17.1647 199.917 16.8967C199.567 16.6287 199.299 16.2575 199.092 15.773C198.886 15.2885 198.793 14.6596 198.793 13.8761V7.13381C198.793 7.0101 198.68 6.91732 198.567 6.93794L195.134 7.54618C195.041 7.5668 194.969 7.63897 194.969 7.74206V13.8864C194.969 14.8967 195.123 15.8142 195.422 16.6596C195.69 17.4946 196.154 18.206 196.773 18.7833Z" fill="#00377B"/>
<path d="M170.268 20.4124H173.701C173.804 20.4124 173.897 20.3299 173.897 20.2165V7.13405C173.897 7.01034 173.783 6.91756 173.659 6.93818L170.226 7.54643C170.134 7.56705 170.062 7.64952 170.062 7.7423V20.2165C170.072 20.3196 170.154 20.4124 170.268 20.4124Z" fill="#00377B"/>
<path d="M155.989 20.2165V17.8866C156.433 16.2268 159.319 15.2577 166.443 14.7526C166.536 14.7423 166.608 14.6804 166.629 14.5876L167.123 11.8041C167.144 11.6804 167.041 11.5567 166.907 11.5773C159.412 12.3196 156.556 13.9072 156 16.567V11C156 10.7113 156.103 10.4639 156.299 10.2577C156.495 10.0516 156.752 9.95877 157.041 9.95877H167.278C167.371 9.95877 167.453 9.88661 167.474 9.79382L167.948 7.13403C167.969 7.02063 167.876 6.90723 167.752 6.90723H156.938C156.268 6.90723 155.639 7.00001 155.051 7.17527C154.464 7.35052 153.959 7.61857 153.526 7.97939C153.093 8.34022 152.742 8.7629 152.505 9.26805C152.257 9.77321 152.134 10.3505 152.134 11V20.2062C152.134 20.3196 152.216 20.4021 152.33 20.4021H155.794C155.897 20.4124 155.989 20.3196 155.989 20.2165Z" fill="#00377B"/>
<path d="M42.344 6.99907L22.5381 53.6504L36.4784 59.5688L56.2843 12.9175L42.344 6.99907Z" fill="#C9C6AA"/>
<path d="M82.6364 7.00301L60.3262 59.5664L74.2665 65.4833L96.5767 12.9199L82.6364 7.00301Z" fill="#00377B"/>
<path d="M46.6903 16.1335L51.9274 3.78302C48.5151 2.33973 44.5769 3.92736 43.1336 7.33973C41.6903 10.7521 43.2779 14.6902 46.6903 16.1335Z" fill="#00377B"/>
<path d="M67.7527 58.547C67.7527 47.9903 59.196 39.4336 48.629 39.4336C38.0723 39.4336 29.5156 47.9903 29.5156 58.547C29.5156 69.1037 38.0723 77.6707 48.629 77.6707C59.196 77.6707 67.7527 69.1037 67.7527 58.547Z" fill="#1268B3"/>
<path d="M48.6388 39.4336C38.0821 39.4336 29.5254 47.9903 29.5254 58.547H67.7625C67.7522 47.9903 59.1955 39.4336 48.6388 39.4336Z" fill="#F04E30"/>
<path d="M41.9274 60.9076C38.6078 60.9076 35.8965 58.2065 35.8965 54.8766C35.8965 51.557 38.5975 48.8457 41.9274 48.8457C45.247 48.8457 47.9583 51.5467 47.9583 54.8766C47.9583 58.2065 45.2573 60.9076 41.9274 60.9076Z" fill="#68AD45"/>
<path d="M41.9281 49.5366C44.8766 49.5366 47.2786 51.9387 47.2786 54.8871C47.2786 57.8356 44.8766 60.2376 41.9281 60.2376C38.9797 60.2376 36.5776 57.8356 36.5776 54.8871C36.5776 51.9387 38.9797 49.5366 41.9281 49.5366ZM41.9281 48.1758C38.2271 48.1758 35.2168 51.1758 35.2168 54.8871C35.2168 58.5881 38.2168 61.5985 41.9281 61.5985C45.6292 61.5985 48.6292 58.5985 48.6292 54.8871C48.6395 51.1758 45.6292 48.1758 41.9281 48.1758Z" fill="#FFE9A8"/>
<path d="M55.1641 65.082L62.1022 81.4325C65.9888 79.1439 69.2362 75.8862 71.5249 72.0099L55.1641 65.082Z" fill="#8ED8F8"/>
<path d="M34.8141 82.0093C30.8347 79.6587 27.4945 76.3185 25.1543 72.3392L26.3192 71.6484C28.546 75.4319 31.7213 78.6072 35.4945 80.834L34.8141 82.0093Z" fill="#D71925"/>
<path d="M86.7018 3.2481L68.9062 45.1641L75.2549 47.8594L93.0504 5.94341L86.7018 3.2481Z" fill="#FFE9A8"/>
<path d="M97.9576 0.0397563L80.1484 41.9512L81.4009 42.4834L99.2101 0.571975L97.9576 0.0397563Z" fill="#D71925"/>
<path d="M34.0805 7.00361L22.541 34.1602L23.7935 34.6924L35.333 7.53583L34.0805 7.00361Z" fill="#00377B"/>
<path d="M76.8662 39.7632L75.6188 39.2374C75.959 38.423 75.7631 37.8766 75.5054 37.1859C75.2167 36.4024 74.8559 35.4436 75.4126 34.124C75.9693 32.8148 76.9177 32.4024 77.6703 32.0622C78.3404 31.7632 78.8765 31.5364 79.227 30.7117C79.5775 29.8972 79.3713 29.3508 79.1136 28.6601C78.825 27.8869 78.4641 26.9179 79.0208 25.5983C79.5775 24.289 80.526 23.8766 81.2786 23.5364C81.9487 23.2374 82.4847 23.0106 82.8353 22.1859C83.1858 21.3715 82.9796 20.8251 82.7219 20.1343C82.4332 19.3611 82.0724 18.3921 82.6291 17.0828C83.1858 15.7735 84.1342 15.3508 84.8868 15.0209C85.5569 14.722 86.093 14.4849 86.4435 13.6704C86.794 12.856 86.5878 12.3096 86.3301 11.6189C86.0414 10.8457 85.6806 9.87661 86.2373 8.55702C86.794 7.24775 87.7425 6.82507 88.495 6.49517C89.1651 6.1962 89.7012 5.95909 90.0518 5.14466C90.4023 4.33022 90.1961 3.78383 89.9384 3.09311C89.6497 2.31991 89.2889 1.35084 89.8559 0.03125L91.1033 0.557025C90.7528 1.37146 90.959 1.91785 91.2167 2.60857C91.5054 3.38177 91.8662 4.35084 91.3095 5.67043C90.7528 6.97971 89.8043 7.40239 89.0518 7.73228C88.3713 8.03125 87.8456 8.25806 87.495 9.0828C87.1445 9.89723 87.3507 10.4436 87.6084 11.1343C87.8971 11.9075 88.2579 12.8766 87.7012 14.1859C87.1445 15.4952 86.1961 15.9178 85.4435 16.2477C84.7734 16.5467 84.2373 16.7735 83.8868 17.5983C83.5363 18.4127 83.7425 18.9591 84.0002 19.6498C84.2889 20.423 84.6497 21.3921 84.0827 22.7014C83.526 24.0106 82.5775 24.4333 81.8249 24.7632C81.1445 25.0622 80.6188 25.289 80.2682 26.1137C79.9177 26.9282 80.1239 27.4746 80.3816 28.1653C80.6703 28.9385 81.0311 29.9075 80.4744 31.2271C79.9177 32.5364 78.9693 32.9488 78.2167 33.289C77.5466 33.588 77.0105 33.8148 76.66 34.6395C76.3095 35.4539 76.5157 36.0003 76.7734 36.691C77.0621 37.4849 77.4229 38.4539 76.8662 39.7632Z" fill="#68AD45"/>
<path d="M48.6385 75.691C39.1849 75.691 31.4941 68.0003 31.4941 58.5467C31.4941 49.0931 39.1849 41.4023 48.6385 41.4023C58.0921 41.4023 65.7828 49.0931 65.7828 58.5467C65.7828 68.0003 58.0921 75.691 48.6385 75.691ZM48.6385 42.7632C39.9374 42.7632 32.8447 49.8456 32.8447 58.557C32.8447 67.2683 39.9271 74.3508 48.6385 74.3508C57.3498 74.3508 64.4323 67.2683 64.4323 58.557C64.4323 49.8456 57.3395 42.7632 48.6385 42.7632Z" fill="#D71925"/>
</g>
<defs>
<clipPath id="clip0_12772_614">
<rect width="246.392" height="100" fill="white"/>
</clipPath>
</defs>
</svg>
