<svg width="275" height="197" viewBox="0 0 275 197" fill="none" xmlns="http://www.w3.org/2000/svg">
<path d="M273.121 3.96481L274.616 3.84343L274.374 0.853266L272.879 0.974646L273.121 3.96481ZM225.118 9.78477L224.62 8.37009L225.118 9.78477ZM185.011 32.4738L185.88 33.697L185.011 32.4738ZM153.419 64.3376L154.583 65.2848L153.419 64.3376ZM141.819 81.8193L143.148 82.5147L141.819 81.8193ZM129 105.47L130.372 106.077L129 105.47ZM116 125.97L117.206 126.862L116 125.97ZM91 152.47L91.9209 153.654L91 152.47ZM74.5 163.97L75.3073 165.234L74.5 163.97ZM54 174.47L54.6331 175.83L54 174.47ZM0.93934 184.409C0.353553 184.995 0.353553 185.945 0.93934 186.53L10.4853 196.076C11.0711 196.662 12.0208 196.662 12.6066 196.076C13.1924 195.491 13.1924 194.541 12.6066 193.955L4.12132 185.47L12.6066 176.984C13.1924 176.399 13.1924 175.449 12.6066 174.863C12.0208 174.277 11.0711 174.277 10.4853 174.863L0.93934 184.409ZM4.25893 186.946L5.7586 186.914L5.6958 183.915L4.19613 183.946L4.25893 186.946ZM12.9918 183.43L11.4984 183.571L11.78 186.558L13.2734 186.417L12.9918 183.43ZM17.7545 185.92L19.2425 185.731L18.8639 182.755L17.3759 182.944L17.7545 185.92ZM26.093 181.557L24.6197 181.839L25.1826 184.785L26.6559 184.504L26.093 181.557ZM31.0695 183.589L32.5334 183.262L31.8789 180.334L30.4151 180.662L31.0695 183.589ZM38.9564 178.459L37.5173 178.882L38.3639 181.76L39.8029 181.337L38.9564 178.459ZM44.1102 179.985L45.5327 179.509L44.5811 176.664L43.1586 177.14L44.1102 179.985ZM51.3706 174.008L49.9949 174.605L51.1902 177.357L52.566 176.759L51.3706 174.008ZM56.3733 175.021L57.7337 174.389L56.4698 171.668L55.1094 172.3L56.3733 175.021ZM62.0369 169.034L60.6871 169.688L61.9955 172.387L63.3454 171.733L62.0369 169.034ZM66.8134 170.013L68.1501 169.332L66.7888 166.659L65.4521 167.34L66.8134 170.013ZM72.0946 163.695L70.8089 164.467L72.3543 167.039L73.64 166.266L72.0946 163.695ZM76.7233 164.328L77.9859 163.518L76.3663 160.993L75.1037 161.803L76.7233 164.328ZM80.6879 158.15L79.4441 158.989L81.1209 161.476L82.3647 160.638L80.6879 158.15ZM85.1522 158.714L86.3766 157.848L84.6439 155.399L83.4194 156.265L85.1522 158.714ZM88.7574 152.308L87.5684 153.223L89.3974 155.601L90.5864 154.686L88.7574 152.308ZM93.5355 152.366L94.697 151.417L92.7986 149.094L91.6371 150.043L93.5355 152.366ZM97.6197 144.731L96.5355 145.767L98.6084 147.936L99.6927 146.899L97.6197 144.731ZM102.615 144.015L103.667 142.945L101.527 140.842L100.475 141.912L102.615 144.015ZM105.947 136.025L104.955 137.15L107.205 139.134L108.197 138.008L105.947 136.025ZM110.867 134.902L111.831 133.752L109.532 131.825L108.568 132.974L110.867 134.902ZM113.588 126.686L112.681 127.88L115.07 129.695L115.977 128.5L113.588 126.686ZM118.409 125.208L119.283 123.989L116.845 122.241L115.971 123.46L118.409 125.208ZM120.518 116.826L119.693 118.079L122.199 119.729L123.024 118.476L120.518 116.826ZM125.236 115.05L126.038 113.782L123.503 112.179L122.701 113.447L125.236 115.05ZM126.778 106.577L126.072 107.901L128.72 109.312L129.425 107.988L126.778 106.577ZM131.291 104.078L131.936 102.724L129.228 101.433L128.583 102.787L131.291 104.078ZM132.807 94.7596L132.071 96.0666L134.685 97.5388L135.421 96.2319L132.807 94.7596ZM137.639 92.351L138.389 91.0515L135.79 89.5529L135.041 90.8524L137.639 92.351ZM139.445 83.0809L138.729 84.3987L141.364 85.8319L142.081 84.5141L139.445 83.0809ZM143.961 80.994L144.681 79.6776L142.048 78.2393L141.329 79.5557L143.961 80.994ZM144.956 73.4413L144.146 74.7038L146.671 76.3236L147.481 75.0611L144.956 73.4413ZM149.394 72.1879L150.246 70.9535L147.777 69.2491L146.925 70.4835L149.394 72.1879ZM151.146 64.7745L150.217 65.9518L152.572 67.8107L153.501 66.6334L151.146 64.7745ZM155.766 63.8342L156.716 62.6732L154.394 60.7737L153.444 61.9347L155.766 63.8342ZM158.253 56.1433L157.284 57.2883L159.574 59.2262L160.543 58.0812L158.253 56.1433ZM162.971 55.2478L163.955 54.1156L161.69 52.1479L160.707 53.2801L162.971 55.2478ZM165.758 47.6609L164.734 48.7573L166.927 50.8048L167.95 49.7084L165.758 47.6609ZM170.517 47.0201L171.566 45.9473L169.42 43.8505L168.372 44.9232L170.517 47.0201ZM173.814 39.6416L172.709 40.6551L174.735 42.8668L175.841 41.8534L173.814 39.6416ZM178.61 39.3952L179.748 38.4178L177.793 36.1421L176.656 37.1195L178.61 39.3952ZM182.6 32.3689L181.394 33.2611L183.179 35.6728L184.385 34.7806L182.6 32.3689ZM187.448 32.5876L188.674 31.7233L186.945 29.2713L185.719 30.1355L187.448 32.5876ZM192.082 25.7363L190.839 26.5759L192.518 29.0619L193.761 28.2222L192.082 25.7363ZM196.951 26.099L198.205 25.2768L196.561 22.7676L195.306 23.5897L196.951 26.099ZM201.869 19.4492L200.585 20.2252L202.137 22.7925L203.421 22.0165L201.869 19.4492ZM206.711 20.0768L208.011 19.3298L206.517 16.7282L205.217 17.4752L206.711 20.0768ZM212.067 13.7753L210.728 14.4506L212.078 17.1294L213.418 16.4541L212.067 13.7753ZM216.841 14.7951L218.202 14.1631L216.938 11.4424L215.577 12.0743L216.841 14.7951ZM222.78 9.04049L221.377 9.56886L222.433 12.3766L223.837 11.8482L222.78 9.04049ZM227.503 10.5587L228.929 10.0923L227.996 7.24103L226.57 7.70742L227.503 10.5587ZM234.49 5.49223L233.03 5.83588L233.717 8.75609L235.177 8.41243L234.49 5.49223ZM239.081 7.57174L240.553 7.28287L239.975 4.33903L238.503 4.6279L239.081 7.57174ZM246.585 3.30943L245.099 3.50818L245.496 6.48173L246.983 6.28297L246.585 3.30943ZM250.969 5.79788L252.46 5.63288L252.13 2.65108L250.639 2.81609L250.969 5.79788ZM258.745 2.05229L257.25 2.1741L257.494 5.16419L258.989 5.04238L258.745 2.05229ZM263.016 4.7289L264.512 4.6166L264.288 1.62502L262.792 1.73732L263.016 4.7289ZM270.865 1.13433L269.369 1.25036L269.601 4.24137L271.097 4.12534L270.865 1.13433ZM2 186.97C2.74605 186.97 3.4993 186.962 4.25893 186.946L4.19613 183.946C3.45691 183.962 2.7246 183.97 2 183.97V186.97ZM13.2734 186.417C14.7568 186.277 16.2522 186.111 17.7545 185.92L17.3759 182.944C15.9053 183.131 14.4423 183.293 12.9918 183.43L13.2734 186.417ZM26.6559 184.504C28.1314 184.222 29.6042 183.917 31.0695 183.589L30.4151 180.662C28.9805 180.982 27.5382 181.281 26.093 181.557L26.6559 184.504ZM39.8029 181.337C41.2582 180.909 42.6957 180.458 44.1102 179.985L43.1586 177.14C41.7801 177.601 40.3777 178.041 38.9564 178.459L39.8029 181.337ZM52.566 176.759C53.2649 176.456 53.9543 176.146 54.6331 175.83L53.3669 173.11C52.7123 173.415 52.0466 173.714 51.3706 174.008L52.566 176.759ZM54.6331 175.83C55.2055 175.563 55.7858 175.294 56.3733 175.021L55.1094 172.3C54.5225 172.573 53.9408 172.843 53.3669 173.11L54.6331 175.83ZM63.3454 171.733C64.5053 171.171 65.6654 170.597 66.8134 170.013L65.4521 167.34C64.3251 167.913 63.183 168.478 62.0369 169.034L63.3454 171.733ZM73.64 166.266C74.2065 165.926 74.7629 165.582 75.3073 165.234L73.6927 162.705C73.173 163.037 72.6397 163.367 72.0946 163.695L73.64 166.266ZM75.3073 165.234C75.7973 164.921 76.2687 164.62 76.7233 164.328L75.1037 161.803C74.651 162.093 74.1814 162.393 73.6927 162.705L75.3073 165.234ZM82.3647 160.638C83.3314 159.986 84.2451 159.356 85.1522 158.714L83.4194 156.265C82.5325 156.893 81.6376 157.51 80.6879 158.15L82.3647 160.638ZM90.5864 154.686C91.0166 154.355 91.4603 154.012 91.9209 153.654L90.0791 151.286C89.6223 151.641 89.1828 151.981 88.7574 152.308L90.5864 154.686ZM91.9209 153.654C92.4595 153.235 92.9978 152.805 93.5355 152.366L91.6371 150.043C91.1174 150.468 90.5979 150.882 90.0791 151.286L91.9209 153.654ZM99.6927 146.899C100.675 145.96 101.65 144.997 102.615 144.015L100.475 141.912C99.5314 142.873 98.5785 143.814 97.6197 144.731L99.6927 146.899ZM108.197 138.008C109.104 136.98 109.995 135.943 110.867 134.902L108.568 132.974C107.711 133.997 106.836 135.015 105.947 136.025L108.197 138.008ZM115.977 128.5C116.394 127.952 116.803 127.406 117.206 126.862L114.794 125.077C114.399 125.611 113.997 126.148 113.588 126.686L115.977 128.5ZM117.206 126.862C117.595 126.336 117.997 125.783 118.409 125.208L115.971 123.46C115.567 124.024 115.173 124.565 114.794 125.077L117.206 126.862ZM123.024 118.476C123.781 117.326 124.526 116.174 125.236 115.05L122.701 113.447C122.001 114.553 121.266 115.691 120.518 116.826L123.024 118.476ZM129.425 107.988C129.804 107.278 130.126 106.632 130.372 106.077L127.628 104.863C127.423 105.327 127.137 105.903 126.778 106.577L129.425 107.988ZM130.372 106.077C130.667 105.41 130.974 104.743 131.291 104.078L128.583 102.787C128.254 103.476 127.936 104.168 127.628 104.863L130.372 106.077ZM135.421 96.2319C136.149 94.9395 136.892 93.6478 137.639 92.351L135.041 90.8524C134.292 92.1502 133.543 93.4531 132.807 94.7596L135.421 96.2319ZM142.081 84.5141C142.442 83.8497 142.799 83.1833 143.148 82.5147L140.49 81.124C140.149 81.7766 139.8 82.4288 139.445 83.0809L142.081 84.5141ZM143.148 82.5147C143.415 82.0046 143.686 81.4978 143.961 80.994L141.329 79.5557C141.045 80.0752 140.765 80.5979 140.49 81.124L143.148 82.5147ZM147.481 75.0611C148.102 74.0923 148.74 73.1348 149.394 72.1879L146.925 70.4835C146.252 71.4578 145.596 72.4435 144.956 73.4413L147.481 75.0611ZM153.501 66.6334C153.858 66.1816 154.218 65.7321 154.583 65.2848L152.256 63.3904C151.883 63.8493 151.513 64.3106 151.146 64.7745L153.501 66.6334ZM154.583 65.2848C154.977 64.8006 155.371 64.317 155.766 63.8342L153.444 61.9347C153.048 62.4195 152.652 62.9048 152.256 63.3904L154.583 65.2848ZM160.543 58.0812C161.347 57.1304 162.156 56.1855 162.971 55.2478L160.707 53.2801C159.882 54.2288 159.065 55.1837 158.253 56.1433L160.543 58.0812ZM167.95 49.7084C168.797 48.8019 169.652 47.9053 170.517 47.0201L168.372 44.9232C167.49 45.8259 166.619 46.7389 165.758 47.6609L167.95 49.7084ZM175.841 41.8534C176.751 41.0197 177.674 40.1998 178.61 39.3952L176.656 37.1195C175.693 37.946 174.747 38.7872 173.814 39.6416L175.841 41.8534ZM184.385 34.7806C184.879 34.415 185.377 34.0537 185.88 33.697L184.143 31.2506C183.624 31.619 183.11 31.9918 182.6 32.3689L184.385 34.7806ZM185.88 33.697C186.401 33.3271 186.923 32.9572 187.448 32.5876L185.719 30.1355C185.192 30.5073 184.667 30.8791 184.143 31.2506L185.88 33.697ZM193.761 28.2222C194.818 27.5083 195.881 26.7998 196.951 26.099L195.306 23.5897C194.224 24.299 193.149 25.0153 192.082 25.7363L193.761 28.2222ZM203.421 22.0165C204.511 21.3573 205.608 20.71 206.711 20.0768L205.217 17.4752C204.093 18.1204 202.977 18.7792 201.869 19.4492L203.421 22.0165ZM213.418 16.4541C214.553 15.8818 215.694 15.3281 216.841 14.7951L215.577 12.0743C214.399 12.6216 213.229 13.1893 212.067 13.7753L213.418 16.4541ZM223.837 11.8482C224.429 11.6255 225.022 11.4091 225.617 11.1994L224.62 8.37009C224.005 8.58695 223.391 8.81052 222.78 9.04049L223.837 11.8482ZM225.617 11.1994C226.246 10.9777 226.875 10.7642 227.503 10.5587L226.57 7.70742C225.921 7.91992 225.271 8.14068 224.62 8.37009L225.617 11.1994ZM235.177 8.41243C236.478 8.10645 237.778 7.82739 239.081 7.57174L238.503 4.6279C237.166 4.89032 235.829 5.17719 234.49 5.49223L235.177 8.41243ZM246.983 6.28297C248.307 6.10592 249.636 5.94544 250.969 5.79788L250.639 2.81609C249.286 2.96583 247.935 3.12902 246.585 3.30943L246.983 6.28297ZM258.989 5.04238C260.325 4.93354 261.667 4.83024 263.016 4.7289L262.792 1.73732C261.439 1.83892 260.09 1.94274 258.745 2.05229L258.989 5.04238ZM271.097 4.12534C271.769 4.07315 272.444 4.01978 273.121 3.96481L272.879 0.974646C272.206 1.02928 271.534 1.08237 270.865 1.13433L271.097 4.12534Z" fill="#1268B3"/>
</svg>
