<svg width="288" height="145" viewBox="0 0 288 145" fill="none" xmlns="http://www.w3.org/2000/svg">
<path d="M287.313 3.07893L287.923 1.70822L285.181 0.489802L284.572 1.86052L287.313 3.07893ZM229.568 49.6358L228.907 48.2892L229.568 49.6358ZM189.814 60.7535L189.542 59.2783L189.814 60.7535ZM158.482 66.4808L158.227 65.0026L158.482 66.4808ZM134.618 69.6252L135.038 71.0652L134.618 69.6252ZM102.837 74.791L102.598 73.3102L102.837 74.791ZM55.0537 93.4889L54.327 92.1767L55.0537 93.4889ZM19.6231 122.799L18.391 121.944L19.6231 122.799ZM6.63413 143.577C6.97654 144.331 7.86564 144.665 8.62 144.323L20.9128 138.743C21.6672 138.401 22.0011 137.512 21.6587 136.757C21.3163 136.003 20.4272 135.669 19.6729 136.011L8.74588 140.971L3.78592 130.044C3.4435 129.29 2.5544 128.956 1.80005 129.298C1.0457 129.641 0.711758 130.53 1.05417 131.284L6.63413 143.577ZM10.1021 141.732L10.6832 140.349L7.91741 139.186L7.33632 140.569L10.1021 141.732ZM10.8842 133.45L10.1406 134.752L12.7461 136.239L13.4897 134.937L10.8842 133.45ZM15.4593 131.658L16.2576 130.388L13.7178 128.791L12.9195 130.061L15.4593 131.658ZM17.2815 123.538L16.4251 124.77L18.8881 126.482L19.7445 125.251L17.2815 123.538ZM21.9537 122.129L22.8501 120.926L20.4447 119.133L19.5483 120.336L21.9537 122.129ZM24.6351 114.298L23.6072 115.39L25.7922 117.446L26.82 116.354L24.6351 114.298ZM29.4845 113.656L30.563 112.613L28.478 110.456L27.3995 111.499L29.4845 113.656ZM33.2623 106.285L32.1037 107.237L34.0091 109.554L35.1677 108.602L33.2623 106.285ZM38.154 106.232L39.3447 105.32L37.52 102.939L36.3294 103.851L38.154 106.232ZM42.6785 99.291L41.4351 100.13L43.1129 102.617L44.3564 101.778L42.6785 99.291ZM47.5545 99.683L48.82 98.8778L47.2096 96.3467L45.9441 97.1519L47.5545 99.683ZM52.6287 93.1302L51.3251 93.8722L52.809 96.4795L54.1126 95.7375L52.6287 93.1302ZM57.6555 93.769L58.9716 93.0492L57.5321 90.4172L56.216 91.1369L57.6555 93.769ZM63.8494 87.0935L62.5133 87.7753L63.8769 90.4475L65.213 89.7657L63.8494 87.0935ZM69.0335 87.8598L70.3822 87.2031L69.0688 84.5058L67.7202 85.1625L69.0335 87.8598ZM75.593 81.5439L74.2152 82.137L75.4014 84.8925L76.7791 84.2995L75.593 81.5439ZM80.7106 82.6711L82.1045 82.117L80.9964 79.3291L79.6024 79.8832L80.7106 82.6711ZM87.7801 76.9331L86.3524 77.3932L87.2727 80.2486L88.7004 79.7884L87.7801 76.9331ZM92.7594 78.5649L94.2038 78.1602L93.3945 75.2714L91.9501 75.6761L92.7594 78.5649ZM100.445 73.6856L98.9705 73.9612L99.5217 76.9101L100.996 76.6346L100.445 73.6856ZM104.828 76.0001L106.311 75.7789L105.869 72.8117L104.385 73.0328L104.828 76.0001ZM111.522 72.0828L110.033 72.2665L110.401 75.2439L111.89 75.0602L111.522 72.0828ZM115.444 74.6231L116.933 74.4387L116.564 71.4615L115.076 71.6459L115.444 74.6231ZM122.136 70.6991L120.652 70.9217L121.098 73.8885L122.581 73.6659L122.136 70.6991ZM126.154 73.0854L127.631 72.8247L127.109 69.8704L125.632 70.1311L126.154 73.0854ZM132.513 68.6512L131.062 69.0315L131.822 71.9335L133.273 71.5533L132.513 68.6512ZM136.903 70.577L138.363 70.2355L137.68 67.3143L136.22 67.6559L136.903 70.577ZM144.353 66.407L142.86 66.5517L143.149 69.5377L144.642 69.393L144.353 66.407ZM148.618 69.0549L150.113 68.9375L149.878 65.9467L148.383 66.0641L148.618 69.0549ZM156.294 65.2998L154.808 65.5029L155.214 68.4753L156.7 68.2722L156.294 65.2998ZM160.483 67.656L161.961 67.3982L161.445 64.4429L159.968 64.7007L160.483 67.656ZM166.927 63.4622L165.451 63.7294L165.985 66.6814L167.461 66.4142L166.927 63.4622ZM170.946 65.7791L172.422 65.5086L171.881 62.5578L170.405 62.8283L170.946 65.7791ZM177.362 61.5422L175.887 61.8165L176.435 64.7659L177.91 64.4916L177.362 61.5422ZM181.39 63.8436L182.864 63.5688L182.315 60.6195L180.84 60.8944L181.39 63.8436ZM187.801 59.6L186.326 59.8731L186.872 62.8229L188.347 62.5499L187.801 59.6ZM192.35 61.8097L193.824 61.5354L193.276 58.586L191.801 58.8602L192.35 61.8097ZM200.803 57.1055L199.334 57.4111L199.945 60.3482L201.414 60.0426L200.803 57.1055ZM205.938 59.0573L207.401 58.7231L206.732 55.7985L205.27 56.1327L205.938 59.0573ZM214.099 53.8663L212.658 54.2841L213.494 57.1654L214.935 56.7476L214.099 53.8663ZM219.384 55.3653L220.808 54.8915L219.86 52.0451L218.437 52.5189L219.384 55.3653ZM226.869 49.249L225.502 49.8669L226.738 52.6005L228.105 51.9827L226.869 49.249ZM232.103 50.0585L233.447 49.3925L232.115 46.7044L230.771 47.3704L232.103 50.0585ZM238.17 43.6068L236.841 44.3035L238.235 46.9603L239.563 46.2635L238.17 43.6068ZM243.261 44.2873L244.578 43.5694L243.143 40.9352L241.826 41.6531L243.261 44.2873ZM249.014 37.5524L247.727 38.3234L249.269 40.8968L250.556 40.1258L249.014 37.5524ZM254.137 37.9196L255.404 37.1166L253.798 34.5827L252.531 35.3858L254.137 37.9196ZM259.364 30.7708L258.148 31.6492L259.904 34.0811L261.12 33.2027L259.364 30.7708ZM264.499 30.6699L265.682 29.7482L263.839 27.3813L262.656 28.3029L264.499 30.6699ZM268.919 22.9991L267.818 24.0178L269.856 26.2198L270.957 25.201L268.919 22.9991ZM273.999 22.245L275.049 21.173L272.905 19.0746L271.855 20.1466L273.999 22.245ZM277.233 14.0072L276.313 15.1915L278.682 17.0326L279.602 15.8483L277.233 14.0072ZM282.111 12.4004L282.953 11.1594L280.471 9.47423L279.629 10.7152L282.111 12.4004ZM283.713 3.69896L283.054 5.04605L285.748 6.36567L286.408 5.01858L283.713 3.69896ZM9.40422 143.485C9.6254 142.896 9.8585 142.311 10.1021 141.732L7.33632 140.569C7.07857 141.183 6.83116 141.803 6.59578 142.43L9.40422 143.485ZM13.4897 134.937C14.1322 133.811 14.7935 132.717 15.4593 131.658L12.9195 130.061C12.2346 131.15 11.5509 132.281 10.8842 133.45L13.4897 134.937ZM19.7445 125.251C20.1249 124.704 20.4993 124.167 20.8551 123.655L18.391 121.944C18.0347 122.457 17.6667 122.984 17.2815 123.538L19.7445 125.251ZM20.8551 123.655C21.2108 123.143 21.5771 122.634 21.9537 122.129L19.5483 120.336C19.1523 120.867 18.7663 121.403 18.391 121.944L20.8551 123.655ZM26.82 116.354C27.68 115.44 28.5694 114.54 29.4845 113.656L27.3995 111.499C26.4521 112.414 25.5292 113.348 24.6351 114.298L26.82 116.354ZM35.1677 108.602C36.1475 107.796 37.1442 107.006 38.154 106.232L36.3294 103.851C35.2935 104.645 34.2699 105.456 33.2623 106.285L35.1677 108.602ZM44.3564 101.778C45.4181 101.062 46.4854 100.363 47.5545 99.683L45.9441 97.1519C44.8533 97.8459 43.7634 98.5591 42.6785 99.291L44.3564 101.778ZM54.1126 95.7375C54.6706 95.42 55.2267 95.1078 55.7805 94.8011L54.327 92.1767C53.7632 92.489 53.1969 92.8068 52.6287 93.1302L54.1126 95.7375ZM55.7805 94.8011C56.4036 94.456 57.0286 94.1119 57.6555 93.769L56.216 91.1369C55.5841 91.4825 54.9544 91.8292 54.327 92.1767L55.7805 94.8011ZM65.213 89.7657C66.4796 89.1193 67.7531 88.4832 69.0335 87.8598L67.7202 85.1625C66.4216 85.7948 65.1313 86.4394 63.8494 87.0935L65.213 89.7657ZM76.7791 84.2995C78.0834 83.7381 79.3939 83.1944 80.7106 82.6711L79.6024 79.8832C78.2581 80.4176 76.9216 80.972 75.593 81.5439L76.7791 84.2995ZM88.7004 79.7884C90.0478 79.3541 91.4008 78.9455 92.7594 78.5649L91.9501 75.6761C90.5526 76.0676 89.1625 76.4875 87.7801 76.9331L88.7004 79.7884ZM100.996 76.6346C101.688 76.5052 102.382 76.3841 103.077 76.2717L102.598 73.3102C101.878 73.4266 101.161 73.5518 100.445 73.6856L100.996 76.6346ZM103.077 76.2717C103.656 76.178 104.24 76.0876 104.828 76.0001L104.385 73.0328C103.787 73.1221 103.191 73.2143 102.598 73.3102L103.077 76.2717ZM111.89 75.0602C113.064 74.9152 114.259 74.7699 115.444 74.6231L115.076 71.6459C113.886 71.7933 112.709 71.9362 111.522 72.0828L111.89 75.0602ZM122.581 73.6659C123.776 73.4866 124.968 73.2947 126.154 73.0854L125.632 70.1311C124.476 70.3351 123.31 70.5229 122.136 70.6991L122.581 73.6659ZM133.273 71.5533C133.865 71.3981 134.454 71.2356 135.038 71.0652L134.198 68.1852C133.642 68.3475 133.08 68.5027 132.513 68.6512L133.273 71.5533ZM135.038 71.0652C135.653 70.8857 136.275 70.7238 136.903 70.577L136.22 67.6559C135.543 67.814 134.869 67.9895 134.198 68.1852L135.038 71.0652ZM144.642 69.393C145.958 69.2656 147.282 69.1598 148.618 69.0549L148.383 66.0641C147.047 66.1689 145.699 66.2766 144.353 66.407L144.642 69.393ZM156.7 68.2722C157.38 68.1792 158.059 68.0758 158.737 67.9589L158.227 65.0026C157.588 65.1128 156.944 65.211 156.294 65.2998L156.7 68.2722ZM158.737 67.9589C159.319 67.8586 159.901 67.7576 160.483 67.656L159.968 64.7007C159.388 64.8019 158.807 64.9025 158.227 65.0026L158.737 67.9589ZM167.461 66.4142C168.623 66.2039 169.785 65.9921 170.946 65.7791L170.405 62.8283C169.246 63.0409 168.086 63.2523 166.927 63.4622L167.461 66.4142ZM177.91 64.4916C179.07 64.2758 180.23 64.0597 181.39 63.8436L180.84 60.8944C179.681 61.1105 178.521 61.3265 177.362 61.5422L177.91 64.4916ZM188.347 62.5499C188.927 62.4426 189.506 62.3355 190.086 62.2286L189.542 59.2783C188.961 59.3853 188.381 59.4926 187.801 59.6L188.347 62.5499ZM190.086 62.2286C190.836 62.0902 191.591 61.9507 192.35 61.8097L191.801 58.8602C191.045 59.0009 190.292 59.1401 189.542 59.2783L190.086 62.2286ZM201.414 60.0426C202.919 59.7294 204.429 59.4022 205.938 59.0573L205.27 56.1327C203.783 56.4726 202.292 56.7956 200.803 57.1055L201.414 60.0426ZM214.935 56.7476C216.429 56.3142 217.914 55.8547 219.384 55.3653L218.437 52.5189C217.007 52.9949 215.56 53.4427 214.099 53.8663L214.935 56.7476ZM228.105 51.9827C228.82 51.6596 229.528 51.3264 230.229 50.9823L228.907 48.2892C228.236 48.6187 227.556 48.9385 226.869 49.249L228.105 51.9827ZM230.229 50.9823C230.851 50.6771 231.476 50.3692 232.103 50.0585L230.771 47.3704C230.147 47.6792 229.526 47.9854 228.907 48.2892L230.229 50.9823ZM239.563 46.2635C240.794 45.6178 242.028 44.9594 243.261 44.2873L241.826 41.6531C240.608 42.3169 239.388 42.9678 238.17 43.6068L239.563 46.2635ZM250.556 40.1258C251.757 39.4062 252.952 38.6712 254.137 37.9196L252.531 35.3858C251.368 36.123 250.195 36.8449 249.014 37.5524L250.556 40.1258ZM261.12 33.2027C262.263 32.3776 263.39 31.5337 264.499 30.6699L262.656 28.3029C261.576 29.1434 260.478 29.9657 259.364 30.7708L261.12 33.2027ZM270.957 25.201C271.997 24.2389 273.012 23.254 273.999 22.245L271.855 20.1466C270.904 21.1185 269.924 22.069 268.919 22.9991L270.957 25.201ZM279.602 15.8483C280.474 14.7263 281.312 13.5774 282.111 12.4004L279.629 10.7152C278.867 11.8371 278.068 12.9341 277.233 14.0072L279.602 15.8483ZM286.408 5.01858C286.721 4.3794 287.023 3.73289 287.313 3.07893L284.572 1.86052C284.297 2.4801 284.01 3.09287 283.713 3.69896L286.408 5.01858Z" fill="#1268B3"/>
</svg>
