<svg width="322" height="186" viewBox="0 0 322 186" fill="none" xmlns="http://www.w3.org/2000/svg">
<path d="M3.47114 2.17689L3.17831 0.705756L0.236029 1.29142L0.528861 2.76256L3.47114 2.17689ZM21.7267 59.1982L20.4207 59.9359L21.7267 59.1982ZM122.5 150.97L123.041 149.571L122.5 150.97ZM173.797 166.504L173.421 167.956L173.797 166.504ZM245.07 175.769L245.164 174.272L245.07 175.769ZM321.245 173.632C321.743 172.97 321.61 172.03 320.948 171.532L310.157 163.42C309.495 162.922 308.555 163.055 308.057 163.717C307.559 164.38 307.692 165.32 308.354 165.818L317.946 173.029L310.735 182.62C310.237 183.283 310.371 184.223 311.033 184.721C311.695 185.219 312.635 185.085 313.133 184.423L321.245 173.632ZM0.929112 4.7425L1.2308 6.21185L4.1695 5.60848L3.86781 4.13913L0.929112 4.7425ZM5.58162 11.9554L5.23944 10.4949L2.31854 11.1793L2.66072 12.6397L5.58162 11.9554ZM3.61456 16.5713L3.98002 18.0261L6.88962 17.2951L6.52416 15.8404L3.61456 16.5713ZM8.6067 23.5525L8.18884 22.1119L5.3076 22.9476L5.72546 24.3882L8.6067 23.5525ZM6.89287 28.268L7.33967 29.6999L10.2035 28.8063L9.75669 27.3744L6.89287 28.268ZM12.2968 34.9356L11.7873 33.5247L8.96566 34.5437L9.47513 35.9545L12.2968 34.9356ZM10.898 39.7539L11.4408 41.1522L14.2375 40.0666L13.6946 38.6682L10.898 39.7539ZM16.7613 46.0211L16.1489 44.6518L13.4103 45.8766L14.0227 47.2459L16.7613 46.0211ZM15.7289 50.931L16.377 52.2837L19.0825 50.9876L18.4344 49.6348L15.7289 50.931ZM22.0656 56.7206L21.3457 55.4047L18.7138 56.8445L19.4337 58.1604L22.0656 56.7206ZM21.3816 61.6193L22.1311 62.9187L24.7298 61.4197L23.9803 60.1204L21.3816 61.6193ZM27.9256 66.6881L27.1307 65.416L24.5865 67.0057L25.3814 68.2778L27.9256 66.6881ZM27.4677 71.5534L28.2844 72.8116L30.8007 71.1782L29.984 69.92L27.4677 71.5534ZM34.2655 76.2764L33.4066 75.0466L30.9471 76.7645L31.806 77.9942L34.2655 76.2764ZM34.055 81.1574L34.9344 82.3726L37.3648 80.6138L36.4854 79.3986L34.055 81.1574ZM41.0806 85.5311L40.1613 84.3458L37.7907 86.1844L38.71 87.3697L41.0806 85.5311ZM41.1143 90.4173L42.053 91.5872L44.3929 89.7097L43.4541 88.5398L41.1143 90.4173ZM48.3491 94.4376L47.3721 93.2993L45.0957 95.2533L46.0727 96.3915L48.3491 94.4376ZM48.6256 99.3162L49.6213 100.438L51.865 98.4466L50.8692 97.3247L48.6256 99.3162ZM56.0515 102.97L55.0187 101.882L52.843 103.948L53.8758 105.036L56.0515 102.97ZM56.5725 107.829L57.6236 108.899L59.764 106.797L58.7129 105.727L56.5725 107.829ZM64.1747 111.1L63.0875 110.067L61.0207 112.241L62.1079 113.275L64.1747 111.1ZM64.9459 115.926L66.051 116.94L68.0794 114.729L66.9743 113.715L64.9459 115.926ZM72.709 118.793L71.5682 117.819L69.6202 120.1L70.761 121.074L72.709 118.793ZM73.7377 123.569L74.8962 124.522L76.802 122.205L75.6435 121.252L73.7377 123.569ZM81.6477 126.005L80.4541 125.097L78.637 127.484L79.8306 128.393L81.6477 126.005ZM82.9457 130.716L84.1567 131.602L85.927 129.18L84.716 128.294L82.9457 130.716ZM90.9837 132.687L89.7381 131.851L88.0666 134.342L89.3121 135.178L90.9837 132.687ZM92.563 137.311L93.8257 138.12L95.445 135.595L94.1823 134.785L92.563 137.311ZM100.707 138.774L99.4105 138.02L97.9019 140.613L99.1985 141.367L100.707 138.774ZM102.582 143.285L103.896 144.01L105.346 141.384L104.032 140.659L102.582 143.285ZM110.808 144.197L109.463 143.535L108.138 146.226L109.483 146.889L110.808 144.197ZM112.997 148.566L114.359 149.196L115.618 146.472L114.256 145.843L112.997 148.566ZM121.267 148.872L119.875 148.312L118.757 151.096L120.149 151.655L121.267 148.872ZM124.06 153.17L125.464 153.698L126.52 150.89L125.116 150.362L124.06 153.17ZM133.487 153.355L132.067 152.872L131.101 155.712L132.521 156.195L133.487 153.355ZM136.781 157.611L138.208 158.074L139.135 155.221L137.708 154.757L136.781 157.611ZM146.208 157.404L144.771 156.975L143.911 159.849L145.349 160.279L146.208 157.404ZM149.65 161.542L151.091 161.959L151.923 159.076L150.482 158.66L149.65 161.542ZM159.067 161.065L157.62 160.671L156.831 163.565L158.279 163.959L159.067 161.065ZM162.602 165.124L164.051 165.511L164.824 162.612L163.375 162.225L162.602 165.124ZM172.01 164.492L170.558 164.116L169.805 167.02L171.257 167.396L172.01 164.492ZM175.375 168.45L176.831 168.809L177.55 165.897L176.094 165.537L175.375 168.45ZM183.838 167.286L182.369 166.983L181.763 169.921L183.232 170.224L183.838 167.286ZM187.181 171.003L188.655 171.281L189.21 168.333L187.736 168.055L187.181 171.003ZM195.574 169.409L194.092 169.175L193.624 172.138L195.106 172.372L195.574 169.409ZM199.079 172.973L200.564 173.187L200.993 170.218L199.508 170.003L199.079 172.973ZM207.403 171.05L205.914 170.869L205.553 173.847L207.042 174.028L207.403 171.05ZM211.029 174.491L212.52 174.657L212.852 171.676L211.361 171.51L211.029 174.491ZM219.292 172.322L217.799 172.181L217.518 175.168L219.011 175.309L219.292 172.322ZM223.004 175.67L224.499 175.8L224.758 172.811L223.264 172.681L223.004 175.67ZM231.219 173.323L229.723 173.211L229.499 176.202L230.994 176.315L231.219 173.323ZM234.99 176.605L236.486 176.711L236.697 173.718L235.201 173.613L234.99 176.605ZM243.17 174.145L241.673 174.05L241.482 177.044L242.979 177.139L243.17 174.145ZM247.069 177.391L248.566 177.476L248.737 174.481L247.239 174.396L247.069 177.391ZM255.547 174.77L254.048 174.72L253.948 177.719L255.447 177.769L255.547 174.77ZM259.639 177.884L261.139 177.917L261.204 174.918L259.704 174.885L259.639 177.884ZM268.021 174.969L266.521 174.971L266.525 177.971L268.025 177.969L268.021 174.969ZM272.218 177.94L273.718 177.92L273.68 174.921L272.18 174.94L272.218 177.94ZM280.495 174.738L278.996 174.792L279.103 177.79L280.602 177.736L280.495 174.738ZM284.791 177.564L286.289 177.493L286.149 174.497L284.65 174.567L284.791 177.564ZM292.955 174.084L291.458 174.188L291.666 177.181L293.162 177.077L292.955 174.084ZM297.343 176.763L298.838 176.643L298.597 173.652L297.102 173.773L297.343 176.763ZM305.386 173.013L303.894 173.166L304.201 176.151L305.693 175.997L305.386 173.013ZM309.861 175.545L311.351 175.375L311.012 172.395L309.521 172.565L309.861 175.545ZM317.776 171.532L316.29 171.734L316.694 174.707L318.181 174.505L317.776 171.532ZM0.528861 2.76256C0.660526 3.42402 0.793908 4.084 0.929112 4.7425L3.86781 4.13913C3.73385 3.48669 3.60166 2.83262 3.47114 2.17689L0.528861 2.76256ZM2.66072 12.6397C2.96907 13.9558 3.28673 15.2663 3.61456 16.5713L6.52416 15.8404C6.20038 14.5515 5.88649 13.2566 5.58162 11.9554L2.66072 12.6397ZM5.72546 24.3882C6.10205 25.6865 6.49088 26.9798 6.89287 28.268L9.75669 27.3744C9.36089 26.106 8.97786 24.8321 8.6067 23.5525L5.72546 24.3882ZM9.47513 35.9545C9.93408 37.2254 10.408 38.4918 10.898 39.7539L13.6946 38.6682C13.2135 37.4288 12.7479 36.1847 12.2968 34.9356L9.47513 35.9545ZM14.0227 47.2459C14.5738 48.4781 15.1422 49.7064 15.7289 50.931L18.4344 49.6348C17.8592 48.4342 17.3018 47.2297 16.7613 46.0211L14.0227 47.2459ZM19.4337 58.1604C19.7579 58.7531 20.0868 59.3449 20.4207 59.9359L23.0328 58.4604C22.7056 57.8813 22.3833 57.3014 22.0656 56.7206L19.4337 58.1604ZM20.4207 59.9359C20.738 60.4976 21.0583 61.0588 21.3816 61.6193L23.9803 60.1204C23.6615 59.5676 23.3456 59.0143 23.0328 58.4604L20.4207 59.9359ZM25.3814 68.2778C26.0656 69.3729 26.7611 70.4649 27.4677 71.5534L29.984 69.92C29.2868 68.8459 28.6006 67.7685 27.9256 66.6881L25.3814 68.2778ZM31.806 77.9942C32.5454 79.0529 33.2952 80.1074 34.055 81.1574L36.4854 79.3986C35.7353 78.3622 34.9953 77.3213 34.2655 76.2764L31.806 77.9942ZM38.71 87.3697C39.502 88.3908 40.3035 89.4068 41.1143 90.4173L43.4541 88.5398C42.6537 87.5422 41.8624 86.5392 41.0806 85.5311L38.71 87.3697ZM46.0727 96.3915C46.9149 97.3727 47.766 98.3478 48.6256 99.3162L50.8692 97.3247C50.0207 96.3687 49.1806 95.4062 48.3491 94.4376L46.0727 96.3915ZM53.8758 105.036C54.7666 105.974 55.6656 106.905 56.5725 107.829L58.7129 105.727C57.8179 104.815 56.9307 103.896 56.0515 102.97L53.8758 105.036ZM62.1079 113.275C63.0464 114.167 63.9925 115.051 64.9459 115.926L66.9743 113.715C66.0339 112.852 65.1006 111.98 64.1747 111.1L62.1079 113.275ZM70.761 121.074C71.7463 121.916 72.7386 122.747 73.7377 123.569L75.6435 121.252C74.6587 120.442 73.6805 119.622 72.709 118.793L70.761 121.074ZM79.8306 128.393C80.8626 129.178 81.901 129.953 82.9457 130.716L84.716 128.294C83.6872 127.542 82.6643 126.779 81.6477 126.005L79.8306 128.393ZM89.3121 135.178C90.3899 135.901 91.4736 136.612 92.563 137.311L94.1823 134.785C93.1106 134.098 92.0443 133.398 90.9837 132.687L89.3121 135.178ZM99.1985 141.367C100.321 142.02 101.449 142.66 102.582 143.285L104.032 140.659C102.919 140.044 101.81 139.416 100.707 138.774L99.1985 141.367ZM109.483 146.889C110.65 147.463 111.821 148.022 112.997 148.566L114.256 145.843C113.103 145.31 111.953 144.761 110.808 144.197L109.483 146.889ZM120.149 151.655C120.751 151.897 121.355 152.135 121.959 152.369L123.041 149.571C122.449 149.342 121.857 149.109 121.267 148.872L120.149 151.655ZM121.959 152.369C122.658 152.639 123.358 152.906 124.06 153.17L125.116 150.362C124.423 150.101 123.731 149.837 123.041 149.571L121.959 152.369ZM132.521 156.195C133.937 156.677 135.358 157.148 136.781 157.611L137.708 154.757C136.297 154.299 134.89 153.832 133.487 153.355L132.521 156.195ZM145.349 160.279C146.78 160.707 148.214 161.128 149.65 161.542L150.482 158.66C149.055 158.248 147.63 157.83 146.208 157.404L145.349 160.279ZM158.279 163.959C159.719 164.352 161.16 164.74 162.602 165.124L163.375 162.225C161.938 161.842 160.502 161.456 159.067 161.065L158.279 163.959ZM171.257 167.396C171.979 167.583 172.7 167.77 173.421 167.956L174.172 165.052C173.451 164.865 172.731 164.679 172.01 164.492L171.257 167.396ZM173.421 167.956C174.07 168.124 174.722 168.288 175.375 168.45L176.094 165.537C175.451 165.378 174.81 165.216 174.172 165.052L173.421 167.956ZM183.232 170.224C184.542 170.494 185.858 170.754 187.181 171.003L187.736 168.055C186.43 167.809 185.13 167.553 183.838 167.286L183.232 170.224ZM195.106 172.372C196.427 172.581 197.752 172.781 199.079 172.973L199.508 170.003C198.193 169.813 196.881 169.615 195.574 169.409L195.106 172.372ZM207.042 174.028C208.37 174.189 209.699 174.343 211.029 174.491L211.361 171.51C210.041 171.363 208.721 171.21 207.403 171.05L207.042 174.028ZM219.011 175.309C220.344 175.434 221.675 175.554 223.004 175.67L223.264 172.681C221.942 172.566 220.617 172.446 219.292 172.322L219.011 175.309ZM230.994 176.315C232.331 176.415 233.663 176.512 234.99 176.605L235.201 173.613C233.878 173.519 232.55 173.423 231.219 173.323L230.994 176.315ZM242.979 177.139C243.647 177.182 244.312 177.224 244.976 177.266L245.164 174.272C244.501 174.23 243.837 174.188 243.17 174.145L242.979 177.139ZM244.976 177.266C245.673 177.31 246.371 177.351 247.069 177.391L247.239 174.396C246.547 174.356 245.856 174.315 245.164 174.272L244.976 177.266ZM255.447 177.769C256.845 177.815 258.242 177.854 259.639 177.884L259.704 174.885C258.319 174.855 256.933 174.817 255.547 174.77L255.447 177.769ZM268.025 177.969C269.423 177.967 270.821 177.958 272.218 177.94L272.18 174.94C270.794 174.958 269.407 174.967 268.021 174.969L268.025 177.969ZM280.602 177.736C281.998 177.687 283.395 177.629 284.791 177.564L284.65 174.567C283.266 174.632 281.88 174.689 280.495 174.738L280.602 177.736ZM293.162 177.077C294.557 176.98 295.95 176.875 297.343 176.763L297.102 173.773C295.72 173.884 294.338 173.988 292.955 174.084L293.162 177.077ZM305.693 175.997C307.083 175.854 308.473 175.704 309.861 175.545L309.521 172.565C308.144 172.722 306.765 172.871 305.386 173.013L305.693 175.997ZM318.181 174.505C318.873 174.41 319.565 174.314 320.257 174.216L319.836 171.246C319.15 171.343 318.463 171.439 317.776 171.532L318.181 174.505Z" fill="#1268B3"/>
</svg>
