<svg width="322" height="186" viewBox="0 0 322 186" fill="none" xmlns="http://www.w3.org/2000/svg">
<path d="M318.575 2.17689L318.868 0.705756L321.81 1.29142L321.518 2.76256L318.575 2.17689ZM300.32 59.1982L301.626 59.9359L300.32 59.1982ZM199.546 150.97L199.006 149.571L199.546 150.97ZM148.25 166.504L148.625 167.956L148.25 166.504ZM76.9766 175.769L76.8826 174.272L76.9766 175.769ZM0.800903 173.632C0.303101 172.97 0.43634 172.03 1.09851 171.532L11.8893 163.42C12.5515 162.922 13.4918 163.055 13.9897 163.717C14.4875 164.38 14.3542 165.32 13.692 165.818L4.10022 173.029L11.3111 182.62C11.8089 183.283 11.6757 184.223 11.0135 184.721C10.3513 185.219 9.41098 185.085 8.91318 184.423L0.800903 173.632ZM321.117 4.7425L320.816 6.21185L317.877 5.60848L318.179 4.13913L321.117 4.7425ZM316.465 11.9554L316.807 10.4949L319.728 11.1793L319.386 12.6397L316.465 11.9554ZM318.432 16.5713L318.066 18.0261L315.157 17.2951L315.522 15.8404L318.432 16.5713ZM313.44 23.5525L313.858 22.1119L316.739 22.9476L316.321 24.3882L313.44 23.5525ZM315.154 28.268L314.707 29.6999L311.843 28.8063L312.29 27.3744L315.154 28.268ZM309.75 34.9356L310.259 33.5247L313.081 34.5437L312.571 35.9545L309.75 34.9356ZM311.148 39.7539L310.606 41.1522L307.809 40.0666L308.352 38.6682L311.148 39.7539ZM305.285 46.0211L305.897 44.6518L308.636 45.8766L308.024 47.2459L305.285 46.0211ZM306.318 50.931L305.669 52.2837L302.964 50.9876L303.612 49.6348L306.318 50.931ZM299.981 56.7206L300.701 55.4047L303.333 56.8445L302.613 58.1604L299.981 56.7206ZM300.665 61.6193L299.915 62.9187L297.317 61.4197L298.066 60.1204L300.665 61.6193ZM294.121 66.6881L294.916 65.416L297.46 67.0057L296.665 68.2778L294.121 66.6881ZM294.579 71.5534L293.762 72.8116L291.246 71.1782L292.062 69.92L294.579 71.5534ZM287.781 76.2764L288.64 75.0466L291.099 76.7645L290.24 77.9942L287.781 76.2764ZM287.991 81.1574L287.112 82.3726L284.682 80.6138L285.561 79.3986L287.991 81.1574ZM280.966 85.5311L281.885 84.3458L284.256 86.1844L283.336 87.3697L280.966 85.5311ZM280.932 90.4173L279.993 91.5872L277.654 89.7097L278.592 88.5398L280.932 90.4173ZM273.697 94.4376L274.674 93.2993L276.951 95.2533L275.974 96.3915L273.697 94.4376ZM273.421 99.3162L272.425 100.438L270.181 98.4466L271.177 97.3247L273.421 99.3162ZM265.995 102.97L267.028 101.882L269.203 103.948L268.171 105.036L265.995 102.97ZM265.474 107.829L264.423 108.899L262.282 106.797L263.333 105.727L265.474 107.829ZM257.872 111.1L258.959 110.067L261.026 112.241L259.939 113.275L257.872 111.1ZM257.101 115.926L255.995 116.94L253.967 114.729L255.072 113.715L257.101 115.926ZM249.337 118.793L250.478 117.819L252.426 120.1L251.285 121.074L249.337 118.793ZM248.309 123.569L247.15 124.522L245.244 122.205L246.403 121.252L248.309 123.569ZM240.399 126.005L241.592 125.097L243.409 127.484L242.216 128.393L240.399 126.005ZM239.101 130.716L237.89 131.602L236.119 129.18L237.33 128.294L239.101 130.716ZM231.063 132.687L232.308 131.851L233.98 134.342L232.734 135.178L231.063 132.687ZM229.483 137.311L228.221 138.12L226.601 135.595L227.864 134.785L229.483 137.311ZM221.339 138.774L222.636 138.02L224.144 140.613L222.848 141.367L221.339 138.774ZM219.464 143.285L218.151 144.01L216.701 141.384L218.014 140.659L219.464 143.285ZM211.238 144.197L212.584 143.535L213.909 146.226L212.563 146.889L211.238 144.197ZM209.049 148.566L207.687 149.196L206.428 146.472L207.79 145.843L209.049 148.566ZM200.779 148.872L202.171 148.312L203.29 151.096L201.898 151.655L200.779 148.872ZM197.987 153.17L196.583 153.698L195.526 150.89L196.93 150.362L197.987 153.17ZM188.56 153.355L189.98 152.872L190.946 155.712L189.526 156.195L188.56 153.355ZM185.265 157.611L183.838 158.074L182.912 155.221L184.338 154.757L185.265 157.611ZM175.838 157.404L177.275 156.975L178.135 159.849L176.698 160.279L175.838 157.404ZM172.396 161.542L170.955 161.959L170.123 159.076L171.564 158.66L172.396 161.542ZM162.979 161.065L164.426 160.671L165.215 163.565L163.768 163.959L162.979 161.065ZM159.445 165.124L157.995 165.511L157.222 162.612L158.672 162.225L159.445 165.124ZM150.037 164.492L151.489 164.116L152.242 167.02L150.79 167.396L150.037 164.492ZM146.671 168.45L145.215 168.809L144.496 165.897L145.952 165.537L146.671 168.45ZM138.209 167.286L139.678 166.983L140.284 169.921L138.814 170.224L138.209 167.286ZM134.866 171.003L133.392 171.281L132.836 168.333L134.31 168.055L134.866 171.003ZM126.473 169.409L127.954 169.175L128.422 172.138L126.94 172.372L126.473 169.409ZM122.967 172.973L121.483 173.187L121.053 170.218L122.538 170.003L122.967 172.973ZM114.643 171.05L116.132 170.869L116.493 173.847L115.004 174.028L114.643 171.05ZM111.017 174.491L109.527 174.657L109.195 171.676L110.686 171.51L111.017 174.491ZM102.754 172.322L104.248 172.181L104.529 175.168L103.035 175.309L102.754 172.322ZM99.0421 175.67L97.5477 175.8L97.2879 172.811L98.7823 172.681L99.0421 175.67ZM90.8274 173.323L92.3232 173.211L92.5478 176.202L91.052 176.315L90.8274 173.323ZM87.0564 176.605L85.5601 176.711L85.3492 173.718L86.8455 173.613L87.0564 176.605ZM78.8759 174.145L80.3729 174.05L80.5641 177.044L79.0672 177.139L78.8759 174.145ZM74.9775 177.391L73.4799 177.476L73.3096 174.481L74.8072 174.396L74.9775 177.391ZM66.499 174.77L67.9982 174.72L68.0982 177.719L66.599 177.769L66.499 174.77ZM62.4072 177.884L60.9076 177.917L60.8424 174.918L62.3421 174.885L62.4072 177.884ZM54.0254 174.969L55.5254 174.971L55.5212 177.971L54.0212 177.969L54.0254 174.969ZM49.8282 177.94L48.3283 177.92L48.3668 174.921L49.8667 174.94L49.8282 177.94ZM41.5515 174.738L43.0505 174.792L42.9438 177.79L41.4448 177.736L41.5515 174.738ZM37.2554 177.564L35.7571 177.493L35.8976 174.497L37.396 174.567L37.2554 177.564ZM29.0918 174.084L30.5882 174.188L30.3806 177.181L28.8842 177.077L29.0918 174.084ZM24.7032 176.763L23.2081 176.643L23.4491 173.652L24.9442 173.773L24.7032 176.763ZM16.6604 173.013L18.1525 173.166L17.8455 176.151L16.3533 175.997L16.6604 173.013ZM12.1853 175.545L10.695 175.375L11.0348 172.395L12.5251 172.565L12.1853 175.545ZM4.27039 171.532L5.75665 171.734L5.3519 174.707L3.86563 174.505L4.27039 171.532ZM321.518 2.76256C321.386 3.42402 321.252 4.084 321.117 4.7425L318.179 4.13913C318.313 3.48669 318.445 2.83262 318.575 2.17689L321.518 2.76256ZM319.386 12.6397C319.077 13.9558 318.76 15.2663 318.432 16.5713L315.522 15.8404C315.846 14.5515 316.16 13.2566 316.465 11.9554L319.386 12.6397ZM316.321 24.3882C315.944 25.6865 315.556 26.9798 315.154 28.268L312.29 27.3744C312.685 26.106 313.069 24.8321 313.44 23.5525L316.321 24.3882ZM312.571 35.9545C312.112 37.2254 311.638 38.4918 311.148 39.7539L308.352 38.6682C308.833 37.4288 309.299 36.1847 309.75 34.9356L312.571 35.9545ZM308.024 47.2459C307.473 48.4781 306.904 49.7064 306.318 50.931L303.612 49.6348C304.187 48.4342 304.745 47.2297 305.285 46.0211L308.024 47.2459ZM302.613 58.1604C302.289 58.7531 301.96 59.3449 301.626 59.9359L299.014 58.4604C299.341 57.8813 299.663 57.3014 299.981 56.7206L302.613 58.1604ZM301.626 59.9359C301.308 60.4976 300.988 61.0588 300.665 61.6193L298.066 60.1204C298.385 59.5676 298.701 59.0143 299.014 58.4604L301.626 59.9359ZM296.665 68.2778C295.981 69.3729 295.285 70.4649 294.579 71.5534L292.062 69.92C292.76 68.8459 293.446 67.7685 294.121 66.6881L296.665 68.2778ZM290.24 77.9942C289.501 79.0529 288.751 80.1074 287.991 81.1574L285.561 79.3986C286.311 78.3622 287.051 77.3213 287.781 76.2764L290.24 77.9942ZM283.336 87.3697C282.544 88.3908 281.743 89.4068 280.932 90.4173L278.592 88.5398C279.393 87.5422 280.184 86.5392 280.966 85.5311L283.336 87.3697ZM275.974 96.3915C275.131 97.3727 274.28 98.3478 273.421 99.3162L271.177 97.3247C272.026 96.3687 272.866 95.4062 273.697 94.4376L275.974 96.3915ZM268.171 105.036C267.28 105.974 266.381 106.905 265.474 107.829L263.333 105.727C264.228 104.815 265.116 103.896 265.995 102.97L268.171 105.036ZM259.939 113.275C259 114.167 258.054 115.051 257.101 115.926L255.072 113.715C256.013 112.852 256.946 111.98 257.872 111.1L259.939 113.275ZM251.285 121.074C250.3 121.916 249.308 122.747 248.309 123.569L246.403 121.252C247.388 120.442 248.366 119.622 249.337 118.793L251.285 121.074ZM242.216 128.393C241.184 129.178 240.145 129.953 239.101 130.716L237.33 128.294C238.359 127.542 239.382 126.779 240.399 126.005L242.216 128.393ZM232.734 135.178C231.657 135.901 230.573 136.612 229.483 137.311L227.864 134.785C228.936 134.098 230.002 133.398 231.063 132.687L232.734 135.178ZM222.848 141.367C221.725 142.02 220.597 142.66 219.464 143.285L218.014 140.659C219.127 140.044 220.236 139.416 221.339 138.774L222.848 141.367ZM212.563 146.889C211.397 147.463 210.225 148.022 209.049 148.566L207.79 145.843C208.944 145.31 210.093 144.761 211.238 144.197L212.563 146.889ZM201.898 151.655C201.295 151.897 200.692 152.135 200.087 152.369L199.006 149.571C199.598 149.342 200.189 149.109 200.779 148.872L201.898 151.655ZM200.087 152.369C199.388 152.639 198.688 152.906 197.987 153.17L196.93 150.362C197.624 150.101 198.315 149.837 199.006 149.571L200.087 152.369ZM189.526 156.195C188.109 156.677 186.689 157.148 185.265 157.611L184.338 154.757C185.75 154.299 187.157 153.832 188.56 153.355L189.526 156.195ZM176.698 160.279C175.266 160.707 173.832 161.128 172.396 161.542L171.564 158.66C172.991 158.248 174.416 157.83 175.838 157.404L176.698 160.279ZM163.768 163.959C162.327 164.352 160.886 164.74 159.445 165.124L158.672 162.225C160.109 161.842 161.544 161.456 162.979 161.065L163.768 163.959ZM150.79 167.396C150.068 167.583 149.346 167.77 148.625 167.956L147.875 165.052C148.595 164.865 149.316 164.679 150.037 164.492L150.79 167.396ZM148.625 167.956C147.976 168.124 147.325 168.288 146.671 168.45L145.952 165.537C146.596 165.378 147.236 165.216 147.875 165.052L148.625 167.956ZM138.814 170.224C137.505 170.494 136.188 170.754 134.866 171.003L134.31 168.055C135.616 167.809 136.916 167.553 138.209 167.286L138.814 170.224ZM126.94 172.372C125.62 172.581 124.295 172.781 122.967 172.973L122.538 170.003C123.853 169.813 125.165 169.615 126.473 169.409L126.94 172.372ZM115.004 174.028C113.676 174.189 112.347 174.343 111.017 174.491L110.686 171.51C112.006 171.363 113.325 171.21 114.643 171.05L115.004 174.028ZM103.035 175.309C101.703 175.434 100.371 175.554 99.0421 175.67L98.7823 172.681C100.105 172.566 101.429 172.446 102.754 172.322L103.035 175.309ZM91.052 176.315C89.7156 176.415 88.3834 176.512 87.0564 176.605L86.8455 173.613C88.1684 173.519 89.496 173.423 90.8274 173.323L91.052 176.315ZM79.0672 177.139C78.3997 177.182 77.7342 177.224 77.0706 177.266L76.8826 174.272C77.5452 174.23 78.2097 174.188 78.8759 174.145L79.0672 177.139ZM77.0706 177.266C76.373 177.31 75.6753 177.351 74.9775 177.391L74.8072 174.396C75.4991 174.356 76.1909 174.315 76.8826 174.272L77.0706 177.266ZM66.599 177.769C65.2019 177.815 63.8046 177.854 62.4072 177.884L62.3421 174.885C63.7278 174.855 65.1135 174.817 66.499 174.77L66.599 177.769ZM54.0212 177.969C52.6234 177.967 51.2257 177.958 49.8282 177.94L49.8667 174.94C51.2527 174.958 52.639 174.967 54.0254 174.969L54.0212 177.969ZM41.4448 177.736C40.0479 177.687 38.6514 177.629 37.2554 177.564L37.396 174.567C38.7807 174.632 40.1659 174.689 41.5515 174.738L41.4448 177.736ZM28.8842 177.077C27.4898 176.98 26.0962 176.875 24.7032 176.763L24.9442 173.773C26.3261 173.884 27.7086 173.988 29.0918 174.084L28.8842 177.077ZM16.3533 175.997C14.9631 175.854 13.5737 175.704 12.1853 175.545L12.5251 172.565C13.9026 172.722 15.2811 172.871 16.6604 173.013L16.3533 175.997ZM3.86563 174.505C3.17328 174.41 2.4812 174.314 1.78943 174.216L2.21033 171.246C2.89673 171.343 3.5834 171.439 4.27039 171.532L3.86563 174.505Z" fill="#1268B3"/>
</svg>
