<svg width="275" height="197" viewBox="0 0 275 197" fill="none" xmlns="http://www.w3.org/2000/svg">
<path d="M273.121 3.49508L274.616 3.3737L274.374 0.383539L272.879 0.504919L273.121 3.49508ZM225.118 9.31504L224.62 7.90037L225.118 9.31504ZM185.011 32.0041L185.88 33.2272L185.011 32.0041ZM153.419 63.8679L154.583 64.8151L153.419 63.8679ZM141.819 81.3496L143.148 82.045L141.819 81.3496ZM128.615 104.597L129.987 105.203L128.615 104.597ZM115.842 124.186L117.048 125.078L115.842 124.186ZM90.2354 152.02L91.0602 153.273L90.2354 152.02ZM73.5756 163.241L72.9425 161.881L73.5756 163.241ZM53.3987 172.292L54.0318 173.652L53.3987 172.292ZM0.93934 183.939C0.353553 184.525 0.353553 185.475 0.93934 186.061L10.4853 195.607C11.0711 196.192 12.0208 196.192 12.6066 195.607C13.1924 195.021 13.1924 194.071 12.6066 193.485L4.12132 185L12.6066 176.515C13.1924 175.929 13.1924 174.979 12.6066 174.393C12.0208 173.808 11.0711 173.808 10.4853 174.393L0.93934 183.939ZM4.26359 186.466L5.76294 186.422L5.67446 183.423L4.17512 183.467L4.26359 186.466ZM12.8848 182.762L11.397 182.952L11.7784 185.928L13.2662 185.737L12.8848 182.762ZM17.7203 185.073L19.1992 184.823L18.6982 181.865L17.2193 182.115L17.7203 185.073ZM25.8192 180.339L24.3613 180.692L25.0676 183.608L26.5254 183.255L25.8192 180.339ZM30.8728 182.129L32.3188 181.73L31.5214 178.838L30.0754 179.236L30.8728 182.129ZM38.4831 176.646L37.0633 177.129L38.0306 179.969L39.4505 179.485L38.4831 176.646ZM43.6761 177.977L45.0813 177.452L44.0313 174.642L42.6262 175.167L43.6761 177.977ZM50.7687 171.841L49.3984 172.451L50.619 175.192L51.9892 174.582L50.7687 171.841ZM55.6962 172.883L57.0601 172.259L55.8115 169.531L54.4476 170.156L55.6962 172.883ZM61.1955 167.137L59.823 167.742L61.0331 170.487L62.4057 169.882L61.1955 167.137ZM65.7788 168.396L67.1514 167.791L65.9412 165.046L64.5686 165.651L65.7788 168.396ZM71.278 162.649L69.9141 163.274L71.1628 166.001L72.5267 165.377L71.278 162.649ZM75.7777 163.82L77.1037 163.119L75.7011 160.467L74.3751 161.168L75.7777 163.82ZM79.8754 157.7L78.6537 158.57L80.3943 161.014L81.616 160.143L79.8754 157.7ZM84.3478 158.138L85.5484 157.239L83.7499 154.838L82.5493 155.737L84.3478 158.138ZM87.9907 151.73L86.7598 152.587L88.4742 155.049L89.7051 154.192L87.9907 151.73ZM92.8544 152.025L94.0646 151.139L92.2921 148.719L91.0819 149.605L92.8544 152.025ZM97.3234 144.246L96.2503 145.294L98.3464 147.44L99.4195 146.392L97.3234 144.246ZM102.416 143.317L103.439 142.22L101.244 140.175L100.221 141.273L102.416 143.317ZM105.691 134.967L104.742 136.129L107.066 138.026L108.015 136.864L105.691 134.967ZM110.668 133.537L111.59 132.354L109.225 130.508L108.303 131.691L110.668 133.537ZM113.381 124.988L112.487 126.192L114.896 127.98L115.79 126.776L113.381 124.988ZM118.21 123.517L119.108 122.316L116.705 120.52L115.807 121.721L118.21 123.517ZM120.427 115.463L119.557 116.685L122 118.426L122.87 117.204L120.427 115.463ZM125.114 113.941L125.94 112.689L123.435 111.037L122.61 112.289L125.114 113.941ZM126.442 105.701L125.778 107.046L128.468 108.374L129.132 107.029L126.442 105.701ZM130.903 103.231L131.559 101.882L128.861 100.57L128.205 101.919L130.903 103.231ZM132.581 93.9987L131.807 95.2837L134.377 96.8314L135.151 95.5464L132.581 93.9987ZM137.47 91.7577L138.258 90.4812L135.705 88.9057L134.917 90.1822L137.47 91.7577ZM139.449 82.5824L138.72 83.8934L141.342 85.351L142.071 84.04L139.449 82.5824ZM143.961 80.5243L144.681 79.2079L142.048 77.7696L141.329 79.086L143.961 80.5243ZM144.956 72.9715L144.146 74.2341L146.671 75.8539L147.481 74.5913L144.956 72.9715ZM149.394 71.7182L150.246 70.4837L147.777 68.7794L146.925 70.0138L149.394 71.7182ZM151.146 64.3047L150.217 65.4821L152.572 67.341L153.501 66.1637L151.146 64.3047ZM155.766 63.3645L156.716 62.2035L154.394 60.3039L153.444 61.465L155.766 63.3645ZM158.253 55.6735L157.284 56.8186L159.574 58.7565L160.543 57.6115L158.253 55.6735ZM162.971 54.7781L163.955 53.6458L161.69 51.6781L160.707 52.8104L162.971 54.7781ZM165.758 47.1912L164.734 48.2875L166.927 50.335L167.95 49.2387L165.758 47.1912ZM170.517 46.5503L171.566 45.4776L169.42 43.3807L168.372 44.4535L170.517 46.5503ZM173.814 39.1719L172.709 40.1854L174.735 42.3971L175.841 41.3837L173.814 39.1719ZM178.61 38.9255L179.748 37.9481L177.793 35.6724L176.656 36.6497L178.61 38.9255ZM182.6 31.8992L181.394 32.7914L183.179 35.203L184.385 34.3108L182.6 31.8992ZM187.448 32.1178L188.674 31.2536L186.945 28.8016L185.719 29.6658L187.448 32.1178ZM192.082 25.2665L190.839 26.1062L192.518 28.5921L193.761 27.7525L192.082 25.2665ZM196.951 25.6292L198.205 24.8071L196.561 22.2978L195.306 23.12L196.951 25.6292ZM201.869 18.9795L200.585 19.7555L202.137 22.3228L203.421 21.5468L201.869 18.9795ZM206.711 19.607L208.011 18.86L206.517 16.2585L205.217 17.0055L206.711 19.607ZM212.067 13.3056L210.728 13.9809L212.078 16.6597L213.418 15.9843L212.067 13.3056ZM216.841 14.3253L218.202 13.6934L216.938 10.9726L215.577 11.6046L216.841 14.3253ZM222.78 8.57077L221.377 9.09914L222.433 11.9069L223.837 11.3785L222.78 8.57077ZM227.503 10.089L228.929 9.6226L227.996 6.7713L226.57 7.2377L227.503 10.089ZM234.49 5.0225L233.03 5.36615L233.717 8.28636L235.177 7.94271L234.49 5.0225ZM239.081 7.10202L240.553 6.81314L239.975 3.8693L238.503 4.15817L239.081 7.10202ZM246.585 2.8397L245.099 3.03845L245.496 6.012L246.983 5.81325L246.585 2.8397ZM250.969 5.32816L252.46 5.16315L252.13 2.18136L250.639 2.34636L250.969 5.32816ZM258.745 1.58256L257.25 1.70437L257.494 4.69446L258.989 4.57265L258.745 1.58256ZM263.016 4.25918L264.512 4.14688L264.288 1.1553L262.792 1.2676L263.016 4.25918ZM270.865 0.664602L269.369 0.780634L269.601 3.77165L271.097 3.65561L270.865 0.664602ZM2 186.5C2.74901 186.5 3.50378 186.489 4.26359 186.466L4.17512 183.467C3.44379 183.489 2.71853 183.5 2 183.5V186.5ZM13.2662 185.737C14.7433 185.548 16.2296 185.326 17.7203 185.073L17.2193 182.115C15.7664 182.362 14.3201 182.578 12.8848 182.762L13.2662 185.737ZM26.5254 183.255C27.9796 182.903 29.4302 182.526 30.8728 182.129L30.0754 179.236C28.6622 179.626 27.2421 179.994 25.8192 180.339L26.5254 183.255ZM39.4505 179.485C40.8773 178.999 42.2873 178.496 43.6761 177.977L42.6262 175.167C41.2647 175.675 39.8822 176.169 38.4831 176.646L39.4505 179.485ZM51.9892 174.582C52.6791 174.274 53.3601 173.964 54.0318 173.652L52.7656 170.932C52.1093 171.237 51.4434 171.541 50.7687 171.841L51.9892 174.582ZM54.0318 173.652C54.5855 173.394 55.1403 173.138 55.6962 172.883L54.4476 170.156C53.8864 170.412 53.3256 170.671 52.7656 170.932L54.0318 173.652ZM62.4057 169.882C63.4664 169.414 64.7157 168.865 65.7788 168.396L64.5686 165.651C63.3831 166.174 62.3829 166.613 61.1955 167.137L62.4057 169.882ZM72.5267 165.377C73.0879 165.12 73.6486 164.861 74.2087 164.601L72.9425 161.881C72.3887 162.139 71.8339 162.395 71.278 162.649L72.5267 165.377ZM74.2087 164.601C74.7406 164.353 75.2633 164.092 75.7777 163.82L74.3751 161.168C73.9025 161.418 73.4253 161.656 72.9425 161.881L74.2087 164.601ZM81.616 160.143C82.5394 159.486 83.449 158.811 84.3478 158.138L82.5493 155.737C81.6571 156.405 80.7697 157.063 79.8754 157.7L81.616 160.143ZM89.7051 154.192C90.1551 153.879 90.6064 153.572 91.0602 153.273L89.4107 150.767C88.9322 151.082 88.4591 151.404 87.9907 151.73L89.7051 154.192ZM91.0602 153.273C91.6626 152.877 92.2608 152.46 92.8544 152.025L91.0819 149.605C90.526 150.012 89.9688 150.4 89.4107 150.767L91.0602 153.273ZM99.4195 146.392C100.434 145.401 101.434 144.372 102.416 143.317L100.221 141.273C99.2672 142.297 98.3007 143.291 97.3234 144.246L99.4195 146.392ZM108.015 136.864C108.918 135.757 109.803 134.644 110.668 133.537L108.303 131.691C107.45 132.784 106.578 133.879 105.691 134.967L108.015 136.864ZM115.79 126.776C116.217 126.201 116.636 125.635 117.048 125.078L114.637 123.294C114.225 123.85 113.806 124.415 113.381 124.988L115.79 126.776ZM117.048 125.078C117.432 124.559 117.82 124.039 118.21 123.517L115.807 121.721C115.416 122.245 115.025 122.769 114.637 123.294L117.048 125.078ZM122.87 117.204C123.634 116.132 124.386 115.045 125.114 113.941L122.61 112.289C121.906 113.357 121.175 114.413 120.427 115.463L122.87 117.204ZM129.132 107.029C129.429 106.428 129.714 105.819 129.987 105.203L127.243 103.99C126.988 104.565 126.721 105.135 126.442 105.701L129.132 107.029ZM129.987 105.203C130.28 104.54 130.586 103.883 130.903 103.231L128.205 101.919C127.873 102.601 127.552 103.291 127.243 103.99L129.987 105.203ZM135.151 95.5464C135.912 94.2821 136.689 93.0245 137.47 91.7577L134.917 90.1822C134.137 91.4461 133.352 92.7179 132.581 93.9987L135.151 95.5464ZM142.071 84.04C142.437 83.381 142.797 82.7162 143.148 82.045L140.49 80.6542C140.152 81.3007 139.804 81.943 139.449 82.5824L142.071 84.04ZM143.148 82.045C143.415 81.5349 143.686 81.028 143.961 80.5243L141.329 79.086C141.045 79.6055 140.765 80.1282 140.49 80.6542L143.148 82.045ZM147.481 74.5913C148.102 73.6226 148.74 72.665 149.394 71.7182L146.925 70.0138C146.252 70.9881 145.596 71.9738 144.956 72.9715L147.481 74.5913ZM153.501 66.1637C153.858 65.7119 154.218 65.2624 154.583 64.8151L152.256 62.9207C151.883 63.3796 151.513 63.8409 151.146 64.3047L153.501 66.1637ZM154.583 64.8151C154.977 64.3309 155.371 63.8473 155.766 63.3645L153.444 61.465C153.048 61.9497 152.652 62.4351 152.256 62.9207L154.583 64.8151ZM160.543 57.6115C161.347 56.6606 162.156 55.7158 162.971 54.7781L160.707 52.8104C159.882 53.7591 159.065 54.714 158.253 55.6735L160.543 57.6115ZM167.95 49.2387C168.797 48.3322 169.652 47.4356 170.517 46.5503L168.372 44.4535C167.49 45.3562 166.619 46.2692 165.758 47.1912L167.95 49.2387ZM175.841 41.3837C176.751 40.5499 177.674 39.7301 178.61 38.9255L176.656 36.6497C175.693 37.4763 174.747 38.3175 173.814 39.1719L175.841 41.3837ZM184.385 34.3108C184.879 33.9453 185.377 33.584 185.88 33.2272L184.143 30.7809C183.624 31.1493 183.11 31.5221 182.6 31.8992L184.385 34.3108ZM185.88 33.2272C186.401 32.8574 186.923 32.4875 187.448 32.1178L185.719 29.6658C185.192 30.0375 184.667 30.4093 184.143 30.7809L185.88 33.2272ZM193.761 27.7525C194.818 27.0386 195.881 26.3301 196.951 25.6292L195.306 23.12C194.224 23.8293 193.149 24.5455 192.082 25.2665L193.761 27.7525ZM203.421 21.5468C204.511 20.8876 205.608 20.2403 206.711 19.607L205.217 17.0055C204.093 17.6507 202.977 18.3094 201.869 18.9795L203.421 21.5468ZM213.418 15.9843C214.553 15.4121 215.694 14.8584 216.841 14.3253L215.577 11.6046C214.399 12.1518 213.229 12.7196 212.067 13.3056L213.418 15.9843ZM223.837 11.3785C224.429 11.1558 225.022 10.9394 225.617 10.7297L224.62 7.90037C224.005 8.11722 223.391 8.34079 222.78 8.57077L223.837 11.3785ZM225.617 10.7297C226.246 10.508 226.875 10.2945 227.503 10.089L226.57 7.2377C225.921 7.4502 225.271 7.67095 224.62 7.90037L225.617 10.7297ZM235.177 7.94271C236.478 7.63672 237.778 7.35767 239.081 7.10202L238.503 4.15817C237.166 4.42059 235.829 4.70746 234.49 5.0225L235.177 7.94271ZM246.983 5.81325C248.307 5.63619 249.636 5.47571 250.969 5.32816L250.639 2.34636C249.286 2.49611 247.935 2.6593 246.585 2.8397L246.983 5.81325ZM258.989 4.57265C260.325 4.46382 261.667 4.36052 263.016 4.25918L262.792 1.2676C261.439 1.3692 260.09 1.47302 258.745 1.58256L258.989 4.57265ZM271.097 3.65561C271.769 3.60342 272.444 3.55005 273.121 3.49508L272.879 0.504919C272.206 0.559553 271.534 0.612644 270.865 0.664602L271.097 3.65561Z" fill="#1268B3"/>
</svg>
