<svg width="307" height="154" viewBox="0 0 307 154" fill="none" xmlns="http://www.w3.org/2000/svg">
<path d="M1.73969 3.28313L0.9263 2.02282L3.4469 0.396017L4.26031 1.65633L1.73969 3.28313ZM63.0372 52.8294L63.6994 51.4835L63.0372 52.8294ZM105.374 64.6999L105.101 66.1749L105.374 64.6999ZM138.741 70.815L138.997 69.337L138.741 70.815ZM164.156 74.1724L163.9 75.6504L164.156 74.1724ZM198.001 79.688L198.241 78.2073L198.001 79.688ZM249.54 96.9622L250.268 95.6508L249.54 96.9622ZM286.814 128.46L288.047 127.606L286.814 128.46ZM302.952 152.846C302.744 153.648 301.925 154.13 301.124 153.922L288.056 150.534C287.254 150.326 286.772 149.507 286.98 148.705C287.188 147.903 288.007 147.422 288.808 147.63L300.424 150.641L303.436 139.025C303.644 138.223 304.463 137.742 305.264 137.95C306.066 138.158 306.548 138.976 306.34 139.778L302.952 152.846ZM299.018 151.209L298.257 149.917L300.843 148.395L301.604 149.688L299.018 151.209ZM296.819 141.603L297.588 142.891L295.012 144.429L294.243 143.142L296.819 141.603ZM291.829 139.131L291.05 137.849L293.614 136.291L294.393 137.573L291.829 139.131ZM289.376 129.577L290.201 130.83L287.696 132.48L286.871 131.228L289.376 129.577ZM284.415 127.685L283.523 126.479L285.936 124.696L286.827 125.902L284.415 127.685ZM281.494 119.467L282.51 120.571L280.302 122.602L279.286 121.498L281.494 119.467ZM276.489 118.594L275.425 117.537L277.539 115.408L278.603 116.465L276.489 118.594ZM272.468 110.849L273.612 111.819L271.673 114.108L270.529 113.138L272.468 110.849ZM267.395 110.575L266.217 109.646L268.076 107.291L269.253 108.221L267.395 110.575ZM262.582 103.293L263.815 104.146L262.108 106.613L260.875 105.76L262.582 103.293ZM257.506 103.501L256.248 102.683L257.882 100.168L259.14 100.985L257.506 103.501ZM252.07 96.6677L253.372 97.4138L251.879 100.016L250.578 99.2703L252.07 96.6677ZM247.232 97.4105L245.911 96.7005L247.331 94.0579L248.652 94.768L247.232 97.4105ZM242.076 91.4581L243.433 92.0968L242.155 94.8113L240.798 94.1726L242.076 91.4581ZM237.518 92.6803L236.145 92.0766L237.353 89.3303L238.726 89.9341L237.518 92.6803ZM231.92 87.1412L233.321 87.6766L232.25 90.479L230.849 89.9436L231.92 87.1412ZM227.465 88.6966L226.052 88.1946L227.056 85.3676L228.469 85.8696L227.465 88.6966ZM221.487 83.5692L222.922 84.0062L222.048 86.876L220.613 86.439L221.487 83.5692ZM217.149 85.4258L215.705 85.0205L216.516 82.1321L217.96 82.5374L217.149 85.4258ZM210.846 80.704L212.306 81.0476L211.619 83.9678L210.158 83.6243L210.846 80.704ZM206.635 82.8335L205.168 82.5201L205.795 79.5863L207.262 79.8997L206.635 82.8335ZM200.052 78.51L201.53 78.7646L201.021 81.721L199.543 81.4665L200.052 78.51ZM195.882 80.8647L194.401 80.6259L194.879 77.6642L196.36 77.903L195.882 80.8647ZM188.832 76.6977L190.313 76.9339L189.841 79.8965L188.36 79.6602L188.832 76.6977ZM184.597 79.0599L183.116 78.8233L183.589 75.8609L185.07 76.0975L184.597 79.0599ZM177.55 74.8886L179.03 75.1288L178.55 78.0901L177.069 77.8499L177.55 74.8886ZM173.305 77.2352L171.825 76.9918L172.312 74.0315L173.792 74.275L173.305 77.2352ZM166.286 73.0171L167.765 73.2701L167.259 76.2271L165.78 75.9741L166.286 73.0171ZM161.811 75.304L160.33 75.069L160.8 72.106L162.281 72.341L161.811 75.304ZM153.746 71.2014L155.236 71.3711L154.897 74.3518L153.406 74.1821L153.746 71.2014ZM149.166 73.7146L147.675 73.5514L148.002 70.5692L149.493 70.7324L149.166 73.7146ZM141.078 69.6756L142.561 69.9026L142.107 72.868L140.624 72.6411L141.078 69.6756ZM136.626 71.9697L135.149 71.7113L135.666 68.7561L137.143 69.0146L136.626 71.9697ZM129.731 67.6922L131.207 67.96L130.671 70.9118L129.196 70.6439L129.731 67.6922ZM125.484 69.9659L124.009 69.6947L124.551 66.7441L126.027 67.0153L125.484 69.9659ZM118.618 65.6421L120.093 65.917L119.543 68.8662L118.068 68.5912L118.618 65.6421ZM114.363 67.8993L112.888 67.6238L113.439 64.6749L114.914 64.9503L114.363 67.8993ZM107.501 63.5684L108.976 63.8421L108.428 66.7917L106.954 66.518L107.501 63.5684ZM103.294 65.84L101.819 65.5658L102.367 62.6164L103.842 62.8905L103.294 65.84ZM96.6393 61.5129L98.1104 61.8057L97.5248 64.748L96.0537 64.4552L96.6393 61.5129ZM92.4357 63.7147L90.9679 63.4053L91.5869 60.4698L93.0546 60.7793L92.4357 63.7147ZM85.9327 59.1641L87.3895 59.5214L86.6749 62.435L85.2181 62.0777L85.9327 59.1641ZM81.626 61.1567L80.1772 60.7681L80.9545 57.8705L82.4032 58.2591L81.626 61.1567ZM75.4338 56.1938L76.8591 56.6611L75.9244 59.5118L74.4991 59.0444L75.4338 56.1938ZM70.9778 57.8249L69.5691 57.3096L70.5997 54.4922L72.0084 55.0075L70.9778 57.8249ZM65.3252 52.2591L66.6867 52.8888L65.4273 55.6116L64.0659 54.982L65.3252 52.2591ZM60.6712 53.3328L59.3281 52.6649L60.6639 49.9787L62.007 50.6465L60.6712 53.3328ZM55.2969 47.2177L56.6238 47.9174L55.2245 50.5711L53.8977 49.8714L55.2969 47.2177ZM50.5404 48.0675L49.225 47.3465L50.6669 44.7157L51.9823 45.4367L50.5404 48.0675ZM45.4676 41.7L46.7526 42.4738L45.2051 45.0438L43.9201 44.27L45.4676 41.7ZM40.6694 42.2595L39.4036 41.4548L41.0129 38.9231L42.2788 39.7278L40.6694 42.2595ZM36.0696 35.5421L37.2892 36.4153L35.5427 38.8545L34.3231 37.9813L36.0696 35.5421ZM31.2424 35.7047L30.0497 34.7949L31.8692 32.4097L33.0619 33.3194L31.2424 35.7047ZM27.2655 28.6005L28.3976 29.5844L26.4297 31.8488L25.2975 30.8648L27.2655 28.6005ZM22.4433 28.301L21.3439 27.2805L23.3849 25.0818L24.4843 26.1023L22.4433 28.301ZM19.1761 20.8422L20.2069 21.9319L18.0273 23.9934L16.9966 22.9036L19.1761 20.8422ZM14.4089 20.0793L13.4131 18.9575L15.6566 16.9659L16.6524 18.0877L14.4089 20.0793ZM11.8594 12.3451L12.786 13.5247L10.4268 15.3778L9.50021 14.1982L11.8594 12.3451ZM7.17752 11.153L6.28461 9.94774L8.69519 8.16192L9.5881 9.36721L7.17752 11.153ZM5.2908 3.2319L6.11957 4.48217L3.61902 6.13967L2.79028 4.8894L5.2908 3.2319ZM300.207 153.23C299.816 152.565 299.419 151.89 299.018 151.209L301.604 149.688C302.005 150.369 302.402 151.044 302.793 151.709L300.207 153.23ZM294.243 143.142C293.428 141.777 292.62 140.432 291.829 139.131L294.393 137.573C295.188 138.883 296.001 140.234 296.819 141.603L294.243 143.142ZM286.871 131.228C286.417 130.538 285.986 129.898 285.581 129.314L288.047 127.606C288.468 128.213 288.912 128.873 289.376 129.577L286.871 131.228ZM285.581 129.314C285.203 128.768 284.814 128.225 284.415 127.685L286.827 125.902C287.244 126.465 287.651 127.033 288.047 127.606L285.581 129.314ZM279.286 121.498C278.382 120.515 277.449 119.546 276.489 118.594L278.603 116.465C279.593 117.448 280.558 118.449 281.494 119.467L279.286 121.498ZM270.529 113.138C269.5 112.267 268.455 111.412 267.395 110.575L269.253 108.221C270.34 109.078 271.412 109.955 272.468 110.849L270.529 113.138ZM260.875 105.76C259.757 104.987 258.633 104.233 257.506 103.501L259.14 100.985C260.292 101.733 261.44 102.503 262.582 103.293L260.875 105.76ZM250.578 99.2703C249.988 98.9319 249.399 98.5997 248.812 98.2736L250.268 95.6508C250.867 95.9835 251.468 96.3225 252.07 96.6677L250.578 99.2703ZM248.812 98.2736C248.287 97.9824 247.761 97.6947 247.232 97.4105L248.652 94.768C249.193 95.0586 249.732 95.3529 250.268 95.6508L248.812 98.2736ZM240.798 94.1726C239.712 93.6615 238.619 93.1641 237.518 92.6803L238.726 89.9341C239.849 90.428 240.966 90.936 242.076 91.4581L240.798 94.1726ZM230.849 89.9436C229.727 89.5148 228.599 89.0992 227.465 88.6966L228.469 85.8696C229.625 86.2801 230.775 86.7039 231.92 87.1412L230.849 89.9436ZM220.613 86.439C219.463 86.0887 218.308 85.751 217.149 85.4258L217.96 82.5374C219.14 82.8685 220.315 83.2124 221.487 83.5692L220.613 86.439ZM210.158 83.6243C208.987 83.3486 207.812 83.085 206.635 82.8335L207.262 79.8997C208.459 80.1555 209.654 80.4236 210.846 80.704L210.158 83.6243ZM199.543 81.4665C198.949 81.3642 198.355 81.265 197.761 81.1686L198.241 78.2073C198.845 78.3052 199.449 78.4061 200.052 78.51L199.543 81.4665ZM197.761 81.1686C197.136 81.0673 196.51 80.966 195.882 80.8647L196.36 77.903C196.988 78.0044 197.616 78.1058 198.241 78.2073L197.761 81.1686ZM188.36 79.6602C187.109 79.4608 185.855 79.2608 184.597 79.0599L185.07 76.0975C186.327 76.2983 187.581 76.4982 188.832 76.6977L188.36 79.6602ZM177.069 77.8499C175.816 77.6466 174.561 77.4418 173.305 77.2352L173.792 74.275C175.045 74.4812 176.298 74.6856 177.55 74.8886L177.069 77.8499ZM165.78 75.9741C165.153 75.8668 164.526 75.7589 163.9 75.6504L164.412 72.6944C165.036 72.8026 165.661 72.9101 166.286 73.0171L165.78 75.9741ZM163.9 75.6504C163.19 75.5274 162.494 75.4122 161.811 75.304L162.281 72.341C162.977 72.4514 163.687 72.5689 164.412 72.6944L163.9 75.6504ZM153.406 74.1821C151.965 74.0181 150.563 73.8674 149.166 73.7146L149.493 70.7324C150.881 70.8844 152.296 71.0363 153.746 71.2014L153.406 74.1821ZM140.624 72.6411C139.919 72.5332 139.207 72.4178 138.486 72.2931L138.997 69.337C139.698 69.4582 140.391 69.5705 141.078 69.6756L140.624 72.6411ZM138.486 72.2931C137.866 72.186 137.246 72.0781 136.626 71.9697L137.143 69.0146C137.761 69.1227 138.379 69.2302 138.997 69.337L138.486 72.2931ZM129.196 70.6439C127.958 70.4194 126.721 70.1932 125.484 69.9659L126.027 67.0153C127.262 67.2423 128.496 67.468 129.731 67.6922L129.196 70.6439ZM118.068 68.5912C116.833 68.3608 115.597 68.13 114.363 67.8993L114.914 64.9503C116.148 65.1811 117.383 65.4118 118.618 65.6421L118.068 68.5912ZM106.954 66.518C106.336 66.4034 105.719 66.2891 105.101 66.1749L105.647 63.2249C106.265 63.3392 106.883 63.4537 107.501 63.5684L106.954 66.518ZM105.101 66.1749C104.501 66.064 103.899 65.9524 103.294 65.84L103.842 62.8905C104.446 63.0027 105.047 63.1141 105.647 63.2249L105.101 66.1749ZM96.0537 64.4552C94.8514 64.2159 93.6446 63.9696 92.4357 63.7147L93.0546 60.7793C94.2509 61.0315 95.4464 61.2755 96.6393 61.5129L96.0537 64.4552ZM85.2181 62.0777C84.018 61.7834 82.8199 61.477 81.626 61.1567L82.4032 58.2591C83.5746 58.5734 84.7517 58.8744 85.9327 59.1641L85.2181 62.0777ZM74.4991 59.0444C73.3159 58.6565 72.1414 58.2506 70.9778 57.8249L72.0084 55.0075C73.1382 55.4208 74.2807 55.8157 75.4338 56.1938L74.4991 59.0444ZM64.0659 54.982C63.4981 54.7194 62.9344 54.4506 62.375 54.1754L63.6994 51.4835C64.2366 51.7479 64.7787 52.0063 65.3252 52.2591L64.0659 54.982ZM62.375 54.1754C61.8051 53.895 61.2372 53.6142 60.6712 53.3328L62.007 50.6465C62.5689 50.9259 63.133 51.2049 63.6994 51.4835L62.375 54.1754ZM53.8977 49.8714C52.771 49.2773 51.6519 48.6766 50.5404 48.0675L51.9823 45.4367C53.0784 46.0375 54.1832 46.6305 55.2969 47.2177L53.8977 49.8714ZM43.9201 44.27C42.8292 43.6132 41.7457 42.9437 40.6694 42.2595L42.2788 39.7278C43.3336 40.3982 44.3964 41.055 45.4676 41.7L43.9201 44.27ZM34.3231 37.9813C33.2894 37.2411 32.2625 36.4829 31.2424 35.7047L33.0619 33.3194C34.0573 34.0788 35.0598 34.819 36.0696 35.5421L34.3231 37.9813ZM25.2975 30.8648C24.3401 30.0327 23.3887 29.1786 22.4433 28.301L24.4843 26.1023C25.4055 26.9574 26.3325 27.7896 27.2655 28.6005L25.2975 30.8648ZM16.9966 22.9036C16.129 21.9863 15.2664 21.0453 14.4089 20.0793L16.6524 18.0877C17.489 19.0301 18.3302 19.9478 19.1761 20.8422L16.9966 22.9036ZM9.50021 14.1982C8.72189 13.2073 7.94769 12.1926 7.17752 11.153L9.5881 9.36721C10.3416 10.3844 11.0987 11.3766 11.8594 12.3451L9.50021 14.1982ZM2.79028 4.8894C2.43927 4.35985 2.08908 3.82446 1.73969 3.28313L4.26031 1.65633C4.60309 2.18746 4.94659 2.71262 5.2908 3.2319L2.79028 4.8894Z" fill="#1268B3"/>
</svg>
