<svg width="286" height="144" viewBox="0 0 286 144" fill="none" xmlns="http://www.w3.org/2000/svg">
<path d="M0.629242 2.60921L0.02005 1.23849L2.76147 0.020075L3.3707 1.39079L0.629242 2.60921ZM58.3746 49.166L59.0354 47.8194L58.3746 49.166ZM98 62L98.352 60.5419L98 62ZM128 68.5L127.745 69.9782L128 68.5ZM185.5 73.5L185.74 72.0192C185.76 72.0226 185.781 72.0265 185.802 72.0307L185.5 73.5ZM233 89.5L233.727 88.1878L233 89.5ZM268.32 122.33L269.552 121.474L268.32 122.33ZM281.363 142.97C281.096 143.754 280.244 144.174 279.46 143.908L266.678 139.564C265.894 139.297 265.474 138.445 265.74 137.661C266.007 136.876 266.859 136.456 267.643 136.723L279.005 140.584L282.867 129.223C283.133 128.438 283.985 128.019 284.769 128.285C285.554 128.552 285.974 129.404 285.707 130.188L281.363 142.97ZM277.737 141.431L277.058 140.094L279.734 138.736L280.412 140.074L277.737 141.431ZM276.729 133.172L277.461 134.481L274.842 135.946L274.11 134.636L276.729 133.172ZM272.198 131.293L271.44 129.999L274.029 128.483L274.787 129.777L272.198 131.293ZM270.658 123.108L271.485 124.359L268.983 126.014L268.156 124.763L270.658 123.108ZM265.935 121.565L265.052 120.353L267.478 118.587L268.36 119.799L265.935 121.565ZM263.271 113.356L264.243 114.499L261.958 116.442L260.986 115.3L263.271 113.356ZM258.346 112.297L257.337 111.187L259.557 109.169L260.566 110.28L258.346 112.297ZM254.869 104.394L255.946 105.439L253.856 107.591L252.78 106.546L254.869 104.394ZM249.865 103.804L248.757 102.794L250.778 100.577L251.886 101.587L249.865 103.804ZM245.646 96.2686L246.821 97.2012L244.956 99.5508L243.781 98.6182L245.646 96.2686ZM240.61 96.198L239.4 95.3118L241.173 92.8914L242.383 93.7777L240.61 96.198ZM235.519 89.2165L236.809 89.9823L235.277 92.5619L233.987 91.7961L235.519 89.2165ZM230.452 89.824L229.127 89.1202L230.535 86.4709L231.86 87.1747L230.452 89.824ZM224.227 83.4553L225.597 84.065L224.378 86.806L223.007 86.1962L224.227 83.4553ZM219.194 84.5767L217.803 84.0136L218.93 81.233L220.32 81.7961L219.194 84.5767ZM212.363 78.8641L213.786 79.3399L212.834 82.185L211.411 81.7092L212.363 78.8641ZM207.455 80.4464L206.02 80.0094L206.894 77.1395L208.329 77.5766L207.455 80.4464ZM200.185 75.3037L201.638 75.6759L200.894 78.5821L199.441 78.2098L200.185 75.3037ZM195.395 77.2121L193.936 76.8654L194.629 73.9466L196.088 74.2934L195.395 77.2121ZM187.864 72.4595L189.331 72.7684L188.714 75.7041L187.246 75.3951L187.864 72.4595ZM183.571 74.7189L182.087 74.4993L182.526 71.5316L184.01 71.7512L183.571 74.7189ZM177.064 70.9215L178.558 71.0589L178.283 74.0463L176.789 73.9089L177.064 70.9215ZM173.376 73.6337L171.88 73.528L172.091 70.5355L173.587 70.6412L173.376 73.6337ZM166.661 70.2298L168.159 70.3102L167.998 73.3059L166.5 73.2255L166.661 70.2298ZM163.046 73.0386L161.549 72.9556L161.715 69.9602L163.212 70.0431L163.046 73.0386ZM156.33 69.6237L157.827 69.7249L157.624 72.7181L156.128 72.6168L156.33 69.6237ZM152.177 72.3399L150.681 72.2358L150.889 69.243L152.385 69.3472L152.177 72.3399ZM143.529 68.7456L145.026 68.8495L144.818 71.8423L143.321 71.7384L143.529 68.7456ZM138.876 71.4037L137.381 71.278L137.633 68.2886L139.127 68.4143L138.876 71.4037ZM130.424 67.38L131.906 67.613L131.44 70.5766L129.958 70.3436L130.424 67.38ZM126.057 69.6841L124.58 69.4238L125.1 66.4693L126.577 66.7296L126.057 69.6841ZM119.905 65.4839L121.376 65.7769L120.79 68.7191L119.319 68.4261L119.905 65.4839ZM115.959 67.7333L114.492 67.4208L115.117 64.4866L116.584 64.7992L115.959 67.7333ZM109.957 63.3136L111.418 63.6538L110.737 66.5756L109.277 66.2354L109.957 63.3136ZM105.947 65.4512L104.487 65.1044L105.181 62.1857L106.64 62.5325L105.947 65.4512ZM100.015 60.9431L101.473 61.2948L100.77 64.2112L99.3114 63.8595L100.015 60.9431ZM95.3915 62.9105L93.9343 62.5546L94.646 59.6403L96.1032 59.9961L95.3915 62.9105ZM87.1438 57.7216L88.5933 58.1078L87.8209 61.0067L86.3714 60.6205L87.1438 57.7216ZM81.8765 59.3848L80.4336 58.9749L81.2535 56.0891L82.6964 56.499L81.8765 59.3848ZM73.8966 53.7954L75.3193 54.2706L74.3687 57.1161L72.946 56.6408L73.8966 53.7954ZM68.5273 55.0925L67.1196 54.5745L68.1555 51.759L69.5632 52.277L68.5273 55.0925ZM61.0958 48.7989L62.4582 49.4264L61.203 52.1513L59.8406 51.5237L61.0958 48.7989ZM55.84 49.5888L54.496 48.9228L55.8279 46.2347L57.172 46.9007L55.84 49.5888ZM49.7729 43.1371L51.1013 43.8338L49.7078 46.4905L48.3794 45.7938L49.7729 43.1371ZM44.6814 43.8175L43.3643 43.0997L44.7999 40.4655L46.117 41.1834L44.6814 43.8175ZM38.9285 37.0827L40.2152 37.8537L38.6732 40.4271L37.3865 39.6561L38.9285 37.0827ZM33.8053 37.4499L32.5383 36.6468L34.1445 34.113L35.4114 34.9161L33.8053 37.4499ZM28.5789 30.3011L29.7949 31.1795L28.0381 33.6113L26.8222 32.733L28.5789 30.3011ZM23.4436 30.2001L22.2601 29.2785L24.1034 26.9116L25.2868 27.8332L23.4436 30.2001ZM19.0232 22.5293L20.1242 23.5481L18.0867 25.75L16.9857 24.7313L19.0232 22.5293ZM13.9433 21.7752L12.894 20.7032L15.0381 18.6048L16.0872 19.6768L13.9433 21.7752ZM10.7092 13.5375L11.6297 14.7218L9.26111 16.5629L8.34055 15.3786L10.7092 13.5375ZM5.83197 11.9307L4.98938 10.6897L7.47134 9.00451L8.31393 10.2455L5.83197 11.9307ZM4.22922 3.22924L4.88904 4.57633L2.19485 5.89595L1.53503 4.54886L4.22922 3.22924ZM278.597 143.15C278.318 142.584 278.031 142.01 277.737 141.431L280.412 140.074C280.711 140.663 281.004 141.247 281.288 141.824L278.597 143.15ZM274.11 134.636C273.477 133.503 272.836 132.384 272.198 131.293L274.787 129.777C275.435 130.885 276.086 132.022 276.729 133.172L274.11 134.636ZM268.156 124.763C267.79 124.21 267.433 123.683 267.088 123.185L269.552 121.474C269.911 121.992 270.281 122.538 270.658 123.108L268.156 124.763ZM267.088 123.185C266.715 122.648 266.33 122.108 265.935 121.565L268.36 119.799C268.768 120.36 269.166 120.918 269.552 121.474L267.088 123.185ZM260.986 115.3C260.132 114.296 259.251 113.294 258.346 112.297L260.566 110.28C261.493 111.3 262.396 112.327 263.271 113.356L260.986 115.3ZM252.78 106.546C251.823 105.617 250.85 104.702 249.865 103.804L251.886 101.587C252.894 102.506 253.89 103.443 254.869 104.394L252.78 106.546ZM243.781 98.6182C242.728 97.782 241.67 96.9738 240.61 96.198L242.383 93.7777C243.475 94.5775 244.564 95.4093 245.646 96.2686L243.781 98.6182ZM233.987 91.7961C233.413 91.4552 232.842 91.1271 232.273 90.8122L233.727 88.1878C234.323 88.5178 234.92 88.861 235.519 89.2165L233.987 91.7961ZM232.273 90.8122C231.666 90.4759 231.059 90.1466 230.452 89.824L231.86 87.1747C232.482 87.5055 233.104 87.8431 233.727 88.1878L232.273 90.8122ZM223.007 86.1962C221.741 85.633 220.471 85.0939 219.194 84.5767L220.32 81.7961C221.628 82.3257 222.929 82.878 224.227 83.4553L223.007 86.1962ZM211.411 81.7092C210.104 81.272 208.786 80.8518 207.455 80.4464L208.329 77.5766C209.685 77.9895 211.029 78.4179 212.363 78.8641L211.411 81.7092ZM199.441 78.2098C198.108 77.8684 196.76 77.5365 195.395 77.2121L196.088 74.2934C197.47 74.6215 198.835 74.9576 200.185 75.3037L199.441 78.2098ZM187.246 75.3951C186.568 75.2525 185.885 75.1106 185.198 74.9693L185.802 72.0307C186.494 72.1729 187.181 72.3158 187.864 72.4595L187.246 75.3951ZM185.26 74.9808C184.686 74.8879 184.124 74.8008 183.571 74.7189L184.01 71.7512C184.576 71.8351 185.152 71.9242 185.74 72.0192L185.26 74.9808ZM176.789 73.9089C175.655 73.8046 174.524 73.7148 173.376 73.6337L173.587 70.6412C174.753 70.7235 175.905 70.8149 177.064 70.9215L176.789 73.9089ZM166.5 73.2255C165.396 73.1663 164.249 73.1052 163.046 73.0386L163.212 70.0431C164.412 70.1096 165.556 70.1705 166.661 70.2298L166.5 73.2255ZM156.128 72.6168C155.562 72.5785 154.984 72.5384 154.393 72.4962L154.607 69.5038C155.194 69.5457 155.768 69.5856 156.33 69.6237L156.128 72.6168ZM154.393 72.4962C153.625 72.4413 152.887 72.3894 152.177 72.3399L152.385 69.3472C153.097 69.3967 153.837 69.4488 154.607 69.5038L154.393 72.4962ZM143.321 71.7384C141.703 71.6261 140.248 71.5191 138.876 71.4037L139.127 68.4143C140.478 68.5279 141.917 68.6337 143.529 68.7456L143.321 71.7384ZM129.958 70.3436C129.249 70.2321 128.515 70.1109 127.745 69.9782L128.255 67.0218C129.011 67.1522 129.731 67.271 130.424 67.38L129.958 70.3436ZM127.745 69.9782C127.167 69.8785 126.605 69.7806 126.057 69.6841L126.577 66.7296C127.122 66.8254 127.68 66.9227 128.255 67.0218L127.745 69.9782ZM119.319 68.4261C118.194 68.202 117.085 67.9733 115.959 67.7333L116.584 64.7992C117.698 65.0364 118.794 65.2625 119.905 65.4839L119.319 68.4261ZM109.277 66.2354C108.224 65.9902 107.119 65.73 105.947 65.4512L106.64 62.5325C107.81 62.8105 108.91 63.0697 109.957 63.3136L109.277 66.2354ZM99.3114 63.8595C98.7708 63.7291 98.2167 63.5954 97.648 63.4581L98.352 60.5419C98.9205 60.6791 99.4745 60.8128 100.015 60.9431L99.3114 63.8595ZM97.648 63.4581C96.9006 63.2777 96.1481 63.0952 95.3915 62.9105L96.1032 59.9961C96.8567 60.1801 97.6065 60.3619 98.352 60.5419L97.648 63.4581ZM86.3714 60.6205C84.8768 60.2222 83.3768 59.811 81.8765 59.3848L82.6964 56.499C84.1789 56.9202 85.663 57.327 87.1438 57.7216L86.3714 60.6205ZM72.946 56.6408C71.4618 56.145 69.9872 55.6296 68.5273 55.0925L69.5632 52.277C70.9924 52.8028 72.4384 53.3083 73.8966 53.7954L72.946 56.6408ZM59.8406 51.5237C59.1248 51.1939 58.4156 50.857 57.7138 50.5126L59.0354 47.8194C59.7143 48.1526 60.4013 48.479 61.0958 48.7989L59.8406 51.5237ZM57.7138 50.5126C57.0918 50.2074 56.4671 49.8995 55.84 49.5888L57.172 46.9007C57.7952 47.2095 58.4165 47.5157 59.0354 47.8194L57.7138 50.5126ZM48.3794 45.7938C47.1483 45.1481 45.9146 44.4897 44.6814 43.8175L46.117 41.1834C47.3349 41.8471 48.5545 42.498 49.7729 43.1371L48.3794 45.7938ZM37.3865 39.6561C36.1856 38.9365 34.9909 38.2014 33.8053 37.4499L35.4114 34.9161C36.5744 35.6533 37.7477 36.3752 38.9285 37.0827L37.3865 39.6561ZM26.8222 32.733C25.6801 31.9079 24.5529 31.064 23.4436 30.2001L25.2868 27.8332C26.3662 28.6737 27.4644 29.496 28.5789 30.3011L26.8222 32.733ZM16.9857 24.7313C15.946 23.7692 14.9308 22.7842 13.9433 21.7752L16.0872 19.6768C17.0385 20.6488 18.0182 21.5993 19.0232 22.5293L16.9857 24.7313ZM8.34055 15.3786C7.46841 14.2566 6.63107 13.1076 5.83197 11.9307L8.31393 10.2455C9.07565 11.3674 9.87503 12.4644 10.7092 13.5375L8.34055 15.3786ZM1.53503 4.54886C1.22195 3.90967 0.919891 3.26316 0.629242 2.60921L3.3707 1.39079C3.64606 2.01037 3.93234 2.62314 4.22922 3.22924L1.53503 4.54886Z" fill="#1268B3"/>
</svg>
